<?xml version="1.0" encoding="utf-8" standalone="no"?>
<!DOCTYPE svg PUBLIC "-//W3C//DTD SVG 1.1//EN"
  "http://www.w3.org/Graphics/SVG/1.1/DTD/svg11.dtd">
<svg xmlns:xlink="http://www.w3.org/1999/xlink" width="348.689953pt" height="187.2275pt" viewBox="0 0 348.689953 187.2275" xmlns="http://www.w3.org/2000/svg" version="1.1">
 <metadata>
  <rdf:RDF xmlns:dc="http://purl.org/dc/elements/1.1/" xmlns:cc="http://creativecommons.org/ns#" xmlns:rdf="http://www.w3.org/1999/02/22-rdf-syntax-ns#">
   <cc:Work>
    <dc:type rdf:resource="http://purl.org/dc/dcmitype/StillImage"/>
    <dc:date>2024-09-05T16:06:40.934870</dc:date>
    <dc:format>image/svg+xml</dc:format>
    <dc:creator>
     <cc:Agent>
      <dc:title>Matplotlib v3.8.2, https://matplotlib.org/</dc:title>
     </cc:Agent>
    </dc:creator>
   </cc:Work>
  </rdf:RDF>
 </metadata>
 <defs>
  <style type="text/css">*{stroke-linejoin: round; stroke-linecap: butt}</style>
 </defs>
 <g id="figure_1">
  <g id="patch_1">
   <path d="M 0 187.2275 
L 348.689953 187.2275 
L 348.689953 0 
L 0 0 
z
" style="fill: #ffffff"/>
  </g>
  <g id="axes_1">
   <g id="patch_2">
    <path d="M 58.01375 145.8 
L 337.01375 145.8 
L 337.01375 7.2 
L 58.01375 7.2 
z
" style="fill: #ffffff"/>
   </g>
   <g id="PolyCollection_1">
    <defs>
     <path id="m60d508d859" d="M 70.695568 -173.7275 
L 70.695568 -173.659876 
L 71.214252 -173.214609 
L 71.732936 -172.680139 
L 72.251619 -172.318616 
L 72.770303 -171.950171 
L 73.288987 -171.568714 
L 73.807671 -171.174011 
L 74.326355 -170.764078 
L 74.845038 -170.337797 
L 75.363722 -169.890168 
L 75.882406 -169.416934 
L 76.40109 -168.920191 
L 76.919773 -168.406001 
L 77.438457 -167.890729 
L 77.957141 -167.366103 
L 78.475825 -166.813368 
L 78.994509 -166.250142 
L 79.513192 -166.016834 
L 80.031876 -165.474023 
L 80.55056 -164.934253 
L 81.069244 -164.438246 
L 81.587927 -163.899766 
L 82.106611 -163.380083 
L 82.625295 -162.889854 
L 83.143979 -162.408961 
L 83.662662 -161.946249 
L 84.181346 -161.502742 
L 84.70003 -160.845077 
L 85.218714 -160.47429 
L 85.737398 -159.830936 
L 86.256081 -159.462715 
L 86.774765 -159.077236 
L 87.293449 -158.505497 
L 87.812133 -158.101904 
L 88.330816 -157.505575 
L 88.8495 -157.112911 
L 89.368184 -156.679226 
L 89.886868 -156.364408 
L 90.405551 -155.88692 
L 90.924235 -155.418181 
L 91.442919 -154.835503 
L 91.961603 -154.660672 
L 92.480287 -154.360328 
L 92.99897 -154.095593 
L 93.517654 -153.57863 
L 94.036338 -153.209121 
L 94.555022 -152.704032 
L 95.073705 -152.316897 
L 95.592389 -152.032903 
L 96.111073 -151.713785 
L 96.629757 -151.381883 
L 97.14844 -151.154596 
L 97.667124 -150.638105 
L 98.185808 -150.328389 
L 98.704492 -149.886169 
L 99.223176 -149.4458 
L 99.741859 -149.2256 
L 100.260543 -148.839041 
L 100.779227 -148.551927 
L 101.297911 -148.178998 
L 101.816594 -148.136261 
L 102.335278 -147.951631 
L 102.853962 -147.662888 
L 103.372646 -147.410733 
L 103.891329 -147.105085 
L 104.410013 -146.879675 
L 104.928697 -146.547704 
L 105.447381 -146.14475 
L 105.966065 -145.84176 
L 106.484748 -145.604976 
L 107.003432 -145.395443 
L 107.522116 -145.126295 
L 108.0408 -145.064764 
L 108.559483 -144.688222 
L 109.078167 -144.34028 
L 109.596851 -144.260525 
L 110.115535 -143.980028 
L 110.634218 -143.820819 
L 111.152902 -143.641508 
L 111.671586 -143.424628 
L 112.19027 -143.21805 
L 112.708954 -142.777891 
L 113.227637 -142.66113 
L 113.746321 -142.545053 
L 114.265005 -142.211891 
L 114.783689 -141.81824 
L 115.302372 -141.569098 
L 115.821056 -141.666492 
L 116.33974 -141.651022 
L 116.858424 -141.309266 
L 117.377108 -141.234303 
L 117.895791 -140.97002 
L 118.414475 -140.726787 
L 118.933159 -140.368217 
L 119.451843 -139.83354 
L 119.970526 -139.285258 
L 120.48921 -138.978755 
L 121.007894 -139.172246 
L 121.526578 -138.92932 
L 122.045261 -138.729308 
L 122.563945 -138.345414 
L 123.082629 -138.154582 
L 123.601313 -138.789215 
L 124.119997 -138.411054 
L 124.63868 -138.669079 
L 125.157364 -138.523644 
L 125.676048 -138.549348 
L 126.194732 -138.286223 
L 126.713415 -138.310699 
L 127.232099 -138.165706 
L 127.750783 -138.123601 
L 128.269467 -138.161428 
L 128.78815 -137.970379 
L 129.306834 -137.857005 
L 129.825518 -137.712166 
L 130.344202 -137.676748 
L 130.862886 -137.367778 
L 131.381569 -137.27523 
L 131.900253 -136.986749 
L 132.418937 -136.925444 
L 132.937621 -136.470026 
L 133.456304 -136.388964 
L 133.974988 -136.558845 
L 134.493672 -136.834509 
L 135.012356 -136.940322 
L 135.531039 -136.925977 
L 136.049723 -136.727357 
L 136.568407 -135.682018 
L 137.087091 -136.265794 
L 137.605775 -135.699985 
L 138.124458 -136.031026 
L 138.643142 -135.583253 
L 139.161826 -135.316361 
L 139.68051 -135.194397 
L 140.199193 -135.044987 
L 140.717877 -134.859774 
L 141.236561 -134.634881 
L 141.755245 -134.635131 
L 142.273928 -134.960572 
L 142.792612 -134.919008 
L 143.311296 -135.380068 
L 143.82998 -135.139874 
L 144.348664 -135.110181 
L 144.867347 -135.25579 
L 145.386031 -135.056575 
L 145.904715 -134.915334 
L 146.423399 -134.846158 
L 146.942082 -134.791895 
L 147.460766 -134.789008 
L 147.97945 -134.491625 
L 148.498134 -134.484965 
L 149.016817 -133.383784 
L 149.535501 -132.43105 
L 150.054185 -131.7804 
L 150.572869 -131.745607 
L 151.091553 -131.336374 
L 151.610236 -131.166565 
L 152.12892 -131.094546 
L 152.647604 -130.859296 
L 153.166288 -130.943485 
L 153.684971 -131.115869 
L 154.203655 -130.961754 
L 154.722339 -130.811182 
L 155.241023 -130.742699 
L 155.759706 -130.608989 
L 156.27839 -130.755137 
L 156.797074 -130.749119 
L 157.315758 -130.725752 
L 157.834442 -131.149326 
L 158.353125 -131.307913 
L 158.871809 -131.228701 
L 159.390493 -131.057225 
L 159.909177 -130.843679 
L 160.42786 -130.700146 
L 160.946544 -131.066766 
L 161.465228 -131.331726 
L 161.983912 -131.181579 
L 162.502596 -131.109248 
L 163.021279 -131.148062 
L 163.539963 -131.299327 
L 164.058647 -131.218788 
L 164.577331 -131.912853 
L 165.096014 -131.607738 
L 165.614698 -132.545587 
L 166.133382 -132.359567 
L 166.652066 -131.617383 
L 167.170749 -133.007841 
L 167.689433 -132.506029 
L 168.208117 -132.136315 
L 168.726801 -130.162441 
L 169.245485 -130.366167 
L 169.764168 -130.900384 
L 170.282852 -130.780679 
L 170.801536 -130.361737 
L 171.32022 -130.374736 
L 171.838903 -129.994087 
L 172.357587 -130.373287 
L 172.876271 -130.131171 
L 173.394955 -130.06368 
L 173.913638 -130.173579 
L 174.432322 -130.254003 
L 174.951006 -130.300318 
L 175.46969 -130.2846 
L 175.988374 -129.918715 
L 176.507057 -130.653821 
L 177.025741 -130.835857 
L 177.544425 -130.961339 
L 178.063109 -130.891888 
L 178.581792 -131.039486 
L 179.100476 -131.118055 
L 179.61916 -131.185959 
L 180.137844 -131.078891 
L 180.656527 -130.793794 
L 181.175211 -130.671404 
L 181.693895 -130.370278 
L 182.212579 -130.645406 
L 182.731263 -130.564152 
L 183.249946 -130.464401 
L 183.76863 -130.143814 
L 184.287314 -129.522169 
L 184.805998 -128.955068 
L 185.324681 -128.770933 
L 185.843365 -128.448738 
L 186.362049 -128.519892 
L 186.880733 -128.453767 
L 187.399416 -128.496453 
L 187.9181 -127.748451 
L 188.436784 -128.718448 
L 188.955468 -128.622915 
L 189.474152 -128.452995 
L 189.992835 -128.260034 
L 190.511519 -128.239093 
L 191.030203 -128.34735 
L 191.548887 -128.238751 
L 192.06757 -128.143444 
L 192.586254 -128.09084 
L 193.104938 -128.037999 
L 193.623622 -127.970865 
L 194.142305 -127.818293 
L 194.660989 -128.255293 
L 195.179673 -128.623105 
L 195.698357 -128.437036 
L 196.217041 -128.964577 
L 196.735724 -128.40105 
L 197.254408 -128.424682 
L 197.773092 -128.140003 
L 198.291776 -128.156299 
L 198.810459 -127.724505 
L 199.329143 -127.631945 
L 199.847827 -127.451591 
L 200.366511 -127.5085 
L 200.885195 -127.261698 
L 201.403878 -126.987278 
L 201.922562 -126.964683 
L 202.441246 -126.996601 
L 202.95993 -127.047476 
L 203.478613 -126.902656 
L 203.997297 -127.101198 
L 204.515981 -126.609685 
L 205.034665 -126.609706 
L 205.553348 -126.711251 
L 206.072032 -127.357841 
L 206.590716 -127.141979 
L 207.1094 -126.813483 
L 207.628084 -127.239941 
L 208.146767 -127.594464 
L 208.665451 -127.507587 
L 209.184135 -127.667445 
L 209.702819 -127.583741 
L 210.221502 -127.631152 
L 210.740186 -127.364508 
L 211.25887 -127.480351 
L 211.777554 -127.26208 
L 212.296237 -127.555736 
L 212.814921 -127.990126 
L 213.333605 -128.167027 
L 213.852289 -128.36142 
L 214.370973 -128.505392 
L 214.889656 -128.719652 
L 215.40834 -128.6605 
L 215.927024 -128.320003 
L 216.445708 -128.376428 
L 216.964391 -128.074017 
L 217.483075 -127.869468 
L 218.001759 -127.123147 
L 218.520443 -127.21747 
L 219.039126 -126.713162 
L 219.55781 -126.380789 
L 220.076494 -125.844284 
L 220.595178 -125.738905 
L 221.113862 -125.510791 
L 221.632545 -125.267455 
L 222.151229 -125.142258 
L 222.669913 -124.820507 
L 223.188597 -124.509607 
L 223.70728 -124.493454 
L 224.225964 -124.503259 
L 224.744648 -124.074298 
L 225.263332 -124.021672 
L 225.782015 -123.951158 
L 226.300699 -124.336351 
L 226.819383 -124.164333 
L 227.338067 -124.173478 
L 227.856751 -115.56571 
L 228.375434 -124.927103 
L 228.894118 -125.093661 
L 229.412802 -125.682735 
L 229.931486 -125.469294 
L 230.450169 -123.805078 
L 230.968853 -125.673817 
L 231.487537 -126.162188 
L 232.006221 -126.006066 
L 232.524904 -126.202496 
L 233.043588 -126.007992 
L 233.562272 -126.020537 
L 234.080956 -125.893628 
L 234.59964 -126.028544 
L 235.118323 -126.012416 
L 235.637007 -126.367687 
L 236.155691 -126.415819 
L 236.674375 -126.024827 
L 237.193058 -126.419346 
L 237.711742 -126.247922 
L 238.230426 -126.290931 
L 238.74911 -125.916984 
L 239.267794 -126.375425 
L 239.786477 -126.285338 
L 240.305161 -126.608328 
L 240.823845 -127.744735 
L 241.342529 -127.463285 
L 241.861212 -127.1298 
L 242.379896 -126.516435 
L 242.89858 -126.401464 
L 243.417264 -124.303732 
L 243.935947 -124.166752 
L 244.454631 -124.858811 
L 244.973315 -125.201796 
L 245.491999 -125.460936 
L 246.010683 -125.801537 
L 246.529366 -125.942882 
L 247.04805 -125.576682 
L 247.566734 -125.742876 
L 248.085418 -125.641226 
L 248.604101 -125.545038 
L 249.122785 -125.353223 
L 249.641469 -125.794776 
L 250.160153 -112.220701 
L 250.678836 -121.223362 
L 251.19752 -125.353914 
L 251.716204 -126.368313 
L 252.234888 -126.223632 
L 252.753572 -125.394877 
L 253.272255 -122.793616 
L 253.790939 -111.988309 
L 254.309623 -122.044242 
L 254.828307 -119.56776 
L 255.34699 -122.598597 
L 255.865674 -123.270482 
L 256.384358 -122.974228 
L 256.903042 -122.75133 
L 257.421725 -123.623803 
L 257.940409 -123.583138 
L 258.459093 -124.807154 
L 258.977777 -124.710275 
L 259.496461 -125.357296 
L 260.015144 -125.773555 
L 260.533828 -125.990731 
L 261.052512 -126.05557 
L 261.571196 -126.219626 
L 262.089879 -126.768766 
L 262.608563 -126.757802 
L 263.127247 -127.513587 
L 263.645931 -127.230056 
L 264.164614 -127.547426 
L 264.683298 -127.114766 
L 265.201982 -126.99336 
L 265.720666 -126.766998 
L 266.23935 -124.665414 
L 266.758033 -126.006237 
L 267.276717 -124.94348 
L 267.795401 -125.28392 
L 268.314085 -124.232322 
L 268.832768 -124.123296 
L 269.351452 -124.161605 
L 269.870136 -124.545536 
L 270.38882 -125.296837 
L 270.907503 -125.128928 
L 271.426187 -124.973842 
L 271.944871 -124.574702 
L 272.463555 -124.88284 
L 272.982239 -124.789531 
L 273.500922 -124.667428 
L 274.019606 -124.88999 
L 274.53829 -125.125679 
L 275.056974 -124.86392 
L 275.575657 -124.445077 
L 276.094341 -123.989112 
L 276.613025 -123.838648 
L 277.131709 -123.746503 
L 277.650392 -123.912828 
L 278.169076 -123.537298 
L 278.68776 -123.535006 
L 279.206444 -123.31386 
L 279.725128 -123.108102 
L 280.243811 -123.175726 
L 280.762495 -123.243053 
L 281.281179 -124.636848 
L 281.799863 -123.457373 
L 282.318546 -124.072139 
L 282.83723 -124.040303 
L 283.355914 -124.797122 
L 283.874598 -124.205994 
L 284.393282 -124.219731 
L 284.911965 -124.722236 
L 285.430649 -124.774521 
L 285.949333 -125.280788 
L 286.468017 -125.372446 
L 286.9867 -124.854334 
L 287.505384 -124.561059 
L 288.024068 -125.868653 
L 288.542752 -126.306329 
L 289.061435 -126.313446 
L 289.580119 -125.692261 
L 290.098803 -125.686695 
L 290.617487 -124.964368 
L 291.136171 -124.919088 
L 291.654854 -124.514828 
L 292.173538 -124.562602 
L 292.692222 -124.766819 
L 293.210906 -124.49226 
L 293.729589 -124.46412 
L 294.248273 -124.392153 
L 294.766957 -124.225693 
L 295.285641 -124.174697 
L 295.804324 -124.633237 
L 296.323008 -124.526178 
L 296.841692 -124.696799 
L 297.360376 -124.774577 
L 297.87906 -125.53087 
L 298.397743 -125.786194 
L 298.916427 -125.326174 
L 299.435111 -125.152066 
L 299.953795 -125.00279 
L 300.472478 -124.937021 
L 300.991162 -124.736252 
L 301.509846 -124.445621 
L 302.02853 -124.215089 
L 302.547213 -124.334953 
L 303.065897 -124.517242 
L 303.584581 -124.575713 
L 304.103265 -124.362848 
L 304.621949 -124.212986 
L 305.140632 -124.027115 
L 305.659316 -123.873735 
L 306.178 -123.918685 
L 306.696684 -123.80585 
L 307.215367 -123.472464 
L 307.734051 -123.36307 
L 308.252735 -123.154054 
L 308.771419 -123.254976 
L 309.290102 -123.455365 
L 309.808786 -119.538348 
L 310.32747 -118.107828 
L 310.846154 -120.320124 
L 311.364838 -119.0327 
L 311.883521 -118.801767 
L 312.402205 -117.895266 
L 312.920889 -118.30095 
L 313.439573 -117.999992 
L 313.958256 -118.229143 
L 314.47694 -118.359132 
L 314.995624 -118.368958 
L 315.514308 -118.624655 
L 316.032991 -119.035912 
L 316.551675 -119.107696 
L 317.070359 -119.130982 
L 317.589043 -119.168597 
L 318.107727 -119.328561 
L 318.62641 -120.342304 
L 319.145094 -121.338952 
L 319.663778 -121.621436 
L 320.182462 -121.710988 
L 320.701145 -121.757947 
L 321.219829 -122.42908 
L 321.738513 -122.940981 
L 322.257197 -122.390043 
L 322.775881 -122.234349 
L 323.294564 -122.39605 
L 323.813248 -123.278063 
L 324.331932 -124.340087 
L 324.331932 -131.925822 
L 324.331932 -131.925822 
L 323.813248 -131.389652 
L 323.294564 -131.39143 
L 322.775881 -131.629094 
L 322.257197 -131.837274 
L 321.738513 -132.141611 
L 321.219829 -131.743969 
L 320.701145 -131.737662 
L 320.182462 -131.929615 
L 319.663778 -131.925613 
L 319.145094 -132.135118 
L 318.62641 -132.199699 
L 318.107727 -132.218517 
L 317.589043 -132.309709 
L 317.070359 -132.698205 
L 316.551675 -132.714264 
L 316.032991 -132.870566 
L 315.514308 -133.298772 
L 314.995624 -133.612713 
L 314.47694 -133.842308 
L 313.958256 -134.03476 
L 313.439573 -134.309824 
L 312.920889 -134.380083 
L 312.402205 -134.514521 
L 311.883521 -134.06457 
L 311.364838 -134.114413 
L 310.846154 -133.343503 
L 310.32747 -134.904484 
L 309.808786 -134.182322 
L 309.290102 -128.729619 
L 308.771419 -128.816027 
L 308.252735 -128.964916 
L 307.734051 -128.780196 
L 307.215367 -128.843757 
L 306.696684 -128.681012 
L 306.178 -128.984088 
L 305.659316 -129.188641 
L 305.140632 -129.225389 
L 304.621949 -129.158772 
L 304.103265 -129.655226 
L 303.584581 -129.824387 
L 303.065897 -129.9042 
L 302.547213 -130.115464 
L 302.02853 -129.917793 
L 301.509846 -130.275234 
L 300.991162 -130.399237 
L 300.472478 -130.424339 
L 299.953795 -130.787227 
L 299.435111 -130.913575 
L 298.916427 -131.051633 
L 298.397743 -131.018946 
L 297.87906 -130.721676 
L 297.360376 -130.989648 
L 296.841692 -131.098457 
L 296.323008 -130.962987 
L 295.804324 -131.328514 
L 295.285641 -132.369861 
L 294.766957 -131.423058 
L 294.248273 -130.141694 
L 293.729589 -130.189924 
L 293.210906 -130.03755 
L 292.692222 -131.47187 
L 292.173538 -130.690922 
L 291.654854 -130.653333 
L 291.136171 -130.563641 
L 290.617487 -130.74341 
L 290.098803 -130.782411 
L 289.580119 -132.353745 
L 289.061435 -131.754365 
L 288.542752 -130.78384 
L 288.024068 -130.708216 
L 287.505384 -131.297786 
L 286.9867 -131.139236 
L 286.468017 -131.658664 
L 285.949333 -131.729262 
L 285.430649 -132.057087 
L 284.911965 -132.269916 
L 284.393282 -132.315328 
L 283.874598 -132.476219 
L 283.355914 -132.880691 
L 282.83723 -132.84631 
L 282.318546 -133.203698 
L 281.799863 -133.762064 
L 281.281179 -131.697684 
L 280.762495 -131.432863 
L 280.243811 -131.509512 
L 279.725128 -131.440635 
L 279.206444 -131.682237 
L 278.68776 -131.810876 
L 278.169076 -132.120265 
L 277.650392 -132.2422 
L 277.131709 -132.434933 
L 276.613025 -132.588352 
L 276.094341 -132.787632 
L 275.575657 -132.726838 
L 275.056974 -133.073917 
L 274.53829 -133.421466 
L 274.019606 -133.526179 
L 273.500922 -133.640952 
L 272.982239 -134.156445 
L 272.463555 -134.304467 
L 271.944871 -134.187394 
L 271.426187 -134.592196 
L 270.907503 -134.649565 
L 270.38882 -135.122587 
L 269.870136 -136.459512 
L 269.351452 -135.164534 
L 268.832768 -135.69862 
L 268.314085 -135.836394 
L 267.795401 -134.381708 
L 267.276717 -133.549338 
L 266.758033 -132.792385 
L 266.23935 -134.566511 
L 265.720666 -132.342537 
L 265.201982 -131.224099 
L 264.683298 -131.346211 
L 264.164614 -131.576119 
L 263.645931 -132.009718 
L 263.127247 -132.414531 
L 262.608563 -132.323205 
L 262.089879 -132.586 
L 261.571196 -132.938242 
L 261.052512 -133.174972 
L 260.533828 -133.274333 
L 260.015144 -133.494626 
L 259.496461 -133.927917 
L 258.977777 -133.739826 
L 258.459093 -133.967642 
L 257.940409 -134.225954 
L 257.421725 -134.301864 
L 256.903042 -135.152486 
L 256.384358 -134.764358 
L 255.865674 -134.827418 
L 255.34699 -135.190292 
L 254.828307 -137.252783 
L 254.309623 -135.951223 
L 253.790939 -140.890859 
L 253.272255 -136.1031 
L 252.753572 -133.353432 
L 252.234888 -133.323058 
L 251.716204 -133.877908 
L 251.19752 -134.198817 
L 250.678836 -138.625193 
L 250.160153 -142.528323 
L 249.641469 -133.754311 
L 249.122785 -133.808809 
L 248.604101 -133.871664 
L 248.085418 -134.059539 
L 247.566734 -134.268731 
L 247.04805 -134.56727 
L 246.529366 -134.252972 
L 246.010683 -134.468151 
L 245.491999 -134.225228 
L 244.973315 -134.277466 
L 244.454631 -134.222284 
L 243.935947 -134.700888 
L 243.417264 -136.517136 
L 242.89858 -132.783922 
L 242.379896 -132.942 
L 241.861212 -132.507344 
L 241.342529 -131.796956 
L 240.823845 -131.552757 
L 240.305161 -131.69996 
L 239.786477 -131.928319 
L 239.267794 -132.382122 
L 238.74911 -132.538117 
L 238.230426 -132.747116 
L 237.711742 -133.093992 
L 237.193058 -133.323071 
L 236.674375 -133.433702 
L 236.155691 -133.485064 
L 235.637007 -133.576161 
L 235.118323 -133.956906 
L 234.59964 -134.060019 
L 234.080956 -134.274501 
L 233.562272 -134.502919 
L 233.043588 -134.16782 
L 232.524904 -134.000138 
L 232.006221 -134.244772 
L 231.487537 -134.239915 
L 230.968853 -134.322835 
L 230.450169 -138.508516 
L 229.931486 -134.523021 
L 229.412802 -133.837756 
L 228.894118 -132.790503 
L 228.375434 -132.270647 
L 227.856751 -139.653998 
L 227.338067 -131.888389 
L 226.819383 -132.133177 
L 226.300699 -132.345774 
L 225.782015 -132.905364 
L 225.263332 -132.629922 
L 224.744648 -132.844363 
L 224.225964 -132.155661 
L 223.70728 -132.349161 
L 223.188597 -132.626313 
L 222.669913 -132.677963 
L 222.151229 -132.906176 
L 221.632545 -133.128074 
L 221.113862 -133.532098 
L 220.595178 -133.611288 
L 220.076494 -133.722429 
L 219.55781 -133.196045 
L 219.039126 -132.771725 
L 218.520443 -131.844479 
L 218.001759 -132.852497 
L 217.483075 -131.503016 
L 216.964391 -131.662461 
L 216.445708 -131.538985 
L 215.927024 -132.056853 
L 215.40834 -131.523215 
L 214.889656 -131.590596 
L 214.370973 -132.098601 
L 213.852289 -131.74098 
L 213.333605 -131.819311 
L 212.814921 -132.037345 
L 212.296237 -132.256372 
L 211.777554 -132.464847 
L 211.25887 -132.801429 
L 210.740186 -132.657327 
L 210.221502 -132.797471 
L 209.702819 -132.763172 
L 209.184135 -133.034381 
L 208.665451 -133.290556 
L 208.146767 -132.935238 
L 207.628084 -132.846229 
L 207.1094 -132.636624 
L 206.590716 -132.933863 
L 206.072032 -132.841479 
L 205.553348 -132.842591 
L 205.034665 -132.970054 
L 204.515981 -132.240835 
L 203.997297 -132.376844 
L 203.478613 -132.442211 
L 202.95993 -132.719151 
L 202.441246 -132.858268 
L 201.922562 -132.855208 
L 201.403878 -132.931338 
L 200.885195 -133.075219 
L 200.366511 -133.158984 
L 199.847827 -133.497086 
L 199.329143 -133.734123 
L 198.810459 -133.948301 
L 198.291776 -133.683179 
L 197.773092 -133.515835 
L 197.254408 -133.058038 
L 196.735724 -133.225022 
L 196.217041 -133.444876 
L 195.698357 -133.51932 
L 195.179673 -133.472447 
L 194.660989 -133.546872 
L 194.142305 -133.746493 
L 193.623622 -134.044162 
L 193.104938 -133.93733 
L 192.586254 -134.179179 
L 192.06757 -134.546638 
L 191.548887 -134.80531 
L 191.030203 -134.95818 
L 190.511519 -134.917156 
L 189.992835 -135.204108 
L 189.474152 -135.089098 
L 188.955468 -134.860564 
L 188.436784 -134.561155 
L 187.9181 -136.774188 
L 187.399416 -134.472899 
L 186.880733 -134.57597 
L 186.362049 -134.87349 
L 185.843365 -134.886686 
L 185.324681 -135.009101 
L 184.805998 -135.119785 
L 184.287314 -134.78353 
L 183.76863 -134.162252 
L 183.249946 -134.580232 
L 182.731263 -134.518633 
L 182.212579 -134.347956 
L 181.693895 -134.745995 
L 181.175211 -134.879364 
L 180.656527 -135.221403 
L 180.137844 -135.673819 
L 179.61916 -135.913009 
L 179.100476 -137.03779 
L 178.581792 -136.589991 
L 178.063109 -135.841079 
L 177.544425 -136.227094 
L 177.025741 -136.140971 
L 176.507057 -136.231881 
L 175.988374 -136.287104 
L 175.46969 -136.263282 
L 174.951006 -136.487785 
L 174.432322 -136.756996 
L 173.913638 -137.043177 
L 173.394955 -137.408531 
L 172.876271 -137.851057 
L 172.357587 -138.213351 
L 171.838903 -139.241513 
L 171.32022 -138.761903 
L 170.801536 -139.173683 
L 170.282852 -139.092436 
L 169.764168 -139.249141 
L 169.245485 -140.497572 
L 168.726801 -141.106516 
L 168.208117 -139.086339 
L 167.689433 -138.301457 
L 167.170749 -138.165579 
L 166.652066 -138.589907 
L 166.133382 -137.559102 
L 165.614698 -137.683293 
L 165.096014 -138.722529 
L 164.577331 -137.879446 
L 164.058647 -137.05727 
L 163.539963 -136.9361 
L 163.021279 -137.335106 
L 162.502596 -137.482114 
L 161.983912 -137.546973 
L 161.465228 -137.202111 
L 160.946544 -137.230148 
L 160.42786 -137.615449 
L 159.909177 -137.880734 
L 159.390493 -137.965347 
L 158.871809 -137.863898 
L 158.353125 -138.116235 
L 157.834442 -137.871829 
L 157.315758 -138.044303 
L 156.797074 -138.423535 
L 156.27839 -138.457186 
L 155.759706 -138.589742 
L 155.241023 -138.836047 
L 154.722339 -139.030059 
L 154.203655 -139.375357 
L 153.684971 -139.576593 
L 153.166288 -139.831746 
L 152.647604 -140.139695 
L 152.12892 -140.12472 
L 151.610236 -139.86562 
L 151.091553 -139.960686 
L 150.572869 -139.868551 
L 150.054185 -140.159508 
L 149.535501 -139.870832 
L 149.016817 -138.983957 
L 148.498134 -137.366114 
L 147.97945 -136.984194 
L 147.460766 -137.584681 
L 146.942082 -137.404979 
L 146.423399 -137.509508 
L 145.904715 -137.639582 
L 145.386031 -138.030755 
L 144.867347 -137.957411 
L 144.348664 -137.935005 
L 143.82998 -138.022604 
L 143.311296 -138.241468 
L 142.792612 -138.451066 
L 142.273928 -138.834638 
L 141.755245 -138.796772 
L 141.236561 -139.206622 
L 140.717877 -139.547344 
L 140.199193 -139.791107 
L 139.68051 -140.260469 
L 139.161826 -140.459715 
L 138.643142 -140.684769 
L 138.124458 -140.719248 
L 137.605775 -141.618524 
L 137.087091 -140.996596 
L 136.568407 -142.583875 
L 136.049723 -141.240598 
L 135.531039 -140.929697 
L 135.012356 -140.841258 
L 134.493672 -139.923507 
L 133.974988 -139.97925 
L 133.456304 -140.261631 
L 132.937621 -140.558709 
L 132.418937 -140.463747 
L 131.900253 -139.710771 
L 131.381569 -139.56664 
L 130.862886 -140.000768 
L 130.344202 -140.079077 
L 129.825518 -140.368146 
L 129.306834 -140.501337 
L 128.78815 -140.764788 
L 128.269467 -140.941025 
L 127.750783 -141.029346 
L 127.232099 -141.067834 
L 126.713415 -141.26194 
L 126.194732 -141.425757 
L 125.676048 -141.77575 
L 125.157364 -141.813324 
L 124.63868 -142.459486 
L 124.119997 -142.376882 
L 123.601313 -142.691827 
L 123.082629 -142.711846 
L 122.563945 -143.017298 
L 122.045261 -143.039712 
L 121.526578 -143.278563 
L 121.007894 -143.893714 
L 120.48921 -144.425639 
L 119.970526 -144.599101 
L 119.451843 -143.783926 
L 118.933159 -142.636813 
L 118.414475 -142.955657 
L 117.895791 -143.192877 
L 117.377108 -143.43085 
L 116.858424 -143.671857 
L 116.33974 -143.985824 
L 115.821056 -144.221862 
L 115.302372 -144.454153 
L 114.783689 -144.724276 
L 114.265005 -144.979207 
L 113.746321 -145.193693 
L 113.227637 -145.452766 
L 112.708954 -145.75711 
L 112.19027 -145.885215 
L 111.671586 -145.819178 
L 111.152902 -145.708771 
L 110.634218 -146.065309 
L 110.115535 -146.305404 
L 109.596851 -146.415457 
L 109.078167 -146.817819 
L 108.559483 -147.216971 
L 108.0408 -147.123561 
L 107.522116 -147.289199 
L 107.003432 -147.649235 
L 106.484748 -147.990916 
L 105.966065 -148.438095 
L 105.447381 -148.691184 
L 104.928697 -149.032018 
L 104.410013 -149.309264 
L 103.891329 -149.898234 
L 103.372646 -150.078416 
L 102.853962 -150.623717 
L 102.335278 -150.459161 
L 101.816594 -150.607062 
L 101.297911 -150.752224 
L 100.779227 -150.552833 
L 100.260543 -150.798343 
L 99.741859 -151.174355 
L 99.223176 -151.58375 
L 98.704492 -152.014934 
L 98.185808 -152.321938 
L 97.667124 -152.809946 
L 97.14844 -152.555666 
L 96.629757 -152.868803 
L 96.111073 -153.2517 
L 95.592389 -153.650097 
L 95.073705 -153.867234 
L 94.555022 -154.197402 
L 94.036338 -154.560506 
L 93.517654 -154.971618 
L 92.99897 -155.389097 
L 92.480287 -155.810989 
L 91.961603 -156.178473 
L 91.442919 -157.041435 
L 90.924235 -156.99988 
L 90.405551 -157.356355 
L 89.886868 -157.867652 
L 89.368184 -158.324882 
L 88.8495 -158.611683 
L 88.330816 -159.024497 
L 87.812133 -159.338048 
L 87.293449 -159.722023 
L 86.774765 -160.098254 
L 86.256081 -160.517387 
L 85.737398 -161.068427 
L 85.218714 -161.558432 
L 84.70003 -161.856805 
L 84.181346 -162.41084 
L 83.662662 -162.849022 
L 83.143979 -163.322058 
L 82.625295 -163.779009 
L 82.106611 -164.347689 
L 81.587927 -164.737829 
L 81.069244 -165.225031 
L 80.55056 -165.722875 
L 80.031876 -166.193985 
L 79.513192 -166.699501 
L 78.994509 -167.30685 
L 78.475825 -167.791533 
L 77.957141 -168.299028 
L 77.438457 -168.828626 
L 76.919773 -169.32079 
L 76.40109 -169.792655 
L 75.882406 -170.241364 
L 75.363722 -170.660746 
L 74.845038 -171.053852 
L 74.326355 -171.426433 
L 73.807671 -171.780701 
L 73.288987 -172.119644 
L 72.770303 -172.445193 
L 72.251619 -172.761826 
L 71.732936 -173.070194 
L 71.214252 -173.327173 
L 70.695568 -173.7275 
z
" style="stroke: #55c667; stroke-opacity: 0.2"/>
    </defs>
    <g clip-path="url(#pb26f8b054c)">
     <use xlink:href="#m60d508d859" x="0" y="187.2275" style="fill: #55c667; fill-opacity: 0.2; stroke: #55c667; stroke-opacity: 0.2"/>
    </g>
   </g>
   <g id="PolyCollection_2">
    <path d="M 70.695568 13.518126 
L 70.695568 13.546194 
L 71.214252 13.681123 
L 71.732936 13.982965 
L 72.251619 14.386627 
L 72.770303 14.77489 
L 73.288987 15.163987 
L 73.807671 15.577216 
L 74.326355 15.978048 
L 74.845038 16.423323 
L 75.363722 16.714711 
L 75.882406 17.070994 
L 76.40109 17.353324 
L 76.919773 17.909517 
L 77.438457 18.376137 
L 77.957141 18.905512 
L 78.475825 19.441944 
L 78.994509 19.965212 
L 79.513192 20.787955 
L 80.031876 20.977308 
L 80.55056 21.344053 
L 81.069244 22.228767 
L 81.587927 22.839855 
L 82.106611 23.464754 
L 82.625295 24.120394 
L 83.143979 24.534427 
L 83.662662 25.155393 
L 84.181346 25.916005 
L 84.70003 26.464879 
L 85.218714 27.13172 
L 85.737398 27.950983 
L 86.256081 28.411416 
L 86.774765 28.753069 
L 87.293449 29.564989 
L 87.812133 30.181991 
L 88.330816 31.015516 
L 88.8495 31.293723 
L 89.368184 32.513717 
L 89.886868 33.069404 
L 90.405551 33.597179 
L 90.924235 34.515372 
L 91.442919 34.990411 
L 91.961603 35.966657 
L 92.480287 36.468954 
L 92.99897 37.287483 
L 93.517654 38.19533 
L 94.036338 39.079637 
L 94.555022 39.690229 
L 95.073705 40.32323 
L 95.592389 41.232896 
L 96.111073 42.061587 
L 96.629757 42.666462 
L 97.14844 43.316984 
L 97.667124 44.241775 
L 98.185808 45.204227 
L 98.704492 46.189499 
L 99.223176 46.834519 
L 99.741859 47.353761 
L 100.260543 48.057714 
L 100.779227 48.555885 
L 101.297911 49.529186 
L 101.816594 50.041475 
L 102.335278 50.725458 
L 102.853962 51.208935 
L 103.372646 51.888735 
L 103.891329 52.56197 
L 104.410013 53.412534 
L 104.928697 53.912847 
L 105.447381 54.627789 
L 105.966065 55.390601 
L 106.484748 55.702317 
L 107.003432 55.826432 
L 107.522116 56.702113 
L 108.0408 57.193758 
L 108.559483 57.633718 
L 109.078167 57.285681 
L 109.596851 57.641336 
L 110.115535 58.601794 
L 110.634218 58.99596 
L 111.152902 59.513867 
L 111.671586 60.259736 
L 112.19027 60.592286 
L 112.708954 60.997528 
L 113.227637 61.685476 
L 113.746321 62.181139 
L 114.265005 63.487553 
L 114.783689 65.016596 
L 115.302372 64.838584 
L 115.821056 64.927001 
L 116.33974 64.946252 
L 116.858424 66.113267 
L 117.377108 65.575493 
L 117.895791 66.558359 
L 118.414475 66.85383 
L 118.933159 67.258287 
L 119.451843 67.705531 
L 119.970526 67.841053 
L 120.48921 68.242144 
L 121.007894 68.765359 
L 121.526578 69.048596 
L 122.045261 69.283413 
L 122.563945 69.665612 
L 123.082629 69.764014 
L 123.601313 70.127092 
L 124.119997 70.466843 
L 124.63868 70.696425 
L 125.157364 72.062023 
L 125.676048 72.571469 
L 126.194732 71.645006 
L 126.713415 73.738795 
L 127.232099 72.543626 
L 127.750783 74.042865 
L 128.269467 73.154527 
L 128.78815 73.971059 
L 129.306834 73.405599 
L 129.825518 73.82705 
L 130.344202 74.358178 
L 130.862886 74.275035 
L 131.381569 75.922042 
L 131.900253 74.307222 
L 132.418937 75.95432 
L 132.937621 74.8744 
L 133.456304 74.78735 
L 133.974988 75.222382 
L 134.493672 75.609042 
L 135.012356 75.245722 
L 135.531039 75.262356 
L 136.049723 75.624017 
L 136.568407 75.729325 
L 137.087091 75.920947 
L 137.605775 75.976448 
L 138.124458 76.043167 
L 138.643142 76.212409 
L 139.161826 76.172382 
L 139.68051 76.331393 
L 140.199193 76.58037 
L 140.717877 76.753225 
L 141.236561 76.779776 
L 141.755245 77.043324 
L 142.273928 77.117886 
L 142.792612 77.340353 
L 143.311296 77.398069 
L 143.82998 77.824993 
L 144.348664 77.601943 
L 144.867347 78.228352 
L 145.386031 79.650735 
L 145.904715 79.774819 
L 146.423399 79.076838 
L 146.942082 78.654111 
L 147.460766 79.004643 
L 147.97945 81.584008 
L 148.498134 82.265444 
L 149.016817 82.527997 
L 149.535501 81.377878 
L 150.054185 83.365426 
L 150.572869 33733.425423 
L 151.091553 33733.425423 
L 151.610236 33733.425423 
L 152.12892 33733.425423 
L 152.647604 130.26915 
L 153.166288 33733.425423 
L 153.684971 33733.425423 
L 154.203655 110.519769 
L 154.722339 101.353092 
L 155.241023 92.778785 
L 155.759706 90.751413 
L 156.27839 90.442735 
L 156.797074 87.051271 
L 157.315758 85.675922 
L 157.834442 85.044258 
L 158.353125 85.299134 
L 158.871809 83.630677 
L 159.390493 83.182083 
L 159.909177 83.45645 
L 160.42786 82.787246 
L 160.946544 82.3079 
L 161.465228 81.893424 
L 161.983912 81.934716 
L 162.502596 82.209478 
L 163.021279 82.06031 
L 163.539963 81.683233 
L 164.058647 81.58686 
L 164.577331 81.474546 
L 165.096014 81.375644 
L 165.614698 81.42456 
L 166.133382 81.508866 
L 166.652066 81.536193 
L 167.170749 81.6343 
L 167.689433 81.680023 
L 168.208117 81.795834 
L 168.726801 81.748321 
L 169.245485 81.891194 
L 169.764168 81.785713 
L 170.282852 81.856697 
L 170.801536 81.946744 
L 171.32022 81.93397 
L 171.838903 82.108671 
L 172.357587 82.133982 
L 172.876271 82.261022 
L 173.394955 82.234201 
L 173.913638 82.365188 
L 174.432322 82.254895 
L 174.951006 82.164451 
L 175.46969 82.378249 
L 175.988374 82.508335 
L 176.507057 82.532741 
L 177.025741 82.601244 
L 177.544425 82.68259 
L 178.063109 82.639619 
L 178.581792 83.186643 
L 179.100476 83.093611 
L 179.61916 82.886206 
L 180.137844 83.015878 
L 180.656527 84.081306 
L 181.175211 84.275684 
L 181.693895 85.888521 
L 182.212579 86.578606 
L 182.731263 86.877345 
L 183.249946 85.165291 
L 183.76863 85.767913 
L 184.287314 86.194549 
L 184.805998 84.929766 
L 185.324681 85.30767 
L 185.843365 87.663718 
L 186.362049 102.033787 
L 186.880733 33733.425423 
L 187.399416 33733.425423 
L 187.9181 33733.425423 
L 188.436784 33733.425423 
L 188.955468 33733.425423 
L 189.474152 33733.425423 
L 189.992835 33733.425423 
L 190.511519 33733.425423 
L 191.030203 33733.425423 
L 191.548887 33733.425423 
L 192.06757 33733.425423 
L 192.586254 33733.425423 
L 193.104938 33733.425423 
L 193.623622 33733.425423 
L 194.142305 33733.425423 
L 194.660989 33733.425423 
L 195.179673 33733.425423 
L 195.698357 33733.425423 
L 196.217041 33733.425423 
L 196.735724 33733.425423 
L 197.254408 116.960925 
L 197.773092 108.190017 
L 198.291776 102.478118 
L 198.810459 97.745882 
L 199.329143 96.242527 
L 199.847827 95.155487 
L 200.366511 93.455562 
L 200.885195 93.202366 
L 201.403878 91.68124 
L 201.922562 90.442814 
L 202.441246 89.756405 
L 202.95993 89.291836 
L 203.478613 89.04324 
L 203.997297 88.802701 
L 204.515981 88.53203 
L 205.034665 88.12778 
L 205.553348 87.94754 
L 206.072032 87.506613 
L 206.590716 86.931981 
L 207.1094 87.12271 
L 207.628084 86.578293 
L 208.146767 86.030713 
L 208.665451 85.876782 
L 209.184135 86.121544 
L 209.702819 86.083951 
L 210.221502 85.965661 
L 210.740186 86.049706 
L 211.25887 86.105438 
L 211.777554 86.147902 
L 212.296237 85.965005 
L 212.814921 85.802629 
L 213.333605 85.858163 
L 213.852289 85.695969 
L 214.370973 85.806824 
L 214.889656 85.749213 
L 215.40834 85.852837 
L 215.927024 85.920813 
L 216.445708 85.939968 
L 216.964391 86.107918 
L 217.483075 85.911482 
L 218.001759 99.832253 
L 218.520443 33733.425423 
L 219.039126 33733.425423 
L 219.55781 33733.425423 
L 220.076494 33733.425423 
L 220.595178 33733.425423 
L 221.113862 33733.425423 
L 221.632545 33733.425423 
L 222.151229 33733.425423 
L 222.669913 33733.425423 
L 223.188597 33733.425423 
L 223.70728 33733.425423 
L 224.225964 33733.425423 
L 224.744648 33733.425423 
L 225.263332 33733.425423 
L 225.782015 33733.425423 
L 226.300699 33733.425423 
L 226.819383 33733.425423 
L 227.338067 33733.425423 
L 227.856751 33733.425423 
L 228.375434 127.193567 
L 228.894118 119.595304 
L 229.412802 115.081366 
L 229.931486 102.453345 
L 230.450169 102.180474 
L 230.968853 99.485714 
L 231.487537 96.361272 
L 232.006221 96.606113 
L 232.524904 94.813736 
L 233.043588 93.144264 
L 233.562272 93.158204 
L 234.080956 92.291396 
L 234.59964 91.179607 
L 235.118323 91.349632 
L 235.637007 90.80375 
L 236.155691 90.041694 
L 236.674375 89.697231 
L 237.193058 89.495673 
L 237.711742 89.013057 
L 238.230426 88.842281 
L 238.74911 88.72494 
L 239.267794 88.534909 
L 239.786477 88.345041 
L 240.305161 88.256079 
L 240.823845 88.307336 
L 241.342529 88.207009 
L 241.861212 88.107059 
L 242.379896 88.06594 
L 242.89858 88.124416 
L 243.417264 88.042404 
L 243.935947 88.052733 
L 244.454631 87.998563 
L 244.973315 88.042829 
L 245.491999 88.002128 
L 246.010683 87.918599 
L 246.529366 87.947205 
L 247.04805 87.918115 
L 247.566734 87.805284 
L 248.085418 87.859229 
L 248.604101 87.700615 
L 249.122785 87.811352 
L 249.641469 87.691587 
L 250.160153 87.735805 
L 250.678836 87.692946 
L 251.19752 87.73025 
L 251.716204 87.798427 
L 252.234888 87.836918 
L 252.753572 87.829478 
L 253.272255 87.844013 
L 253.790939 87.845346 
L 254.309623 87.751418 
L 254.828307 86.801695 
L 255.34699 86.866525 
L 255.865674 87.39766 
L 256.384358 86.873389 
L 256.903042 86.818287 
L 257.421725 86.706105 
L 257.940409 86.766159 
L 258.459093 86.719433 
L 258.977777 86.744428 
L 259.496461 86.844513 
L 260.015144 86.866638 
L 260.533828 86.873098 
L 261.052512 86.919331 
L 261.571196 86.969482 
L 262.089879 87.004953 
L 262.608563 87.026908 
L 263.127247 87.102306 
L 263.645931 87.161426 
L 264.164614 87.226171 
L 264.683298 87.333796 
L 265.201982 87.440951 
L 265.720666 87.528513 
L 266.23935 87.546168 
L 266.758033 87.604717 
L 267.276717 87.592874 
L 267.795401 87.624384 
L 268.314085 87.752503 
L 268.832768 87.719626 
L 269.351452 87.781736 
L 269.870136 87.85656 
L 270.38882 87.908509 
L 270.907503 87.82847 
L 271.426187 87.948973 
L 271.944871 87.947596 
L 272.463555 87.82498 
L 272.982239 87.803673 
L 273.500922 87.913646 
L 274.019606 87.938156 
L 274.53829 87.930993 
L 275.056974 87.984151 
L 275.575657 88.03909 
L 276.094341 88.052858 
L 276.613025 88.08261 
L 277.131709 88.127515 
L 277.650392 88.152069 
L 278.169076 88.163705 
L 278.68776 88.221036 
L 279.206444 88.204771 
L 279.725128 88.267946 
L 280.243811 88.270673 
L 280.762495 88.315714 
L 281.281179 88.320288 
L 281.799863 88.275979 
L 282.318546 88.318733 
L 282.83723 88.237832 
L 283.355914 87.7336 
L 283.874598 88.024264 
L 284.393282 89.558691 
L 284.911965 90.190895 
L 285.430649 90.742635 
L 285.949333 94.038561 
L 286.468017 101.653295 
L 286.9867 33733.425423 
L 287.505384 33733.425423 
L 288.024068 33733.425423 
L 288.542752 33733.425423 
L 289.061435 33733.425423 
L 289.580119 33733.425423 
L 290.098803 33733.425423 
L 290.617487 33733.425423 
L 291.136171 33733.425423 
L 291.654854 33733.425423 
L 292.173538 33733.425423 
L 292.692222 33733.425423 
L 293.210906 33733.425423 
L 293.729589 33733.425423 
L 294.248273 33733.425423 
L 294.766957 33733.425423 
L 295.285641 33733.425423 
L 295.804324 33733.425423 
L 296.323008 33733.425423 
L 296.841692 33733.425423 
L 297.360376 33733.425423 
L 297.87906 33733.425423 
L 298.397743 33733.425423 
L 298.916427 33733.425423 
L 299.435111 33733.425423 
L 299.953795 33733.425423 
L 300.472478 33733.425423 
L 300.991162 33733.425423 
L 301.509846 33733.425423 
L 302.02853 33733.425423 
L 302.547213 33733.425423 
L 303.065897 33733.425423 
L 303.584581 33733.425423 
L 304.103265 33733.425423 
L 304.621949 33733.425423 
L 305.140632 33733.425423 
L 305.659316 33733.425423 
L 306.178 33733.425423 
L 306.696684 33733.425423 
L 307.215367 33733.425423 
L 307.734051 33733.425423 
L 308.252735 33733.425423 
L 308.771419 33733.425423 
L 309.290102 33733.425423 
L 309.808786 139.5 
L 310.32747 115.082288 
L 310.846154 107.930919 
L 311.364838 104.520096 
L 311.883521 102.223171 
L 312.402205 101.548463 
L 312.920889 101.244325 
L 313.439573 99.186802 
L 313.958256 98.075344 
L 314.47694 97.390654 
L 314.995624 96.75372 
L 315.514308 95.954517 
L 316.032991 95.689779 
L 316.551675 95.479306 
L 317.070359 95.157658 
L 317.589043 94.671055 
L 318.107727 94.206255 
L 318.62641 94.038773 
L 319.145094 93.61001 
L 319.663778 93.268183 
L 320.182462 92.992392 
L 320.701145 92.661055 
L 321.219829 92.693907 
L 321.738513 92.495324 
L 322.257197 92.465829 
L 322.775881 92.433527 
L 323.294564 91.63555 
L 323.813248 91.89778 
L 324.331932 91.261938 
L 324.331932 78.673194 
L 324.331932 78.673194 
L 323.813248 78.634288 
L 323.294564 78.441506 
L 322.775881 78.357301 
L 322.257197 78.155957 
L 321.738513 77.944872 
L 321.219829 77.758261 
L 320.701145 77.515333 
L 320.182462 77.351086 
L 319.663778 77.060714 
L 319.145094 76.826734 
L 318.62641 76.54671 
L 318.107727 76.190832 
L 317.589043 75.83835 
L 317.070359 75.461604 
L 316.551675 75.167777 
L 316.032991 74.965856 
L 315.514308 74.703081 
L 314.995624 74.313447 
L 314.47694 73.915254 
L 313.958256 73.49426 
L 313.439573 72.998727 
L 312.920889 72.259829 
L 312.402205 71.887299 
L 311.883521 71.409444 
L 311.364838 70.7867 
L 310.846154 69.980297 
L 310.32747 68.938281 
L 309.808786 67.802658 
L 309.290102 67.36943 
L 308.771419 66.994543 
L 308.252735 66.305853 
L 307.734051 64.756273 
L 307.215367 63.984987 
L 306.696684 62.332928 
L 306.178 61.562125 
L 305.659316 61.018464 
L 305.140632 59.674503 
L 304.621949 59.063333 
L 304.103265 58.455981 
L 303.584581 55.852606 
L 303.065897 53.687052 
L 302.547213 53.592189 
L 302.02853 52.840684 
L 301.509846 51.494288 
L 300.991162 48.920946 
L 300.472478 47.480262 
L 299.953795 49.01735 
L 299.435111 41.350872 
L 298.916427 45.208132 
L 298.397743 38.639777 
L 297.87906 42.007761 
L 297.360376 37.023488 
L 296.841692 38.850907 
L 296.323008 42.851902 
L 295.804324 47.945366 
L 295.285641 54.859248 
L 294.766957 54.049449 
L 294.248273 52.838837 
L 293.729589 51.725716 
L 293.210906 50.413159 
L 292.692222 49.831362 
L 292.173538 50.109907 
L 291.654854 45.855999 
L 291.136171 43.763998 
L 290.617487 44.956479 
L 290.098803 42.057061 
L 289.580119 37.261182 
L 289.061435 36.849377 
L 288.542752 32.419443 
L 288.024068 29.864751 
L 287.505384 35.124114 
L 286.9867 55.061014 
L 286.468017 70.608709 
L 285.949333 76.8899 
L 285.430649 79.354625 
L 284.911965 79.858055 
L 284.393282 80.661757 
L 283.874598 83.124713 
L 283.355914 83.199769 
L 282.83723 83.23739 
L 282.318546 83.226671 
L 281.799863 83.202925 
L 281.281179 83.156666 
L 280.762495 83.12163 
L 280.243811 83.051254 
L 279.725128 83.078403 
L 279.206444 83.037067 
L 278.68776 82.959511 
L 278.169076 82.802332 
L 277.650392 82.81797 
L 277.131709 82.765576 
L 276.613025 82.634394 
L 276.094341 82.455761 
L 275.575657 82.524416 
L 275.056974 82.52727 
L 274.53829 82.480956 
L 274.019606 82.180886 
L 273.500922 82.063317 
L 272.982239 82.484398 
L 272.463555 82.050714 
L 271.944871 82.667833 
L 271.426187 82.661861 
L 270.907503 82.617037 
L 270.38882 82.613276 
L 269.870136 82.545331 
L 269.351452 82.525414 
L 268.832768 82.454208 
L 268.314085 82.427579 
L 267.795401 82.374401 
L 267.276717 82.343332 
L 266.758033 82.287086 
L 266.23935 82.17128 
L 265.720666 82.105095 
L 265.201982 82.089936 
L 264.683298 82.031799 
L 264.164614 81.943188 
L 263.645931 81.826768 
L 263.127247 81.723012 
L 262.608563 81.56517 
L 262.089879 81.557296 
L 261.571196 81.472748 
L 261.052512 81.430255 
L 260.533828 81.341893 
L 260.015144 81.289931 
L 259.496461 81.202679 
L 258.977777 81.094033 
L 258.459093 80.884562 
L 257.940409 80.506665 
L 257.421725 80.497115 
L 256.903042 80.076876 
L 256.384358 79.684976 
L 255.865674 81.107088 
L 255.34699 80.987712 
L 254.828307 80.961764 
L 254.309623 80.517634 
L 253.790939 81.23355 
L 253.272255 81.175882 
L 252.753572 81.052096 
L 252.234888 81.08888 
L 251.716204 81.00653 
L 251.19752 80.970188 
L 250.678836 80.646672 
L 250.160153 80.711129 
L 249.641469 80.867711 
L 249.122785 80.751778 
L 248.604101 80.658895 
L 248.085418 80.629847 
L 247.566734 80.590085 
L 247.04805 80.49773 
L 246.529366 80.423138 
L 246.010683 80.324451 
L 245.491999 80.213135 
L 244.973315 80.111063 
L 244.454631 80.013221 
L 243.935947 79.915875 
L 243.417264 79.765908 
L 242.89858 79.64115 
L 242.379896 79.573726 
L 241.861212 79.473512 
L 241.342529 79.236222 
L 240.823845 79.056432 
L 240.305161 78.933894 
L 239.786477 78.802642 
L 239.267794 78.483153 
L 238.74911 78.113426 
L 238.230426 77.994985 
L 237.711742 77.706107 
L 237.193058 77.139482 
L 236.674375 76.896708 
L 236.155691 76.517584 
L 235.637007 75.772409 
L 235.118323 75.320893 
L 234.59964 75.239686 
L 234.080956 74.608872 
L 233.562272 74.089273 
L 233.043588 73.987093 
L 232.524904 73.035822 
L 232.006221 72.219911 
L 231.487537 72.177343 
L 230.968853 71.061285 
L 230.450169 70.302143 
L 229.931486 70.047769 
L 229.412802 68.385652 
L 228.894118 67.859841 
L 228.375434 67.579809 
L 227.856751 66.108435 
L 227.338067 66.144256 
L 226.819383 65.378978 
L 226.300699 63.27897 
L 225.782015 63.842022 
L 225.263332 61.943415 
L 224.744648 59.7191 
L 224.225964 58.179019 
L 223.70728 57.73538 
L 223.188597 57.221083 
L 222.669913 55.476874 
L 222.151229 52.751041 
L 221.632545 53.813048 
L 221.113862 45.717637 
L 220.595178 45.832575 
L 220.076494 41.320609 
L 219.55781 41.772252 
L 219.039126 55.608119 
L 218.520443 48.306019 
L 218.001759 69.310489 
L 217.483075 78.806306 
L 216.964391 78.778648 
L 216.445708 78.653398 
L 215.927024 78.507743 
L 215.40834 78.29807 
L 214.889656 78.172142 
L 214.370973 78.018026 
L 213.852289 77.815497 
L 213.333605 77.674578 
L 212.814921 77.483974 
L 212.296237 77.232228 
L 211.777554 77.027688 
L 211.25887 76.922933 
L 210.740186 76.739364 
L 210.221502 76.459452 
L 209.702819 76.266602 
L 209.184135 76.046821 
L 208.665451 75.915647 
L 208.146767 75.629344 
L 207.628084 75.391417 
L 207.1094 75.055497 
L 206.590716 74.859433 
L 206.072032 74.462764 
L 205.553348 73.998652 
L 205.034665 73.583613 
L 204.515981 73.185542 
L 203.997297 72.803325 
L 203.478613 72.383166 
L 202.95993 71.855592 
L 202.441246 71.416375 
L 201.922562 70.774054 
L 201.403878 69.884601 
L 200.885195 69.038089 
L 200.366511 68.64738 
L 199.847827 67.729485 
L 199.329143 67.238832 
L 198.810459 66.538836 
L 198.291776 65.245009 
L 197.773092 64.184135 
L 197.254408 63.460588 
L 196.735724 61.939926 
L 196.217041 61.02356 
L 195.698357 60.162003 
L 195.179673 57.989316 
L 194.660989 56.296892 
L 194.142305 56.971735 
L 193.623622 54.610222 
L 193.104938 51.651899 
L 192.586254 48.447621 
L 192.06757 49.463823 
L 191.548887 47.191034 
L 191.030203 44.703461 
L 190.511519 47.25629 
L 189.992835 46.431425 
L 189.474152 43.232073 
L 188.955468 39.965537 
L 188.436784 38.944025 
L 187.9181 47.843057 
L 187.399416 57.589344 
L 186.880733 57.802038 
L 186.362049 67.873897 
L 185.843365 73.678715 
L 185.324681 75.764782 
L 184.805998 75.982108 
L 184.287314 74.468085 
L 183.76863 74.690398 
L 183.249946 74.857902 
L 182.731263 73.115411 
L 182.212579 73.307673 
L 181.693895 73.550003 
L 181.175211 74.839135 
L 180.656527 75.702626 
L 180.137844 78.044317 
L 179.61916 78.101706 
L 179.100476 77.459155 
L 178.581792 77.068491 
L 178.063109 78.563744 
L 177.544425 78.500025 
L 177.025741 78.3843 
L 176.507057 78.288714 
L 175.988374 78.19228 
L 175.46969 78.092479 
L 174.951006 77.858091 
L 174.432322 77.811515 
L 173.913638 77.677547 
L 173.394955 77.544097 
L 172.876271 77.422474 
L 172.357587 77.258782 
L 171.838903 77.077772 
L 171.32022 76.904318 
L 170.801536 76.776163 
L 170.282852 76.595167 
L 169.764168 76.402596 
L 169.245485 76.231549 
L 168.726801 75.964013 
L 168.208117 75.771534 
L 167.689433 75.492645 
L 167.170749 75.327317 
L 166.652066 75.062079 
L 166.133382 74.818435 
L 165.614698 74.461167 
L 165.096014 74.195491 
L 164.577331 74.011551 
L 164.058647 73.645929 
L 163.539963 73.208331 
L 163.021279 72.710676 
L 162.502596 72.412933 
L 161.983912 71.962391 
L 161.465228 71.286515 
L 160.946544 70.954015 
L 160.42786 70.368116 
L 159.909177 69.984166 
L 159.390493 69.451509 
L 158.871809 68.497661 
L 158.353125 67.83479 
L 157.834442 67.359223 
L 157.315758 67.185612 
L 156.797074 66.030871 
L 156.27839 64.924562 
L 155.759706 64.466514 
L 155.241023 63.670272 
L 154.722339 61.812257 
L 154.203655 60.898379 
L 153.684971 57.709476 
L 153.166288 57.961284 
L 152.647604 59.152366 
L 152.12892 57.424298 
L 151.610236 51.246924 
L 151.091553 53.739151 
L 150.572869 48.24779 
L 150.054185 64.890171 
L 149.535501 68.807305 
L 149.016817 68.48993 
L 148.498134 67.586051 
L 147.97945 68.376917 
L 147.460766 70.804328 
L 146.942082 71.044741 
L 146.423399 70.167133 
L 145.904715 68.964351 
L 145.386031 70.996885 
L 144.867347 73.268692 
L 144.348664 74.047704 
L 143.82998 73.149555 
L 143.311296 74.072521 
L 142.792612 73.930489 
L 142.273928 73.706299 
L 141.755245 73.671879 
L 141.236561 73.441247 
L 140.717877 73.310384 
L 140.199193 73.064908 
L 139.68051 72.824135 
L 139.161826 72.641587 
L 138.643142 72.311058 
L 138.124458 72.054917 
L 137.605775 71.934713 
L 137.087091 71.599303 
L 136.568407 71.139768 
L 136.049723 70.736479 
L 135.531039 70.604754 
L 135.012356 70.460861 
L 134.493672 69.66163 
L 133.974988 69.519096 
L 133.456304 69.328642 
L 132.937621 69.219081 
L 132.418937 67.264656 
L 131.900253 69.205937 
L 131.381569 66.43448 
L 130.862886 67.816711 
L 130.344202 67.160965 
L 129.825518 68.007719 
L 129.306834 68.73999 
L 128.78815 67.232961 
L 128.269467 67.891422 
L 127.750783 65.712217 
L 127.232099 67.393286 
L 126.713415 64.873637 
L 126.194732 67.259346 
L 125.676048 65.530432 
L 125.157364 65.593321 
L 124.63868 67.374001 
L 124.119997 66.245443 
L 123.601313 66.942815 
L 123.082629 66.504676 
L 122.563945 66.179917 
L 122.045261 65.945091 
L 121.526578 65.147917 
L 121.007894 64.551066 
L 120.48921 64.431532 
L 119.970526 64.068443 
L 119.451843 63.08777 
L 118.933159 63.044742 
L 118.414475 62.114183 
L 117.895791 61.841071 
L 117.377108 61.925498 
L 116.858424 60.067435 
L 116.33974 61.062197 
L 115.821056 59.34707 
L 115.302372 58.419066 
L 114.783689 57.129548 
L 114.265005 59.142424 
L 113.746321 60.373736 
L 113.227637 59.875088 
L 112.708954 59.503504 
L 112.19027 59.08331 
L 111.671586 57.890636 
L 111.152902 57.465004 
L 110.634218 57.539349 
L 110.115535 56.423956 
L 109.596851 56.005736 
L 109.078167 55.157169 
L 108.559483 55.386062 
L 108.0408 53.910103 
L 107.522116 53.985169 
L 107.003432 52.698185 
L 106.484748 52.846265 
L 105.966065 52.229256 
L 105.447381 51.36591 
L 104.928697 50.697549 
L 104.410013 50.049526 
L 103.891329 49.071496 
L 103.372646 48.790361 
L 102.853962 47.576482 
L 102.335278 47.212602 
L 101.816594 46.119895 
L 101.297911 45.438783 
L 100.779227 45.225193 
L 100.260543 43.927229 
L 99.741859 43.681151 
L 99.223176 43.037852 
L 98.704492 42.037863 
L 98.185808 41.599671 
L 97.667124 41.665232 
L 97.14844 40.900957 
L 96.629757 40.089415 
L 96.111073 39.449698 
L 95.592389 38.464859 
L 95.073705 37.589239 
L 94.555022 37.296502 
L 94.036338 36.14753 
L 93.517654 35.603048 
L 92.99897 34.737451 
L 92.480287 33.979819 
L 91.961603 33.031934 
L 91.442919 32.597924 
L 90.924235 31.310038 
L 90.405551 31.021635 
L 89.886868 30.250564 
L 89.368184 29.498767 
L 88.8495 29.010092 
L 88.330816 28.047005 
L 87.812133 27.29039 
L 87.293449 26.483393 
L 86.774765 26.132301 
L 86.256081 25.539655 
L 85.737398 24.933004 
L 85.218714 24.57223 
L 84.70003 23.787579 
L 84.181346 22.897617 
L 83.662662 22.564789 
L 83.143979 21.52097 
L 82.625295 21.831391 
L 82.106611 21.473885 
L 81.587927 20.771854 
L 81.069244 20.176029 
L 80.55056 19.948325 
L 80.031876 19.090084 
L 79.513192 18.556427 
L 78.994509 18.384535 
L 78.475825 18.052774 
L 77.957141 17.622081 
L 77.438457 17.264345 
L 76.919773 16.828864 
L 76.40109 16.481744 
L 75.882406 16.260012 
L 75.363722 15.361137 
L 74.845038 15.764369 
L 74.326355 15.634097 
L 73.807671 15.203894 
L 73.288987 14.868862 
L 72.770303 14.518264 
L 72.251619 14.176222 
L 71.732936 13.854333 
L 71.214252 13.592729 
L 70.695568 13.518126 
z
" clip-path="url(#pb26f8b054c)" style="fill: #404788; fill-opacity: 0.2; stroke: #404788; stroke-opacity: 0.2"/>
   </g>
   <g id="matplotlib.axis_1">
    <g id="xtick_1">
     <g id="line2d_1">
      <defs>
       <path id="mdb80a0fb44" d="M 0 0 
L 0 3.5 
" style="stroke: #000000; stroke-width: 0.8"/>
      </defs>
      <g>
       <use xlink:href="#mdb80a0fb44" x="70.695568" y="145.8" style="stroke: #000000; stroke-width: 0.8"/>
      </g>
     </g>
     <g id="text_1">
      <!-- 0 -->
      <g transform="translate(66.878068 161.918125) scale(0.12 -0.12)">
       <defs>
        <path id="DejaVuSans-30" d="M 2034 4250 
Q 1547 4250 1301 3770 
Q 1056 3291 1056 2328 
Q 1056 1369 1301 889 
Q 1547 409 2034 409 
Q 2525 409 2770 889 
Q 3016 1369 3016 2328 
Q 3016 3291 2770 3770 
Q 2525 4250 2034 4250 
z
M 2034 4750 
Q 2819 4750 3233 4129 
Q 3647 3509 3647 2328 
Q 3647 1150 3233 529 
Q 2819 -91 2034 -91 
Q 1250 -91 836 529 
Q 422 1150 422 2328 
Q 422 3509 836 4129 
Q 1250 4750 2034 4750 
z
" transform="scale(0.015625)"/>
       </defs>
       <use xlink:href="#DejaVuSans-30"/>
      </g>
     </g>
    </g>
    <g id="xtick_2">
     <g id="line2d_2">
      <g>
       <use xlink:href="#mdb80a0fb44" x="122.563945" y="145.8" style="stroke: #000000; stroke-width: 0.8"/>
      </g>
     </g>
     <g id="text_2">
      <!-- 100 -->
      <g transform="translate(111.111445 161.918125) scale(0.12 -0.12)">
       <defs>
        <path id="DejaVuSans-31" d="M 794 531 
L 1825 531 
L 1825 4091 
L 703 3866 
L 703 4441 
L 1819 4666 
L 2450 4666 
L 2450 531 
L 3481 531 
L 3481 0 
L 794 0 
L 794 531 
z
" transform="scale(0.015625)"/>
       </defs>
       <use xlink:href="#DejaVuSans-31"/>
       <use xlink:href="#DejaVuSans-30" x="63.623047"/>
       <use xlink:href="#DejaVuSans-30" x="127.246094"/>
      </g>
     </g>
    </g>
    <g id="xtick_3">
     <g id="line2d_3">
      <g>
       <use xlink:href="#mdb80a0fb44" x="174.432322" y="145.8" style="stroke: #000000; stroke-width: 0.8"/>
      </g>
     </g>
     <g id="text_3">
      <!-- 200 -->
      <g transform="translate(162.979822 161.918125) scale(0.12 -0.12)">
       <defs>
        <path id="DejaVuSans-32" d="M 1228 531 
L 3431 531 
L 3431 0 
L 469 0 
L 469 531 
Q 828 903 1448 1529 
Q 2069 2156 2228 2338 
Q 2531 2678 2651 2914 
Q 2772 3150 2772 3378 
Q 2772 3750 2511 3984 
Q 2250 4219 1831 4219 
Q 1534 4219 1204 4116 
Q 875 4013 500 3803 
L 500 4441 
Q 881 4594 1212 4672 
Q 1544 4750 1819 4750 
Q 2544 4750 2975 4387 
Q 3406 4025 3406 3419 
Q 3406 3131 3298 2873 
Q 3191 2616 2906 2266 
Q 2828 2175 2409 1742 
Q 1991 1309 1228 531 
z
" transform="scale(0.015625)"/>
       </defs>
       <use xlink:href="#DejaVuSans-32"/>
       <use xlink:href="#DejaVuSans-30" x="63.623047"/>
       <use xlink:href="#DejaVuSans-30" x="127.246094"/>
      </g>
     </g>
    </g>
    <g id="xtick_4">
     <g id="line2d_4">
      <g>
       <use xlink:href="#mdb80a0fb44" x="226.300699" y="145.8" style="stroke: #000000; stroke-width: 0.8"/>
      </g>
     </g>
     <g id="text_4">
      <!-- 300 -->
      <g transform="translate(214.848199 161.918125) scale(0.12 -0.12)">
       <defs>
        <path id="DejaVuSans-33" d="M 2597 2516 
Q 3050 2419 3304 2112 
Q 3559 1806 3559 1356 
Q 3559 666 3084 287 
Q 2609 -91 1734 -91 
Q 1441 -91 1130 -33 
Q 819 25 488 141 
L 488 750 
Q 750 597 1062 519 
Q 1375 441 1716 441 
Q 2309 441 2620 675 
Q 2931 909 2931 1356 
Q 2931 1769 2642 2001 
Q 2353 2234 1838 2234 
L 1294 2234 
L 1294 2753 
L 1863 2753 
Q 2328 2753 2575 2939 
Q 2822 3125 2822 3475 
Q 2822 3834 2567 4026 
Q 2313 4219 1838 4219 
Q 1578 4219 1281 4162 
Q 984 4106 628 3988 
L 628 4550 
Q 988 4650 1302 4700 
Q 1616 4750 1894 4750 
Q 2613 4750 3031 4423 
Q 3450 4097 3450 3541 
Q 3450 3153 3228 2886 
Q 3006 2619 2597 2516 
z
" transform="scale(0.015625)"/>
       </defs>
       <use xlink:href="#DejaVuSans-33"/>
       <use xlink:href="#DejaVuSans-30" x="63.623047"/>
       <use xlink:href="#DejaVuSans-30" x="127.246094"/>
      </g>
     </g>
    </g>
    <g id="xtick_5">
     <g id="line2d_5">
      <g>
       <use xlink:href="#mdb80a0fb44" x="278.169076" y="145.8" style="stroke: #000000; stroke-width: 0.8"/>
      </g>
     </g>
     <g id="text_5">
      <!-- 400 -->
      <g transform="translate(266.716576 161.918125) scale(0.12 -0.12)">
       <defs>
        <path id="DejaVuSans-34" d="M 2419 4116 
L 825 1625 
L 2419 1625 
L 2419 4116 
z
M 2253 4666 
L 3047 4666 
L 3047 1625 
L 3713 1625 
L 3713 1100 
L 3047 1100 
L 3047 0 
L 2419 0 
L 2419 1100 
L 313 1100 
L 313 1709 
L 2253 4666 
z
" transform="scale(0.015625)"/>
       </defs>
       <use xlink:href="#DejaVuSans-34"/>
       <use xlink:href="#DejaVuSans-30" x="63.623047"/>
       <use xlink:href="#DejaVuSans-30" x="127.246094"/>
      </g>
     </g>
    </g>
    <g id="xtick_6">
     <g id="line2d_6">
      <g>
       <use xlink:href="#mdb80a0fb44" x="330.037453" y="145.8" style="stroke: #000000; stroke-width: 0.8"/>
      </g>
     </g>
     <g id="text_6">
      <!-- 500 -->
      <g transform="translate(318.584953 161.918125) scale(0.12 -0.12)">
       <defs>
        <path id="DejaVuSans-35" d="M 691 4666 
L 3169 4666 
L 3169 4134 
L 1269 4134 
L 1269 2991 
Q 1406 3038 1543 3061 
Q 1681 3084 1819 3084 
Q 2600 3084 3056 2656 
Q 3513 2228 3513 1497 
Q 3513 744 3044 326 
Q 2575 -91 1722 -91 
Q 1428 -91 1123 -41 
Q 819 9 494 109 
L 494 744 
Q 775 591 1075 516 
Q 1375 441 1709 441 
Q 2250 441 2565 725 
Q 2881 1009 2881 1497 
Q 2881 1984 2565 2268 
Q 2250 2553 1709 2553 
Q 1456 2553 1204 2497 
Q 953 2441 691 2322 
L 691 4666 
z
" transform="scale(0.015625)"/>
       </defs>
       <use xlink:href="#DejaVuSans-35"/>
       <use xlink:href="#DejaVuSans-30" x="63.623047"/>
       <use xlink:href="#DejaVuSans-30" x="127.246094"/>
      </g>
     </g>
    </g>
    <g id="text_7">
     <!-- Number of steps -->
     <g transform="translate(147.709063 177.531875) scale(0.12 -0.12)">
      <defs>
       <path id="DejaVuSans-4e" d="M 628 4666 
L 1478 4666 
L 3547 763 
L 3547 4666 
L 4159 4666 
L 4159 0 
L 3309 0 
L 1241 3903 
L 1241 0 
L 628 0 
L 628 4666 
z
" transform="scale(0.015625)"/>
       <path id="DejaVuSans-75" d="M 544 1381 
L 544 3500 
L 1119 3500 
L 1119 1403 
Q 1119 906 1312 657 
Q 1506 409 1894 409 
Q 2359 409 2629 706 
Q 2900 1003 2900 1516 
L 2900 3500 
L 3475 3500 
L 3475 0 
L 2900 0 
L 2900 538 
Q 2691 219 2414 64 
Q 2138 -91 1772 -91 
Q 1169 -91 856 284 
Q 544 659 544 1381 
z
M 1991 3584 
L 1991 3584 
z
" transform="scale(0.015625)"/>
       <path id="DejaVuSans-6d" d="M 3328 2828 
Q 3544 3216 3844 3400 
Q 4144 3584 4550 3584 
Q 5097 3584 5394 3201 
Q 5691 2819 5691 2113 
L 5691 0 
L 5113 0 
L 5113 2094 
Q 5113 2597 4934 2840 
Q 4756 3084 4391 3084 
Q 3944 3084 3684 2787 
Q 3425 2491 3425 1978 
L 3425 0 
L 2847 0 
L 2847 2094 
Q 2847 2600 2669 2842 
Q 2491 3084 2119 3084 
Q 1678 3084 1418 2786 
Q 1159 2488 1159 1978 
L 1159 0 
L 581 0 
L 581 3500 
L 1159 3500 
L 1159 2956 
Q 1356 3278 1631 3431 
Q 1906 3584 2284 3584 
Q 2666 3584 2933 3390 
Q 3200 3197 3328 2828 
z
" transform="scale(0.015625)"/>
       <path id="DejaVuSans-62" d="M 3116 1747 
Q 3116 2381 2855 2742 
Q 2594 3103 2138 3103 
Q 1681 3103 1420 2742 
Q 1159 2381 1159 1747 
Q 1159 1113 1420 752 
Q 1681 391 2138 391 
Q 2594 391 2855 752 
Q 3116 1113 3116 1747 
z
M 1159 2969 
Q 1341 3281 1617 3432 
Q 1894 3584 2278 3584 
Q 2916 3584 3314 3078 
Q 3713 2572 3713 1747 
Q 3713 922 3314 415 
Q 2916 -91 2278 -91 
Q 1894 -91 1617 61 
Q 1341 213 1159 525 
L 1159 0 
L 581 0 
L 581 4863 
L 1159 4863 
L 1159 2969 
z
" transform="scale(0.015625)"/>
       <path id="DejaVuSans-65" d="M 3597 1894 
L 3597 1613 
L 953 1613 
Q 991 1019 1311 708 
Q 1631 397 2203 397 
Q 2534 397 2845 478 
Q 3156 559 3463 722 
L 3463 178 
Q 3153 47 2828 -22 
Q 2503 -91 2169 -91 
Q 1331 -91 842 396 
Q 353 884 353 1716 
Q 353 2575 817 3079 
Q 1281 3584 2069 3584 
Q 2775 3584 3186 3129 
Q 3597 2675 3597 1894 
z
M 3022 2063 
Q 3016 2534 2758 2815 
Q 2500 3097 2075 3097 
Q 1594 3097 1305 2825 
Q 1016 2553 972 2059 
L 3022 2063 
z
" transform="scale(0.015625)"/>
       <path id="DejaVuSans-72" d="M 2631 2963 
Q 2534 3019 2420 3045 
Q 2306 3072 2169 3072 
Q 1681 3072 1420 2755 
Q 1159 2438 1159 1844 
L 1159 0 
L 581 0 
L 581 3500 
L 1159 3500 
L 1159 2956 
Q 1341 3275 1631 3429 
Q 1922 3584 2338 3584 
Q 2397 3584 2469 3576 
Q 2541 3569 2628 3553 
L 2631 2963 
z
" transform="scale(0.015625)"/>
       <path id="DejaVuSans-20" transform="scale(0.015625)"/>
       <path id="DejaVuSans-6f" d="M 1959 3097 
Q 1497 3097 1228 2736 
Q 959 2375 959 1747 
Q 959 1119 1226 758 
Q 1494 397 1959 397 
Q 2419 397 2687 759 
Q 2956 1122 2956 1747 
Q 2956 2369 2687 2733 
Q 2419 3097 1959 3097 
z
M 1959 3584 
Q 2709 3584 3137 3096 
Q 3566 2609 3566 1747 
Q 3566 888 3137 398 
Q 2709 -91 1959 -91 
Q 1206 -91 779 398 
Q 353 888 353 1747 
Q 353 2609 779 3096 
Q 1206 3584 1959 3584 
z
" transform="scale(0.015625)"/>
       <path id="DejaVuSans-66" d="M 2375 4863 
L 2375 4384 
L 1825 4384 
Q 1516 4384 1395 4259 
Q 1275 4134 1275 3809 
L 1275 3500 
L 2222 3500 
L 2222 3053 
L 1275 3053 
L 1275 0 
L 697 0 
L 697 3053 
L 147 3053 
L 147 3500 
L 697 3500 
L 697 3744 
Q 697 4328 969 4595 
Q 1241 4863 1831 4863 
L 2375 4863 
z
" transform="scale(0.015625)"/>
       <path id="DejaVuSans-73" d="M 2834 3397 
L 2834 2853 
Q 2591 2978 2328 3040 
Q 2066 3103 1784 3103 
Q 1356 3103 1142 2972 
Q 928 2841 928 2578 
Q 928 2378 1081 2264 
Q 1234 2150 1697 2047 
L 1894 2003 
Q 2506 1872 2764 1633 
Q 3022 1394 3022 966 
Q 3022 478 2636 193 
Q 2250 -91 1575 -91 
Q 1294 -91 989 -36 
Q 684 19 347 128 
L 347 722 
Q 666 556 975 473 
Q 1284 391 1588 391 
Q 1994 391 2212 530 
Q 2431 669 2431 922 
Q 2431 1156 2273 1281 
Q 2116 1406 1581 1522 
L 1381 1569 
Q 847 1681 609 1914 
Q 372 2147 372 2553 
Q 372 3047 722 3315 
Q 1072 3584 1716 3584 
Q 2034 3584 2315 3537 
Q 2597 3491 2834 3397 
z
" transform="scale(0.015625)"/>
       <path id="DejaVuSans-74" d="M 1172 4494 
L 1172 3500 
L 2356 3500 
L 2356 3053 
L 1172 3053 
L 1172 1153 
Q 1172 725 1289 603 
Q 1406 481 1766 481 
L 2356 481 
L 2356 0 
L 1766 0 
Q 1100 0 847 248 
Q 594 497 594 1153 
L 594 3053 
L 172 3053 
L 172 3500 
L 594 3500 
L 594 4494 
L 1172 4494 
z
" transform="scale(0.015625)"/>
       <path id="DejaVuSans-70" d="M 1159 525 
L 1159 -1331 
L 581 -1331 
L 581 3500 
L 1159 3500 
L 1159 2969 
Q 1341 3281 1617 3432 
Q 1894 3584 2278 3584 
Q 2916 3584 3314 3078 
Q 3713 2572 3713 1747 
Q 3713 922 3314 415 
Q 2916 -91 2278 -91 
Q 1894 -91 1617 61 
Q 1341 213 1159 525 
z
M 3116 1747 
Q 3116 2381 2855 2742 
Q 2594 3103 2138 3103 
Q 1681 3103 1420 2742 
Q 1159 2381 1159 1747 
Q 1159 1113 1420 752 
Q 1681 391 2138 391 
Q 2594 391 2855 752 
Q 3116 1113 3116 1747 
z
" transform="scale(0.015625)"/>
      </defs>
      <use xlink:href="#DejaVuSans-4e"/>
      <use xlink:href="#DejaVuSans-75" x="74.804688"/>
      <use xlink:href="#DejaVuSans-6d" x="138.183594"/>
      <use xlink:href="#DejaVuSans-62" x="235.595703"/>
      <use xlink:href="#DejaVuSans-65" x="299.072266"/>
      <use xlink:href="#DejaVuSans-72" x="360.595703"/>
      <use xlink:href="#DejaVuSans-20" x="401.708984"/>
      <use xlink:href="#DejaVuSans-6f" x="433.496094"/>
      <use xlink:href="#DejaVuSans-66" x="494.677734"/>
      <use xlink:href="#DejaVuSans-20" x="529.882812"/>
      <use xlink:href="#DejaVuSans-73" x="561.669922"/>
      <use xlink:href="#DejaVuSans-74" x="613.769531"/>
      <use xlink:href="#DejaVuSans-65" x="652.978516"/>
      <use xlink:href="#DejaVuSans-70" x="714.501953"/>
      <use xlink:href="#DejaVuSans-73" x="777.978516"/>
     </g>
    </g>
   </g>
   <g id="matplotlib.axis_2">
    <g id="ytick_1">
     <g id="line2d_7">
      <defs>
       <path id="mb4e28eddec" d="M 0 0 
L -3.5 0 
" style="stroke: #000000; stroke-width: 0.8"/>
      </defs>
      <g>
       <use xlink:href="#mb4e28eddec" x="58.01375" y="121.659594" style="stroke: #000000; stroke-width: 0.8"/>
      </g>
     </g>
     <g id="text_8">
      <!-- $\mathdefault{10^{-3}}$ -->
      <g transform="translate(22.81375 126.218657) scale(0.12 -0.12)">
       <defs>
        <path id="DejaVuSans-2212" d="M 678 2272 
L 4684 2272 
L 4684 1741 
L 678 1741 
L 678 2272 
z
" transform="scale(0.015625)"/>
       </defs>
       <use xlink:href="#DejaVuSans-31" transform="translate(0 0.765625)"/>
       <use xlink:href="#DejaVuSans-30" transform="translate(63.623047 0.765625)"/>
       <use xlink:href="#DejaVuSans-2212" transform="translate(128.203125 39.046875) scale(0.7)"/>
       <use xlink:href="#DejaVuSans-33" transform="translate(186.855469 39.046875) scale(0.7)"/>
      </g>
     </g>
    </g>
    <g id="ytick_2">
     <g id="line2d_8">
      <g>
       <use xlink:href="#mb4e28eddec" x="58.01375" y="87.94669" style="stroke: #000000; stroke-width: 0.8"/>
      </g>
     </g>
     <g id="text_9">
      <!-- $\mathdefault{10^{-2}}$ -->
      <g transform="translate(22.81375 92.505752) scale(0.12 -0.12)">
       <use xlink:href="#DejaVuSans-31" transform="translate(0 0.765625)"/>
       <use xlink:href="#DejaVuSans-30" transform="translate(63.623047 0.765625)"/>
       <use xlink:href="#DejaVuSans-2212" transform="translate(128.203125 39.046875) scale(0.7)"/>
       <use xlink:href="#DejaVuSans-32" transform="translate(186.855469 39.046875) scale(0.7)"/>
      </g>
     </g>
    </g>
    <g id="ytick_3">
     <g id="line2d_9">
      <g>
       <use xlink:href="#mb4e28eddec" x="58.01375" y="54.233785" style="stroke: #000000; stroke-width: 0.8"/>
      </g>
     </g>
     <g id="text_10">
      <!-- $\mathdefault{10^{-1}}$ -->
      <g transform="translate(22.81375 58.792848) scale(0.12 -0.12)">
       <use xlink:href="#DejaVuSans-31" transform="translate(0 0.684375)"/>
       <use xlink:href="#DejaVuSans-30" transform="translate(63.623047 0.684375)"/>
       <use xlink:href="#DejaVuSans-2212" transform="translate(128.203125 38.965625) scale(0.7)"/>
       <use xlink:href="#DejaVuSans-31" transform="translate(186.855469 38.965625) scale(0.7)"/>
      </g>
     </g>
    </g>
    <g id="ytick_4">
     <g id="line2d_10">
      <g>
       <use xlink:href="#mb4e28eddec" x="58.01375" y="20.52088" style="stroke: #000000; stroke-width: 0.8"/>
      </g>
     </g>
     <g id="text_11">
      <!-- $\mathdefault{10^{0}}$ -->
      <g transform="translate(29.89375 25.079943) scale(0.12 -0.12)">
       <use xlink:href="#DejaVuSans-31" transform="translate(0 0.765625)"/>
       <use xlink:href="#DejaVuSans-30" transform="translate(63.623047 0.765625)"/>
       <use xlink:href="#DejaVuSans-30" transform="translate(128.203125 39.046875) scale(0.7)"/>
      </g>
     </g>
    </g>
    <g id="ytick_5">
     <g id="line2d_11">
      <defs>
       <path id="m1c7ac6fa99" d="M 0 0 
L -2 0 
" style="stroke: #000000; stroke-width: 0.6"/>
      </defs>
      <g>
       <use xlink:href="#m1c7ac6fa99" x="58.01375" y="145.223903" style="stroke: #000000; stroke-width: 0.6"/>
      </g>
     </g>
    </g>
    <g id="ytick_6">
     <g id="line2d_12">
      <g>
       <use xlink:href="#m1c7ac6fa99" x="58.01375" y="139.287355" style="stroke: #000000; stroke-width: 0.6"/>
      </g>
     </g>
    </g>
    <g id="ytick_7">
     <g id="line2d_13">
      <g>
       <use xlink:href="#m1c7ac6fa99" x="58.01375" y="135.075308" style="stroke: #000000; stroke-width: 0.6"/>
      </g>
     </g>
    </g>
    <g id="ytick_8">
     <g id="line2d_14">
      <g>
       <use xlink:href="#m1c7ac6fa99" x="58.01375" y="131.80819" style="stroke: #000000; stroke-width: 0.6"/>
      </g>
     </g>
    </g>
    <g id="ytick_9">
     <g id="line2d_15">
      <g>
       <use xlink:href="#m1c7ac6fa99" x="58.01375" y="129.13876" style="stroke: #000000; stroke-width: 0.6"/>
      </g>
     </g>
    </g>
    <g id="ytick_10">
     <g id="line2d_16">
      <g>
       <use xlink:href="#m1c7ac6fa99" x="58.01375" y="126.881789" style="stroke: #000000; stroke-width: 0.6"/>
      </g>
     </g>
    </g>
    <g id="ytick_11">
     <g id="line2d_17">
      <g>
       <use xlink:href="#m1c7ac6fa99" x="58.01375" y="124.926712" style="stroke: #000000; stroke-width: 0.6"/>
      </g>
     </g>
    </g>
    <g id="ytick_12">
     <g id="line2d_18">
      <g>
       <use xlink:href="#m1c7ac6fa99" x="58.01375" y="123.202212" style="stroke: #000000; stroke-width: 0.6"/>
      </g>
     </g>
    </g>
    <g id="ytick_13">
     <g id="line2d_19">
      <g>
       <use xlink:href="#m1c7ac6fa99" x="58.01375" y="111.510999" style="stroke: #000000; stroke-width: 0.6"/>
      </g>
     </g>
    </g>
    <g id="ytick_14">
     <g id="line2d_20">
      <g>
       <use xlink:href="#m1c7ac6fa99" x="58.01375" y="105.574451" style="stroke: #000000; stroke-width: 0.6"/>
      </g>
     </g>
    </g>
    <g id="ytick_15">
     <g id="line2d_21">
      <g>
       <use xlink:href="#m1c7ac6fa99" x="58.01375" y="101.362403" style="stroke: #000000; stroke-width: 0.6"/>
      </g>
     </g>
    </g>
    <g id="ytick_16">
     <g id="line2d_22">
      <g>
       <use xlink:href="#m1c7ac6fa99" x="58.01375" y="98.095285" style="stroke: #000000; stroke-width: 0.6"/>
      </g>
     </g>
    </g>
    <g id="ytick_17">
     <g id="line2d_23">
      <g>
       <use xlink:href="#m1c7ac6fa99" x="58.01375" y="95.425855" style="stroke: #000000; stroke-width: 0.6"/>
      </g>
     </g>
    </g>
    <g id="ytick_18">
     <g id="line2d_24">
      <g>
       <use xlink:href="#m1c7ac6fa99" x="58.01375" y="93.168885" style="stroke: #000000; stroke-width: 0.6"/>
      </g>
     </g>
    </g>
    <g id="ytick_19">
     <g id="line2d_25">
      <g>
       <use xlink:href="#m1c7ac6fa99" x="58.01375" y="91.213808" style="stroke: #000000; stroke-width: 0.6"/>
      </g>
     </g>
    </g>
    <g id="ytick_20">
     <g id="line2d_26">
      <g>
       <use xlink:href="#m1c7ac6fa99" x="58.01375" y="89.489307" style="stroke: #000000; stroke-width: 0.6"/>
      </g>
     </g>
    </g>
    <g id="ytick_21">
     <g id="line2d_27">
      <g>
       <use xlink:href="#m1c7ac6fa99" x="58.01375" y="77.798094" style="stroke: #000000; stroke-width: 0.6"/>
      </g>
     </g>
    </g>
    <g id="ytick_22">
     <g id="line2d_28">
      <g>
       <use xlink:href="#m1c7ac6fa99" x="58.01375" y="71.861546" style="stroke: #000000; stroke-width: 0.6"/>
      </g>
     </g>
    </g>
    <g id="ytick_23">
     <g id="line2d_29">
      <g>
       <use xlink:href="#m1c7ac6fa99" x="58.01375" y="67.649499" style="stroke: #000000; stroke-width: 0.6"/>
      </g>
     </g>
    </g>
    <g id="ytick_24">
     <g id="line2d_30">
      <g>
       <use xlink:href="#m1c7ac6fa99" x="58.01375" y="64.382381" style="stroke: #000000; stroke-width: 0.6"/>
      </g>
     </g>
    </g>
    <g id="ytick_25">
     <g id="line2d_31">
      <g>
       <use xlink:href="#m1c7ac6fa99" x="58.01375" y="61.712951" style="stroke: #000000; stroke-width: 0.6"/>
      </g>
     </g>
    </g>
    <g id="ytick_26">
     <g id="line2d_32">
      <g>
       <use xlink:href="#m1c7ac6fa99" x="58.01375" y="59.45598" style="stroke: #000000; stroke-width: 0.6"/>
      </g>
     </g>
    </g>
    <g id="ytick_27">
     <g id="line2d_33">
      <g>
       <use xlink:href="#m1c7ac6fa99" x="58.01375" y="57.500903" style="stroke: #000000; stroke-width: 0.6"/>
      </g>
     </g>
    </g>
    <g id="ytick_28">
     <g id="line2d_34">
      <g>
       <use xlink:href="#m1c7ac6fa99" x="58.01375" y="55.776403" style="stroke: #000000; stroke-width: 0.6"/>
      </g>
     </g>
    </g>
    <g id="ytick_29">
     <g id="line2d_35">
      <g>
       <use xlink:href="#m1c7ac6fa99" x="58.01375" y="44.085189" style="stroke: #000000; stroke-width: 0.6"/>
      </g>
     </g>
    </g>
    <g id="ytick_30">
     <g id="line2d_36">
      <g>
       <use xlink:href="#m1c7ac6fa99" x="58.01375" y="38.148642" style="stroke: #000000; stroke-width: 0.6"/>
      </g>
     </g>
    </g>
    <g id="ytick_31">
     <g id="line2d_37">
      <g>
       <use xlink:href="#m1c7ac6fa99" x="58.01375" y="33.936594" style="stroke: #000000; stroke-width: 0.6"/>
      </g>
     </g>
    </g>
    <g id="ytick_32">
     <g id="line2d_38">
      <g>
       <use xlink:href="#m1c7ac6fa99" x="58.01375" y="30.669476" style="stroke: #000000; stroke-width: 0.6"/>
      </g>
     </g>
    </g>
    <g id="ytick_33">
     <g id="line2d_39">
      <g>
       <use xlink:href="#m1c7ac6fa99" x="58.01375" y="28.000046" style="stroke: #000000; stroke-width: 0.6"/>
      </g>
     </g>
    </g>
    <g id="ytick_34">
     <g id="line2d_40">
      <g>
       <use xlink:href="#m1c7ac6fa99" x="58.01375" y="25.743075" style="stroke: #000000; stroke-width: 0.6"/>
      </g>
     </g>
    </g>
    <g id="ytick_35">
     <g id="line2d_41">
      <g>
       <use xlink:href="#m1c7ac6fa99" x="58.01375" y="23.787998" style="stroke: #000000; stroke-width: 0.6"/>
      </g>
     </g>
    </g>
    <g id="ytick_36">
     <g id="line2d_42">
      <g>
       <use xlink:href="#m1c7ac6fa99" x="58.01375" y="22.063498" style="stroke: #000000; stroke-width: 0.6"/>
      </g>
     </g>
    </g>
    <g id="ytick_37">
     <g id="line2d_43">
      <g>
       <use xlink:href="#m1c7ac6fa99" x="58.01375" y="10.372285" style="stroke: #000000; stroke-width: 0.6"/>
      </g>
     </g>
    </g>
    <g id="text_12">
     <!-- Training loss -->
     <g transform="translate(16.318125 113.667188) rotate(-90) scale(0.12 -0.12)">
      <defs>
       <path id="DejaVuSans-54" d="M -19 4666 
L 3928 4666 
L 3928 4134 
L 2272 4134 
L 2272 0 
L 1638 0 
L 1638 4134 
L -19 4134 
L -19 4666 
z
" transform="scale(0.015625)"/>
       <path id="DejaVuSans-61" d="M 2194 1759 
Q 1497 1759 1228 1600 
Q 959 1441 959 1056 
Q 959 750 1161 570 
Q 1363 391 1709 391 
Q 2188 391 2477 730 
Q 2766 1069 2766 1631 
L 2766 1759 
L 2194 1759 
z
M 3341 1997 
L 3341 0 
L 2766 0 
L 2766 531 
Q 2569 213 2275 61 
Q 1981 -91 1556 -91 
Q 1019 -91 701 211 
Q 384 513 384 1019 
Q 384 1609 779 1909 
Q 1175 2209 1959 2209 
L 2766 2209 
L 2766 2266 
Q 2766 2663 2505 2880 
Q 2244 3097 1772 3097 
Q 1472 3097 1187 3025 
Q 903 2953 641 2809 
L 641 3341 
Q 956 3463 1253 3523 
Q 1550 3584 1831 3584 
Q 2591 3584 2966 3190 
Q 3341 2797 3341 1997 
z
" transform="scale(0.015625)"/>
       <path id="DejaVuSans-69" d="M 603 3500 
L 1178 3500 
L 1178 0 
L 603 0 
L 603 3500 
z
M 603 4863 
L 1178 4863 
L 1178 4134 
L 603 4134 
L 603 4863 
z
" transform="scale(0.015625)"/>
       <path id="DejaVuSans-6e" d="M 3513 2113 
L 3513 0 
L 2938 0 
L 2938 2094 
Q 2938 2591 2744 2837 
Q 2550 3084 2163 3084 
Q 1697 3084 1428 2787 
Q 1159 2491 1159 1978 
L 1159 0 
L 581 0 
L 581 3500 
L 1159 3500 
L 1159 2956 
Q 1366 3272 1645 3428 
Q 1925 3584 2291 3584 
Q 2894 3584 3203 3211 
Q 3513 2838 3513 2113 
z
" transform="scale(0.015625)"/>
       <path id="DejaVuSans-67" d="M 2906 1791 
Q 2906 2416 2648 2759 
Q 2391 3103 1925 3103 
Q 1463 3103 1205 2759 
Q 947 2416 947 1791 
Q 947 1169 1205 825 
Q 1463 481 1925 481 
Q 2391 481 2648 825 
Q 2906 1169 2906 1791 
z
M 3481 434 
Q 3481 -459 3084 -895 
Q 2688 -1331 1869 -1331 
Q 1566 -1331 1297 -1286 
Q 1028 -1241 775 -1147 
L 775 -588 
Q 1028 -725 1275 -790 
Q 1522 -856 1778 -856 
Q 2344 -856 2625 -561 
Q 2906 -266 2906 331 
L 2906 616 
Q 2728 306 2450 153 
Q 2172 0 1784 0 
Q 1141 0 747 490 
Q 353 981 353 1791 
Q 353 2603 747 3093 
Q 1141 3584 1784 3584 
Q 2172 3584 2450 3431 
Q 2728 3278 2906 2969 
L 2906 3500 
L 3481 3500 
L 3481 434 
z
" transform="scale(0.015625)"/>
       <path id="DejaVuSans-6c" d="M 603 4863 
L 1178 4863 
L 1178 0 
L 603 0 
L 603 4863 
z
" transform="scale(0.015625)"/>
      </defs>
      <use xlink:href="#DejaVuSans-54"/>
      <use xlink:href="#DejaVuSans-72" x="46.333984"/>
      <use xlink:href="#DejaVuSans-61" x="87.447266"/>
      <use xlink:href="#DejaVuSans-69" x="148.726562"/>
      <use xlink:href="#DejaVuSans-6e" x="176.509766"/>
      <use xlink:href="#DejaVuSans-69" x="239.888672"/>
      <use xlink:href="#DejaVuSans-6e" x="267.671875"/>
      <use xlink:href="#DejaVuSans-67" x="331.050781"/>
      <use xlink:href="#DejaVuSans-20" x="394.527344"/>
      <use xlink:href="#DejaVuSans-6c" x="426.314453"/>
      <use xlink:href="#DejaVuSans-6f" x="454.097656"/>
      <use xlink:href="#DejaVuSans-73" x="515.279297"/>
      <use xlink:href="#DejaVuSans-73" x="567.378906"/>
     </g>
    </g>
   </g>
   <g id="line2d_44">
    <path d="M 70.695568 13.533773 
L 72.251619 14.685602 
L 74.845038 16.527298 
L 76.40109 17.864579 
L 87.293449 28.101109 
L 90.405551 30.587436 
L 90.924235 30.997121 
L 91.442919 31.247526 
L 91.961603 31.788268 
L 92.99897 32.470875 
L 94.555022 33.757751 
L 96.629757 35.083289 
L 97.14844 35.355616 
L 97.667124 35.463241 
L 100.260543 37.376058 
L 100.779227 37.640966 
L 101.816594 37.80378 
L 102.335278 37.968488 
L 102.853962 38.009481 
L 103.372646 38.422252 
L 103.891329 38.659334 
L 104.928697 39.38501 
L 106.484748 40.381006 
L 108.0408 41.09718 
L 108.559483 41.220378 
L 109.596851 41.849899 
L 111.671586 42.556699 
L 112.19027 42.615218 
L 115.302372 44.144927 
L 116.33974 44.362586 
L 116.858424 44.689335 
L 117.895791 45.103907 
L 118.933159 45.681091 
L 119.451843 45.285937 
L 119.970526 45.04556 
L 121.007894 45.505019 
L 121.526578 45.962655 
L 123.082629 46.617685 
L 123.601313 46.357333 
L 124.119997 46.699665 
L 124.63868 46.540899 
L 125.157364 46.966817 
L 125.676048 46.976258 
L 126.194732 47.28752 
L 128.78815 47.79335 
L 131.381569 48.761784 
L 131.900253 48.81548 
L 132.418937 48.426278 
L 133.974988 48.858798 
L 134.493672 48.767179 
L 135.012356 48.207175 
L 136.049723 48.070304 
L 136.568407 47.691576 
L 137.087091 48.406057 
L 137.605775 48.2712 
L 138.124458 48.66551 
L 139.68051 49.282036 
L 140.717877 49.83714 
L 141.755245 50.364181 
L 142.273928 50.202133 
L 142.792612 50.436212 
L 143.311296 50.346942 
L 143.82998 50.575427 
L 144.348664 50.636887 
L 144.867347 50.558675 
L 145.386031 50.608444 
L 145.904715 50.886772 
L 146.942082 51.070845 
L 147.460766 50.97403 
L 147.97945 51.436612 
L 148.498134 51.231204 
L 149.016817 50.777494 
L 149.535501 50.609004 
L 150.054185 50.66614 
L 151.091553 50.952936 
L 151.610236 51.074631 
L 152.12892 50.932449 
L 153.166288 51.175523 
L 154.203655 51.462724 
L 154.722339 51.73759 
L 156.27839 52.120616 
L 156.797074 52.143997 
L 157.315758 52.389878 
L 157.834442 52.334439 
L 158.353125 52.123201 
L 158.871809 52.308504 
L 159.390493 52.312511 
L 160.946544 52.757094 
L 162.502596 52.587786 
L 164.058647 52.800354 
L 164.577331 52.029495 
L 165.096014 51.634383 
L 166.133382 52.038556 
L 167.170749 51.414839 
L 167.689433 51.538861 
L 168.208117 51.207603 
L 168.726801 50.593419 
L 169.245485 50.936243 
L 169.764168 51.565552 
L 171.32022 52.066652 
L 171.838903 51.891441 
L 172.357587 52.415564 
L 173.394955 53.035574 
L 174.951006 53.508997 
L 175.988374 53.781037 
L 176.507057 53.520599 
L 177.544425 53.39782 
L 178.063109 53.652883 
L 178.581792 53.151298 
L 179.100476 52.852412 
L 179.61916 53.488069 
L 180.137844 53.671625 
L 181.175211 54.301461 
L 182.212579 54.61409 
L 183.249946 54.561032 
L 183.76863 54.937035 
L 184.287314 54.839577 
L 184.805998 54.867986 
L 186.880733 55.394939 
L 187.399416 55.439977 
L 187.9181 54.281425 
L 188.436784 55.298166 
L 189.474152 55.083656 
L 189.992835 55.087552 
L 190.511519 55.271889 
L 191.030203 55.204748 
L 192.06757 55.535169 
L 193.104938 55.944702 
L 193.623622 55.907314 
L 194.142305 56.147097 
L 196.217041 55.852065 
L 196.735724 56.216683 
L 197.254408 56.303617 
L 198.291776 56.048506 
L 198.810459 56.062853 
L 201.922562 57.023295 
L 202.95993 57.071254 
L 203.478613 57.294627 
L 203.997297 57.252135 
L 204.515981 57.53317 
L 205.034665 57.094927 
L 205.553348 57.131945 
L 206.072032 56.872603 
L 206.590716 56.90503 
L 207.1094 57.214838 
L 208.146767 56.720465 
L 208.665451 56.544749 
L 210.740186 56.978705 
L 211.25887 56.8462 
L 211.777554 57.134143 
L 213.852289 57.079005 
L 214.370973 56.81555 
L 214.889656 57.00212 
L 215.40834 57.065788 
L 215.927024 56.920177 
L 216.445708 57.184569 
L 216.964391 57.249599 
L 217.483075 57.428828 
L 218.001759 56.961202 
L 218.520443 57.514501 
L 219.039126 57.173888 
L 220.076494 56.920535 
L 221.113862 57.163478 
L 221.632545 57.508427 
L 224.225964 58.40368 
L 224.744648 58.121106 
L 225.263332 58.277967 
L 225.782015 58.125132 
L 227.338067 58.694189 
L 227.856751 55.138706 
L 228.375434 58.172966 
L 228.894118 57.785365 
L 229.412802 56.906666 
L 229.931486 56.542399 
L 230.450169 54.297691 
L 230.968853 56.599599 
L 231.487537 56.476306 
L 233.043588 56.578353 
L 233.562272 56.359897 
L 234.59964 56.639281 
L 237.711742 57.159996 
L 238.74911 57.628818 
L 239.267794 57.542827 
L 239.786477 57.850477 
L 240.305161 57.853131 
L 240.823845 57.455299 
L 241.342529 57.437622 
L 241.861212 57.163417 
L 242.379896 57.148581 
L 242.89858 57.289745 
L 243.417264 55.578851 
L 243.935947 56.866049 
L 244.454631 56.950851 
L 246.010683 56.460553 
L 246.529366 56.547743 
L 247.04805 56.476011 
L 249.122785 57.044379 
L 249.641469 56.918604 
L 250.160153 53.107856 
L 251.19752 56.793144 
L 251.716204 56.628113 
L 252.753572 57.319123 
L 253.272255 56.316165 
L 253.790939 54.58101 
L 254.309623 56.63716 
L 254.828307 56.295146 
L 255.34699 57.019199 
L 256.384358 57.20218 
L 256.903042 57.000092 
L 257.421725 57.312054 
L 257.940409 57.376487 
L 258.459093 57.135073 
L 258.977777 57.317124 
L 259.496461 56.966523 
L 260.533828 57.146642 
L 262.089879 57.263087 
L 262.608563 57.424136 
L 263.127247 57.059328 
L 263.645931 57.413433 
L 264.164614 57.527596 
L 264.683298 57.844676 
L 265.201982 57.966486 
L 266.23935 56.790072 
L 266.758033 57.438492 
L 267.276717 57.357696 
L 268.314085 56.072418 
L 268.832768 56.201227 
L 269.351452 56.554289 
L 269.870136 55.54517 
L 270.38882 56.208553 
L 270.907503 56.577656 
L 271.426187 56.668462 
L 271.944871 57.071331 
L 272.463555 56.888726 
L 272.982239 57.017878 
L 273.500922 57.396335 
L 274.53829 57.374073 
L 275.575657 58.063621 
L 278.169076 58.77859 
L 279.725128 59.368196 
L 280.762495 59.324221 
L 281.281179 58.638656 
L 281.799863 57.729331 
L 282.83723 58.131893 
L 283.355914 57.837664 
L 283.874598 58.310061 
L 284.393282 58.407422 
L 284.911965 58.250357 
L 285.949333 58.370296 
L 286.468017 58.377133 
L 286.9867 58.896042 
L 287.505384 58.913987 
L 288.542752 58.511918 
L 289.061435 57.942295 
L 289.580119 57.828867 
L 290.098803 58.77237 
L 290.617487 59.090314 
L 291.654854 59.324046 
L 292.173538 59.282416 
L 292.692222 58.727638 
L 293.210906 59.70162 
L 293.729589 59.622344 
L 294.248273 59.680146 
L 295.285641 58.38917 
L 295.804324 58.867206 
L 296.323008 59.132001 
L 296.841692 58.982747 
L 297.360376 59.018056 
L 297.87906 58.872384 
L 298.397743 58.592393 
L 302.02853 59.885151 
L 302.547213 59.718851 
L 304.103265 59.980625 
L 304.621949 60.333773 
L 306.178 60.55814 
L 306.696684 60.782088 
L 309.290102 60.898788 
L 309.808786 58.607917 
L 310.32747 58.434227 
L 310.846154 58.993019 
L 311.364838 58.792257 
L 311.883521 58.889522 
L 312.920889 58.782462 
L 315.514308 59.499567 
L 316.551675 59.789707 
L 317.070359 59.794619 
L 317.589043 60.061001 
L 318.107727 60.079025 
L 319.145094 59.51712 
L 320.701145 59.645375 
L 321.219829 59.412369 
L 321.738513 58.975081 
L 322.257197 59.364733 
L 323.294564 59.653533 
L 323.813248 59.338935 
L 324.331932 58.608669 
L 324.331932 58.608669 
" clip-path="url(#pb26f8b054c)" style="fill: none; stroke: #55c667; stroke-width: 1.5; stroke-linecap: square"/>
   </g>
   <g id="line2d_45">
    <path d="M 70.695568 13.532154 
L 71.214252 13.636859 
L 72.251619 14.281047 
L 74.845038 16.090139 
L 75.363722 16.022288 
L 75.882406 16.659888 
L 76.40109 16.911049 
L 80.55056 20.629564 
L 81.587927 21.769373 
L 82.625295 22.931205 
L 83.143979 22.950307 
L 83.662662 23.802869 
L 84.181346 24.329167 
L 85.737398 26.36437 
L 87.812133 28.664921 
L 89.368184 30.928773 
L 91.961603 34.425888 
L 94.036338 37.540307 
L 94.555022 38.444501 
L 95.073705 38.892512 
L 96.111073 40.697477 
L 97.14844 42.059192 
L 97.667124 42.8969 
L 98.185808 43.291302 
L 102.853962 49.280347 
L 103.372646 50.257742 
L 103.891329 50.712963 
L 104.410013 51.634684 
L 105.447381 52.906199 
L 105.966065 53.724769 
L 106.484748 54.204761 
L 107.003432 54.17892 
L 107.522116 55.280709 
L 108.0408 55.460069 
L 108.559483 56.466801 
L 109.078167 56.182779 
L 110.115535 57.472419 
L 110.634218 58.249548 
L 111.152902 58.453626 
L 111.671586 59.02732 
L 112.19027 59.818367 
L 113.227637 60.752318 
L 113.746321 61.249565 
L 114.265005 61.154388 
L 114.783689 60.548293 
L 116.33974 62.875805 
L 116.858424 62.780481 
L 117.377108 63.637049 
L 118.414475 64.29305 
L 118.933159 65.000461 
L 119.451843 65.215349 
L 119.970526 65.833572 
L 121.526578 66.968739 
L 122.045261 67.519312 
L 123.601313 68.448557 
L 124.119997 68.204527 
L 124.63868 68.941174 
L 125.157364 68.473297 
L 125.676048 68.631711 
L 126.194732 69.288577 
L 126.713415 68.645253 
L 127.232099 69.743149 
L 127.750783 69.292867 
L 128.269467 70.287747 
L 128.78815 70.217764 
L 129.306834 70.887732 
L 130.344202 70.321714 
L 130.862886 70.692625 
L 131.381569 70.422851 
L 131.900253 71.535522 
L 132.418937 70.974066 
L 132.937621 71.77537 
L 133.456304 71.805061 
L 135.012356 72.658691 
L 135.531039 72.749125 
L 136.568407 73.255444 
L 137.605775 73.816556 
L 138.124458 73.913661 
L 140.717877 74.93084 
L 141.236561 75.01556 
L 141.755245 75.260773 
L 142.273928 75.312949 
L 143.311296 75.641079 
L 143.82998 75.301435 
L 144.348664 75.717237 
L 144.867347 75.539512 
L 145.386031 74.693541 
L 145.904715 73.393715 
L 146.942082 74.36055 
L 147.460766 74.337732 
L 147.97945 73.539201 
L 148.498134 73.158307 
L 149.016817 73.887257 
L 149.535501 73.783013 
L 150.054185 71.388672 
L 150.572869 62.523708 
L 151.091553 66.258987 
L 151.610236 64.616314 
L 152.12892 68.263285 
L 152.647604 69.187613 
L 153.684971 68.664698 
L 154.203655 70.561156 
L 154.722339 71.009111 
L 155.241023 71.939605 
L 156.27839 72.711797 
L 156.797074 73.05416 
L 157.315758 73.687434 
L 157.834442 73.679654 
L 158.353125 74.10415 
L 158.871809 74.19031 
L 159.909177 75.222501 
L 160.42786 75.298584 
L 160.946544 75.556904 
L 161.465228 75.649745 
L 162.502596 76.506688 
L 163.539963 76.840961 
L 164.577331 77.272603 
L 165.614698 77.532735 
L 166.652066 77.944173 
L 168.208117 78.476002 
L 168.726801 78.572357 
L 169.245485 78.789588 
L 170.282852 78.990844 
L 172.876271 79.642776 
L 174.951006 79.853513 
L 175.988374 80.191841 
L 178.063109 80.460306 
L 178.581792 79.810292 
L 180.137844 80.320088 
L 180.656527 79.30062 
L 181.693895 78.456257 
L 182.731263 78.435694 
L 183.249946 79.12269 
L 184.287314 79.187427 
L 184.805998 79.782801 
L 185.324681 79.77213 
L 185.843365 79.061318 
L 186.362049 76.667101 
L 186.880733 71.150443 
L 187.399416 70.967172 
L 188.436784 56.267332 
L 188.955468 55.751882 
L 189.474152 59.446991 
L 190.511519 60.838317 
L 191.030203 58.682175 
L 191.548887 61.114968 
L 192.06757 62.980544 
L 192.586254 61.965614 
L 193.623622 66.887406 
L 194.142305 68.662905 
L 194.660989 68.264974 
L 195.179673 69.416428 
L 195.698357 70.973238 
L 196.735724 72.247034 
L 197.254408 73.235004 
L 197.773092 73.625221 
L 199.329143 75.495499 
L 199.847827 75.785603 
L 200.366511 76.326657 
L 200.885195 76.615558 
L 202.441246 77.88493 
L 203.478613 78.461343 
L 205.553348 79.371212 
L 207.1094 79.879568 
L 209.184135 80.234203 
L 213.333605 81.201898 
L 213.852289 81.231819 
L 214.889656 81.475898 
L 216.964391 81.989375 
L 217.483075 81.932056 
L 218.001759 77.743007 
L 218.520443 64.752092 
L 219.039126 70.067986 
L 219.55781 59.530301 
L 220.076494 59.167342 
L 220.595178 62.842016 
L 221.113862 62.773694 
L 221.632545 68.867964 
L 222.151229 68.15692 
L 222.669913 70.06836 
L 223.188597 71.268168 
L 224.225964 71.912397 
L 224.744648 72.901427 
L 225.782015 75.384619 
L 226.300699 75.099781 
L 226.819383 76.268764 
L 227.338067 76.701165 
L 227.856751 76.719988 
L 228.375434 77.480875 
L 228.894118 77.587006 
L 229.412802 77.943115 
L 229.931486 78.677106 
L 230.450169 78.878662 
L 230.968853 79.246502 
L 231.487537 79.757975 
L 232.006221 79.832895 
L 233.043588 80.633355 
L 233.562272 80.716717 
L 235.118323 81.243319 
L 235.637007 81.438311 
L 236.155691 81.770668 
L 238.230426 82.436248 
L 238.74911 82.478159 
L 239.786477 82.809823 
L 241.342529 83.045047 
L 242.379896 83.212572 
L 247.566734 83.757657 
L 249.641469 83.885646 
L 250.678836 83.749952 
L 251.19752 83.963487 
L 253.790939 84.169354 
L 254.309623 83.692251 
L 254.828307 83.59247 
L 255.34699 83.634021 
L 255.865674 83.917102 
L 256.384358 82.842384 
L 257.421725 83.274914 
L 257.940409 83.30442 
L 258.977777 83.648329 
L 260.015144 83.814362 
L 262.608563 84.042824 
L 264.683298 84.444099 
L 267.276717 84.734079 
L 271.944871 85.071003 
L 272.463555 84.655015 
L 272.982239 84.903787 
L 273.500922 84.698198 
L 277.650392 85.243438 
L 278.169076 85.238974 
L 279.206444 85.394098 
L 281.281179 85.512013 
L 282.83723 85.525166 
L 283.355914 85.291888 
L 283.874598 85.37049 
L 284.393282 84.444584 
L 284.911965 84.13126 
L 285.430649 83.968265 
L 285.949333 83.085173 
L 286.468017 79.098141 
L 286.9867 69.364453 
L 287.505384 53.556129 
L 288.024068 48.948709 
L 288.542752 51.33252 
L 289.061435 55.374377 
L 289.580119 55.77394 
L 290.098803 59.915317 
L 290.617487 62.344428 
L 291.136171 61.390057 
L 291.654854 63.11871 
L 292.173538 66.549863 
L 292.692222 66.363315 
L 293.210906 66.872202 
L 294.248273 68.786061 
L 294.766957 69.580345 
L 295.285641 69.808576 
L 295.804324 62.257627 
L 296.323008 58.486136 
L 296.841692 55.617541 
L 297.360376 54.240766 
L 297.87906 58.32437 
L 298.397743 55.82 
L 298.916427 61.211678 
L 299.435111 58.251398 
L 299.953795 64.217181 
L 300.472478 63.291834 
L 300.991162 64.479889 
L 301.509846 66.401155 
L 302.02853 67.494331 
L 302.547213 68.17544 
L 303.065897 68.343547 
L 304.103265 71.6799 
L 305.140632 72.699645 
L 305.659316 73.615909 
L 306.696684 74.534078 
L 307.215367 75.603658 
L 307.734051 76.112742 
L 308.252735 77.055958 
L 308.771419 77.473608 
L 309.808786 77.842295 
L 310.846154 79.071811 
L 311.883521 79.873968 
L 313.958256 81.13806 
L 315.514308 81.770497 
L 320.182462 83.175406 
L 320.701145 83.211315 
L 321.738513 83.482405 
L 322.775881 83.765193 
L 323.294564 83.600024 
L 323.813248 83.812829 
L 324.331932 83.654308 
L 324.331932 83.654308 
" clip-path="url(#pb26f8b054c)" style="fill: none; stroke: #404788; stroke-width: 1.5; stroke-linecap: square"/>
   </g>
   <g id="patch_3">
    <path d="M 58.01375 145.8 
L 58.01375 7.2 
" style="fill: none; stroke: #000000; stroke-width: 0.8; stroke-linejoin: miter; stroke-linecap: square"/>
   </g>
   <g id="patch_4">
    <path d="M 337.01375 145.8 
L 337.01375 7.2 
" style="fill: none; stroke: #000000; stroke-width: 0.8; stroke-linejoin: miter; stroke-linecap: square"/>
   </g>
   <g id="patch_5">
    <path d="M 58.01375 145.8 
L 337.01375 145.8 
" style="fill: none; stroke: #000000; stroke-width: 0.8; stroke-linejoin: miter; stroke-linecap: square"/>
   </g>
   <g id="patch_6">
    <path d="M 58.01375 7.2 
L 337.01375 7.2 
" style="fill: none; stroke: #000000; stroke-width: 0.8; stroke-linejoin: miter; stroke-linecap: square"/>
   </g>
   <g id="legend_1">
    <g id="patch_7">
     <path d="M 114.993125 34.41375 
L 328.61375 34.41375 
Q 331.01375 34.41375 331.01375 32.01375 
L 331.01375 15.6 
Q 331.01375 13.2 328.61375 13.2 
L 114.993125 13.2 
Q 112.593125 13.2 112.593125 15.6 
L 112.593125 32.01375 
Q 112.593125 34.41375 114.993125 34.41375 
z
" style="fill: #ffffff; opacity: 0.8; stroke: #cccccc; stroke-linejoin: miter"/>
    </g>
    <g id="line2d_46">
     <path d="M 117.393125 22.918125 
L 129.393125 22.918125 
L 141.393125 22.918125 
" style="fill: none; stroke: #55c667; stroke-width: 1.5; stroke-linecap: square"/>
    </g>
    <g id="text_13">
     <!-- Dir-GCN -->
     <g transform="translate(150.993125 27.118125) scale(0.12 -0.12)">
      <defs>
       <path id="DejaVuSans-44" d="M 1259 4147 
L 1259 519 
L 2022 519 
Q 2988 519 3436 956 
Q 3884 1394 3884 2338 
Q 3884 3275 3436 3711 
Q 2988 4147 2022 4147 
L 1259 4147 
z
M 628 4666 
L 1925 4666 
Q 3281 4666 3915 4102 
Q 4550 3538 4550 2338 
Q 4550 1131 3912 565 
Q 3275 0 1925 0 
L 628 0 
L 628 4666 
z
" transform="scale(0.015625)"/>
       <path id="DejaVuSans-2d" d="M 313 2009 
L 1997 2009 
L 1997 1497 
L 313 1497 
L 313 2009 
z
" transform="scale(0.015625)"/>
       <path id="DejaVuSans-47" d="M 3809 666 
L 3809 1919 
L 2778 1919 
L 2778 2438 
L 4434 2438 
L 4434 434 
Q 4069 175 3628 42 
Q 3188 -91 2688 -91 
Q 1594 -91 976 548 
Q 359 1188 359 2328 
Q 359 3472 976 4111 
Q 1594 4750 2688 4750 
Q 3144 4750 3555 4637 
Q 3966 4525 4313 4306 
L 4313 3634 
Q 3963 3931 3569 4081 
Q 3175 4231 2741 4231 
Q 1884 4231 1454 3753 
Q 1025 3275 1025 2328 
Q 1025 1384 1454 906 
Q 1884 428 2741 428 
Q 3075 428 3337 486 
Q 3600 544 3809 666 
z
" transform="scale(0.015625)"/>
       <path id="DejaVuSans-43" d="M 4122 4306 
L 4122 3641 
Q 3803 3938 3442 4084 
Q 3081 4231 2675 4231 
Q 1875 4231 1450 3742 
Q 1025 3253 1025 2328 
Q 1025 1406 1450 917 
Q 1875 428 2675 428 
Q 3081 428 3442 575 
Q 3803 722 4122 1019 
L 4122 359 
Q 3791 134 3420 21 
Q 3050 -91 2638 -91 
Q 1578 -91 968 557 
Q 359 1206 359 2328 
Q 359 3453 968 4101 
Q 1578 4750 2638 4750 
Q 3056 4750 3426 4639 
Q 3797 4528 4122 4306 
z
" transform="scale(0.015625)"/>
      </defs>
      <use xlink:href="#DejaVuSans-44"/>
      <use xlink:href="#DejaVuSans-69" x="77.001953"/>
      <use xlink:href="#DejaVuSans-72" x="104.785156"/>
      <use xlink:href="#DejaVuSans-2d" x="139.523438"/>
      <use xlink:href="#DejaVuSans-47" x="179.232422"/>
      <use xlink:href="#DejaVuSans-43" x="256.722656"/>
      <use xlink:href="#DejaVuSans-4e" x="326.546875"/>
     </g>
    </g>
    <g id="line2d_47">
     <path d="M 223.154375 22.918125 
L 235.154375 22.918125 
L 247.154375 22.918125 
" style="fill: none; stroke: #404788; stroke-width: 1.5; stroke-linecap: square"/>
    </g>
    <g id="text_14">
     <!-- DA-Dir-GCN -->
     <g transform="translate(256.754375 27.118125) scale(0.12 -0.12)">
      <defs>
       <path id="DejaVuSans-41" d="M 2188 4044 
L 1331 1722 
L 3047 1722 
L 2188 4044 
z
M 1831 4666 
L 2547 4666 
L 4325 0 
L 3669 0 
L 3244 1197 
L 1141 1197 
L 716 0 
L 50 0 
L 1831 4666 
z
" transform="scale(0.015625)"/>
      </defs>
      <use xlink:href="#DejaVuSans-44"/>
      <use xlink:href="#DejaVuSans-41" x="75.251953"/>
      <use xlink:href="#DejaVuSans-2d" x="141.410156"/>
      <use xlink:href="#DejaVuSans-44" x="177.494141"/>
      <use xlink:href="#DejaVuSans-69" x="254.496094"/>
      <use xlink:href="#DejaVuSans-72" x="282.279297"/>
      <use xlink:href="#DejaVuSans-2d" x="317.017578"/>
      <use xlink:href="#DejaVuSans-47" x="356.726562"/>
      <use xlink:href="#DejaVuSans-43" x="434.216797"/>
      <use xlink:href="#DejaVuSans-4e" x="504.041016"/>
     </g>
    </g>
   </g>
  </g>
 </g>
 <defs>
  <clipPath id="pb26f8b054c">
   <rect x="58.01375" y="7.2" width="279" height="138.6"/>
  </clipPath>
 </defs>
</svg>
