<?xml version="1.0" encoding="utf-8" standalone="no"?>
<!DOCTYPE svg PUBLIC "-//W3C//DTD SVG 1.1//EN"
  "http://www.w3.org/Graphics/SVG/1.1/DTD/svg11.dtd">
<svg xmlns:xlink="http://www.w3.org/1999/xlink" width="339.573703pt" height="191.786563pt" viewBox="0 0 339.573703 191.786563" xmlns="http://www.w3.org/2000/svg" version="1.1">
 <metadata>
  <rdf:RDF xmlns:dc="http://purl.org/dc/elements/1.1/" xmlns:cc="http://creativecommons.org/ns#" xmlns:rdf="http://www.w3.org/1999/02/22-rdf-syntax-ns#">
   <cc:Work>
    <dc:type rdf:resource="http://purl.org/dc/dcmitype/StillImage"/>
    <dc:date>2024-09-05T12:42:29.683290</dc:date>
    <dc:format>image/svg+xml</dc:format>
    <dc:creator>
     <cc:Agent>
      <dc:title>Matplotlib v3.8.2, https://matplotlib.org/</dc:title>
     </cc:Agent>
    </dc:creator>
   </cc:Work>
  </rdf:RDF>
 </metadata>
 <defs>
  <style type="text/css">*{stroke-linejoin: round; stroke-linecap: butt}</style>
 </defs>
 <g id="figure_1">
  <g id="patch_1">
   <path d="M 0 191.786563 
L 339.573703 191.786563 
L 339.573703 0 
L 0 0 
z
" style="fill: #ffffff"/>
  </g>
  <g id="axes_1">
   <g id="patch_2">
    <path d="M 48.8975 150.359063 
L 327.8975 150.359063 
L 327.8975 11.759063 
L 48.8975 11.759063 
z
" style="fill: #ffffff"/>
   </g>
   <g id="PolyCollection_1">
    <path d="M 61.579318 -451.826219 
L 61.579318 -62.433205 
L 62.098002 -151.769885 
L 62.616686 -135.592713 
L 63.135369 -75.678156 
L 63.654053 -48.747308 
L 64.172737 -34.917603 
L 64.691421 -26.720286 
L 65.210105 -24.299565 
L 65.728788 -16.23551 
L 66.247472 -12.747429 
L 66.766156 -9.698574 
L 67.28484 12.807085 
L 67.803523 7.13245 
L 68.322207 1.430597 
L 68.840891 6.790829 
L 69.359575 15.487801 
L 69.878259 24.477973 
L 70.396942 22.863092 
L 70.915626 18.232192 
L 71.43431 22.671953 
L 71.952994 27.225681 
L 72.471677 27.534946 
L 72.990361 29.912102 
L 73.509045 29.245945 
L 74.027729 31.999634 
L 74.546412 32.164617 
L 75.065096 32.529283 
L 75.58378 38.232476 
L 76.102464 32.359893 
L 76.621148 28.370293 
L 77.139831 33.850315 
L 77.658515 31.690058 
L 78.177199 35.476185 
L 78.695883 37.559776 
L 79.214566 38.896494 
L 79.73325 47.25448 
L 80.251934 45.619328 
L 80.770618 45.890454 
L 81.289301 39.892039 
L 81.807985 46.699519 
L 82.326669 44.865248 
L 82.845353 44.960193 
L 83.364037 44.329581 
L 83.88272 45.01141 
L 84.401404 44.579507 
L 84.920088 49.858119 
L 85.438772 49.821072 
L 85.957455 50.006465 
L 86.476139 55.602214 
L 86.994823 73.944672 
L 87.513507 49.884754 
L 88.03219 49.893484 
L 88.550874 60.463231 
L 89.069558 57.465048 
L 89.588242 52.572585 
L 90.106926 48.358668 
L 90.625609 42.885495 
L 91.144293 43.287583 
L 91.662977 43.94186 
L 92.181661 46.330391 
L 92.700344 50.806726 
L 93.219028 49.842542 
L 93.737712 52.775903 
L 94.256396 53.156133 
L 94.775079 53.742043 
L 95.293763 52.803955 
L 95.812447 53.130544 
L 96.331131 54.122344 
L 96.849815 50.881379 
L 97.368498 51.106864 
L 97.887182 53.524632 
L 98.405866 53.285123 
L 98.92455 54.932938 
L 99.443233 56.221902 
L 99.961917 65.34841 
L 100.480601 61.145436 
L 100.999285 59.958492 
L 101.517968 58.708401 
L 102.036652 57.312518 
L 102.555336 55.648516 
L 103.07402 58.023657 
L 103.592704 58.506144 
L 104.111387 56.468428 
L 104.630071 54.965638 
L 105.148755 53.078587 
L 105.667439 54.201234 
L 106.186122 58.631622 
L 106.704806 58.160757 
L 107.22349 57.317931 
L 107.742174 59.037667 
L 108.260858 59.480346 
L 108.779541 61.347021 
L 109.298225 61.388226 
L 109.816909 61.211336 
L 110.335593 56.482445 
L 110.854276 61.570681 
L 111.37296 65.737325 
L 111.891644 76.081099 
L 112.410328 65.260289 
L 112.929011 69.284194 
L 113.447695 67.077931 
L 113.966379 66.858711 
L 114.485063 73.884128 
L 115.003747 69.364094 
L 115.52243 68.383442 
L 116.041114 68.194922 
L 116.559798 62.735615 
L 117.078482 63.440928 
L 117.597165 62.759214 
L 118.115849 60.995469 
L 118.634533 60.313871 
L 119.153217 59.997617 
L 119.6719 60.926813 
L 120.190584 62.024584 
L 120.709268 63.616111 
L 121.227952 63.924201 
L 121.746636 61.555687 
L 122.265319 63.18925 
L 122.784003 60.884837 
L 123.302687 61.308085 
L 123.821371 59.625727 
L 124.340054 60.445061 
L 124.858738 61.780661 
L 125.377422 64.355398 
L 125.896106 63.56045 
L 126.414789 64.76089 
L 126.933473 65.209216 
L 127.452157 65.868681 
L 127.970841 66.792429 
L 128.489525 65.021157 
L 129.008208 72.446695 
L 129.526892 68.243809 
L 130.045576 66.55775 
L 130.56426 65.792413 
L 131.082943 65.285913 
L 131.601627 66.03713 
L 132.120311 68.896073 
L 132.638995 67.720112 
L 133.157678 69.277991 
L 133.676362 69.106806 
L 134.195046 68.065541 
L 134.71373 67.426344 
L 135.232414 68.144693 
L 135.751097 70.750002 
L 136.269781 71.467023 
L 136.788465 71.282848 
L 137.307149 69.241876 
L 137.825832 79.187807 
L 138.344516 69.686034 
L 138.8632 73.421349 
L 139.381884 71.282606 
L 139.900567 71.328656 
L 140.419251 71.245893 
L 140.937935 70.073891 
L 141.456619 72.019043 
L 141.975303 72.875497 
L 142.493986 74.776325 
L 143.01267 74.901206 
L 143.531354 73.873857 
L 144.050038 69.450731 
L 144.568721 63.603133 
L 145.087405 73.95131 
L 145.606089 64.672514 
L 146.124773 69.326191 
L 146.643456 68.780136 
L 147.16214 68.862793 
L 147.680824 70.015108 
L 148.199508 73.448333 
L 148.718192 71.77919 
L 149.236875 72.562276 
L 149.755559 72.69915 
L 150.274243 74.890649 
L 150.792927 75.360794 
L 151.31161 79.337427 
L 151.830294 70.530514 
L 152.348978 74.0044 
L 152.867662 74.154958 
L 153.386346 73.757541 
L 153.905029 77.830948 
L 154.423713 76.403357 
L 154.942397 75.993644 
L 155.461081 76.327266 
L 155.979764 74.935259 
L 156.498448 75.521023 
L 157.017132 77.915884 
L 157.535816 76.108447 
L 158.054499 75.218272 
L 158.573183 76.789293 
L 159.091867 73.619376 
L 159.610551 71.071154 
L 160.129235 74.711903 
L 160.647918 72.058429 
L 161.166602 73.744556 
L 161.685286 76.963228 
L 162.20397 74.62084 
L 162.722653 77.578598 
L 163.241337 85.841051 
L 163.760021 82.093749 
L 164.278705 79.960074 
L 164.797388 75.394077 
L 165.316072 72.577902 
L 165.834756 73.483136 
L 166.35344 76.894049 
L 166.872124 78.426776 
L 167.390807 78.343855 
L 167.909491 79.061623 
L 168.428175 78.442596 
L 168.946859 76.477697 
L 169.465542 75.940829 
L 169.984226 78.911791 
L 170.50291 80.442852 
L 171.021594 81.085881 
L 171.540277 81.610882 
L 172.058961 82.434773 
L 172.577645 82.25251 
L 173.096329 82.971026 
L 173.615013 83.20888 
L 174.133696 83.386983 
L 174.65238 83.148598 
L 175.171064 81.037222 
L 175.689748 78.514226 
L 176.208431 74.526008 
L 176.727115 76.816903 
L 177.245799 75.16224 
L 177.764483 77.404161 
L 178.283166 78.100903 
L 178.80185 79.334295 
L 179.320534 76.669626 
L 179.839218 72.736077 
L 180.357902 76.671431 
L 180.876585 77.163552 
L 181.395269 78.373106 
L 181.913953 79.067933 
L 182.432637 79.550942 
L 182.95132 80.766031 
L 183.470004 80.821995 
L 183.988688 81.574857 
L 184.507372 81.113492 
L 185.026055 83.078042 
L 185.544739 85.960505 
L 186.063423 85.485751 
L 186.582107 85.11171 
L 187.100791 83.061318 
L 187.619474 80.590306 
L 188.138158 73.379151 
L 188.656842 76.560235 
L 189.175526 79.659797 
L 189.694209 83.224426 
L 190.212893 83.404829 
L 190.731577 84.500134 
L 191.250261 85.693337 
L 191.768945 84.893667 
L 192.287628 85.629247 
L 192.806312 86.597546 
L 193.324996 86.30787 
L 193.84368 85.072837 
L 194.362363 84.794245 
L 194.881047 85.055628 
L 195.399731 85.77624 
L 195.918415 87.913485 
L 196.437098 85.452567 
L 196.955782 90.136489 
L 197.474466 87.229057 
L 197.99315 89.456477 
L 198.511834 88.26432 
L 199.030517 89.349219 
L 199.549201 89.896934 
L 200.067885 90.202876 
L 200.586569 91.557467 
L 201.105252 91.261803 
L 201.623936 91.043264 
L 202.14262 86.64326 
L 202.661304 85.801623 
L 203.179987 87.043751 
L 203.698671 88.721832 
L 204.217355 90.376141 
L 204.736039 91.920685 
L 205.254723 91.530621 
L 205.773406 91.998532 
L 206.29209 94.402829 
L 206.810774 94.311138 
L 207.329458 93.642394 
L 207.848141 93.770427 
L 208.366825 93.51937 
L 208.885509 92.810232 
L 209.404193 86.469952 
L 209.922876 90.137572 
L 210.44156 90.95467 
L 210.960244 89.996163 
L 211.478928 91.063579 
L 211.997612 91.706814 
L 212.516295 92.079955 
L 213.034979 91.980822 
L 213.553663 94.301944 
L 214.072347 93.805185 
L 214.59103 95.817594 
L 215.109714 96.508737 
L 215.628398 96.329748 
L 216.147082 96.693668 
L 216.665765 94.659515 
L 217.184449 95.929327 
L 217.703133 96.852 
L 218.221817 105.19225 
L 218.740501 103.766412 
L 219.259184 103.675635 
L 219.777868 100.600736 
L 220.296552 94.335386 
L 220.815236 95.612775 
L 221.333919 95.149258 
L 221.852603 90.877091 
L 222.371287 92.262741 
L 222.889971 93.734738 
L 223.408654 95.441424 
L 223.927338 97.869926 
L 224.446022 96.65043 
L 224.964706 98.0765 
L 225.48339 98.916859 
L 226.002073 98.562987 
L 226.520757 91.671783 
L 227.039441 93.940066 
L 227.558125 96.281878 
L 228.076808 95.162539 
L 228.595492 95.105688 
L 229.114176 96.040899 
L 229.63286 96.935613 
L 230.151544 94.319638 
L 230.670227 93.013096 
L 231.188911 90.17814 
L 231.707595 87.851067 
L 232.226279 91.112977 
L 232.744962 88.792778 
L 233.263646 90.381673 
L 233.78233 91.149954 
L 234.301014 92.570355 
L 234.819697 93.767157 
L 235.338381 94.375258 
L 235.857065 94.999638 
L 236.375749 95.775707 
L 236.894433 93.651005 
L 237.413116 93.160433 
L 237.9318 94.937905 
L 238.450484 94.355325 
L 238.969168 94.374536 
L 239.487851 96.15372 
L 240.006535 96.858138 
L 240.525219 98.08407 
L 241.043903 99.150598 
L 241.562586 99.550611 
L 242.08127 100.17111 
L 242.599954 100.113676 
L 243.118638 99.960552 
L 243.637322 100.0626 
L 244.156005 101.771495 
L 244.674689 98.442132 
L 245.193373 100.526216 
L 245.712057 91.314956 
L 246.23074 95.74075 
L 246.749424 94.354971 
L 247.268108 92.802284 
L 247.786792 94.531986 
L 248.305475 97.268043 
L 248.824159 96.187274 
L 249.342843 97.204054 
L 249.861527 98.082264 
L 250.380211 97.364093 
L 250.898894 99.940277 
L 251.417578 101.050394 
L 251.936262 102.364865 
L 252.454946 101.697165 
L 252.973629 102.014269 
L 253.492313 102.28559 
L 254.010997 103.2214 
L 254.529681 100.611969 
L 255.048364 102.964252 
L 255.567048 101.019628 
L 256.085732 101.909631 
L 256.604416 120.255511 
L 257.1231 105.534164 
L 257.641783 106.636129 
L 258.160467 104.349567 
L 258.679151 103.134654 
L 259.197835 106.026649 
L 259.716518 107.02181 
L 260.235202 108.105913 
L 260.753886 103.384073 
L 261.27257 105.865613 
L 261.791253 106.794114 
L 262.309937 107.063787 
L 262.828621 108.22978 
L 263.347305 108.882106 
L 263.865989 109.582938 
L 264.384672 109.318473 
L 264.903356 109.639697 
L 265.42204 105.81341 
L 265.940724 107.389565 
L 266.459407 109.796243 
L 266.978091 110.025797 
L 267.496775 111.136454 
L 268.015459 105.971057 
L 268.534142 105.513625 
L 269.052826 104.123095 
L 269.57151 103.090593 
L 270.090194 101.452326 
L 270.608878 102.262556 
L 271.127561 103.605404 
L 271.646245 104.427211 
L 272.164929 105.661913 
L 272.683613 106.668691 
L 273.202296 104.517524 
L 273.72098 105.05505 
L 274.239664 105.53909 
L 274.758348 104.438623 
L 275.277032 105.375647 
L 275.795715 106.950727 
L 276.314399 108.359075 
L 276.833083 109.320393 
L 277.351767 108.271856 
L 277.87045 109.714546 
L 278.389134 111.624731 
L 278.907818 110.756657 
L 279.426502 109.672068 
L 279.945185 109.656959 
L 280.463869 109.026093 
L 280.982553 110.712679 
L 281.501237 111.483874 
L 282.019921 113.392764 
L 282.538604 112.095223 
L 283.057288 109.528852 
L 283.575972 108.19789 
L 284.094656 110.226228 
L 284.613339 109.525865 
L 285.132023 110.205141 
L 285.650707 110.183776 
L 286.169391 110.610089 
L 286.688074 110.809524 
L 287.206758 113.747024 
L 287.725442 124.785571 
L 288.244126 117.937543 
L 288.76281 118.402173 
L 289.281493 118.877332 
L 289.800177 114.551108 
L 290.318861 113.435702 
L 290.837545 113.040698 
L 291.356228 108.056435 
L 291.874912 109.420983 
L 292.393596 111.169275 
L 292.91228 111.66825 
L 293.430963 111.997082 
L 293.949647 112.557621 
L 294.468331 113.074191 
L 294.987015 113.38334 
L 295.505699 113.533593 
L 296.024382 112.70163 
L 296.543066 109.689771 
L 297.06175 109.036641 
L 297.580434 111.062985 
L 298.099117 114.828112 
L 298.617801 115.441769 
L 299.136485 115.166063 
L 299.655169 116.748739 
L 300.173852 117.383526 
L 300.692536 116.656255 
L 301.21122 116.506783 
L 301.729904 118.964023 
L 302.248588 119.921733 
L 302.767271 120.452952 
L 303.285955 122.381492 
L 303.804639 122.487709 
L 304.323323 122.737514 
L 304.842006 118.536272 
L 305.36069 115.952145 
L 305.879374 117.505795 
L 306.398058 105.626905 
L 306.916741 105.712775 
L 307.435425 107.982247 
L 307.954109 111.485917 
L 308.472793 112.372535 
L 308.991477 114.182926 
L 309.51016 114.950089 
L 310.028844 114.246113 
L 310.547528 115.991306 
L 311.066212 117.618138 
L 311.584895 117.479229 
L 312.103579 118.60915 
L 312.622263 120.802225 
L 313.140947 121.860206 
L 313.659631 122.777054 
L 314.178314 122.600548 
L 314.696998 122.07706 
L 315.215682 124.61975 
L 315.215682 99.313811 
L 315.215682 99.313811 
L 314.696998 97.296106 
L 314.178314 95.682218 
L 313.659631 92.710525 
L 313.140947 91.972084 
L 312.622263 88.571522 
L 312.103579 86.482043 
L 311.584895 86.273264 
L 311.066212 83.358868 
L 310.547528 80.646779 
L 310.028844 76.081263 
L 309.51016 79.340427 
L 308.991477 77.044186 
L 308.472793 74.187733 
L 307.954109 63.117605 
L 307.435425 66.973553 
L 306.916741 70.341704 
L 306.398058 83.475211 
L 305.879374 61.922303 
L 305.36069 85.039583 
L 304.842006 98.010897 
L 304.323323 104.465559 
L 303.804639 104.505884 
L 303.285955 104.160259 
L 302.767271 102.762103 
L 302.248588 101.476349 
L 301.729904 98.673485 
L 301.21122 98.222946 
L 300.692536 97.474818 
L 300.173852 95.769498 
L 299.655169 93.176006 
L 299.136485 94.077219 
L 298.617801 90.726354 
L 298.099117 88.688521 
L 297.580434 89.709267 
L 297.06175 87.402465 
L 296.543066 83.810358 
L 296.024382 91.496948 
L 295.505699 91.186184 
L 294.987015 88.735112 
L 294.468331 86.601518 
L 293.949647 86.96265 
L 293.430963 84.64857 
L 292.91228 83.078023 
L 292.393596 83.709562 
L 291.874912 77.311308 
L 291.356228 78.504126 
L 290.837545 83.628164 
L 290.318861 81.059621 
L 289.800177 75.998833 
L 289.281493 79.705276 
L 288.76281 80.513708 
L 288.244126 76.008055 
L 287.725442 54.11592 
L 287.206758 92.873755 
L 286.688074 99.927123 
L 286.169391 99.823112 
L 285.650707 97.588466 
L 285.132023 97.968439 
L 284.613339 96.713734 
L 284.094656 93.978934 
L 283.575972 94.989228 
L 283.057288 96.708872 
L 282.538604 95.851872 
L 282.019921 96.595241 
L 281.501237 97.165696 
L 280.982553 99.566021 
L 280.463869 98.603222 
L 279.945185 98.945373 
L 279.426502 100.752691 
L 278.907818 97.562647 
L 278.389134 98.315416 
L 277.87045 98.246973 
L 277.351767 97.259023 
L 276.833083 94.583665 
L 276.314399 93.790055 
L 275.795715 91.064708 
L 275.277032 87.408922 
L 274.758348 83.922112 
L 274.239664 78.656428 
L 273.72098 86.865785 
L 273.202296 92.632301 
L 272.683613 91.387505 
L 272.164929 88.774851 
L 271.646245 86.19058 
L 271.127561 86.069081 
L 270.608878 80.902113 
L 270.090194 82.258689 
L 269.57151 83.489142 
L 269.052826 83.10918 
L 268.534142 81.650306 
L 268.015459 75.465241 
L 267.496775 82.281922 
L 266.978091 81.460573 
L 266.459407 75.229217 
L 265.940724 77.155812 
L 265.42204 81.781569 
L 264.903356 82.465351 
L 264.384672 82.092386 
L 263.865989 81.77169 
L 263.347305 81.521765 
L 262.828621 79.338895 
L 262.309937 78.797017 
L 261.791253 76.883406 
L 261.27257 75.324596 
L 260.753886 73.058724 
L 260.235202 69.60511 
L 259.716518 69.051975 
L 259.197835 61.554247 
L 258.679151 62.658261 
L 258.160467 55.557807 
L 257.641783 59.270175 
L 257.1231 50.895209 
L 256.604416 13.727528 
L 256.085732 73.695467 
L 255.567048 86.247039 
L 255.048364 82.605184 
L 254.529681 88.499284 
L 254.010997 90.683033 
L 253.492313 88.280445 
L 252.973629 87.707545 
L 252.454946 86.75508 
L 251.936262 79.88545 
L 251.417578 82.327381 
L 250.898894 81.723877 
L 250.380211 83.100484 
L 249.861527 79.68781 
L 249.342843 77.173362 
L 248.824159 77.919968 
L 248.305475 67.709673 
L 247.786792 71.952945 
L 247.268108 77.701607 
L 246.749424 75.727148 
L 246.23074 71.008086 
L 245.712057 70.994247 
L 245.193373 50.648866 
L 244.674689 67.252834 
L 244.156005 72.443708 
L 243.637322 85.072317 
L 243.118638 90.065477 
L 242.599954 91.491266 
L 242.08127 90.743564 
L 241.562586 90.057091 
L 241.043903 89.286739 
L 240.525219 88.23317 
L 240.006535 87.073216 
L 239.487851 87.650036 
L 238.969168 82.340562 
L 238.450484 87.60698 
L 237.9318 80.971725 
L 237.413116 84.182847 
L 236.894433 86.305732 
L 236.375749 85.851631 
L 235.857065 84.486152 
L 235.338381 82.335503 
L 234.819697 80.309275 
L 234.301014 81.100501 
L 233.78233 76.988441 
L 233.263646 72.047672 
L 232.744962 76.195975 
L 232.226279 64.911961 
L 231.707595 72.435269 
L 231.188911 75.933529 
L 230.670227 73.768954 
L 230.151544 73.737887 
L 229.63286 70.008447 
L 229.114176 69.879453 
L 228.595492 69.960146 
L 228.076808 65.608948 
L 227.558125 59.199481 
L 227.039441 63.34929 
L 226.520757 76.688033 
L 226.002073 78.051894 
L 225.48339 78.64234 
L 224.964706 77.386534 
L 224.446022 75.666333 
L 223.927338 73.005732 
L 223.408654 72.664261 
L 222.889971 69.393467 
L 222.371287 67.9933 
L 221.852603 70.356498 
L 221.333919 65.759233 
L 220.815236 67.211385 
L 220.296552 65.957256 
L 219.777868 64.852907 
L 219.259184 60.429665 
L 218.740501 61.403844 
L 218.221817 53.013245 
L 217.703133 74.209745 
L 217.184449 85.720514 
L 216.665765 86.252217 
L 216.147082 82.333993 
L 215.628398 85.190979 
L 215.109714 86.427952 
L 214.59103 85.096917 
L 214.072347 85.257801 
L 213.553663 84.906034 
L 213.034979 82.467691 
L 212.516295 82.192099 
L 211.997612 80.294507 
L 211.478928 80.444664 
L 210.960244 75.861925 
L 210.44156 75.508869 
L 209.922876 72.288808 
L 209.404193 74.745066 
L 208.885509 63.078892 
L 208.366825 71.0527 
L 207.848141 76.032864 
L 207.329458 83.271055 
L 206.810774 84.918967 
L 206.29209 85.258313 
L 205.773406 85.942302 
L 205.254723 84.878428 
L 204.736039 83.3805 
L 204.217355 83.301317 
L 203.698671 81.603461 
L 203.179987 81.084106 
L 202.661304 80.014295 
L 202.14262 76.085446 
L 201.623936 75.695984 
L 201.105252 77.88904 
L 200.586569 80.85292 
L 200.067885 71.988927 
L 199.549201 72.692782 
L 199.030517 77.13544 
L 198.511834 81.313379 
L 197.99315 73.07477 
L 197.474466 79.65461 
L 196.955782 79.636864 
L 196.437098 79.302728 
L 195.918415 78.942445 
L 195.399731 74.845542 
L 194.881047 74.77492 
L 194.362363 70.238312 
L 193.84368 76.161797 
L 193.324996 74.786964 
L 192.806312 75.22486 
L 192.287628 78.014467 
L 191.768945 76.937109 
L 191.250261 76.364568 
L 190.731577 75.826032 
L 190.212893 75.672859 
L 189.694209 74.977549 
L 189.175526 73.851723 
L 188.656842 69.10472 
L 188.138158 64.265959 
L 187.619474 61.230413 
L 187.100791 61.33218 
L 186.582107 59.001695 
L 186.063423 51.626372 
L 185.544739 36.265473 
L 185.026055 43.125454 
L 184.507372 65.064624 
L 183.988688 74.855726 
L 183.470004 74.609871 
L 182.95132 73.62047 
L 182.432637 72.93823 
L 181.913953 71.935415 
L 181.395269 70.413641 
L 180.876585 67.471647 
L 180.357902 66.579526 
L 179.839218 54.896318 
L 179.320534 62.508123 
L 178.80185 63.528216 
L 178.283166 59.372651 
L 177.764483 60.299678 
L 177.245799 54.06239 
L 176.727115 46.717192 
L 176.208431 36.938319 
L 175.689748 63.229871 
L 175.171064 63.200098 
L 174.65238 65.232136 
L 174.133696 66.775098 
L 173.615013 67.310676 
L 173.096329 66.446873 
L 172.577645 69.062873 
L 172.058961 71.432404 
L 171.540277 71.139401 
L 171.021594 70.300738 
L 170.50291 70.847553 
L 169.984226 69.882186 
L 169.465542 69.743466 
L 168.946859 67.191057 
L 168.428175 65.504842 
L 167.909491 63.16701 
L 167.390807 63.159782 
L 166.872124 58.116761 
L 166.35344 61.814828 
L 165.834756 62.37083 
L 165.316072 57.270362 
L 164.797388 59.533271 
L 164.278705 52.400187 
L 163.760021 48.356369 
L 163.241337 38.317219 
L 162.722653 60.602652 
L 162.20397 69.341865 
L 161.685286 67.813862 
L 161.166602 66.245204 
L 160.647918 67.080902 
L 160.129235 65.643427 
L 159.610551 63.227243 
L 159.091867 62.802869 
L 158.573183 62.217449 
L 158.054499 56.919155 
L 157.535816 51.900894 
L 157.017132 56.282974 
L 156.498448 63.411237 
L 155.979764 63.020493 
L 155.461081 61.214063 
L 154.942397 60.360079 
L 154.423713 60.724739 
L 153.905029 58.587494 
L 153.386346 59.812363 
L 152.867662 54.695225 
L 152.348978 47.959727 
L 151.830294 60.606895 
L 151.31161 36.252929 
L 150.792927 50.172921 
L 150.274243 62.87548 
L 149.755559 61.179285 
L 149.236875 61.913093 
L 148.718192 58.599907 
L 148.199508 55.758243 
L 147.680824 54.244457 
L 147.16214 54.164592 
L 146.643456 49.070713 
L 146.124773 43.01068 
L 145.606089 48.027499 
L 145.087405 31.176748 
L 144.568721 44.177849 
L 144.050038 50.441416 
L 143.531354 51.663604 
L 143.01267 48.424896 
L 142.493986 47.148012 
L 141.975303 61.350478 
L 141.456619 61.188789 
L 140.937935 60.743277 
L 140.419251 59.151687 
L 139.900567 54.685319 
L 139.381884 54.039824 
L 138.8632 49.940127 
L 138.344516 54.090873 
L 137.825832 22.42577 
L 137.307149 62.504198 
L 136.788465 61.5046 
L 136.269781 60.045118 
L 135.751097 58.002872 
L 135.232414 57.561479 
L 134.71373 57.85362 
L 134.195046 55.784701 
L 133.676362 56.431494 
L 133.157678 55.605505 
L 132.638995 58.20169 
L 132.120311 52.614601 
L 131.601627 54.686945 
L 131.082943 53.972034 
L 130.56426 40.018941 
L 130.045576 44.672908 
L 129.526892 43.870625 
L 129.008208 30.22161 
L 128.489525 55.490489 
L 127.970841 58.331225 
L 127.452157 56.78298 
L 126.933473 57.185902 
L 126.414789 55.351046 
L 125.896106 54.848554 
L 125.377422 52.516076 
L 124.858738 52.377128 
L 124.340054 49.538974 
L 123.821371 45.145509 
L 123.302687 46.364614 
L 122.784003 50.384905 
L 122.265319 47.630351 
L 121.746636 50.008956 
L 121.227952 51.251129 
L 120.709268 48.485316 
L 120.190584 45.243799 
L 119.6719 46.244456 
L 119.153217 46.348944 
L 118.634533 45.52632 
L 118.115849 40.455651 
L 117.597165 32.654329 
L 117.078482 32.338971 
L 116.559798 23.661853 
L 116.041114 22.382228 
L 115.52243 27.772804 
L 115.003747 23.805871 
L 114.485063 -5.864865 
L 113.966379 42.057803 
L 113.447695 42.075684 
L 112.929011 32.112468 
L 112.410328 36.370211 
L 111.891644 8.205776 
L 111.37296 21.561143 
L 110.854276 51.946977 
L 110.335593 56.044368 
L 109.816909 55.449135 
L 109.298225 54.097296 
L 108.779541 52.626659 
L 108.260858 51.123845 
L 107.742174 49.713912 
L 107.22349 49.388578 
L 106.704806 46.729225 
L 106.186122 47.068012 
L 105.667439 46.862734 
L 105.148755 40.604164 
L 104.630071 45.362178 
L 104.111387 42.247213 
L 103.592704 39.967473 
L 103.07402 42.718355 
L 102.555336 31.377563 
L 102.036652 33.96773 
L 101.517968 38.113162 
L 100.999285 36.112618 
L 100.480601 33.105942 
L 99.961917 21.764172 
L 99.443233 49.307972 
L 98.92455 49.046932 
L 98.405866 44.869785 
L 97.887182 43.619307 
L 97.368498 42.653497 
L 96.849815 30.853531 
L 96.331131 40.555044 
L 95.812447 35.685264 
L 95.293763 34.586795 
L 94.775079 30.310957 
L 94.256396 31.293062 
L 93.737712 23.971294 
L 93.219028 15.817776 
L 92.700344 20.482413 
L 92.181661 37.544704 
L 91.662977 33.258372 
L 91.144293 32.001391 
L 90.625609 17.799406 
L 90.106926 27.678226 
L 89.588242 20.963122 
L 89.069558 8.060496 
L 88.550874 9.050253 
L 88.03219 -1.062399 
L 87.513507 10.986326 
L 86.994823 -44.946391 
L 86.476139 11.583011 
L 85.957455 31.09113 
L 85.438772 30.684947 
L 84.920088 28.644179 
L 84.401404 23.983906 
L 83.88272 25.415705 
L 83.364037 22.588985 
L 82.845353 23.866785 
L 82.326669 19.260526 
L 81.807985 21.657669 
L 81.289301 9.783799 
L 80.770618 15.929346 
L 80.251934 17.836893 
L 79.73325 -4.705416 
L 79.214566 20.093117 
L 78.695883 19.590767 
L 78.177199 21.347025 
L 77.658515 25.247379 
L 77.139831 21.768353 
L 76.621148 13.651771 
L 76.102464 17.549284 
L 75.58378 17.223174 
L 75.065096 14.385207 
L 74.546412 10.317275 
L 74.027729 7.747056 
L 73.509045 4.886381 
L 72.990361 -0.370007 
L 72.471677 -4.113592 
L 71.952994 -6.072656 
L 71.43431 -8.033069 
L 70.915626 -10.953041 
L 70.396942 -42.374785 
L 69.878259 -55.447014 
L 69.359575 -13.651916 
L 68.840891 -30.433364 
L 68.322207 -13.242493 
L 67.803523 -32.089697 
L 67.28484 -88.800645 
L 66.766156 -25.884127 
L 66.247472 -33.308272 
L 65.728788 -39.210445 
L 65.210105 -45.828309 
L 64.691421 -55.49629 
L 64.172737 -67.648681 
L 63.654053 -99.49674 
L 63.135369 -137.261296 
L 62.616686 -202.409145 
L 62.098002 -232.626498 
L 61.579318 -451.826219 
z
" clip-path="url(#pa92b19852d)" style="fill: #404788; fill-opacity: 0.2; stroke: #404788; stroke-opacity: 0.2"/>
   </g>
   <g id="PolyCollection_2">
    <path d="M 61.579318 -420.508829 
L 61.579318 -417.909195 
L 62.098002 -355.38718 
L 62.616686 -216.447023 
L 63.135369 -59.782985 
L 63.654053 -57.553359 
L 64.172737 -237.011706 
L 64.691421 -116.657662 
L 65.210105 -57.286208 
L 65.728788 -46.907339 
L 66.247472 -57.299902 
L 66.766156 -65.550241 
L 67.28484 -70.665584 
L 67.803523 -71.507553 
L 68.322207 -67.934354 
L 68.840891 -61.998342 
L 69.359575 -55.767549 
L 69.878259 -50.2514 
L 70.396942 -45.537716 
L 70.915626 -41.234311 
L 71.43431 -36.909271 
L 71.952994 -32.339019 
L 72.471677 -27.760725 
L 72.990361 -23.838161 
L 73.509045 -21.23269 
L 74.027729 -19.955857 
L 74.546412 -19.602738 
L 75.065096 -20.015684 
L 75.58378 -19.765932 
L 76.102464 -18.557645 
L 76.621148 -16.567973 
L 77.139831 -14.452817 
L 77.658515 -12.770786 
L 78.177199 -11.378631 
L 78.695883 -9.674791 
L 79.214566 -7.348149 
L 79.73325 -4.583502 
L 80.251934 -1.535026 
L 80.770618 1.467111 
L 81.289301 4.593861 
L 81.807985 7.557087 
L 82.326669 10.006854 
L 82.845353 12.510424 
L 83.364037 14.172702 
L 83.88272 14.875532 
L 84.401404 13.980207 
L 84.920088 14.64325 
L 85.438772 17.555455 
L 85.957455 19.287223 
L 86.476139 17.905777 
L 86.994823 22.117608 
L 87.513507 23.282659 
L 88.03219 25.942583 
L 88.550874 24.146413 
L 89.069558 26.940329 
L 89.588242 25.232474 
L 90.106926 27.654296 
L 90.625609 26.532673 
L 91.144293 28.44591 
L 91.662977 30.271538 
L 92.181661 30.090401 
L 92.700344 31.356982 
L 93.219028 30.076493 
L 93.737712 30.567977 
L 94.256396 31.108667 
L 94.775079 32.899393 
L 95.293763 33.383392 
L 95.812447 34.289396 
L 96.331131 32.397871 
L 96.849815 36.159095 
L 97.368498 36.522206 
L 97.887182 36.562757 
L 98.405866 34.905445 
L 98.92455 35.798249 
L 99.443233 35.703516 
L 99.961917 37.518034 
L 100.480601 38.32377 
L 100.999285 38.373748 
L 101.517968 39.510706 
L 102.036652 37.954197 
L 102.555336 38.827577 
L 103.07402 40.1361 
L 103.592704 39.687182 
L 104.111387 40.458336 
L 104.630071 39.399908 
L 105.148755 40.72203 
L 105.667439 42.498151 
L 106.186122 41.837775 
L 106.704806 41.834605 
L 107.22349 42.667729 
L 107.742174 41.832069 
L 108.260858 42.747255 
L 108.779541 44.258803 
L 109.298225 44.74555 
L 109.816909 44.728787 
L 110.335593 44.696888 
L 110.854276 45.183819 
L 111.37296 44.382826 
L 111.891644 45.251692 
L 112.410328 46.983622 
L 112.929011 46.927002 
L 113.447695 45.437358 
L 113.966379 44.629974 
L 114.485063 45.829248 
L 115.003747 46.607918 
L 115.52243 46.208928 
L 116.041114 47.351334 
L 116.559798 47.428066 
L 117.078482 48.051715 
L 117.597165 48.488065 
L 118.115849 48.396215 
L 118.634533 47.646093 
L 119.153217 48.505619 
L 119.6719 50.636009 
L 120.190584 49.9903 
L 120.709268 48.590127 
L 121.227952 47.961054 
L 121.746636 49.218686 
L 122.265319 49.792151 
L 122.784003 49.230362 
L 123.302687 49.407209 
L 123.821371 51.466024 
L 124.340054 50.876087 
L 124.858738 50.840318 
L 125.377422 49.912237 
L 125.896106 50.628001 
L 126.414789 50.451642 
L 126.933473 50.284037 
L 127.452157 52.283357 
L 127.970841 53.578192 
L 128.489525 52.069472 
L 129.008208 51.520986 
L 129.526892 50.697251 
L 130.045576 52.372634 
L 130.56426 54.449924 
L 131.082943 53.355428 
L 131.601627 52.934683 
L 132.120311 52.795644 
L 132.638995 52.715395 
L 133.157678 52.346188 
L 133.676362 51.724534 
L 134.195046 52.131823 
L 134.71373 54.182235 
L 135.232414 54.764037 
L 135.751097 53.87403 
L 136.269781 53.010189 
L 136.788465 54.070597 
L 137.307149 55.302513 
L 137.825832 54.886233 
L 138.344516 54.429378 
L 138.8632 54.63958 
L 139.381884 55.042166 
L 139.900567 55.811227 
L 140.419251 55.95946 
L 140.937935 55.962128 
L 141.456619 56.14343 
L 141.975303 56.149325 
L 142.493986 57.070924 
L 143.01267 58.355816 
L 143.531354 56.283413 
L 144.050038 56.005436 
L 144.568721 55.67269 
L 145.087405 55.403728 
L 145.606089 56.527207 
L 146.124773 57.318912 
L 146.643456 56.755537 
L 147.16214 57.204523 
L 147.680824 57.26655 
L 148.199508 58.175159 
L 148.718192 57.700678 
L 149.236875 57.094067 
L 149.755559 56.544853 
L 150.274243 56.329953 
L 150.792927 57.096304 
L 151.31161 58.548801 
L 151.830294 58.791389 
L 152.348978 58.233924 
L 152.867662 58.317603 
L 153.386346 58.650388 
L 153.905029 57.547209 
L 154.423713 56.82897 
L 154.942397 58.106446 
L 155.461081 58.860681 
L 155.979764 58.631029 
L 156.498448 58.765782 
L 157.017132 59.600234 
L 157.535816 59.655636 
L 158.054499 59.174899 
L 158.573183 59.766236 
L 159.091867 60.872294 
L 159.610551 62.844206 
L 160.129235 64.914599 
L 160.647918 62.924676 
L 161.166602 60.808761 
L 161.685286 60.945543 
L 162.20397 60.894122 
L 162.722653 58.390908 
L 163.241337 59.284356 
L 163.760021 59.067798 
L 164.278705 57.485344 
L 164.797388 60.245347 
L 165.316072 59.180233 
L 165.834756 58.959523 
L 166.35344 59.599725 
L 166.872124 58.779386 
L 167.390807 59.925843 
L 167.909491 61.073344 
L 168.428175 59.816557 
L 168.946859 60.556632 
L 169.465542 61.55876 
L 169.984226 61.536509 
L 170.50291 61.94347 
L 171.021594 61.650877 
L 171.540277 60.31563 
L 172.058961 60.229811 
L 172.577645 61.058901 
L 173.096329 61.435289 
L 173.615013 64.170631 
L 174.133696 62.692269 
L 174.65238 61.601144 
L 175.171064 62.276331 
L 175.689748 61.768633 
L 176.208431 63.412731 
L 176.727115 62.686044 
L 177.245799 61.65814 
L 177.764483 62.92711 
L 178.283166 62.592964 
L 178.80185 62.805527 
L 179.320534 62.863671 
L 179.839218 63.595588 
L 180.357902 63.558618 
L 180.876585 63.352432 
L 181.395269 63.008333 
L 181.913953 62.948392 
L 182.432637 62.96797 
L 182.95132 63.341914 
L 183.470004 63.909794 
L 183.988688 63.720028 
L 184.507372 63.299145 
L 185.026055 63.658931 
L 185.544739 63.404354 
L 186.063423 63.618021 
L 186.582107 65.861228 
L 187.100791 68.499322 
L 187.619474 64.338011 
L 188.138158 65.055426 
L 188.656842 65.455076 
L 189.175526 65.259529 
L 189.694209 64.845784 
L 190.212893 64.729545 
L 190.731577 63.798548 
L 191.250261 64.841665 
L 191.768945 64.522602 
L 192.287628 65.833784 
L 192.806312 65.346105 
L 193.324996 66.389176 
L 193.84368 64.943823 
L 194.362363 65.154312 
L 194.881047 63.614031 
L 195.399731 63.174478 
L 195.918415 62.275204 
L 196.437098 64.410716 
L 196.955782 66.629262 
L 197.474466 65.937084 
L 197.99315 65.719316 
L 198.511834 65.027268 
L 199.030517 64.231381 
L 199.549201 64.416115 
L 200.067885 64.550034 
L 200.586569 64.73918 
L 201.105252 65.601078 
L 201.623936 66.0399 
L 202.14262 65.755644 
L 202.661304 65.558282 
L 203.179987 65.491835 
L 203.698671 66.297417 
L 204.217355 65.906933 
L 204.736039 66.140677 
L 205.254723 66.033619 
L 205.773406 65.321665 
L 206.29209 66.897564 
L 206.810774 68.659525 
L 207.329458 66.723375 
L 207.848141 64.903583 
L 208.366825 68.273911 
L 208.885509 66.928038 
L 209.404193 67.252322 
L 209.922876 66.253177 
L 210.44156 67.036508 
L 210.960244 65.836842 
L 211.478928 66.418078 
L 211.997612 66.390672 
L 212.516295 67.685496 
L 213.034979 66.782611 
L 213.553663 66.911956 
L 214.072347 66.805394 
L 214.59103 66.928529 
L 215.109714 67.003586 
L 215.628398 67.460434 
L 216.147082 67.198561 
L 216.665765 66.356926 
L 217.184449 66.204367 
L 217.703133 67.585691 
L 218.221817 68.490414 
L 218.740501 68.73906 
L 219.259184 66.85576 
L 219.777868 67.759488 
L 220.296552 67.308371 
L 220.815236 66.827303 
L 221.333919 66.5331 
L 221.852603 67.258619 
L 222.371287 67.202547 
L 222.889971 68.42657 
L 223.408654 68.880875 
L 223.927338 68.270912 
L 224.446022 67.707308 
L 224.964706 67.055294 
L 225.48339 66.784527 
L 226.002073 66.952015 
L 226.520757 66.673503 
L 227.039441 67.502565 
L 227.558125 68.067061 
L 228.076808 68.234437 
L 228.595492 68.191135 
L 229.114176 67.477622 
L 229.63286 68.453956 
L 230.151544 68.412358 
L 230.670227 68.899023 
L 231.188911 68.489831 
L 231.707595 68.304311 
L 232.226279 68.800109 
L 232.744962 69.18078 
L 233.263646 68.840937 
L 233.78233 68.560472 
L 234.301014 68.386442 
L 234.819697 68.545461 
L 235.338381 68.790426 
L 235.857065 69.410047 
L 236.375749 69.222341 
L 236.894433 69.016561 
L 237.413116 69.163084 
L 237.9318 68.970228 
L 238.450484 70.375397 
L 238.969168 71.73429 
L 239.487851 70.766956 
L 240.006535 68.972435 
L 240.525219 68.437775 
L 241.043903 68.615658 
L 241.562586 69.938654 
L 242.08127 69.138806 
L 242.599954 69.410958 
L 243.118638 69.73798 
L 243.637322 68.845743 
L 244.156005 69.15009 
L 244.674689 70.003156 
L 245.193373 69.503037 
L 245.712057 69.235737 
L 246.23074 71.58938 
L 246.749424 71.765195 
L 247.268108 68.654012 
L 247.786792 69.31501 
L 248.305475 70.074529 
L 248.824159 69.926999 
L 249.342843 70.361599 
L 249.861527 70.117568 
L 250.380211 70.547587 
L 250.898894 69.910487 
L 251.417578 70.050314 
L 251.936262 71.15885 
L 252.454946 70.831696 
L 252.973629 70.73033 
L 253.492313 70.773584 
L 254.010997 70.493717 
L 254.529681 69.942419 
L 255.048364 69.710444 
L 255.567048 71.215598 
L 256.085732 73.032008 
L 256.604416 73.066075 
L 257.1231 70.638148 
L 257.641783 72.065991 
L 258.160467 71.882163 
L 258.679151 70.626297 
L 259.197835 70.280981 
L 259.716518 70.458429 
L 260.235202 71.700784 
L 260.753886 70.458116 
L 261.27257 70.225232 
L 261.791253 69.96364 
L 262.309937 70.080885 
L 262.828621 71.813407 
L 263.347305 72.079711 
L 263.865989 71.961212 
L 264.384672 71.107179 
L 264.903356 70.69945 
L 265.42204 71.792155 
L 265.940724 73.501859 
L 266.459407 73.784527 
L 266.978091 72.016664 
L 267.496775 70.986852 
L 268.015459 71.892586 
L 268.534142 72.343812 
L 269.052826 73.830375 
L 269.57151 75.371619 
L 270.090194 73.168077 
L 270.608878 72.317256 
L 271.127561 72.794901 
L 271.646245 71.745557 
L 272.164929 71.064124 
L 272.683613 71.097816 
L 273.202296 71.719436 
L 273.72098 72.719058 
L 274.239664 72.571516 
L 274.758348 71.690308 
L 275.277032 72.277083 
L 275.795715 71.889039 
L 276.314399 72.704419 
L 276.833083 72.531076 
L 277.351767 72.621526 
L 277.87045 73.429475 
L 278.389134 72.804473 
L 278.907818 72.993317 
L 279.426502 72.73325 
L 279.945185 71.310707 
L 280.463869 72.719713 
L 280.982553 74.17318 
L 281.501237 76.54731 
L 282.019921 74.365649 
L 282.538604 73.285133 
L 283.057288 74.636094 
L 283.575972 72.54567 
L 284.094656 73.125926 
L 284.613339 73.001357 
L 285.132023 72.774385 
L 285.650707 73.525641 
L 286.169391 71.80401 
L 286.688074 72.931654 
L 287.206758 72.599939 
L 287.725442 74.40102 
L 288.244126 71.755572 
L 288.76281 72.827285 
L 289.281493 73.781379 
L 289.800177 73.070448 
L 290.318861 72.830013 
L 290.837545 73.800787 
L 291.356228 72.699798 
L 291.874912 72.908459 
L 292.393596 72.647331 
L 292.91228 72.781947 
L 293.430963 71.589568 
L 293.949647 74.8436 
L 294.468331 74.594841 
L 294.987015 75.242383 
L 295.505699 73.55545 
L 296.024382 75.500553 
L 296.543066 75.349533 
L 297.06175 74.187314 
L 297.580434 75.173523 
L 298.099117 74.367158 
L 298.617801 75.429042 
L 299.136485 74.249134 
L 299.655169 75.077397 
L 300.173852 74.723653 
L 300.692536 74.967096 
L 301.21122 74.975672 
L 301.729904 75.141039 
L 302.248588 75.113648 
L 302.767271 75.374741 
L 303.285955 75.115569 
L 303.804639 75.843645 
L 304.323323 75.0298 
L 304.842006 72.852409 
L 305.36069 73.95389 
L 305.879374 73.582348 
L 306.398058 74.290551 
L 306.916741 79.717825 
L 307.435425 73.122692 
L 307.954109 75.114385 
L 308.472793 74.904511 
L 308.991477 74.738435 
L 309.51016 75.173828 
L 310.028844 75.55204 
L 310.547528 74.039009 
L 311.066212 75.297221 
L 311.584895 72.679454 
L 312.103579 74.925541 
L 312.622263 73.757399 
L 313.140947 74.670764 
L 313.659631 75.298336 
L 314.178314 75.221306 
L 314.696998 74.524801 
L 315.215682 75.086502 
L 315.215682 70.706336 
L 315.215682 70.706336 
L 314.696998 70.319606 
L 314.178314 71.78913 
L 313.659631 69.321006 
L 313.140947 69.731962 
L 312.622263 66.346655 
L 312.103579 68.568378 
L 311.584895 68.429732 
L 311.066212 68.013646 
L 310.547528 69.267653 
L 310.028844 66.250781 
L 309.51016 68.264485 
L 308.991477 64.846434 
L 308.472793 66.188273 
L 307.954109 63.766341 
L 307.435425 65.030358 
L 306.916741 51.886263 
L 306.398058 52.848596 
L 305.879374 61.092054 
L 305.36069 67.362371 
L 304.842006 71.118053 
L 304.323323 68.843894 
L 303.804639 67.344307 
L 303.285955 70.56471 
L 302.767271 71.260612 
L 302.248588 72.228963 
L 301.729904 71.09702 
L 301.21122 72.071638 
L 300.692536 70.388101 
L 300.173852 71.738871 
L 299.655169 69.629287 
L 299.136485 71.923711 
L 298.617801 68.927561 
L 298.099117 70.813876 
L 297.580434 68.644482 
L 297.06175 70.046177 
L 296.543066 68.540671 
L 296.024382 67.587889 
L 295.505699 71.446811 
L 294.987015 64.088166 
L 294.468331 63.122554 
L 293.949647 65.227197 
L 293.430963 68.864467 
L 292.91228 71.203765 
L 292.393596 70.141192 
L 291.874912 69.826581 
L 291.356228 70.550469 
L 290.837545 68.896797 
L 290.318861 68.856871 
L 289.800177 69.42225 
L 289.281493 67.231968 
L 288.76281 67.70046 
L 288.244126 67.440327 
L 287.725442 65.795018 
L 287.206758 65.019996 
L 286.688074 63.102563 
L 286.169391 59.118038 
L 285.650707 61.680456 
L 285.132023 65.242979 
L 284.613339 68.749369 
L 284.094656 67.626467 
L 283.575972 68.845124 
L 283.057288 65.167363 
L 282.538604 68.957568 
L 282.019921 64.198334 
L 281.501237 53.903494 
L 280.982553 57.74837 
L 280.463869 66.878486 
L 279.945185 69.56674 
L 279.426502 70.808427 
L 278.907818 69.766461 
L 278.389134 69.996785 
L 277.87045 69.617859 
L 277.351767 69.392497 
L 276.833083 69.236908 
L 276.314399 68.29847 
L 275.795715 69.733725 
L 275.277032 67.156549 
L 274.758348 68.093301 
L 274.239664 67.385863 
L 273.72098 67.500194 
L 273.202296 65.609204 
L 272.683613 62.399546 
L 272.164929 66.44537 
L 271.646245 64.144336 
L 271.127561 64.219376 
L 270.608878 68.678594 
L 270.090194 58.050944 
L 269.57151 55.315744 
L 269.052826 60.554484 
L 268.534142 65.163505 
L 268.015459 64.760098 
L 267.496775 67.215811 
L 266.978091 61.605096 
L 266.459407 57.875895 
L 265.940724 62.335907 
L 265.42204 66.553927 
L 264.903356 68.462293 
L 264.384672 69.394676 
L 263.865989 68.371846 
L 263.347305 69.450656 
L 262.828621 67.29095 
L 262.309937 68.561816 
L 261.791253 67.121819 
L 261.27257 66.674338 
L 260.753886 68.132352 
L 260.235202 65.167802 
L 259.716518 68.290031 
L 259.197835 62.806766 
L 258.679151 66.579304 
L 258.160467 64.062973 
L 257.641783 63.598641 
L 257.1231 67.839299 
L 256.604416 55.669062 
L 256.085732 54.315867 
L 255.567048 61.783118 
L 255.048364 67.579248 
L 254.529681 68.935879 
L 254.010997 68.507664 
L 253.492313 67.575541 
L 252.973629 66.134712 
L 252.454946 66.027088 
L 251.936262 67.085623 
L 251.417578 67.470742 
L 250.898894 68.450291 
L 250.380211 67.952806 
L 249.861527 66.139648 
L 249.342843 66.720721 
L 248.824159 66.774958 
L 248.305475 65.464499 
L 247.786792 67.60803 
L 247.268108 65.247285 
L 246.749424 58.913445 
L 246.23074 59.140855 
L 245.712057 64.549325 
L 245.193373 67.758745 
L 244.674689 67.653842 
L 244.156005 66.404117 
L 243.637322 65.323106 
L 243.118638 65.976883 
L 242.599954 65.973069 
L 242.08127 62.661172 
L 241.562586 62.515579 
L 241.043903 63.312167 
L 240.525219 64.147447 
L 240.006535 67.635968 
L 239.487851 64.3847 
L 238.969168 60.21942 
L 238.450484 60.368998 
L 237.9318 64.27226 
L 237.413116 66.993853 
L 236.894433 67.126038 
L 236.375749 64.348368 
L 235.857065 63.251802 
L 235.338381 63.601934 
L 234.819697 65.219127 
L 234.301014 66.300447 
L 233.78233 66.999498 
L 233.263646 67.134787 
L 232.744962 66.18817 
L 232.226279 66.708943 
L 231.707595 67.760592 
L 231.188911 66.950377 
L 230.670227 65.230826 
L 230.151544 65.057903 
L 229.63286 66.343774 
L 229.114176 66.839627 
L 228.595492 64.093272 
L 228.076808 62.576852 
L 227.558125 63.071669 
L 227.039441 63.664109 
L 226.520757 63.374096 
L 226.002073 64.191904 
L 225.48339 64.52947 
L 224.964706 65.129102 
L 224.446022 65.59157 
L 223.927338 66.719341 
L 223.408654 63.737297 
L 222.889971 64.853258 
L 222.371287 65.152563 
L 221.852603 63.072959 
L 221.333919 63.678166 
L 220.815236 61.523498 
L 220.296552 60.445551 
L 219.777868 63.76281 
L 219.259184 63.621435 
L 218.740501 57.740211 
L 218.221817 57.689897 
L 217.703133 61.383681 
L 217.184449 64.452657 
L 216.665765 65.188694 
L 216.147082 65.048666 
L 215.628398 64.527995 
L 215.109714 65.241366 
L 214.59103 63.976413 
L 214.072347 64.69597 
L 213.553663 63.212807 
L 213.034979 65.088207 
L 212.516295 62.792095 
L 211.997612 64.85719 
L 211.478928 61.852177 
L 210.960244 63.540485 
L 210.44156 60.020833 
L 209.922876 64.077418 
L 209.404193 60.356144 
L 208.885509 63.126562 
L 208.366825 57.496288 
L 207.848141 63.762268 
L 207.329458 56.167069 
L 206.810774 50.850144 
L 206.29209 55.847325 
L 205.773406 61.833923 
L 205.254723 63.830904 
L 204.736039 63.717719 
L 204.217355 62.911709 
L 203.698671 63.270792 
L 203.179987 61.811739 
L 202.661304 62.718198 
L 202.14262 63.096365 
L 201.623936 61.471447 
L 201.105252 63.025272 
L 200.586569 61.826574 
L 200.067885 60.069847 
L 199.549201 61.220175 
L 199.030517 59.895901 
L 198.511834 58.713059 
L 197.99315 62.234551 
L 197.474466 56.527201 
L 196.955782 53.355096 
L 196.437098 55.793118 
L 195.918415 59.211277 
L 195.399731 59.720984 
L 194.881047 59.663566 
L 194.362363 58.945894 
L 193.84368 59.68465 
L 193.324996 57.858364 
L 192.806312 59.376777 
L 192.287628 56.618787 
L 191.768945 58.180981 
L 191.250261 55.988847 
L 190.731577 57.164722 
L 190.212893 55.582717 
L 189.694209 56.51499 
L 189.175526 53.242972 
L 188.656842 55.004954 
L 188.138158 48.593803 
L 187.619474 57.903238 
L 187.100791 33.419878 
L 186.582107 31.023891 
L 186.063423 50.058582 
L 185.544739 59.770266 
L 185.026055 62.554152 
L 184.507372 61.292441 
L 183.988688 59.504747 
L 183.470004 58.959244 
L 182.95132 60.166505 
L 182.432637 61.347981 
L 181.913953 61.267508 
L 181.395269 61.055395 
L 180.876585 60.630233 
L 180.357902 61.004281 
L 179.839218 59.394357 
L 179.320534 60.586089 
L 178.80185 58.0915 
L 178.283166 60.92391 
L 177.764483 57.954444 
L 177.245799 59.232265 
L 176.727115 58.079935 
L 176.208431 56.975893 
L 175.689748 58.26542 
L 175.171064 54.114201 
L 174.65238 57.7444 
L 174.133696 57.016689 
L 173.615013 44.803579 
L 173.096329 48.795673 
L 172.577645 54.4199 
L 172.058961 57.402652 
L 171.540277 58.775473 
L 171.021594 58.02267 
L 170.50291 58.870594 
L 169.984226 56.25336 
L 169.465542 58.496942 
L 168.946859 55.996485 
L 168.428175 56.584401 
L 167.909491 55.759468 
L 167.390807 55.463766 
L 166.872124 55.238153 
L 166.35344 54.492396 
L 165.834756 53.99009 
L 165.316072 52.173708 
L 164.797388 55.036395 
L 164.278705 49.719502 
L 163.760021 50.088877 
L 163.241337 45.083985 
L 162.722653 54.673557 
L 162.20397 41.357484 
L 161.685286 39.105473 
L 161.166602 52.044311 
L 160.647918 46.72485 
L 160.129235 43.175791 
L 159.610551 50.171224 
L 159.091867 55.858876 
L 158.573183 57.760257 
L 158.054499 58.038082 
L 157.535816 56.762282 
L 157.017132 56.672225 
L 156.498448 57.421582 
L 155.979764 56.603563 
L 155.461081 56.041496 
L 154.942397 55.783903 
L 154.423713 55.360414 
L 153.905029 55.251971 
L 153.386346 56.672591 
L 152.867662 56.397557 
L 152.348978 54.223165 
L 151.830294 53.569629 
L 151.31161 53.26105 
L 150.792927 53.296681 
L 150.274243 53.87549 
L 149.755559 52.761086 
L 149.236875 53.454208 
L 148.718192 53.869335 
L 148.199508 52.622587 
L 147.680824 55.287785 
L 147.16214 52.547558 
L 146.643456 53.135948 
L 146.124773 50.423875 
L 145.606089 49.819209 
L 145.087405 51.584609 
L 144.568721 48.554406 
L 144.050038 52.601994 
L 143.531354 51.656214 
L 143.01267 43.263358 
L 142.493986 45.866416 
L 141.975303 50.056412 
L 141.456619 51.53684 
L 140.937935 51.613245 
L 140.419251 51.897018 
L 139.900567 52.03625 
L 139.381884 51.979703 
L 138.8632 52.845242 
L 138.344516 52.53726 
L 137.825832 51.027519 
L 137.307149 51.276985 
L 136.788465 50.599109 
L 136.269781 50.150955 
L 135.751097 51.601977 
L 135.232414 50.524751 
L 134.71373 51.70167 
L 134.195046 49.977657 
L 133.676362 47.695668 
L 133.157678 50.222582 
L 132.638995 47.633235 
L 132.120311 48.807474 
L 131.601627 49.009317 
L 131.082943 43.117599 
L 130.56426 43.007173 
L 130.045576 45.882474 
L 129.526892 47.729182 
L 129.008208 48.635723 
L 128.489525 47.720089 
L 127.970841 45.704936 
L 127.452157 43.973102 
L 126.933473 43.786387 
L 126.414789 45.282569 
L 125.896106 45.435616 
L 125.377422 48.27957 
L 124.858738 45.151468 
L 124.340054 48.160349 
L 123.821371 43.762195 
L 123.302687 45.956709 
L 122.784003 42.251476 
L 122.265319 46.309579 
L 121.746636 42.195394 
L 121.227952 39.863813 
L 120.709268 42.803126 
L 120.190584 34.923786 
L 119.6719 36.588413 
L 119.153217 41.70503 
L 118.634533 44.58217 
L 118.115849 45.936908 
L 117.597165 45.707091 
L 117.078482 43.561856 
L 116.559798 43.651658 
L 116.041114 44.231357 
L 115.52243 43.423512 
L 115.003747 40.840688 
L 114.485063 40.785048 
L 113.966379 42.69284 
L 113.447695 42.413388 
L 112.929011 41.092338 
L 112.410328 41.225907 
L 111.891644 42.043918 
L 111.37296 40.669338 
L 110.854276 37.647337 
L 110.335593 37.134852 
L 109.816909 38.580783 
L 109.298225 39.712633 
L 108.779541 39.243964 
L 108.260858 40.481967 
L 107.742174 38.952952 
L 107.22349 37.455396 
L 106.704806 38.404011 
L 106.186122 36.998692 
L 105.667439 36.484696 
L 105.148755 35.52664 
L 104.630071 35.891751 
L 104.111387 31.76474 
L 103.592704 31.440227 
L 103.07402 34.949838 
L 102.555336 33.054271 
L 102.036652 34.409246 
L 101.517968 33.780709 
L 100.999285 31.19754 
L 100.480601 32.02317 
L 99.961917 32.564077 
L 99.443233 27.510503 
L 98.92455 30.273774 
L 98.405866 29.098114 
L 97.887182 30.506393 
L 97.368498 28.480454 
L 96.849815 29.071252 
L 96.331131 26.841716 
L 95.812447 26.093145 
L 95.293763 25.90981 
L 94.775079 26.124758 
L 94.256396 23.066455 
L 93.737712 19.692895 
L 93.219028 22.736529 
L 92.700344 22.474433 
L 92.181661 24.798216 
L 91.662977 21.097657 
L 91.144293 21.276877 
L 90.625609 22.129046 
L 90.106926 16.742369 
L 89.588242 22.238094 
L 89.069558 11.585107 
L 88.550874 21.014587 
L 88.03219 7.496967 
L 87.513507 12.900379 
L 86.994823 17.71081 
L 86.476139 15.465841 
L 85.957455 14.148965 
L 85.438772 13.509999 
L 84.920088 10.956442 
L 84.401404 11.258066 
L 83.88272 9.504005 
L 83.364037 6.539835 
L 82.845353 3.37106 
L 82.326669 -0.247079 
L 81.807985 -3.453633 
L 81.289301 -6.44334 
L 80.770618 -9.483347 
L 80.251934 -12.08476 
L 79.73325 -14.277001 
L 79.214566 -16.029102 
L 78.695883 -17.32969 
L 78.177199 -18.612763 
L 77.658515 -20.197549 
L 77.139831 -22.064341 
L 76.621148 -24.029046 
L 76.102464 -25.917357 
L 75.58378 -27.840653 
L 75.065096 -29.644851 
L 74.546412 -31.38096 
L 74.027729 -32.935809 
L 73.509045 -35.260125 
L 72.990361 -38.65356 
L 72.471677 -42.438881 
L 71.952994 -46.007298 
L 71.43431 -49.11781 
L 70.915626 -51.899156 
L 70.396942 -54.909263 
L 69.878259 -58.950447 
L 69.359575 -64.313701 
L 68.840891 -70.419512 
L 68.322207 -76.030408 
L 67.803523 -79.625331 
L 67.28484 -79.280934 
L 66.766156 -72.700461 
L 66.247472 -62.218884 
L 65.728788 -59.566766 
L 65.210105 -73.780667 
L 64.691421 -295.778758 
L 64.172737 -381.764255 
L 63.654053 -105.754367 
L 63.135369 -70.051326 
L 62.616686 -233.738934 
L 62.098002 -361.278561 
L 61.579318 -420.508829 
z
" clip-path="url(#pa92b19852d)" style="fill: #55c667; fill-opacity: 0.2; stroke: #55c667; stroke-opacity: 0.2"/>
   </g>
   <g id="matplotlib.axis_1">
    <g id="xtick_1">
     <g id="line2d_1">
      <defs>
       <path id="m08ae0f25c0" d="M 0 0 
L 0 3.5 
" style="stroke: #000000; stroke-width: 0.8"/>
      </defs>
      <g>
       <use xlink:href="#m08ae0f25c0" x="61.579318" y="150.359063" style="stroke: #000000; stroke-width: 0.8"/>
      </g>
     </g>
     <g id="text_1">
      <!-- 0 -->
      <g transform="translate(57.761818 166.477188) scale(0.12 -0.12)">
       <defs>
        <path id="DejaVuSans-30" d="M 2034 4250 
Q 1547 4250 1301 3770 
Q 1056 3291 1056 2328 
Q 1056 1369 1301 889 
Q 1547 409 2034 409 
Q 2525 409 2770 889 
Q 3016 1369 3016 2328 
Q 3016 3291 2770 3770 
Q 2525 4250 2034 4250 
z
M 2034 4750 
Q 2819 4750 3233 4129 
Q 3647 3509 3647 2328 
Q 3647 1150 3233 529 
Q 2819 -91 2034 -91 
Q 1250 -91 836 529 
Q 422 1150 422 2328 
Q 422 3509 836 4129 
Q 1250 4750 2034 4750 
z
" transform="scale(0.015625)"/>
       </defs>
       <use xlink:href="#DejaVuSans-30"/>
      </g>
     </g>
    </g>
    <g id="xtick_2">
     <g id="line2d_2">
      <g>
       <use xlink:href="#m08ae0f25c0" x="113.447695" y="150.359063" style="stroke: #000000; stroke-width: 0.8"/>
      </g>
     </g>
     <g id="text_2">
      <!-- 100 -->
      <g transform="translate(101.995195 166.477188) scale(0.12 -0.12)">
       <defs>
        <path id="DejaVuSans-31" d="M 794 531 
L 1825 531 
L 1825 4091 
L 703 3866 
L 703 4441 
L 1819 4666 
L 2450 4666 
L 2450 531 
L 3481 531 
L 3481 0 
L 794 0 
L 794 531 
z
" transform="scale(0.015625)"/>
       </defs>
       <use xlink:href="#DejaVuSans-31"/>
       <use xlink:href="#DejaVuSans-30" x="63.623047"/>
       <use xlink:href="#DejaVuSans-30" x="127.246094"/>
      </g>
     </g>
    </g>
    <g id="xtick_3">
     <g id="line2d_3">
      <g>
       <use xlink:href="#m08ae0f25c0" x="165.316072" y="150.359063" style="stroke: #000000; stroke-width: 0.8"/>
      </g>
     </g>
     <g id="text_3">
      <!-- 200 -->
      <g transform="translate(153.863572 166.477188) scale(0.12 -0.12)">
       <defs>
        <path id="DejaVuSans-32" d="M 1228 531 
L 3431 531 
L 3431 0 
L 469 0 
L 469 531 
Q 828 903 1448 1529 
Q 2069 2156 2228 2338 
Q 2531 2678 2651 2914 
Q 2772 3150 2772 3378 
Q 2772 3750 2511 3984 
Q 2250 4219 1831 4219 
Q 1534 4219 1204 4116 
Q 875 4013 500 3803 
L 500 4441 
Q 881 4594 1212 4672 
Q 1544 4750 1819 4750 
Q 2544 4750 2975 4387 
Q 3406 4025 3406 3419 
Q 3406 3131 3298 2873 
Q 3191 2616 2906 2266 
Q 2828 2175 2409 1742 
Q 1991 1309 1228 531 
z
" transform="scale(0.015625)"/>
       </defs>
       <use xlink:href="#DejaVuSans-32"/>
       <use xlink:href="#DejaVuSans-30" x="63.623047"/>
       <use xlink:href="#DejaVuSans-30" x="127.246094"/>
      </g>
     </g>
    </g>
    <g id="xtick_4">
     <g id="line2d_4">
      <g>
       <use xlink:href="#m08ae0f25c0" x="217.184449" y="150.359063" style="stroke: #000000; stroke-width: 0.8"/>
      </g>
     </g>
     <g id="text_4">
      <!-- 300 -->
      <g transform="translate(205.731949 166.477188) scale(0.12 -0.12)">
       <defs>
        <path id="DejaVuSans-33" d="M 2597 2516 
Q 3050 2419 3304 2112 
Q 3559 1806 3559 1356 
Q 3559 666 3084 287 
Q 2609 -91 1734 -91 
Q 1441 -91 1130 -33 
Q 819 25 488 141 
L 488 750 
Q 750 597 1062 519 
Q 1375 441 1716 441 
Q 2309 441 2620 675 
Q 2931 909 2931 1356 
Q 2931 1769 2642 2001 
Q 2353 2234 1838 2234 
L 1294 2234 
L 1294 2753 
L 1863 2753 
Q 2328 2753 2575 2939 
Q 2822 3125 2822 3475 
Q 2822 3834 2567 4026 
Q 2313 4219 1838 4219 
Q 1578 4219 1281 4162 
Q 984 4106 628 3988 
L 628 4550 
Q 988 4650 1302 4700 
Q 1616 4750 1894 4750 
Q 2613 4750 3031 4423 
Q 3450 4097 3450 3541 
Q 3450 3153 3228 2886 
Q 3006 2619 2597 2516 
z
" transform="scale(0.015625)"/>
       </defs>
       <use xlink:href="#DejaVuSans-33"/>
       <use xlink:href="#DejaVuSans-30" x="63.623047"/>
       <use xlink:href="#DejaVuSans-30" x="127.246094"/>
      </g>
     </g>
    </g>
    <g id="xtick_5">
     <g id="line2d_5">
      <g>
       <use xlink:href="#m08ae0f25c0" x="269.052826" y="150.359063" style="stroke: #000000; stroke-width: 0.8"/>
      </g>
     </g>
     <g id="text_5">
      <!-- 400 -->
      <g transform="translate(257.600326 166.477188) scale(0.12 -0.12)">
       <defs>
        <path id="DejaVuSans-34" d="M 2419 4116 
L 825 1625 
L 2419 1625 
L 2419 4116 
z
M 2253 4666 
L 3047 4666 
L 3047 1625 
L 3713 1625 
L 3713 1100 
L 3047 1100 
L 3047 0 
L 2419 0 
L 2419 1100 
L 313 1100 
L 313 1709 
L 2253 4666 
z
" transform="scale(0.015625)"/>
       </defs>
       <use xlink:href="#DejaVuSans-34"/>
       <use xlink:href="#DejaVuSans-30" x="63.623047"/>
       <use xlink:href="#DejaVuSans-30" x="127.246094"/>
      </g>
     </g>
    </g>
    <g id="xtick_6">
     <g id="line2d_6">
      <g>
       <use xlink:href="#m08ae0f25c0" x="320.921203" y="150.359063" style="stroke: #000000; stroke-width: 0.8"/>
      </g>
     </g>
     <g id="text_6">
      <!-- 500 -->
      <g transform="translate(309.468703 166.477188) scale(0.12 -0.12)">
       <defs>
        <path id="DejaVuSans-35" d="M 691 4666 
L 3169 4666 
L 3169 4134 
L 1269 4134 
L 1269 2991 
Q 1406 3038 1543 3061 
Q 1681 3084 1819 3084 
Q 2600 3084 3056 2656 
Q 3513 2228 3513 1497 
Q 3513 744 3044 326 
Q 2575 -91 1722 -91 
Q 1428 -91 1123 -41 
Q 819 9 494 109 
L 494 744 
Q 775 591 1075 516 
Q 1375 441 1709 441 
Q 2250 441 2565 725 
Q 2881 1009 2881 1497 
Q 2881 1984 2565 2268 
Q 2250 2553 1709 2553 
Q 1456 2553 1204 2497 
Q 953 2441 691 2322 
L 691 4666 
z
" transform="scale(0.015625)"/>
       </defs>
       <use xlink:href="#DejaVuSans-35"/>
       <use xlink:href="#DejaVuSans-30" x="63.623047"/>
       <use xlink:href="#DejaVuSans-30" x="127.246094"/>
      </g>
     </g>
    </g>
    <g id="text_7">
     <!-- Number of steps -->
     <g transform="translate(138.592813 182.090938) scale(0.12 -0.12)">
      <defs>
       <path id="DejaVuSans-4e" d="M 628 4666 
L 1478 4666 
L 3547 763 
L 3547 4666 
L 4159 4666 
L 4159 0 
L 3309 0 
L 1241 3903 
L 1241 0 
L 628 0 
L 628 4666 
z
" transform="scale(0.015625)"/>
       <path id="DejaVuSans-75" d="M 544 1381 
L 544 3500 
L 1119 3500 
L 1119 1403 
Q 1119 906 1312 657 
Q 1506 409 1894 409 
Q 2359 409 2629 706 
Q 2900 1003 2900 1516 
L 2900 3500 
L 3475 3500 
L 3475 0 
L 2900 0 
L 2900 538 
Q 2691 219 2414 64 
Q 2138 -91 1772 -91 
Q 1169 -91 856 284 
Q 544 659 544 1381 
z
M 1991 3584 
L 1991 3584 
z
" transform="scale(0.015625)"/>
       <path id="DejaVuSans-6d" d="M 3328 2828 
Q 3544 3216 3844 3400 
Q 4144 3584 4550 3584 
Q 5097 3584 5394 3201 
Q 5691 2819 5691 2113 
L 5691 0 
L 5113 0 
L 5113 2094 
Q 5113 2597 4934 2840 
Q 4756 3084 4391 3084 
Q 3944 3084 3684 2787 
Q 3425 2491 3425 1978 
L 3425 0 
L 2847 0 
L 2847 2094 
Q 2847 2600 2669 2842 
Q 2491 3084 2119 3084 
Q 1678 3084 1418 2786 
Q 1159 2488 1159 1978 
L 1159 0 
L 581 0 
L 581 3500 
L 1159 3500 
L 1159 2956 
Q 1356 3278 1631 3431 
Q 1906 3584 2284 3584 
Q 2666 3584 2933 3390 
Q 3200 3197 3328 2828 
z
" transform="scale(0.015625)"/>
       <path id="DejaVuSans-62" d="M 3116 1747 
Q 3116 2381 2855 2742 
Q 2594 3103 2138 3103 
Q 1681 3103 1420 2742 
Q 1159 2381 1159 1747 
Q 1159 1113 1420 752 
Q 1681 391 2138 391 
Q 2594 391 2855 752 
Q 3116 1113 3116 1747 
z
M 1159 2969 
Q 1341 3281 1617 3432 
Q 1894 3584 2278 3584 
Q 2916 3584 3314 3078 
Q 3713 2572 3713 1747 
Q 3713 922 3314 415 
Q 2916 -91 2278 -91 
Q 1894 -91 1617 61 
Q 1341 213 1159 525 
L 1159 0 
L 581 0 
L 581 4863 
L 1159 4863 
L 1159 2969 
z
" transform="scale(0.015625)"/>
       <path id="DejaVuSans-65" d="M 3597 1894 
L 3597 1613 
L 953 1613 
Q 991 1019 1311 708 
Q 1631 397 2203 397 
Q 2534 397 2845 478 
Q 3156 559 3463 722 
L 3463 178 
Q 3153 47 2828 -22 
Q 2503 -91 2169 -91 
Q 1331 -91 842 396 
Q 353 884 353 1716 
Q 353 2575 817 3079 
Q 1281 3584 2069 3584 
Q 2775 3584 3186 3129 
Q 3597 2675 3597 1894 
z
M 3022 2063 
Q 3016 2534 2758 2815 
Q 2500 3097 2075 3097 
Q 1594 3097 1305 2825 
Q 1016 2553 972 2059 
L 3022 2063 
z
" transform="scale(0.015625)"/>
       <path id="DejaVuSans-72" d="M 2631 2963 
Q 2534 3019 2420 3045 
Q 2306 3072 2169 3072 
Q 1681 3072 1420 2755 
Q 1159 2438 1159 1844 
L 1159 0 
L 581 0 
L 581 3500 
L 1159 3500 
L 1159 2956 
Q 1341 3275 1631 3429 
Q 1922 3584 2338 3584 
Q 2397 3584 2469 3576 
Q 2541 3569 2628 3553 
L 2631 2963 
z
" transform="scale(0.015625)"/>
       <path id="DejaVuSans-20" transform="scale(0.015625)"/>
       <path id="DejaVuSans-6f" d="M 1959 3097 
Q 1497 3097 1228 2736 
Q 959 2375 959 1747 
Q 959 1119 1226 758 
Q 1494 397 1959 397 
Q 2419 397 2687 759 
Q 2956 1122 2956 1747 
Q 2956 2369 2687 2733 
Q 2419 3097 1959 3097 
z
M 1959 3584 
Q 2709 3584 3137 3096 
Q 3566 2609 3566 1747 
Q 3566 888 3137 398 
Q 2709 -91 1959 -91 
Q 1206 -91 779 398 
Q 353 888 353 1747 
Q 353 2609 779 3096 
Q 1206 3584 1959 3584 
z
" transform="scale(0.015625)"/>
       <path id="DejaVuSans-66" d="M 2375 4863 
L 2375 4384 
L 1825 4384 
Q 1516 4384 1395 4259 
Q 1275 4134 1275 3809 
L 1275 3500 
L 2222 3500 
L 2222 3053 
L 1275 3053 
L 1275 0 
L 697 0 
L 697 3053 
L 147 3053 
L 147 3500 
L 697 3500 
L 697 3744 
Q 697 4328 969 4595 
Q 1241 4863 1831 4863 
L 2375 4863 
z
" transform="scale(0.015625)"/>
       <path id="DejaVuSans-73" d="M 2834 3397 
L 2834 2853 
Q 2591 2978 2328 3040 
Q 2066 3103 1784 3103 
Q 1356 3103 1142 2972 
Q 928 2841 928 2578 
Q 928 2378 1081 2264 
Q 1234 2150 1697 2047 
L 1894 2003 
Q 2506 1872 2764 1633 
Q 3022 1394 3022 966 
Q 3022 478 2636 193 
Q 2250 -91 1575 -91 
Q 1294 -91 989 -36 
Q 684 19 347 128 
L 347 722 
Q 666 556 975 473 
Q 1284 391 1588 391 
Q 1994 391 2212 530 
Q 2431 669 2431 922 
Q 2431 1156 2273 1281 
Q 2116 1406 1581 1522 
L 1381 1569 
Q 847 1681 609 1914 
Q 372 2147 372 2553 
Q 372 3047 722 3315 
Q 1072 3584 1716 3584 
Q 2034 3584 2315 3537 
Q 2597 3491 2834 3397 
z
" transform="scale(0.015625)"/>
       <path id="DejaVuSans-74" d="M 1172 4494 
L 1172 3500 
L 2356 3500 
L 2356 3053 
L 1172 3053 
L 1172 1153 
Q 1172 725 1289 603 
Q 1406 481 1766 481 
L 2356 481 
L 2356 0 
L 1766 0 
Q 1100 0 847 248 
Q 594 497 594 1153 
L 594 3053 
L 172 3053 
L 172 3500 
L 594 3500 
L 594 4494 
L 1172 4494 
z
" transform="scale(0.015625)"/>
       <path id="DejaVuSans-70" d="M 1159 525 
L 1159 -1331 
L 581 -1331 
L 581 3500 
L 1159 3500 
L 1159 2969 
Q 1341 3281 1617 3432 
Q 1894 3584 2278 3584 
Q 2916 3584 3314 3078 
Q 3713 2572 3713 1747 
Q 3713 922 3314 415 
Q 2916 -91 2278 -91 
Q 1894 -91 1617 61 
Q 1341 213 1159 525 
z
M 3116 1747 
Q 3116 2381 2855 2742 
Q 2594 3103 2138 3103 
Q 1681 3103 1420 2742 
Q 1159 2381 1159 1747 
Q 1159 1113 1420 752 
Q 1681 391 2138 391 
Q 2594 391 2855 752 
Q 3116 1113 3116 1747 
z
" transform="scale(0.015625)"/>
      </defs>
      <use xlink:href="#DejaVuSans-4e"/>
      <use xlink:href="#DejaVuSans-75" x="74.804688"/>
      <use xlink:href="#DejaVuSans-6d" x="138.183594"/>
      <use xlink:href="#DejaVuSans-62" x="235.595703"/>
      <use xlink:href="#DejaVuSans-65" x="299.072266"/>
      <use xlink:href="#DejaVuSans-72" x="360.595703"/>
      <use xlink:href="#DejaVuSans-20" x="401.708984"/>
      <use xlink:href="#DejaVuSans-6f" x="433.496094"/>
      <use xlink:href="#DejaVuSans-66" x="494.677734"/>
      <use xlink:href="#DejaVuSans-20" x="529.882812"/>
      <use xlink:href="#DejaVuSans-73" x="561.669922"/>
      <use xlink:href="#DejaVuSans-74" x="613.769531"/>
      <use xlink:href="#DejaVuSans-65" x="652.978516"/>
      <use xlink:href="#DejaVuSans-70" x="714.501953"/>
      <use xlink:href="#DejaVuSans-73" x="777.978516"/>
     </g>
    </g>
   </g>
   <g id="matplotlib.axis_2">
    <g id="ytick_1">
     <g id="line2d_7">
      <defs>
       <path id="md361c65b0d" d="M 0 0 
L -3.5 0 
" style="stroke: #000000; stroke-width: 0.8"/>
      </defs>
      <g>
       <use xlink:href="#md361c65b0d" x="48.8975" y="150.359063" style="stroke: #000000; stroke-width: 0.8"/>
      </g>
     </g>
     <g id="text_8">
      <!-- 0.4 -->
      <g transform="translate(22.81375 154.918125) scale(0.12 -0.12)">
       <defs>
        <path id="DejaVuSans-2e" d="M 684 794 
L 1344 794 
L 1344 0 
L 684 0 
L 684 794 
z
" transform="scale(0.015625)"/>
       </defs>
       <use xlink:href="#DejaVuSans-30"/>
       <use xlink:href="#DejaVuSans-2e" x="63.623047"/>
       <use xlink:href="#DejaVuSans-34" x="95.410156"/>
      </g>
     </g>
    </g>
    <g id="ytick_2">
     <g id="line2d_8">
      <g>
       <use xlink:href="#md361c65b0d" x="48.8975" y="115.709063" style="stroke: #000000; stroke-width: 0.8"/>
      </g>
     </g>
     <g id="text_9">
      <!-- 0.6 -->
      <g transform="translate(22.81375 120.268125) scale(0.12 -0.12)">
       <defs>
        <path id="DejaVuSans-36" d="M 2113 2584 
Q 1688 2584 1439 2293 
Q 1191 2003 1191 1497 
Q 1191 994 1439 701 
Q 1688 409 2113 409 
Q 2538 409 2786 701 
Q 3034 994 3034 1497 
Q 3034 2003 2786 2293 
Q 2538 2584 2113 2584 
z
M 3366 4563 
L 3366 3988 
Q 3128 4100 2886 4159 
Q 2644 4219 2406 4219 
Q 1781 4219 1451 3797 
Q 1122 3375 1075 2522 
Q 1259 2794 1537 2939 
Q 1816 3084 2150 3084 
Q 2853 3084 3261 2657 
Q 3669 2231 3669 1497 
Q 3669 778 3244 343 
Q 2819 -91 2113 -91 
Q 1303 -91 875 529 
Q 447 1150 447 2328 
Q 447 3434 972 4092 
Q 1497 4750 2381 4750 
Q 2619 4750 2861 4703 
Q 3103 4656 3366 4563 
z
" transform="scale(0.015625)"/>
       </defs>
       <use xlink:href="#DejaVuSans-30"/>
       <use xlink:href="#DejaVuSans-2e" x="63.623047"/>
       <use xlink:href="#DejaVuSans-36" x="95.410156"/>
      </g>
     </g>
    </g>
    <g id="ytick_3">
     <g id="line2d_9">
      <g>
       <use xlink:href="#md361c65b0d" x="48.8975" y="81.059063" style="stroke: #000000; stroke-width: 0.8"/>
      </g>
     </g>
     <g id="text_10">
      <!-- 0.8 -->
      <g transform="translate(22.81375 85.618125) scale(0.12 -0.12)">
       <defs>
        <path id="DejaVuSans-38" d="M 2034 2216 
Q 1584 2216 1326 1975 
Q 1069 1734 1069 1313 
Q 1069 891 1326 650 
Q 1584 409 2034 409 
Q 2484 409 2743 651 
Q 3003 894 3003 1313 
Q 3003 1734 2745 1975 
Q 2488 2216 2034 2216 
z
M 1403 2484 
Q 997 2584 770 2862 
Q 544 3141 544 3541 
Q 544 4100 942 4425 
Q 1341 4750 2034 4750 
Q 2731 4750 3128 4425 
Q 3525 4100 3525 3541 
Q 3525 3141 3298 2862 
Q 3072 2584 2669 2484 
Q 3125 2378 3379 2068 
Q 3634 1759 3634 1313 
Q 3634 634 3220 271 
Q 2806 -91 2034 -91 
Q 1263 -91 848 271 
Q 434 634 434 1313 
Q 434 1759 690 2068 
Q 947 2378 1403 2484 
z
M 1172 3481 
Q 1172 3119 1398 2916 
Q 1625 2713 2034 2713 
Q 2441 2713 2670 2916 
Q 2900 3119 2900 3481 
Q 2900 3844 2670 4047 
Q 2441 4250 2034 4250 
Q 1625 4250 1398 4047 
Q 1172 3844 1172 3481 
z
" transform="scale(0.015625)"/>
       </defs>
       <use xlink:href="#DejaVuSans-30"/>
       <use xlink:href="#DejaVuSans-2e" x="63.623047"/>
       <use xlink:href="#DejaVuSans-38" x="95.410156"/>
      </g>
     </g>
    </g>
    <g id="ytick_4">
     <g id="line2d_10">
      <g>
       <use xlink:href="#md361c65b0d" x="48.8975" y="46.409063" style="stroke: #000000; stroke-width: 0.8"/>
      </g>
     </g>
     <g id="text_11">
      <!-- 1.0 -->
      <g transform="translate(22.81375 50.968125) scale(0.12 -0.12)">
       <use xlink:href="#DejaVuSans-31"/>
       <use xlink:href="#DejaVuSans-2e" x="63.623047"/>
       <use xlink:href="#DejaVuSans-30" x="95.410156"/>
      </g>
     </g>
    </g>
    <g id="ytick_5">
     <g id="line2d_11">
      <g>
       <use xlink:href="#md361c65b0d" x="48.8975" y="11.759062" style="stroke: #000000; stroke-width: 0.8"/>
      </g>
     </g>
     <g id="text_12">
      <!-- 1.2 -->
      <g transform="translate(22.81375 16.318125) scale(0.12 -0.12)">
       <use xlink:href="#DejaVuSans-31"/>
       <use xlink:href="#DejaVuSans-2e" x="63.623047"/>
       <use xlink:href="#DejaVuSans-32" x="95.410156"/>
      </g>
     </g>
    </g>
    <g id="text_13">
     <!-- Training loss -->
     <g transform="translate(16.318125 118.22625) rotate(-90) scale(0.12 -0.12)">
      <defs>
       <path id="DejaVuSans-54" d="M -19 4666 
L 3928 4666 
L 3928 4134 
L 2272 4134 
L 2272 0 
L 1638 0 
L 1638 4134 
L -19 4134 
L -19 4666 
z
" transform="scale(0.015625)"/>
       <path id="DejaVuSans-61" d="M 2194 1759 
Q 1497 1759 1228 1600 
Q 959 1441 959 1056 
Q 959 750 1161 570 
Q 1363 391 1709 391 
Q 2188 391 2477 730 
Q 2766 1069 2766 1631 
L 2766 1759 
L 2194 1759 
z
M 3341 1997 
L 3341 0 
L 2766 0 
L 2766 531 
Q 2569 213 2275 61 
Q 1981 -91 1556 -91 
Q 1019 -91 701 211 
Q 384 513 384 1019 
Q 384 1609 779 1909 
Q 1175 2209 1959 2209 
L 2766 2209 
L 2766 2266 
Q 2766 2663 2505 2880 
Q 2244 3097 1772 3097 
Q 1472 3097 1187 3025 
Q 903 2953 641 2809 
L 641 3341 
Q 956 3463 1253 3523 
Q 1550 3584 1831 3584 
Q 2591 3584 2966 3190 
Q 3341 2797 3341 1997 
z
" transform="scale(0.015625)"/>
       <path id="DejaVuSans-69" d="M 603 3500 
L 1178 3500 
L 1178 0 
L 603 0 
L 603 3500 
z
M 603 4863 
L 1178 4863 
L 1178 4134 
L 603 4134 
L 603 4863 
z
" transform="scale(0.015625)"/>
       <path id="DejaVuSans-6e" d="M 3513 2113 
L 3513 0 
L 2938 0 
L 2938 2094 
Q 2938 2591 2744 2837 
Q 2550 3084 2163 3084 
Q 1697 3084 1428 2787 
Q 1159 2491 1159 1978 
L 1159 0 
L 581 0 
L 581 3500 
L 1159 3500 
L 1159 2956 
Q 1366 3272 1645 3428 
Q 1925 3584 2291 3584 
Q 2894 3584 3203 3211 
Q 3513 2838 3513 2113 
z
" transform="scale(0.015625)"/>
       <path id="DejaVuSans-67" d="M 2906 1791 
Q 2906 2416 2648 2759 
Q 2391 3103 1925 3103 
Q 1463 3103 1205 2759 
Q 947 2416 947 1791 
Q 947 1169 1205 825 
Q 1463 481 1925 481 
Q 2391 481 2648 825 
Q 2906 1169 2906 1791 
z
M 3481 434 
Q 3481 -459 3084 -895 
Q 2688 -1331 1869 -1331 
Q 1566 -1331 1297 -1286 
Q 1028 -1241 775 -1147 
L 775 -588 
Q 1028 -725 1275 -790 
Q 1522 -856 1778 -856 
Q 2344 -856 2625 -561 
Q 2906 -266 2906 331 
L 2906 616 
Q 2728 306 2450 153 
Q 2172 0 1784 0 
Q 1141 0 747 490 
Q 353 981 353 1791 
Q 353 2603 747 3093 
Q 1141 3584 1784 3584 
Q 2172 3584 2450 3431 
Q 2728 3278 2906 2969 
L 2906 3500 
L 3481 3500 
L 3481 434 
z
" transform="scale(0.015625)"/>
       <path id="DejaVuSans-6c" d="M 603 4863 
L 1178 4863 
L 1178 0 
L 603 0 
L 603 4863 
z
" transform="scale(0.015625)"/>
      </defs>
      <use xlink:href="#DejaVuSans-54"/>
      <use xlink:href="#DejaVuSans-72" x="46.333984"/>
      <use xlink:href="#DejaVuSans-61" x="87.447266"/>
      <use xlink:href="#DejaVuSans-69" x="148.726562"/>
      <use xlink:href="#DejaVuSans-6e" x="176.509766"/>
      <use xlink:href="#DejaVuSans-69" x="239.888672"/>
      <use xlink:href="#DejaVuSans-6e" x="267.671875"/>
      <use xlink:href="#DejaVuSans-67" x="331.050781"/>
      <use xlink:href="#DejaVuSans-20" x="394.527344"/>
      <use xlink:href="#DejaVuSans-6c" x="426.314453"/>
      <use xlink:href="#DejaVuSans-6f" x="454.097656"/>
      <use xlink:href="#DejaVuSans-73" x="515.279297"/>
      <use xlink:href="#DejaVuSans-73" x="567.378906"/>
     </g>
    </g>
   </g>
   <g id="line2d_12">
    <path d="M 81.276641 -1 
L 82.845353 7.940742 
L 83.364037 10.356269 
L 83.88272 12.189769 
L 84.401404 12.619136 
L 84.920088 12.799846 
L 85.438772 15.532727 
L 85.957455 16.718094 
L 86.476139 16.685809 
L 86.994823 19.914209 
L 87.513507 18.091519 
L 88.03219 16.719775 
L 88.550874 22.5805 
L 89.069558 19.262718 
L 89.588242 23.735284 
L 90.106926 22.198333 
L 90.625609 24.330859 
L 91.144293 24.861394 
L 91.662977 25.684598 
L 92.181661 27.444309 
L 93.219028 26.406511 
L 93.737712 25.130436 
L 94.256396 27.087561 
L 94.775079 29.512075 
L 95.293763 29.646601 
L 95.812447 30.19127 
L 96.331131 29.619793 
L 96.849815 32.615174 
L 97.368498 32.50133 
L 97.887182 33.534575 
L 98.405866 32.001779 
L 98.92455 33.036012 
L 99.443233 31.607009 
L 99.961917 35.041055 
L 100.480601 35.17347 
L 100.999285 34.785644 
L 101.517968 36.645708 
L 102.036652 36.181721 
L 102.555336 35.940924 
L 103.07402 37.542969 
L 103.592704 35.563705 
L 104.111387 36.111538 
L 104.630071 37.64583 
L 105.148755 38.124335 
L 105.667439 39.491424 
L 106.186122 39.418234 
L 106.704806 40.119308 
L 107.22349 40.061562 
L 107.742174 40.39251 
L 108.260858 41.614611 
L 108.779541 41.751383 
L 109.298225 42.229092 
L 110.335593 40.91587 
L 110.854276 41.415578 
L 111.891644 43.647805 
L 112.410328 44.104765 
L 113.447695 43.925373 
L 114.485063 43.307148 
L 115.003747 43.724303 
L 116.041114 45.791345 
L 116.559798 45.539862 
L 117.078482 45.806786 
L 117.597165 47.097578 
L 118.115849 47.166561 
L 119.153217 45.105325 
L 120.190584 42.457043 
L 120.709268 45.696627 
L 121.227952 43.912434 
L 121.746636 45.70704 
L 122.265319 48.050865 
L 122.784003 45.740919 
L 123.302687 47.681959 
L 123.821371 47.61411 
L 124.340054 49.518218 
L 124.858738 47.995893 
L 125.377422 49.095903 
L 125.896106 48.031809 
L 126.414789 47.867105 
L 126.933473 47.035212 
L 127.452157 48.128229 
L 127.970841 49.641564 
L 129.008208 50.078355 
L 129.526892 49.213217 
L 130.045576 49.127554 
L 131.082943 48.236513 
L 131.601627 50.972 
L 132.120311 50.801559 
L 132.638995 50.174315 
L 133.157678 51.284385 
L 133.676362 49.710101 
L 134.195046 51.05474 
L 134.71373 52.941952 
L 135.232414 52.644394 
L 135.751097 52.738004 
L 136.269781 51.580572 
L 136.788465 52.334853 
L 137.307149 53.289749 
L 137.825832 52.956876 
L 138.344516 53.483319 
L 138.8632 53.742411 
L 139.381884 53.510934 
L 139.900567 53.923738 
L 140.419251 53.928239 
L 140.937935 53.787687 
L 141.456619 53.840135 
L 141.975303 53.102868 
L 142.493986 51.46867 
L 143.01267 50.809587 
L 143.531354 53.969813 
L 144.050038 54.303715 
L 144.568721 52.113548 
L 145.087405 53.494168 
L 145.606089 53.173208 
L 146.124773 53.871393 
L 146.643456 54.945742 
L 147.16214 54.87604 
L 147.680824 56.277167 
L 148.199508 55.398873 
L 148.718192 55.785006 
L 149.755559 54.652969 
L 150.274243 55.102722 
L 150.792927 55.196493 
L 151.31161 55.904926 
L 151.830294 56.180509 
L 152.348978 56.228544 
L 152.867662 57.35758 
L 153.386346 57.661489 
L 153.905029 56.39959 
L 154.423713 56.094692 
L 154.942397 56.945175 
L 155.461081 57.451089 
L 155.979764 57.617296 
L 156.498448 58.093682 
L 157.535816 58.208959 
L 158.054499 58.60649 
L 158.573183 58.763247 
L 159.091867 58.365585 
L 159.610551 56.507715 
L 160.129235 54.045195 
L 160.647918 54.824763 
L 161.166602 56.426536 
L 161.685286 50.025508 
L 162.20397 51.125803 
L 162.722653 56.532232 
L 163.241337 52.184171 
L 163.760021 54.578338 
L 164.278705 53.602423 
L 164.797388 57.640871 
L 165.316072 55.67697 
L 165.834756 56.474806 
L 166.35344 57.04606 
L 166.872124 57.008769 
L 167.909491 58.416406 
L 168.428175 58.200479 
L 168.946859 58.276558 
L 169.465542 60.027851 
L 169.984226 58.894934 
L 170.50291 60.407032 
L 171.021594 59.836774 
L 171.540277 59.545552 
L 172.058961 58.816232 
L 172.577645 57.739401 
L 173.096329 55.115481 
L 173.615013 54.487105 
L 174.133696 59.854479 
L 174.65238 59.672772 
L 175.171064 58.195266 
L 175.689748 60.017027 
L 177.245799 60.445203 
L 177.764483 60.440777 
L 178.283166 61.758437 
L 178.80185 60.448514 
L 179.320534 61.72488 
L 179.839218 61.494973 
L 180.357902 62.28145 
L 180.876585 61.991333 
L 182.432637 62.157976 
L 183.470004 61.434519 
L 183.988688 61.612387 
L 185.026055 63.106541 
L 185.544739 61.58731 
L 186.063423 56.838301 
L 186.582107 48.44256 
L 187.100791 50.9596 
L 187.619474 61.120624 
L 188.138158 56.824615 
L 188.656842 60.230015 
L 189.175526 59.25125 
L 189.694209 60.680387 
L 190.212893 60.156131 
L 190.731577 60.481635 
L 191.250261 60.415256 
L 191.768945 61.351792 
L 192.287628 61.226285 
L 192.806312 62.361441 
L 193.324996 62.12377 
L 193.84368 62.314236 
L 194.362363 62.050103 
L 194.881047 61.638798 
L 195.399731 61.447731 
L 196.437098 60.101917 
L 196.955782 59.992179 
L 197.474466 61.232142 
L 197.99315 63.976934 
L 198.511834 61.870164 
L 199.030517 62.063641 
L 199.549201 62.818145 
L 200.067885 62.30994 
L 201.105252 64.313175 
L 201.623936 63.755674 
L 202.14262 64.426004 
L 202.661304 64.13824 
L 203.179987 63.651787 
L 203.698671 64.784105 
L 204.217355 64.409321 
L 204.736039 64.929198 
L 205.254723 64.932261 
L 205.773406 63.577794 
L 206.29209 61.372445 
L 206.810774 59.754835 
L 207.329458 61.445222 
L 207.848141 64.332925 
L 208.366825 62.8851 
L 208.885509 65.0273 
L 209.404193 63.804233 
L 209.922876 65.165297 
L 210.44156 63.52867 
L 210.960244 64.688663 
L 211.478928 64.135127 
L 211.997612 65.623931 
L 212.516295 65.238795 
L 213.034979 65.935409 
L 213.553663 65.062381 
L 214.072347 65.750682 
L 214.59103 65.452471 
L 215.109714 66.122476 
L 215.628398 65.994214 
L 216.147082 66.123614 
L 217.184449 65.328512 
L 217.703133 64.484686 
L 218.221817 63.090155 
L 218.740501 63.239636 
L 219.259184 65.238597 
L 219.777868 65.761149 
L 220.296552 63.876961 
L 220.815236 64.175401 
L 221.333919 65.105633 
L 221.852603 65.165789 
L 222.371287 66.177555 
L 222.889971 66.639914 
L 223.408654 66.309086 
L 223.927338 67.495126 
L 224.446022 66.649439 
L 225.48339 65.656998 
L 226.002073 65.571959 
L 226.520757 65.0238 
L 227.039441 65.583337 
L 227.558125 65.569365 
L 228.076808 65.405645 
L 228.595492 66.142203 
L 229.114176 67.158625 
L 229.63286 67.398865 
L 230.151544 66.735131 
L 230.670227 67.064924 
L 231.188911 67.720104 
L 231.707595 68.032451 
L 232.226279 67.754526 
L 232.744962 67.684475 
L 233.263646 67.987862 
L 233.78233 67.779985 
L 234.819697 66.882294 
L 235.338381 66.19618 
L 235.857065 66.330924 
L 236.375749 66.785355 
L 236.894433 68.0713 
L 237.413116 68.078468 
L 238.450484 65.372197 
L 238.969168 65.976855 
L 239.487851 67.575828 
L 240.006535 68.304202 
L 240.525219 66.292611 
L 241.043903 65.963912 
L 241.562586 66.227116 
L 242.08127 65.899989 
L 242.599954 67.692013 
L 243.118638 67.857432 
L 243.637322 67.084425 
L 244.156005 67.777104 
L 244.674689 68.828499 
L 245.193373 68.630891 
L 246.23074 65.365117 
L 246.749424 65.33932 
L 247.786792 68.46152 
L 248.305475 67.769514 
L 248.824159 68.350979 
L 249.342843 68.54116 
L 249.861527 68.128608 
L 250.380211 69.250196 
L 250.898894 69.180389 
L 251.417578 68.760528 
L 251.936262 69.122236 
L 252.454946 68.429392 
L 252.973629 68.432521 
L 253.492313 69.174563 
L 254.010997 69.50069 
L 254.529681 69.439149 
L 255.048364 68.644846 
L 255.567048 66.499358 
L 256.085732 63.673937 
L 256.604416 64.367569 
L 257.1231 69.238724 
L 257.641783 67.832316 
L 258.160467 67.972568 
L 258.679151 68.602801 
L 259.197835 66.543873 
L 259.716518 69.37423 
L 260.235202 68.434293 
L 260.753886 69.295234 
L 261.27257 68.449785 
L 261.791253 68.54273 
L 262.309937 69.32135 
L 262.828621 69.552178 
L 263.347305 70.765183 
L 263.865989 70.166529 
L 264.384672 70.250928 
L 264.903356 69.580872 
L 265.42204 69.173041 
L 265.940724 67.918883 
L 266.459407 65.830211 
L 266.978091 66.81088 
L 267.496775 69.101331 
L 268.015459 68.326342 
L 268.534142 68.753659 
L 269.57151 65.343682 
L 270.090194 65.609511 
L 270.608878 70.497925 
L 271.127561 68.507138 
L 271.646245 67.944947 
L 272.164929 68.754747 
L 272.683613 66.748681 
L 273.202296 68.66432 
L 273.72098 70.109626 
L 275.277032 69.716816 
L 275.795715 70.811382 
L 276.314399 70.501444 
L 276.833083 70.883992 
L 277.351767 71.007012 
L 277.87045 71.523667 
L 278.907818 71.379889 
L 279.426502 71.770838 
L 279.945185 70.438723 
L 280.463869 69.7991 
L 280.982553 65.960775 
L 281.501237 65.225402 
L 282.019921 69.281992 
L 282.538604 71.121351 
L 283.057288 69.901729 
L 283.575972 70.695397 
L 284.094656 70.376196 
L 284.613339 70.875363 
L 285.132023 69.008682 
L 285.650707 67.603049 
L 286.169391 65.461024 
L 286.688074 68.017108 
L 287.206758 68.809967 
L 287.725442 70.098019 
L 288.244126 69.59795 
L 288.76281 70.263873 
L 289.281493 70.506674 
L 289.800177 71.246349 
L 290.318861 70.843442 
L 290.837545 71.348792 
L 291.356228 71.625133 
L 291.874912 71.36752 
L 292.393596 71.394262 
L 292.91228 71.992856 
L 293.430963 70.227018 
L 293.949647 70.035399 
L 294.468331 68.858698 
L 294.987015 69.665274 
L 295.505699 72.501131 
L 296.024382 71.544221 
L 296.543066 71.945102 
L 297.06175 72.116745 
L 297.580434 71.909003 
L 298.099117 72.590517 
L 298.617801 72.178301 
L 299.136485 73.086423 
L 299.655169 72.353342 
L 300.173852 73.231262 
L 300.692536 72.677598 
L 301.21122 73.523655 
L 301.729904 73.11903 
L 302.248588 73.671305 
L 303.285955 72.84014 
L 303.804639 71.593976 
L 304.323323 71.936847 
L 304.842006 71.985231 
L 305.36069 70.658131 
L 306.398058 63.569574 
L 306.916741 65.802044 
L 307.435425 69.076525 
L 307.954109 69.440363 
L 308.472793 70.546392 
L 308.991477 69.792435 
L 309.51016 71.719156 
L 310.028844 70.901411 
L 310.547528 71.653331 
L 311.066212 71.655433 
L 311.584895 70.554593 
L 312.103579 71.746959 
L 312.622263 70.052027 
L 313.140947 72.201363 
L 313.659631 72.309671 
L 314.178314 73.505218 
L 314.696998 72.422203 
L 315.215682 72.896419 
L 315.215682 72.896419 
" clip-path="url(#pa92b19852d)" style="fill: none; stroke: #55c667; stroke-width: 1.5; stroke-linecap: square"/>
   </g>
   <g id="line2d_13">
    <path d="M 69.281485 -1 
L 69.359575 0.917943 
L 69.420225 -1 
M 70.735977 -1 
L 70.915626 3.639576 
L 71.952994 10.576512 
L 72.471677 11.710677 
L 72.990361 14.771048 
L 73.509045 17.066163 
L 74.027729 19.873345 
L 74.546412 21.240946 
L 75.065096 23.457245 
L 75.58378 27.727825 
L 76.102464 24.954588 
L 76.621148 21.011032 
L 77.139831 27.809334 
L 77.658515 28.468718 
L 78.177199 28.411605 
L 78.695883 28.575271 
L 79.214566 29.494805 
L 79.73325 21.274532 
L 80.251934 31.72811 
L 80.770618 30.9099 
L 81.289301 24.837919 
L 81.807985 34.178594 
L 82.326669 32.062887 
L 82.845353 34.413489 
L 83.364037 33.459283 
L 83.88272 35.213558 
L 84.401404 34.281706 
L 84.920088 39.251149 
L 85.438772 40.25301 
L 85.957455 40.548798 
L 86.476139 33.592612 
L 86.994823 14.499141 
L 87.513507 30.43554 
L 88.03219 24.415543 
L 88.550874 34.756742 
L 89.069558 32.762772 
L 89.588242 36.767854 
L 90.106926 38.018447 
L 90.625609 30.34245 
L 91.144293 37.644487 
L 91.662977 38.600116 
L 92.181661 41.937548 
L 92.700344 35.644569 
L 93.219028 32.830159 
L 93.737712 38.373598 
L 94.256396 42.224598 
L 94.775079 42.0265 
L 95.293763 43.695375 
L 95.812447 44.407904 
L 96.331131 47.338694 
L 96.849815 40.867455 
L 97.368498 46.88018 
L 97.887182 48.57197 
L 98.405866 49.077454 
L 98.92455 51.989935 
L 99.443233 52.764937 
L 99.961917 43.556291 
L 100.480601 47.125689 
L 100.999285 48.035555 
L 101.517968 48.410781 
L 102.036652 45.640124 
L 102.555336 43.51304 
L 103.07402 50.371006 
L 103.592704 49.236809 
L 104.111387 49.357821 
L 104.630071 50.163908 
L 105.148755 46.841375 
L 105.667439 50.531984 
L 106.186122 52.849817 
L 106.704806 52.444991 
L 108.260858 55.302096 
L 108.779541 56.98684 
L 109.816909 58.330236 
L 110.335593 56.263406 
L 110.854276 56.758829 
L 111.37296 43.649234 
L 111.891644 42.143437 
L 112.410328 50.81525 
L 112.929011 50.698331 
L 113.447695 54.576807 
L 113.966379 54.458257 
L 114.485063 34.009632 
L 115.003747 46.584983 
L 115.52243 48.078123 
L 116.041114 45.288575 
L 116.559798 43.198734 
L 117.078482 47.889949 
L 117.597165 47.706772 
L 118.115849 50.72556 
L 118.634533 52.920095 
L 119.153217 53.17328 
L 119.6719 53.585634 
L 120.190584 53.634192 
L 120.709268 56.050713 
L 121.227952 57.587665 
L 121.746636 55.782321 
L 122.265319 55.409801 
L 122.784003 55.634871 
L 123.821371 52.385618 
L 124.858738 57.078895 
L 125.377422 58.435737 
L 126.414789 60.055968 
L 126.933473 61.197559 
L 127.452157 61.325831 
L 127.970841 62.561827 
L 128.489525 60.255823 
L 129.008208 51.334153 
L 129.526892 56.057217 
L 130.045576 55.615329 
L 130.56426 52.905677 
L 131.082943 59.628973 
L 131.601627 60.362037 
L 132.120311 60.755337 
L 132.638995 62.960901 
L 133.157678 62.441748 
L 133.676362 62.76915 
L 134.195046 61.925121 
L 134.71373 62.639982 
L 135.232414 62.853086 
L 136.269781 65.756071 
L 136.788465 66.393724 
L 137.307149 65.873037 
L 137.825832 50.806788 
L 138.344516 61.888454 
L 138.8632 61.680738 
L 139.381884 62.661215 
L 139.900567 63.006988 
L 140.419251 65.19879 
L 140.937935 65.408584 
L 141.456619 66.603916 
L 141.975303 67.112988 
L 142.493986 60.962168 
L 143.01267 61.663051 
L 143.531354 62.768731 
L 144.050038 59.946073 
L 144.568721 53.890491 
L 145.087405 52.564029 
L 145.606089 56.350007 
L 146.124773 56.168436 
L 147.16214 61.513693 
L 147.680824 62.129782 
L 148.199508 64.603288 
L 148.718192 65.189548 
L 149.236875 67.237684 
L 149.755559 66.939217 
L 150.274243 68.883064 
L 151.31161 57.795178 
L 151.830294 65.568704 
L 152.348978 60.982063 
L 152.867662 64.425092 
L 153.386346 66.784952 
L 153.905029 68.209221 
L 154.423713 68.564048 
L 154.942397 68.176861 
L 155.461081 68.770664 
L 155.979764 68.977876 
L 156.498448 69.46613 
L 157.017132 67.099429 
L 157.535816 64.004671 
L 158.054499 66.068714 
L 158.573183 69.503371 
L 159.610551 67.149199 
L 160.129235 70.177665 
L 160.647918 69.569665 
L 161.166602 69.99488 
L 161.685286 72.388545 
L 162.20397 71.981352 
L 162.722653 69.090625 
L 163.241337 62.079135 
L 163.760021 65.225059 
L 164.278705 66.180131 
L 164.797388 67.463674 
L 165.316072 64.924132 
L 165.834756 67.926983 
L 166.35344 69.354438 
L 166.872124 68.271768 
L 167.390807 70.751819 
L 167.909491 71.114316 
L 168.428175 71.973719 
L 168.946859 71.834377 
L 169.465542 72.842147 
L 170.50291 75.645202 
L 171.021594 75.693309 
L 172.058961 76.933589 
L 172.577645 75.657691 
L 173.096329 74.70895 
L 173.615013 75.259778 
L 174.133696 75.081041 
L 174.65238 74.190367 
L 175.171064 72.11866 
L 175.689748 70.872048 
L 176.208431 55.732163 
L 176.727115 61.767047 
L 177.245799 64.612315 
L 177.764483 68.85192 
L 178.283166 68.736777 
L 178.80185 71.431255 
L 179.320534 69.588875 
L 179.839218 63.816197 
L 180.357902 71.625478 
L 180.876585 72.3176 
L 181.395269 74.393374 
L 181.913953 75.501674 
L 182.432637 76.244586 
L 182.95132 77.193251 
L 183.988688 78.215292 
L 184.507372 73.089058 
L 185.026055 63.101748 
L 185.544739 61.112989 
L 186.063423 68.556061 
L 186.582107 72.056703 
L 187.100791 72.196749 
L 187.619474 70.91036 
L 188.138158 68.822555 
L 189.175526 76.75576 
L 189.694209 79.100988 
L 190.212893 79.538844 
L 190.731577 80.163083 
L 191.250261 81.028952 
L 191.768945 80.915388 
L 192.287628 81.821857 
L 192.806312 80.911203 
L 193.324996 80.547417 
L 193.84368 80.617317 
L 194.362363 77.516278 
L 194.881047 79.915274 
L 195.399731 80.310891 
L 195.918415 83.427965 
L 196.437098 82.377648 
L 196.955782 84.886676 
L 197.474466 83.441833 
L 197.99315 81.265624 
L 198.511834 84.788849 
L 199.030517 83.242329 
L 199.549201 81.294858 
L 200.067885 81.095901 
L 200.586569 86.205194 
L 201.105252 84.575421 
L 201.623936 83.369624 
L 202.14262 81.364353 
L 202.661304 82.907959 
L 203.698671 85.162646 
L 204.217355 86.838729 
L 204.736039 87.650592 
L 205.254723 88.204525 
L 206.29209 89.830571 
L 206.810774 89.615053 
L 207.329458 88.456725 
L 207.848141 84.901646 
L 208.366825 82.286035 
L 208.885509 77.944562 
L 209.404193 80.607509 
L 209.922876 81.21319 
L 210.44156 83.231769 
L 210.960244 82.929044 
L 211.478928 85.754121 
L 211.997612 86.000661 
L 212.516295 87.136027 
L 213.034979 87.224256 
L 213.553663 89.603989 
L 214.072347 89.531493 
L 215.109714 91.468344 
L 215.628398 90.760363 
L 216.147082 89.51383 
L 216.665765 90.455866 
L 217.184449 90.824921 
L 218.221817 79.102747 
L 218.740501 82.585128 
L 219.259184 82.05265 
L 219.777868 82.726822 
L 220.296552 80.146321 
L 220.815236 81.41208 
L 221.333919 80.454245 
L 221.852603 80.616795 
L 222.371287 80.128021 
L 222.889971 81.564103 
L 223.408654 84.052842 
L 223.927338 85.437829 
L 224.446022 86.158381 
L 224.964706 87.731517 
L 225.48339 88.779599 
L 226.002073 88.307441 
L 226.520757 84.179908 
L 227.039441 78.644678 
L 227.558125 77.740679 
L 228.595492 82.532917 
L 229.63286 83.47203 
L 230.151544 84.028763 
L 230.670227 83.391025 
L 231.188911 83.055835 
L 231.707595 80.143168 
L 232.226279 78.012469 
L 232.744962 82.494376 
L 233.263646 81.214673 
L 234.301014 86.835428 
L 234.819697 87.038216 
L 236.375749 90.813669 
L 236.894433 89.978368 
L 237.413116 88.67164 
L 237.9318 87.954815 
L 238.450484 90.981152 
L 238.969168 88.357549 
L 239.487851 91.901878 
L 240.006535 91.965677 
L 241.043903 94.218669 
L 242.08127 95.457337 
L 242.599954 95.802471 
L 243.118638 95.013014 
L 243.637322 92.567458 
L 244.156005 87.107602 
L 244.674689 82.847483 
L 245.193373 75.587541 
L 245.712057 81.154601 
L 246.23074 83.374418 
L 246.749424 85.04106 
L 247.268108 85.251946 
L 247.786792 83.242466 
L 248.305475 82.488858 
L 248.824159 87.053621 
L 249.342843 87.188708 
L 250.380211 90.232289 
L 250.898894 90.832077 
L 251.417578 91.688888 
L 251.936262 91.125158 
L 252.454946 94.226122 
L 252.973629 94.860907 
L 253.492313 95.283017 
L 254.010997 96.952216 
L 254.529681 94.555627 
L 255.048364 92.784718 
L 255.567048 93.633333 
L 256.085732 87.802549 
L 256.604416 66.991519 
L 257.1231 78.214687 
L 257.641783 82.953152 
L 258.160467 79.953687 
L 258.679151 82.896457 
L 259.197835 83.790448 
L 259.716518 88.036892 
L 260.235202 88.855512 
L 260.753886 88.221398 
L 261.27257 90.595104 
L 262.309937 92.930402 
L 262.828621 93.784338 
L 263.347305 95.201936 
L 263.865989 95.677314 
L 264.384672 95.705429 
L 264.903356 96.052524 
L 265.42204 93.79749 
L 265.940724 92.272688 
L 266.459407 92.51273 
L 266.978091 95.743185 
L 267.496775 96.709188 
L 268.015459 90.718149 
L 268.534142 93.581965 
L 269.052826 93.616138 
L 269.57151 93.289868 
L 270.090194 91.855508 
L 270.608878 91.582335 
L 271.127561 94.837243 
L 271.646245 95.308895 
L 272.683613 99.028098 
L 273.202296 98.574913 
L 273.72098 95.960417 
L 274.239664 92.097759 
L 275.277032 96.392284 
L 276.314399 101.074565 
L 277.351767 102.765439 
L 278.389134 104.970074 
L 278.907818 104.159652 
L 279.426502 105.212379 
L 279.945185 104.301166 
L 280.463869 103.814658 
L 280.982553 105.13935 
L 281.501237 104.324785 
L 282.019921 104.994002 
L 283.057288 103.118862 
L 283.575972 101.593559 
L 284.094656 102.102581 
L 285.132023 104.08679 
L 285.650707 103.886121 
L 286.169391 105.216601 
L 286.688074 105.368324 
L 287.206758 103.31039 
L 287.725442 89.450746 
L 288.244126 96.972799 
L 288.76281 99.457941 
L 289.281493 99.291304 
L 289.800177 95.274971 
L 290.318861 97.247662 
L 290.837545 98.334431 
L 291.356228 93.28028 
L 291.874912 93.366145 
L 292.393596 97.439419 
L 292.91228 97.373137 
L 293.430963 98.322826 
L 293.949647 99.760135 
L 294.468331 99.837855 
L 295.505699 102.359889 
L 296.024382 102.099289 
L 296.543066 96.750065 
L 297.06175 98.219553 
L 297.580434 100.386126 
L 299.136485 104.621641 
L 299.655169 104.962372 
L 300.173852 106.576512 
L 300.692536 107.065536 
L 301.21122 107.364865 
L 301.729904 108.818754 
L 302.248588 110.699041 
L 302.767271 111.607528 
L 303.285955 113.270876 
L 304.323323 113.601536 
L 304.842006 108.273585 
L 305.36069 100.495864 
L 305.879374 89.714049 
L 306.398058 94.551058 
L 306.916741 88.027239 
L 307.435425 87.4779 
L 307.954109 87.301761 
L 308.472793 93.280134 
L 308.991477 95.613556 
L 309.51016 97.145258 
L 310.028844 95.163688 
L 310.547528 98.319043 
L 311.066212 100.488503 
L 311.584895 101.876247 
L 312.103579 102.545596 
L 313.140947 106.916145 
L 313.659631 107.74379 
L 314.178314 109.141383 
L 314.696998 109.686583 
L 315.215682 111.966781 
L 315.215682 111.966781 
" clip-path="url(#pa92b19852d)" style="fill: none; stroke: #404788; stroke-width: 1.5; stroke-linecap: square"/>
   </g>
   <g id="patch_3">
    <path d="M 48.8975 150.359063 
L 48.8975 11.759063 
" style="fill: none; stroke: #000000; stroke-width: 0.8; stroke-linejoin: miter; stroke-linecap: square"/>
   </g>
   <g id="patch_4">
    <path d="M 327.8975 150.359063 
L 327.8975 11.759063 
" style="fill: none; stroke: #000000; stroke-width: 0.8; stroke-linejoin: miter; stroke-linecap: square"/>
   </g>
   <g id="patch_5">
    <path d="M 48.8975 150.359063 
L 327.8975 150.359063 
" style="fill: none; stroke: #000000; stroke-width: 0.8; stroke-linejoin: miter; stroke-linecap: square"/>
   </g>
   <g id="patch_6">
    <path d="M 48.8975 11.759063 
L 327.8975 11.759063 
" style="fill: none; stroke: #000000; stroke-width: 0.8; stroke-linejoin: miter; stroke-linecap: square"/>
   </g>
   <g id="legend_1">
    <g id="patch_7">
     <path d="M 57.2975 144.359063 
L 270.918125 144.359063 
Q 273.318125 144.359063 273.318125 141.959063 
L 273.318125 125.545313 
Q 273.318125 123.145313 270.918125 123.145313 
L 57.2975 123.145313 
Q 54.8975 123.145313 54.8975 125.545313 
L 54.8975 141.959063 
Q 54.8975 144.359063 57.2975 144.359063 
z
" style="fill: #ffffff; opacity: 0.8; stroke: #cccccc; stroke-linejoin: miter"/>
    </g>
    <g id="line2d_14">
     <path d="M 59.6975 132.863438 
L 71.6975 132.863438 
L 83.6975 132.863438 
" style="fill: none; stroke: #55c667; stroke-width: 1.5; stroke-linecap: square"/>
    </g>
    <g id="text_14">
     <!-- Dir-GCN -->
     <g transform="translate(93.2975 137.063438) scale(0.12 -0.12)">
      <defs>
       <path id="DejaVuSans-44" d="M 1259 4147 
L 1259 519 
L 2022 519 
Q 2988 519 3436 956 
Q 3884 1394 3884 2338 
Q 3884 3275 3436 3711 
Q 2988 4147 2022 4147 
L 1259 4147 
z
M 628 4666 
L 1925 4666 
Q 3281 4666 3915 4102 
Q 4550 3538 4550 2338 
Q 4550 1131 3912 565 
Q 3275 0 1925 0 
L 628 0 
L 628 4666 
z
" transform="scale(0.015625)"/>
       <path id="DejaVuSans-2d" d="M 313 2009 
L 1997 2009 
L 1997 1497 
L 313 1497 
L 313 2009 
z
" transform="scale(0.015625)"/>
       <path id="DejaVuSans-47" d="M 3809 666 
L 3809 1919 
L 2778 1919 
L 2778 2438 
L 4434 2438 
L 4434 434 
Q 4069 175 3628 42 
Q 3188 -91 2688 -91 
Q 1594 -91 976 548 
Q 359 1188 359 2328 
Q 359 3472 976 4111 
Q 1594 4750 2688 4750 
Q 3144 4750 3555 4637 
Q 3966 4525 4313 4306 
L 4313 3634 
Q 3963 3931 3569 4081 
Q 3175 4231 2741 4231 
Q 1884 4231 1454 3753 
Q 1025 3275 1025 2328 
Q 1025 1384 1454 906 
Q 1884 428 2741 428 
Q 3075 428 3337 486 
Q 3600 544 3809 666 
z
" transform="scale(0.015625)"/>
       <path id="DejaVuSans-43" d="M 4122 4306 
L 4122 3641 
Q 3803 3938 3442 4084 
Q 3081 4231 2675 4231 
Q 1875 4231 1450 3742 
Q 1025 3253 1025 2328 
Q 1025 1406 1450 917 
Q 1875 428 2675 428 
Q 3081 428 3442 575 
Q 3803 722 4122 1019 
L 4122 359 
Q 3791 134 3420 21 
Q 3050 -91 2638 -91 
Q 1578 -91 968 557 
Q 359 1206 359 2328 
Q 359 3453 968 4101 
Q 1578 4750 2638 4750 
Q 3056 4750 3426 4639 
Q 3797 4528 4122 4306 
z
" transform="scale(0.015625)"/>
      </defs>
      <use xlink:href="#DejaVuSans-44"/>
      <use xlink:href="#DejaVuSans-69" x="77.001953"/>
      <use xlink:href="#DejaVuSans-72" x="104.785156"/>
      <use xlink:href="#DejaVuSans-2d" x="139.523438"/>
      <use xlink:href="#DejaVuSans-47" x="179.232422"/>
      <use xlink:href="#DejaVuSans-43" x="256.722656"/>
      <use xlink:href="#DejaVuSans-4e" x="326.546875"/>
     </g>
    </g>
    <g id="line2d_15">
     <path d="M 165.45875 132.863438 
L 177.45875 132.863438 
L 189.45875 132.863438 
" style="fill: none; stroke: #404788; stroke-width: 1.5; stroke-linecap: square"/>
    </g>
    <g id="text_15">
     <!-- DA-Dir-GCN -->
     <g transform="translate(199.05875 137.063438) scale(0.12 -0.12)">
      <defs>
       <path id="DejaVuSans-41" d="M 2188 4044 
L 1331 1722 
L 3047 1722 
L 2188 4044 
z
M 1831 4666 
L 2547 4666 
L 4325 0 
L 3669 0 
L 3244 1197 
L 1141 1197 
L 716 0 
L 50 0 
L 1831 4666 
z
" transform="scale(0.015625)"/>
      </defs>
      <use xlink:href="#DejaVuSans-44"/>
      <use xlink:href="#DejaVuSans-41" x="75.251953"/>
      <use xlink:href="#DejaVuSans-2d" x="141.410156"/>
      <use xlink:href="#DejaVuSans-44" x="177.494141"/>
      <use xlink:href="#DejaVuSans-69" x="254.496094"/>
      <use xlink:href="#DejaVuSans-72" x="282.279297"/>
      <use xlink:href="#DejaVuSans-2d" x="317.017578"/>
      <use xlink:href="#DejaVuSans-47" x="356.726562"/>
      <use xlink:href="#DejaVuSans-43" x="434.216797"/>
      <use xlink:href="#DejaVuSans-4e" x="504.041016"/>
     </g>
    </g>
   </g>
  </g>
 </g>
 <defs>
  <clipPath id="pa92b19852d">
   <rect x="48.8975" y="11.759063" width="279" height="138.6"/>
  </clipPath>
 </defs>
</svg>
