<?xml version="1.0" encoding="utf-8" standalone="no"?>
<!DOCTYPE svg PUBLIC "-//W3C//DTD SVG 1.1//EN"
  "http://www.w3.org/Graphics/SVG/1.1/DTD/svg11.dtd">
<svg xmlns:xlink="http://www.w3.org/1999/xlink" width="344.21375pt" height="187.2275pt" viewBox="0 0 344.21375 187.2275" xmlns="http://www.w3.org/2000/svg" version="1.1">
 <metadata>
  <rdf:RDF xmlns:dc="http://purl.org/dc/elements/1.1/" xmlns:cc="http://creativecommons.org/ns#" xmlns:rdf="http://www.w3.org/1999/02/22-rdf-syntax-ns#">
   <cc:Work>
    <dc:type rdf:resource="http://purl.org/dc/dcmitype/StillImage"/>
    <dc:date>2024-09-05T16:06:49.879984</dc:date>
    <dc:format>image/svg+xml</dc:format>
    <dc:creator>
     <cc:Agent>
      <dc:title>Matplotlib v3.8.2, https://matplotlib.org/</dc:title>
     </cc:Agent>
    </dc:creator>
   </cc:Work>
  </rdf:RDF>
 </metadata>
 <defs>
  <style type="text/css">*{stroke-linejoin: round; stroke-linecap: butt}</style>
 </defs>
 <g id="figure_1">
  <g id="patch_1">
   <path d="M 0 187.2275 
L 344.21375 187.2275 
L 344.21375 0 
L 0 0 
z
" style="fill: #ffffff"/>
  </g>
  <g id="axes_1">
   <g id="patch_2">
    <path d="M 58.01375 145.8 
L 337.01375 145.8 
L 337.01375 7.2 
L 58.01375 7.2 
z
" style="fill: #ffffff"/>
   </g>
   <g id="PolyCollection_1">
    <path d="M 70.695568 13.5 
L 70.695568 13.587596 
L 71.331248 13.719365 
L 71.966928 14.068131 
L 72.602609 14.348648 
L 73.238289 14.693241 
L 73.873969 15.114146 
L 74.509649 15.571536 
L 75.145329 16.033044 
L 75.781009 16.50008 
L 76.416689 16.993848 
L 77.052369 17.504014 
L 77.688049 18.027269 
L 78.323729 18.401491 
L 78.95941 18.986211 
L 79.59509 19.529446 
L 80.23077 19.990798 
L 80.86645 20.5608 
L 81.50213 21.088426 
L 82.13781 21.299129 
L 82.77349 22.012819 
L 83.40917 22.274882 
L 84.04485 22.828832 
L 84.680531 23.459958 
L 85.316211 23.961242 
L 85.951891 24.585488 
L 86.587571 25.220391 
L 87.223251 25.743518 
L 87.858931 26.525441 
L 88.494611 27.08319 
L 89.130291 27.471071 
L 89.765971 27.951887 
L 90.401652 28.449279 
L 91.037332 29.153703 
L 91.673012 29.791165 
L 92.308692 30.362308 
L 92.944372 30.779051 
L 93.580052 31.425998 
L 94.215732 32.103678 
L 94.851412 32.581495 
L 95.487092 33.469492 
L 96.122773 34.246389 
L 96.758453 34.660599 
L 97.394133 34.901841 
L 98.029813 35.960342 
L 98.665493 36.030252 
L 99.301173 36.018271 
L 99.936853 36.55703 
L 100.572533 36.881317 
L 101.208213 37.801572 
L 101.843894 38.400191 
L 102.479574 38.743646 
L 103.115254 39.242096 
L 103.750934 39.967243 
L 104.386614 40.643661 
L 105.022294 41.110624 
L 105.657974 41.595321 
L 106.293654 41.96067 
L 106.929334 42.405017 
L 107.565015 42.887816 
L 108.200695 42.946804 
L 108.836375 43.645811 
L 109.472055 43.506314 
L 110.107735 44.038736 
L 110.743415 44.259367 
L 111.379095 44.702601 
L 112.014775 45.104336 
L 112.650455 45.75361 
L 113.286136 46.746352 
L 113.921816 46.863539 
L 114.557496 46.982529 
L 115.193176 47.66091 
L 115.828856 48.526479 
L 116.464536 48.534552 
L 117.100216 49.038687 
L 117.735896 48.992617 
L 118.371576 49.539541 
L 119.007256 49.296278 
L 119.642937 49.647955 
L 120.278617 50.1036 
L 120.914297 50.891369 
L 121.549977 50.975044 
L 122.185657 51.728901 
L 122.821337 51.705177 
L 123.457017 52.316537 
L 124.092697 52.96019 
L 124.728377 53.36824 
L 125.364058 53.922798 
L 125.999738 54.854753 
L 126.635418 55.376688 
L 127.271098 55.602895 
L 127.906778 54.91359 
L 128.542458 55.538294 
L 129.178138 55.882842 
L 129.813818 55.568315 
L 130.449498 55.510946 
L 131.085179 55.809612 
L 131.720859 56.306068 
L 132.356539 56.066983 
L 132.992219 56.322025 
L 133.627899 56.701826 
L 134.263579 57.204972 
L 134.899259 57.627269 
L 135.534939 57.570754 
L 136.170619 57.971383 
L 136.8063 58.386153 
L 137.44198 58.405906 
L 138.07766 58.15107 
L 138.71334 58.834586 
L 139.34902 58.965753 
L 139.9847 59.573638 
L 140.62038 59.520317 
L 141.25606 59.597862 
L 141.89174 59.51893 
L 142.527421 59.867445 
L 143.163101 60.222423 
L 143.798781 61.00092 
L 144.434461 61.344419 
L 145.070141 61.681432 
L 145.705821 61.790335 
L 146.341501 61.767056 
L 146.977181 62.144952 
L 147.612861 61.914133 
L 148.248542 62.172006 
L 148.884222 61.850643 
L 149.519902 62.238331 
L 150.155582 62.428298 
L 150.791262 64.775209 
L 151.426942 66.499291 
L 152.062622 65.273999 
L 152.698302 68.118277 
L 153.333982 68.484556 
L 153.969663 36389.710467 
L 154.605343 94.760639 
L 155.241023 102.482028 
L 155.876703 85.201843 
L 156.512383 78.677663 
L 157.148063 78.417274 
L 157.783743 77.590318 
L 158.419423 74.696605 
L 159.055103 71.163596 
L 159.690783 70.203722 
L 160.326464 68.719617 
L 160.962144 68.102281 
L 161.597824 68.266673 
L 162.233504 67.786021 
L 162.869184 68.535441 
L 163.504864 70.340856 
L 164.140544 69.248438 
L 164.776224 69.819966 
L 165.411904 68.944359 
L 166.047585 68.32606 
L 166.683265 69.182766 
L 167.318945 70.556188 
L 167.954625 69.690011 
L 168.590305 71.050946 
L 169.225985 70.870597 
L 169.861665 72.491071 
L 170.497345 73.673363 
L 171.133025 74.398007 
L 171.768706 74.127257 
L 172.404386 73.545662 
L 173.040066 73.711284 
L 173.675746 73.731956 
L 174.311426 73.859127 
L 174.947106 74.046888 
L 175.582786 73.205869 
L 176.218466 73.169011 
L 176.854146 72.287153 
L 177.489827 71.435705 
L 178.125507 76.243027 
L 178.761187 85.440047 
L 179.396867 95.330708 
L 180.032547 96.412805 
L 180.668227 95.43084 
L 181.303907 85.997792 
L 181.939587 87.429926 
L 182.575267 82.890991 
L 183.210948 83.710833 
L 183.846628 81.350735 
L 184.482308 79.177265 
L 185.117988 77.635142 
L 185.753668 76.239616 
L 186.389348 75.63903 
L 187.025028 76.583433 
L 187.660708 73.995227 
L 188.296388 73.126865 
L 188.932069 72.860966 
L 189.567749 72.649375 
L 190.203429 74.640463 
L 190.839109 74.552246 
L 191.474789 74.587719 
L 192.110469 74.376385 
L 192.746149 74.698075 
L 193.381829 74.157422 
L 194.017509 74.176381 
L 194.65319 79.312724 
L 195.28887 83.24921 
L 195.92455 89.444468 
L 196.56023 92.015275 
L 197.19591 91.704222 
L 197.83159 94.787754 
L 198.46727 89.00772 
L 199.10295 84.015714 
L 199.73863 85.447628 
L 200.37431 82.949187 
L 201.009991 81.315286 
L 201.645671 80.472332 
L 202.281351 79.396329 
L 202.917031 78.690419 
L 203.552711 76.99236 
L 204.188391 76.925111 
L 204.824071 78.556693 
L 205.459751 98.812276 
L 206.095431 36389.710467 
L 206.731112 106.51789 
L 207.366792 100.755907 
L 208.002472 85.451622 
L 208.638152 86.73923 
L 209.273832 84.57411 
L 209.909512 91.672462 
L 210.545192 83.564201 
L 211.180872 80.98923 
L 211.816552 79.221354 
L 212.452233 81.500169 
L 213.087913 78.880005 
L 213.723593 79.190832 
L 214.359273 78.488773 
L 214.994953 78.472508 
L 215.630633 77.32914 
L 216.266313 78.378871 
L 216.901993 77.99083 
L 217.537673 78.651982 
L 218.173354 77.761389 
L 218.809034 77.509399 
L 219.444714 77.571182 
L 220.080394 77.611271 
L 220.716074 77.243999 
L 221.351754 78.000721 
L 221.987434 78.164307 
L 222.623114 78.21528 
L 223.258794 77.882354 
L 223.894475 76.20697 
L 224.530155 77.799446 
L 225.165835 78.905156 
L 225.801515 79.105139 
L 226.437195 79.384101 
L 227.072875 78.94292 
L 227.708555 77.905257 
L 228.344235 78.598761 
L 228.979915 79.221541 
L 229.615596 78.00585 
L 230.251276 78.164633 
L 230.886956 77.814257 
L 231.522636 76.62043 
L 232.158316 77.026208 
L 232.793996 77.609619 
L 233.429676 77.728669 
L 234.065356 77.811594 
L 234.701036 77.967672 
L 235.336717 77.680588 
L 235.972397 78.220629 
L 236.608077 78.252798 
L 237.243757 79.071081 
L 237.879437 79.923618 
L 238.515117 79.331077 
L 239.150797 80.511671 
L 239.786477 79.821108 
L 240.422157 79.974195 
L 241.057837 80.111883 
L 241.693518 80.363028 
L 242.329198 80.240854 
L 242.964878 80.381164 
L 243.600558 80.762991 
L 244.236238 81.151517 
L 244.871918 80.894317 
L 245.507598 80.918255 
L 246.143278 81.234367 
L 246.778958 81.176497 
L 247.414639 81.219044 
L 248.050319 81.838092 
L 248.685999 81.87103 
L 249.321679 81.780354 
L 249.957359 82.125315 
L 250.593039 82.184944 
L 251.228719 82.416589 
L 251.864399 82.541745 
L 252.500079 81.761363 
L 253.13576 81.690392 
L 253.77144 82.109605 
L 254.40712 82.755218 
L 255.0428 84.345978 
L 255.67848 84.070901 
L 256.31416 84.410209 
L 256.94984 84.318512 
L 257.58552 83.15622 
L 258.2212 82.741982 
L 258.856881 83.199098 
L 259.492561 84.761868 
L 260.128241 85.223896 
L 260.763921 90.743405 
L 261.399601 85.280406 
L 262.035281 86.449734 
L 262.670961 86.600976 
L 263.306641 86.687348 
L 263.942321 86.975101 
L 264.578002 86.981574 
L 265.213682 86.951599 
L 265.849362 85.891441 
L 266.485042 85.768179 
L 267.120722 86.114271 
L 267.756402 84.754127 
L 268.392082 84.980452 
L 269.027762 84.280396 
L 269.663442 83.316581 
L 270.299123 83.923613 
L 270.934803 86.809127 
L 271.570483 86.882363 
L 272.206163 90.598033 
L 272.841843 99.981224 
L 273.477523 88.53836 
L 274.113203 87.17506 
L 274.748883 88.635531 
L 275.384563 87.61317 
L 276.020244 86.954276 
L 276.655924 85.816393 
L 277.291604 85.405623 
L 277.927284 92.837295 
L 278.562964 89.582986 
L 279.198644 87.065626 
L 279.834324 36389.710467 
L 280.470004 36389.710467 
L 281.105684 36389.710467 
L 281.741364 36389.710467 
L 282.377045 36389.710467 
L 283.012725 36389.710467 
L 283.648405 36389.710467 
L 284.284085 36389.710467 
L 284.919765 36389.710467 
L 285.555445 36389.710467 
L 286.191125 36389.710467 
L 286.826805 36389.710467 
L 287.462485 36389.710467 
L 288.098166 36389.710467 
L 288.733846 36389.710467 
L 289.369526 36389.710467 
L 290.005206 36389.710467 
L 290.640886 118.171423 
L 291.276566 99.075115 
L 291.912246 95.421012 
L 292.547926 93.165314 
L 293.183606 92.845051 
L 293.819287 92.830125 
L 294.454967 93.320671 
L 295.090647 111.416355 
L 295.726327 103.577679 
L 296.362007 99.446519 
L 296.997687 100.567252 
L 297.633367 96.398628 
L 298.269047 91.923211 
L 298.904727 90.012408 
L 299.540408 89.600044 
L 300.176088 88.880977 
L 300.811768 88.574386 
L 301.447448 86.844719 
L 302.083128 86.559284 
L 302.718808 89.734403 
L 303.354488 36389.710467 
L 303.990168 36389.710467 
L 304.625848 36389.710467 
L 305.261529 36389.710467 
L 305.897209 36389.710467 
L 306.532889 36389.710467 
L 307.168569 36389.710467 
L 307.804249 36389.710467 
L 308.439929 36389.710467 
L 309.075609 36389.710467 
L 309.711289 36389.710467 
L 310.346969 36389.710467 
L 310.98265 36389.710467 
L 311.61833 36389.710467 
L 312.25401 36389.710467 
L 312.88969 36389.710467 
L 313.52537 36389.710467 
L 314.16105 122.515834 
L 314.79673 121.365466 
L 315.43241 109.885691 
L 316.06809 112.191624 
L 316.703771 104.317732 
L 317.339451 104.447344 
L 317.975131 98.496403 
L 318.610811 100.359372 
L 319.246491 98.350764 
L 319.882171 95.09456 
L 320.517851 91.926447 
L 321.153531 90.357959 
L 321.789211 89.218955 
L 322.424891 89.362666 
L 323.060572 89.667212 
L 323.696252 91.81856 
L 324.331932 90.848173 
L 324.331932 70.520624 
L 324.331932 70.520624 
L 323.696252 69.723136 
L 323.060572 69.731319 
L 322.424891 69.658645 
L 321.789211 69.391042 
L 321.153531 68.667851 
L 320.517851 67.196379 
L 319.882171 66.415581 
L 319.246491 65.985335 
L 318.610811 64.922174 
L 317.975131 65.04111 
L 317.339451 63.748317 
L 316.703771 64.308687 
L 316.06809 63.135678 
L 315.43241 62.836147 
L 314.79673 62.401562 
L 314.16105 62.262835 
L 313.52537 62.492386 
L 312.88969 61.641223 
L 312.25401 61.282984 
L 311.61833 60.032001 
L 310.98265 58.491426 
L 310.346969 57.485477 
L 309.711289 56.573929 
L 309.075609 54.859112 
L 308.439929 54.770103 
L 307.804249 53.331211 
L 307.168569 50.569897 
L 306.532889 51.904091 
L 305.897209 48.776444 
L 305.261529 46.754858 
L 304.625848 47.152127 
L 303.990168 55.545762 
L 303.354488 51.578384 
L 302.718808 66.546705 
L 302.083128 71.313008 
L 301.447448 70.808599 
L 300.811768 69.768076 
L 300.176088 69.272268 
L 299.540408 68.555775 
L 298.904727 68.601295 
L 298.269047 67.293139 
L 297.633367 65.097159 
L 296.997687 65.17179 
L 296.362007 65.315119 
L 295.726327 64.109152 
L 295.090647 62.923571 
L 294.454967 65.664689 
L 293.819287 65.712751 
L 293.183606 64.69776 
L 292.547926 64.704094 
L 291.912246 63.774862 
L 291.276566 62.33701 
L 290.640886 62.373002 
L 290.005206 61.447042 
L 289.369526 60.174084 
L 288.733846 58.794156 
L 288.098166 57.763313 
L 287.462485 56.660584 
L 286.826805 54.679234 
L 286.191125 53.915574 
L 285.555445 53.000125 
L 284.919765 51.037654 
L 284.284085 49.059431 
L 283.648405 48.733926 
L 283.012725 48.363805 
L 282.377045 46.628901 
L 281.741364 47.139304 
L 281.105684 48.547354 
L 280.470004 49.284199 
L 279.834324 49.295908 
L 279.198644 61.46063 
L 278.562964 64.550876 
L 277.927284 64.106029 
L 277.291604 68.270577 
L 276.655924 67.553985 
L 276.020244 68.116142 
L 275.384563 66.751664 
L 274.748883 67.118024 
L 274.113203 68.663335 
L 273.477523 67.974542 
L 272.841843 64.296158 
L 272.206163 67.460427 
L 271.570483 68.708401 
L 270.934803 69.157077 
L 270.299123 72.447845 
L 269.663442 72.002919 
L 269.027762 72.553682 
L 268.392082 72.808613 
L 267.756402 71.850849 
L 267.120722 71.167229 
L 266.485042 70.626852 
L 265.849362 71.464417 
L 265.213682 71.130716 
L 264.578002 71.165612 
L 263.942321 70.573994 
L 263.306641 69.927833 
L 262.670961 69.99017 
L 262.035281 69.446239 
L 261.399601 70.361158 
L 260.763921 66.875279 
L 260.128241 70.454257 
L 259.492561 68.589646 
L 258.856881 73.837073 
L 258.2212 73.580912 
L 257.58552 72.81301 
L 256.94984 72.406829 
L 256.31416 72.105639 
L 255.67848 72.576022 
L 255.0428 72.123109 
L 254.40712 73.517222 
L 253.77144 73.092402 
L 253.13576 75.538671 
L 252.500079 75.423099 
L 251.864399 75.319553 
L 251.228719 74.879369 
L 250.593039 74.497086 
L 249.957359 74.962644 
L 249.321679 74.599738 
L 248.685999 74.408852 
L 248.050319 74.025755 
L 247.414639 73.458798 
L 246.778958 73.429805 
L 246.143278 73.314561 
L 245.507598 73.110909 
L 244.871918 73.089277 
L 244.236238 72.3529 
L 243.600558 72.0116 
L 242.964878 71.503161 
L 242.329198 71.064063 
L 241.693518 70.774395 
L 241.057837 71.060864 
L 240.422157 70.757141 
L 239.786477 70.044331 
L 239.150797 68.906877 
L 238.515117 69.852374 
L 237.879437 68.379775 
L 237.243757 69.007501 
L 236.608077 69.557108 
L 235.972397 69.056441 
L 235.336717 68.556533 
L 234.701036 68.983814 
L 234.065356 67.745511 
L 233.429676 67.453796 
L 232.793996 65.58916 
L 232.158316 66.864966 
L 231.522636 65.854069 
L 230.886956 65.53433 
L 230.251276 64.950158 
L 229.615596 64.787558 
L 228.979915 63.322331 
L 228.344235 62.851664 
L 227.708555 63.715199 
L 227.072875 62.592232 
L 226.437195 61.839376 
L 225.801515 60.822483 
L 225.165835 62.072818 
L 224.530155 62.750163 
L 223.894475 64.160648 
L 223.258794 65.292811 
L 222.623114 64.483744 
L 221.987434 64.321675 
L 221.351754 63.759352 
L 220.716074 63.449244 
L 220.080394 63.780022 
L 219.444714 63.097607 
L 218.809034 63.072559 
L 218.173354 62.658624 
L 217.537673 61.200187 
L 216.901993 60.793556 
L 216.266313 60.042109 
L 215.630633 60.267647 
L 214.994953 58.936035 
L 214.359273 59.23764 
L 213.723593 59.020033 
L 213.087913 58.132468 
L 212.452233 57.119802 
L 211.816552 56.876929 
L 211.180872 55.526218 
L 210.545192 56.020653 
L 209.909512 54.710936 
L 209.273832 57.180647 
L 208.638152 56.321497 
L 208.002472 56.057039 
L 207.366792 52.850874 
L 206.731112 53.156479 
L 206.095431 50.940012 
L 205.459751 54.225189 
L 204.824071 60.227943 
L 204.188391 64.036319 
L 203.552711 64.060754 
L 202.917031 64.912559 
L 202.281351 64.805171 
L 201.645671 63.77481 
L 201.009991 62.341154 
L 200.37431 61.28145 
L 199.73863 59.680195 
L 199.10295 59.866347 
L 198.46727 58.197165 
L 197.83159 56.644362 
L 197.19591 56.941227 
L 196.56023 56.273668 
L 195.92455 56.131804 
L 195.28887 57.846706 
L 194.65319 58.383516 
L 194.017509 62.767782 
L 193.381829 63.842084 
L 192.746149 62.92173 
L 192.110469 62.202668 
L 191.474789 62.5319 
L 190.839109 61.827154 
L 190.203429 61.998068 
L 189.567749 62.280979 
L 188.932069 62.31025 
L 188.296388 61.141022 
L 187.660708 61.925501 
L 187.025028 60.024493 
L 186.389348 61.007098 
L 185.753668 60.350452 
L 185.117988 59.322406 
L 184.482308 58.61456 
L 183.846628 56.99004 
L 183.210948 55.865536 
L 182.575267 56.084736 
L 181.939587 54.298316 
L 181.303907 54.143724 
L 180.668227 52.215711 
L 180.032547 51.828739 
L 179.396867 51.81074 
L 178.761187 53.339407 
L 178.125507 57.03153 
L 177.489827 60.736494 
L 176.854146 61.479319 
L 176.218466 60.76772 
L 175.582786 60.580729 
L 174.947106 60.554171 
L 174.311426 60.63597 
L 173.675746 59.33176 
L 173.040066 59.346554 
L 172.404386 58.954451 
L 171.768706 58.581501 
L 171.133025 58.296557 
L 170.497345 58.255926 
L 169.861665 58.898083 
L 169.225985 59.450687 
L 168.590305 58.714372 
L 167.954625 59.263146 
L 167.318945 58.134635 
L 166.683265 58.234794 
L 166.047585 57.981237 
L 165.411904 57.952212 
L 164.776224 57.445104 
L 164.140544 57.573326 
L 163.504864 55.22129 
L 162.869184 56.535526 
L 162.233504 55.598758 
L 161.597824 54.958521 
L 160.962144 53.482217 
L 160.326464 53.456334 
L 159.690783 52.865771 
L 159.055103 51.857856 
L 158.419423 51.395629 
L 157.783743 50.071682 
L 157.148063 49.312164 
L 156.512383 48.130435 
L 155.876703 46.985038 
L 155.241023 46.065121 
L 154.605343 47.380334 
L 153.969663 45.288529 
L 153.333982 53.946574 
L 152.698302 55.071607 
L 152.062622 57.710588 
L 151.426942 56.041235 
L 150.791262 57.40211 
L 150.155582 59.750218 
L 149.519902 58.764458 
L 148.884222 59.386738 
L 148.248542 59.31547 
L 147.612861 59.747617 
L 146.977181 58.736392 
L 146.341501 58.784519 
L 145.705821 58.630288 
L 145.070141 57.944103 
L 144.434461 57.687397 
L 143.798781 57.467766 
L 143.163101 57.320366 
L 142.527421 56.912603 
L 141.89174 56.561452 
L 141.25606 55.758182 
L 140.62038 55.273403 
L 139.9847 54.698794 
L 139.34902 54.324522 
L 138.71334 53.920797 
L 138.07766 53.456697 
L 137.44198 53.795774 
L 136.8063 53.011181 
L 136.170619 52.666345 
L 135.534939 52.109923 
L 134.899259 51.286267 
L 134.263579 50.865822 
L 133.627899 50.920692 
L 132.992219 50.449709 
L 132.356539 51.526301 
L 131.720859 51.307806 
L 131.085179 51.18158 
L 130.449498 50.204399 
L 129.813818 49.932514 
L 129.178138 49.525826 
L 128.542458 49.071949 
L 127.906778 48.984165 
L 127.271098 48.362551 
L 126.635418 46.969938 
L 125.999738 47.266009 
L 125.364058 47.969533 
L 124.728377 47.691734 
L 124.092697 47.613774 
L 123.457017 47.932478 
L 122.821337 47.599922 
L 122.185657 47.237628 
L 121.549977 46.95928 
L 120.914297 47.847569 
L 120.278617 47.451767 
L 119.642937 46.802926 
L 119.007256 46.681338 
L 118.371576 46.682386 
L 117.735896 46.238082 
L 117.100216 45.460966 
L 116.464536 45.10306 
L 115.828856 44.308302 
L 115.193176 43.824077 
L 114.557496 43.03986 
L 113.921816 42.821879 
L 113.286136 42.396278 
L 112.650455 41.709721 
L 112.014775 40.95187 
L 111.379095 41.259093 
L 110.743415 41.407368 
L 110.107735 41.281345 
L 109.472055 40.576924 
L 108.836375 40.280717 
L 108.200695 39.784005 
L 107.565015 39.453242 
L 106.929334 39.068791 
L 106.293654 38.723584 
L 105.657974 37.170449 
L 105.022294 36.77563 
L 104.386614 35.672325 
L 103.750934 35.96848 
L 103.115254 36.507061 
L 102.479574 36.474897 
L 101.843894 36.411056 
L 101.208213 35.789805 
L 100.572533 35.066205 
L 99.936853 34.524834 
L 99.301173 33.907016 
L 98.665493 33.667935 
L 98.029813 32.837276 
L 97.394133 32.385571 
L 96.758453 32.007025 
L 96.122773 31.438642 
L 95.487092 31.188412 
L 94.851412 30.853913 
L 94.215732 30.097439 
L 93.580052 29.443613 
L 92.944372 28.780622 
L 92.308692 28.39786 
L 91.673012 27.587264 
L 91.037332 27.147592 
L 90.401652 26.387616 
L 89.765971 25.862809 
L 89.130291 25.420842 
L 88.494611 24.743365 
L 87.858931 24.594326 
L 87.223251 24.214029 
L 86.587571 23.559454 
L 85.951891 23.002474 
L 85.316211 22.344265 
L 84.680531 21.784048 
L 84.04485 21.408826 
L 83.40917 20.667468 
L 82.77349 20.108117 
L 82.13781 19.848299 
L 81.50213 19.542821 
L 80.86645 19.304558 
L 80.23077 18.688189 
L 79.59509 18.218296 
L 78.95941 17.780384 
L 78.323729 17.263746 
L 77.688049 16.815413 
L 77.052369 16.353208 
L 76.416689 15.885334 
L 75.781009 15.448757 
L 75.145329 15.047918 
L 74.509649 14.700482 
L 73.873969 14.400475 
L 73.238289 14.156109 
L 72.602609 13.967517 
L 71.966928 13.811535 
L 71.331248 13.602186 
L 70.695568 13.5 
z
" clip-path="url(#pcf4b3b5d9a)" style="fill: #55c667; fill-opacity: 0.2; stroke: #55c667; stroke-opacity: 0.2"/>
   </g>
   <g id="PolyCollection_2">
    <path d="M 70.695568 13.552034 
L 70.695568 13.582313 
L 71.331248 13.727871 
L 71.966928 14.05349 
L 72.602609 14.48895 
L 73.238289 14.907798 
L 73.873969 15.327545 
L 74.509649 15.773326 
L 75.145329 16.205733 
L 75.781009 16.686084 
L 76.416689 17.000426 
L 77.052369 17.384775 
L 77.688049 17.689345 
L 78.323729 18.289352 
L 78.95941 18.792729 
L 79.59509 19.363805 
L 80.23077 19.942494 
L 80.86645 20.506982 
L 81.50213 21.394536 
L 82.13781 21.598805 
L 82.77349 21.99444 
L 83.40917 22.948846 
L 84.04485 23.608072 
L 84.680531 24.282197 
L 85.316211 24.989484 
L 85.951891 25.436133 
L 86.587571 26.106015 
L 87.223251 26.926543 
L 87.858931 27.518654 
L 88.494611 28.238024 
L 89.130291 29.121825 
L 89.765971 29.618527 
L 90.401652 29.987094 
L 91.037332 30.862972 
L 91.673012 31.528577 
L 92.308692 32.427763 
L 92.944372 32.727885 
L 93.580052 34.043983 
L 94.215732 34.643443 
L 94.851412 35.212793 
L 95.487092 36.203317 
L 96.122773 36.715776 
L 96.758453 37.768925 
L 97.394133 38.31079 
L 98.029813 39.193797 
L 98.665493 40.173159 
L 99.301173 41.127127 
L 99.936853 41.785817 
L 100.572533 42.468682 
L 101.208213 43.450006 
L 101.843894 44.343977 
L 102.479574 44.9965 
L 103.115254 45.698266 
L 103.750934 46.695907 
L 104.386614 47.734175 
L 105.022294 48.797061 
L 105.657974 49.492891 
L 106.293654 50.053036 
L 106.929334 50.812442 
L 107.565015 51.349856 
L 108.200695 52.399828 
L 108.836375 52.952472 
L 109.472055 53.690335 
L 110.107735 54.211898 
L 110.743415 54.945248 
L 111.379095 55.671516 
L 112.014775 56.589083 
L 112.650455 57.128807 
L 113.286136 57.900068 
L 113.921816 58.722969 
L 114.557496 59.059241 
L 115.193176 59.193133 
L 115.828856 60.137795 
L 116.464536 60.668169 
L 117.100216 61.142786 
L 117.735896 60.767333 
L 118.371576 61.151004 
L 119.007256 62.187121 
L 119.642937 62.612337 
L 120.278617 63.171042 
L 120.914297 63.975666 
L 121.549977 64.334412 
L 122.185657 64.771576 
L 122.821337 65.513717 
L 123.457017 66.048425 
L 124.092697 67.457751 
L 124.728377 69.107242 
L 125.364058 68.915208 
L 125.999738 69.01059 
L 126.635418 69.031358 
L 127.271098 70.290303 
L 127.906778 69.710167 
L 128.542458 70.770457 
L 129.178138 71.089203 
L 129.813818 71.52552 
L 130.449498 72.007996 
L 131.085179 72.154194 
L 131.720859 72.58688 
L 132.356539 73.151311 
L 132.992219 73.45686 
L 133.627899 73.710174 
L 134.263579 74.12248 
L 134.899259 74.228633 
L 135.534939 74.620313 
L 136.170619 74.986827 
L 136.8063 75.234494 
L 137.44198 76.707667 
L 138.07766 77.257243 
L 138.71334 76.257799 
L 139.34902 78.516524 
L 139.9847 77.227206 
L 140.62038 78.844547 
L 141.25606 77.886231 
L 141.89174 78.767084 
L 142.527421 78.157081 
L 143.163101 78.611731 
L 143.798781 79.184699 
L 144.434461 79.095006 
L 145.070141 80.871754 
L 145.705821 79.129728 
L 146.341501 80.906574 
L 146.977181 79.741586 
L 147.612861 79.647678 
L 148.248542 80.116979 
L 148.884222 80.534098 
L 149.519902 80.142158 
L 150.155582 80.160102 
L 150.791262 80.550252 
L 151.426942 80.663856 
L 152.062622 80.870573 
L 152.698302 80.930446 
L 153.333982 81.00242 
L 153.969663 81.184995 
L 154.605343 81.141814 
L 155.241023 81.313352 
L 155.876703 81.581941 
L 156.512383 81.768412 
L 157.148063 81.797055 
L 157.783743 82.081364 
L 158.419423 82.161799 
L 159.055103 82.401791 
L 159.690783 82.464053 
L 160.326464 82.924608 
L 160.962144 82.683988 
L 161.597824 83.359741 
L 162.233504 84.894171 
L 162.869184 85.02803 
L 163.504864 84.275066 
L 164.140544 83.819039 
L 164.776224 84.197184 
L 165.411904 86.979736 
L 166.047585 87.714851 
L 166.683265 87.998087 
L 167.318945 86.757368 
L 167.954625 88.901483 
L 168.590305 36389.710467 
L 169.225985 36389.710467 
L 169.861665 36389.710467 
L 170.497345 36389.710467 
L 171.133025 139.5 
L 171.768706 36389.710467 
L 172.404386 36389.710467 
L 173.040066 118.194882 
L 173.675746 108.306109 
L 174.311426 99.056369 
L 174.947106 96.869294 
L 175.582786 96.536299 
L 176.218466 92.877677 
L 176.854146 91.393986 
L 177.489827 90.712564 
L 178.125507 90.987517 
L 178.761187 89.187629 
L 179.396867 88.703698 
L 180.032547 88.999677 
L 180.668227 88.277758 
L 181.303907 87.760651 
L 181.939587 87.313525 
L 182.575267 87.358071 
L 183.210948 87.654477 
L 183.846628 87.493558 
L 184.482308 87.086777 
L 185.117988 86.982813 
L 185.753668 86.861651 
L 186.389348 86.754958 
L 187.025028 86.807728 
L 187.660708 86.898674 
L 188.296388 86.928154 
L 188.932069 87.033989 
L 189.567749 87.083314 
L 190.203429 87.208248 
L 190.839109 87.156993 
L 191.474789 87.31112 
L 192.110469 87.197329 
L 192.746149 87.273905 
L 193.381829 87.371046 
L 194.017509 87.357266 
L 194.65319 87.545728 
L 195.28887 87.573033 
L 195.92455 87.710081 
L 196.56023 87.681146 
L 197.19591 87.822452 
L 197.83159 87.703471 
L 198.46727 87.605902 
L 199.10295 87.836543 
L 199.73863 87.976876 
L 200.37431 88.003204 
L 201.009991 88.077103 
L 201.645671 88.164857 
L 202.281351 88.118501 
L 202.917031 88.708617 
L 203.552711 88.608256 
L 204.188391 88.384513 
L 204.824071 88.524399 
L 205.459751 89.673756 
L 206.095431 89.883446 
L 206.731112 91.623332 
L 207.366792 92.367778 
L 208.002472 92.69005 
L 208.638152 90.84313 
L 209.273832 91.493223 
L 209.909512 91.953467 
L 210.545192 90.589052 
L 211.180872 90.996725 
L 211.816552 93.538368 
L 212.452233 109.040425 
L 213.087913 36389.710467 
L 213.723593 36389.710467 
L 214.359273 36389.710467 
L 214.994953 36389.710467 
L 215.630633 36389.710467 
L 216.266313 36389.710467 
L 216.901993 36389.710467 
L 217.537673 36389.710467 
L 218.173354 36389.710467 
L 218.809034 36389.710467 
L 219.444714 36389.710467 
L 220.080394 36389.710467 
L 220.716074 36389.710467 
L 221.351754 36389.710467 
L 221.987434 36389.710467 
L 222.623114 36389.710467 
L 223.258794 36389.710467 
L 223.894475 36389.710467 
L 224.530155 36389.710467 
L 225.165835 36389.710467 
L 225.801515 125.143433 
L 226.437195 115.681606 
L 227.072875 109.519758 
L 227.708555 104.414745 
L 228.344235 102.792964 
L 228.979915 101.620294 
L 229.615596 99.786459 
L 230.251276 99.513318 
L 230.886956 97.872367 
L 231.522636 96.536385 
L 232.158316 95.795905 
L 232.793996 95.29474 
L 233.429676 95.026561 
L 234.065356 94.767074 
L 234.701036 94.475081 
L 235.336717 94.038986 
L 235.972397 93.844549 
L 236.608077 93.368887 
L 237.243757 92.74899 
L 237.879437 92.954743 
L 238.515117 92.36744 
L 239.150797 91.776725 
L 239.786477 91.610669 
L 240.422157 91.874711 
L 241.057837 91.834157 
L 241.693518 91.706549 
L 242.329198 91.797215 
L 242.964878 91.857337 
L 243.600558 91.903145 
L 244.236238 91.705841 
L 244.871918 91.530674 
L 245.507598 91.590583 
L 246.143278 91.415612 
L 246.778958 91.535199 
L 247.414639 91.47305 
L 248.050319 91.584837 
L 248.685999 91.658168 
L 249.321679 91.678832 
L 249.957359 91.860012 
L 250.593039 91.648102 
L 251.228719 106.665467 
L 251.864399 36389.710467 
L 252.500079 36389.710467 
L 253.13576 36389.710467 
L 253.77144 36389.710467 
L 254.40712 36389.710467 
L 255.0428 36389.710467 
L 255.67848 36389.710467 
L 256.31416 36389.710467 
L 256.94984 36389.710467 
L 257.58552 36389.710467 
L 258.2212 36389.710467 
L 258.856881 36389.710467 
L 259.492561 36389.710467 
L 260.128241 36389.710467 
L 260.763921 36389.710467 
L 261.399601 36389.710467 
L 262.035281 36389.710467 
L 262.670961 36389.710467 
L 263.306641 36389.710467 
L 263.942321 136.182141 
L 264.578002 127.985332 
L 265.213682 123.115814 
L 265.849362 109.493034 
L 266.485042 109.198668 
L 267.120722 106.29163 
L 267.756402 102.921064 
L 268.392082 103.185191 
L 269.027762 101.251622 
L 269.663442 99.450639 
L 270.299123 99.465677 
L 270.934803 98.530587 
L 271.570483 97.331218 
L 272.206163 97.514636 
L 272.841843 96.925754 
L 273.477523 96.103668 
L 274.113203 95.73207 
L 274.748883 95.514634 
L 275.384563 94.994001 
L 276.020244 94.809772 
L 276.655924 94.683187 
L 277.291604 94.478187 
L 277.927284 94.273362 
L 278.562964 94.177392 
L 279.198644 94.232687 
L 279.834324 94.124456 
L 280.470004 94.016634 
L 281.105684 93.972275 
L 281.741364 94.035358 
L 282.377045 93.946885 
L 283.012725 93.958028 
L 283.648405 93.899591 
L 284.284085 93.947344 
L 284.919765 93.903437 
L 285.555445 93.813328 
L 286.191125 93.844187 
L 286.826805 93.812805 
L 287.462485 93.691087 
L 288.098166 93.749281 
L 288.733846 93.578172 
L 289.369526 93.697633 
L 290.005206 93.568432 
L 290.640886 93.616134 
L 291.276566 93.5699 
L 291.912246 93.610142 
L 292.547926 93.68369 
L 293.183606 93.725212 
L 293.819287 93.717186 
L 294.454967 93.732866 
L 295.090647 93.734304 
L 295.726327 93.632977 
L 296.362007 92.608441 
L 296.997687 92.678378 
L 297.633367 93.251352 
L 298.269047 92.685782 
L 298.904727 92.626339 
L 299.540408 92.50532 
L 300.176088 92.570105 
L 300.811768 92.519699 
L 301.447448 92.546662 
L 302.083128 92.654632 
L 302.718808 92.678499 
L 303.354488 92.685468 
L 303.990168 92.735344 
L 304.625848 92.789445 
L 305.261529 92.82771 
L 305.897209 92.851395 
L 306.532889 92.932732 
L 307.168569 92.996509 
L 307.804249 93.066354 
L 308.439929 93.182458 
L 309.075609 93.298054 
L 309.711289 93.392513 
L 310.346969 93.411559 
L 310.98265 93.47472 
L 311.61833 93.461944 
L 312.25401 93.495936 
L 312.88969 93.634148 
L 313.52537 93.598681 
L 314.16105 93.665684 
L 314.79673 93.746402 
L 315.43241 93.802443 
L 316.06809 93.716099 
L 316.703771 93.846094 
L 317.339451 93.844608 
L 317.975131 93.712334 
L 318.610811 93.689348 
L 319.246491 93.807985 
L 319.882171 93.834425 
L 320.517851 93.826698 
L 321.153531 93.884043 
L 321.789211 93.94331 
L 322.424891 93.958163 
L 323.060572 93.990259 
L 323.696252 94.038701 
L 324.331932 94.065189 
L 324.331932 88.310901 
L 324.331932 88.310901 
L 323.696252 88.25438 
L 323.060572 88.112865 
L 322.424891 87.92016 
L 321.789211 87.994223 
L 321.153531 87.997303 
L 320.517851 87.94734 
L 319.882171 87.623632 
L 319.246491 87.496802 
L 318.610811 87.951053 
L 317.975131 87.483206 
L 317.339451 88.148938 
L 316.703771 88.142496 
L 316.06809 88.094141 
L 315.43241 88.090083 
L 314.79673 88.016786 
L 314.16105 87.9953 
L 313.52537 87.918485 
L 312.88969 87.889759 
L 312.25401 87.832391 
L 311.61833 87.798874 
L 310.98265 87.738198 
L 310.346969 87.613269 
L 309.711289 87.54187 
L 309.075609 87.525518 
L 308.439929 87.462801 
L 307.804249 87.367209 
L 307.168569 87.241619 
L 306.532889 87.12969 
L 305.897209 86.959413 
L 305.261529 86.950919 
L 304.625848 86.859711 
L 303.990168 86.813871 
L 303.354488 86.718548 
L 302.718808 86.662493 
L 302.083128 86.568368 
L 301.447448 86.451163 
L 300.811768 86.225192 
L 300.176088 85.817527 
L 299.540408 85.807224 
L 298.904727 85.353881 
L 298.269047 84.931109 
L 297.633367 86.465247 
L 296.997687 86.336467 
L 296.362007 86.308475 
L 295.726327 85.829359 
L 295.090647 86.601671 
L 294.454967 86.53946 
L 293.819287 86.405923 
L 293.183606 86.445605 
L 292.547926 86.356767 
L 291.912246 86.317562 
L 291.276566 85.968562 
L 290.640886 86.038096 
L 290.005206 86.207013 
L 289.369526 86.081947 
L 288.733846 85.981748 
L 288.098166 85.950411 
L 287.462485 85.907517 
L 286.826805 85.807887 
L 286.191125 85.727419 
L 285.555445 85.620959 
L 284.919765 85.500873 
L 284.284085 85.390761 
L 283.648405 85.285212 
L 283.012725 85.180198 
L 282.377045 85.018417 
L 281.741364 84.883831 
L 281.105684 84.811096 
L 280.470004 84.702988 
L 279.834324 84.447005 
L 279.198644 84.253053 
L 278.562964 84.120862 
L 277.927284 83.97927 
L 277.291604 83.634614 
L 276.655924 83.235762 
L 276.020244 83.107991 
L 275.384563 82.796357 
L 274.748883 82.185097 
L 274.113203 81.923198 
L 273.477523 81.514209 
L 272.841843 80.710334 
L 272.206163 80.22325 
L 271.570483 80.135646 
L 270.934803 79.455141 
L 270.299123 78.89461 
L 269.663442 78.784382 
L 269.027762 77.758175 
L 268.392082 76.877992 
L 267.756402 76.83207 
L 267.120722 75.628096 
L 266.485042 74.809153 
L 265.849362 74.534741 
L 265.213682 72.741692 
L 264.578002 72.174462 
L 263.942321 71.87237 
L 263.306641 70.28509 
L 262.670961 70.323733 
L 262.035281 69.498171 
L 261.399601 67.232737 
L 260.763921 67.840143 
L 260.128241 65.791975 
L 259.492561 63.392442 
L 258.856881 61.731042 
L 258.2212 61.252456 
L 257.58552 60.697647 
L 256.94984 58.816039 
L 256.31416 55.875481 
L 255.67848 57.021147 
L 255.0428 48.288029 
L 254.40712 48.41202 
L 253.77144 43.544629 
L 253.13576 44.031849 
L 252.500079 58.957622 
L 251.864399 51.080307 
L 251.228719 73.739383 
L 250.593039 83.983224 
L 249.957359 83.953386 
L 249.321679 83.818269 
L 248.685999 83.661141 
L 248.050319 83.434952 
L 247.414639 83.299103 
L 246.778958 83.132847 
L 246.143278 82.914364 
L 245.507598 82.762345 
L 244.871918 82.556726 
L 244.236238 82.285148 
L 243.600558 82.064496 
L 242.964878 81.95149 
L 242.329198 81.75346 
L 241.693518 81.451498 
L 241.057837 81.243457 
L 240.422157 81.006362 
L 239.786477 80.864856 
L 239.150797 80.555999 
L 238.515117 80.299329 
L 237.879437 79.936948 
L 237.243757 79.725439 
L 236.608077 79.297523 
L 235.972397 78.796851 
L 235.336717 78.349118 
L 234.701036 77.919689 
L 234.065356 77.507364 
L 233.429676 77.054106 
L 232.793996 76.484974 
L 232.158316 76.011158 
L 231.522636 75.318239 
L 230.886956 74.35872 
L 230.251276 73.445525 
L 229.615596 73.024038 
L 228.979915 72.033837 
L 228.344235 71.504533 
L 227.708555 70.749396 
L 227.072875 69.353649 
L 226.437195 68.209205 
L 225.801515 67.428662 
L 225.165835 65.788211 
L 224.530155 64.79966 
L 223.894475 63.870234 
L 223.258794 61.526396 
L 222.623114 59.700653 
L 221.987434 60.428656 
L 221.351754 57.881117 
L 220.716074 54.689755 
L 220.080394 51.233064 
L 219.444714 52.329316 
L 218.809034 49.87749 
L 218.173354 47.193962 
L 217.537673 49.947886 
L 216.901993 49.058044 
L 216.266313 45.606666 
L 215.630633 42.082812 
L 214.994953 40.980831 
L 214.359273 50.580876 
L 213.723593 61.094917 
L 213.087913 61.324366 
L 212.452233 72.189625 
L 211.816552 78.451711 
L 211.180872 80.702106 
L 210.545192 80.936552 
L 209.909512 79.303264 
L 209.273832 79.543089 
L 208.638152 79.723788 
L 208.002472 77.844034 
L 207.366792 78.051441 
L 206.731112 78.31286 
L 206.095431 79.703542 
L 205.459751 80.635054 
L 204.824071 83.161209 
L 204.188391 83.223119 
L 203.552711 82.529952 
L 202.917031 82.108513 
L 202.281351 83.721554 
L 201.645671 83.652815 
L 201.009991 83.527974 
L 200.37431 83.424858 
L 199.73863 83.320828 
L 199.10295 83.213165 
L 198.46727 82.960313 
L 197.83159 82.910068 
L 197.19591 82.765547 
L 196.56023 82.621585 
L 195.92455 82.490381 
L 195.28887 82.313794 
L 194.65319 82.118526 
L 194.017509 81.931408 
L 193.381829 81.793158 
L 192.746149 81.597904 
L 192.110469 81.390163 
L 191.474789 81.205642 
L 190.839109 80.917032 
L 190.203429 80.70939 
L 189.567749 80.408532 
L 188.932069 80.23018 
L 188.296388 79.944049 
L 187.660708 79.681212 
L 187.025028 79.295801 
L 186.389348 79.009196 
L 185.753668 78.810766 
L 185.117988 78.416343 
L 184.482308 77.944273 
L 183.846628 77.407416 
L 183.210948 77.086219 
L 182.575267 76.600185 
L 181.939587 75.871068 
L 181.303907 75.512376 
L 180.668227 74.880323 
L 180.032547 74.466128 
L 179.396867 73.891511 
L 178.761187 72.862525 
L 178.125507 72.147437 
L 177.489827 71.634407 
L 176.854146 71.447121 
L 176.218466 70.201416 
L 175.582786 69.007959 
L 174.947106 68.513829 
L 174.311426 67.654863 
L 173.675746 65.650485 
L 173.040066 64.664617 
L 172.404386 61.224512 
L 171.768706 61.496156 
L 171.133025 62.781064 
L 170.497345 60.916869 
L 169.861665 54.252879 
L 169.225985 56.941428 
L 168.590305 51.017491 
L 167.954625 68.970858 
L 167.318945 73.196561 
L 166.683265 72.854185 
L 166.047585 71.879104 
L 165.411904 72.732269 
L 164.776224 75.350898 
L 164.140544 75.610248 
L 163.504864 74.663508 
L 162.869184 73.365978 
L 162.233504 75.558623 
L 161.597824 78.00939 
L 160.962144 78.849768 
L 160.326464 77.880867 
L 159.690783 78.876539 
L 159.055103 78.723319 
L 158.419423 78.481468 
L 157.783743 78.444337 
L 157.148063 78.195537 
L 156.512383 78.054365 
L 155.876703 77.789552 
L 155.241023 77.529813 
L 154.605343 77.332885 
L 153.969663 76.976318 
L 153.333982 76.7 
L 152.698302 76.570327 
L 152.062622 76.208496 
L 151.426942 75.712761 
L 150.791262 75.277704 
L 150.155582 75.135602 
L 149.519902 74.980374 
L 148.884222 74.118184 
L 148.248542 73.964423 
L 147.612861 73.758966 
L 146.977181 73.640774 
L 146.341501 71.532391 
L 145.705821 73.626595 
L 145.070141 70.636819 
L 144.434461 72.127934 
L 143.798781 71.420532 
L 143.163101 72.333988 
L 142.527421 73.123943 
L 141.89174 71.498199 
L 141.25606 72.20853 
L 140.62038 69.85766 
L 139.9847 71.671154 
L 139.34902 68.953022 
L 138.71334 71.526663 
L 138.07766 69.661555 
L 137.44198 69.729399 
L 136.8063 71.65035 
L 136.170619 70.432891 
L 135.534939 71.185197 
L 134.899259 70.712545 
L 134.263579 70.362203 
L 133.627899 70.108879 
L 132.992219 69.248909 
L 132.356539 68.605041 
L 131.720859 68.476091 
L 131.085179 68.0844 
L 130.449498 67.026475 
L 129.813818 66.980058 
L 129.178138 65.976196 
L 128.542458 65.681569 
L 127.906778 65.772647 
L 127.271098 63.768217 
L 126.635418 64.84134 
L 125.999738 62.991106 
L 125.364058 61.989999 
L 124.728377 60.5989 
L 124.092697 62.770339 
L 123.457017 64.098646 
L 122.821337 63.560718 
L 122.185657 63.159863 
L 121.549977 62.706568 
L 120.914297 61.419942 
L 120.278617 60.960782 
L 119.642937 61.040984 
L 119.007256 59.837726 
L 118.371576 59.386562 
L 117.735896 58.471149 
L 117.100216 58.718073 
L 116.464536 57.125847 
L 115.828856 57.206826 
L 115.193176 55.818461 
L 114.557496 55.978206 
L 113.921816 55.312593 
L 113.286136 54.381238 
L 112.650455 53.660228 
L 112.014775 52.961157 
L 111.379095 51.906084 
L 110.743415 51.602803 
L 110.107735 50.293301 
L 109.472055 49.900757 
L 108.836375 48.721973 
L 108.200695 47.987208 
L 107.565015 47.756792 
L 106.929334 46.356582 
L 106.293654 46.09112 
L 105.657974 45.397146 
L 105.022294 44.318384 
L 104.386614 43.845674 
L 103.750934 43.916399 
L 103.115254 43.091919 
L 102.479574 42.216449 
L 101.843894 41.526339 
L 101.208213 40.46392 
L 100.572533 39.519323 
L 99.936853 39.203527 
L 99.301173 37.964046 
L 98.665493 37.376672 
L 98.029813 36.442889 
L 97.394133 35.625576 
L 96.758453 34.603022 
L 96.122773 34.134823 
L 95.487092 32.745485 
L 94.851412 32.434364 
L 94.215732 31.602552 
L 93.580052 30.791533 
L 92.944372 30.264363 
L 92.308692 29.22541 
L 91.673012 28.409194 
L 91.037332 27.538626 
L 90.401652 27.159877 
L 89.765971 26.520547 
L 89.130291 25.866107 
L 88.494611 25.476914 
L 87.858931 24.630452 
L 87.223251 23.670385 
L 86.587571 23.311339 
L 85.951891 22.185294 
L 85.316211 22.520167 
L 84.680531 22.134499 
L 84.04485 21.377167 
L 83.40917 20.734406 
L 82.77349 20.488765 
L 82.13781 19.562917 
L 81.50213 18.987221 
L 80.86645 18.801789 
L 80.23077 18.443894 
L 79.59509 17.979274 
L 78.95941 17.593358 
L 78.323729 17.123571 
L 77.688049 16.749107 
L 77.052369 16.509908 
L 76.416689 15.540226 
L 75.781009 15.975222 
L 75.145329 15.834688 
L 74.509649 15.370596 
L 73.873969 15.009173 
L 73.238289 14.630956 
L 72.602609 14.261971 
L 71.966928 13.914724 
L 71.331248 13.632513 
L 70.695568 13.552034 
z
" clip-path="url(#pcf4b3b5d9a)" style="fill: #404788; fill-opacity: 0.2; stroke: #404788; stroke-opacity: 0.2"/>
   </g>
   <g id="matplotlib.axis_1">
    <g id="xtick_1">
     <g id="line2d_1">
      <defs>
       <path id="m8da7836b66" d="M 0 0 
L 0 3.5 
" style="stroke: #000000; stroke-width: 0.8"/>
      </defs>
      <g>
       <use xlink:href="#m8da7836b66" x="70.695568" y="145.8" style="stroke: #000000; stroke-width: 0.8"/>
      </g>
     </g>
     <g id="text_1">
      <!-- 0 -->
      <g transform="translate(66.878068 161.918125) scale(0.12 -0.12)">
       <defs>
        <path id="DejaVuSans-30" d="M 2034 4250 
Q 1547 4250 1301 3770 
Q 1056 3291 1056 2328 
Q 1056 1369 1301 889 
Q 1547 409 2034 409 
Q 2525 409 2770 889 
Q 3016 1369 3016 2328 
Q 3016 3291 2770 3770 
Q 2525 4250 2034 4250 
z
M 2034 4750 
Q 2819 4750 3233 4129 
Q 3647 3509 3647 2328 
Q 3647 1150 3233 529 
Q 2819 -91 2034 -91 
Q 1250 -91 836 529 
Q 422 1150 422 2328 
Q 422 3509 836 4129 
Q 1250 4750 2034 4750 
z
" transform="scale(0.015625)"/>
       </defs>
       <use xlink:href="#DejaVuSans-30"/>
      </g>
     </g>
    </g>
    <g id="xtick_2">
     <g id="line2d_2">
      <g>
       <use xlink:href="#m8da7836b66" x="134.263579" y="145.8" style="stroke: #000000; stroke-width: 0.8"/>
      </g>
     </g>
     <g id="text_2">
      <!-- 100 -->
      <g transform="translate(122.811079 161.918125) scale(0.12 -0.12)">
       <defs>
        <path id="DejaVuSans-31" d="M 794 531 
L 1825 531 
L 1825 4091 
L 703 3866 
L 703 4441 
L 1819 4666 
L 2450 4666 
L 2450 531 
L 3481 531 
L 3481 0 
L 794 0 
L 794 531 
z
" transform="scale(0.015625)"/>
       </defs>
       <use xlink:href="#DejaVuSans-31"/>
       <use xlink:href="#DejaVuSans-30" x="63.623047"/>
       <use xlink:href="#DejaVuSans-30" x="127.246094"/>
      </g>
     </g>
    </g>
    <g id="xtick_3">
     <g id="line2d_3">
      <g>
       <use xlink:href="#m8da7836b66" x="197.83159" y="145.8" style="stroke: #000000; stroke-width: 0.8"/>
      </g>
     </g>
     <g id="text_3">
      <!-- 200 -->
      <g transform="translate(186.37909 161.918125) scale(0.12 -0.12)">
       <defs>
        <path id="DejaVuSans-32" d="M 1228 531 
L 3431 531 
L 3431 0 
L 469 0 
L 469 531 
Q 828 903 1448 1529 
Q 2069 2156 2228 2338 
Q 2531 2678 2651 2914 
Q 2772 3150 2772 3378 
Q 2772 3750 2511 3984 
Q 2250 4219 1831 4219 
Q 1534 4219 1204 4116 
Q 875 4013 500 3803 
L 500 4441 
Q 881 4594 1212 4672 
Q 1544 4750 1819 4750 
Q 2544 4750 2975 4387 
Q 3406 4025 3406 3419 
Q 3406 3131 3298 2873 
Q 3191 2616 2906 2266 
Q 2828 2175 2409 1742 
Q 1991 1309 1228 531 
z
" transform="scale(0.015625)"/>
       </defs>
       <use xlink:href="#DejaVuSans-32"/>
       <use xlink:href="#DejaVuSans-30" x="63.623047"/>
       <use xlink:href="#DejaVuSans-30" x="127.246094"/>
      </g>
     </g>
    </g>
    <g id="xtick_4">
     <g id="line2d_4">
      <g>
       <use xlink:href="#m8da7836b66" x="261.399601" y="145.8" style="stroke: #000000; stroke-width: 0.8"/>
      </g>
     </g>
     <g id="text_4">
      <!-- 300 -->
      <g transform="translate(249.947101 161.918125) scale(0.12 -0.12)">
       <defs>
        <path id="DejaVuSans-33" d="M 2597 2516 
Q 3050 2419 3304 2112 
Q 3559 1806 3559 1356 
Q 3559 666 3084 287 
Q 2609 -91 1734 -91 
Q 1441 -91 1130 -33 
Q 819 25 488 141 
L 488 750 
Q 750 597 1062 519 
Q 1375 441 1716 441 
Q 2309 441 2620 675 
Q 2931 909 2931 1356 
Q 2931 1769 2642 2001 
Q 2353 2234 1838 2234 
L 1294 2234 
L 1294 2753 
L 1863 2753 
Q 2328 2753 2575 2939 
Q 2822 3125 2822 3475 
Q 2822 3834 2567 4026 
Q 2313 4219 1838 4219 
Q 1578 4219 1281 4162 
Q 984 4106 628 3988 
L 628 4550 
Q 988 4650 1302 4700 
Q 1616 4750 1894 4750 
Q 2613 4750 3031 4423 
Q 3450 4097 3450 3541 
Q 3450 3153 3228 2886 
Q 3006 2619 2597 2516 
z
" transform="scale(0.015625)"/>
       </defs>
       <use xlink:href="#DejaVuSans-33"/>
       <use xlink:href="#DejaVuSans-30" x="63.623047"/>
       <use xlink:href="#DejaVuSans-30" x="127.246094"/>
      </g>
     </g>
    </g>
    <g id="xtick_5">
     <g id="line2d_5">
      <g>
       <use xlink:href="#m8da7836b66" x="324.967612" y="145.8" style="stroke: #000000; stroke-width: 0.8"/>
      </g>
     </g>
     <g id="text_5">
      <!-- 400 -->
      <g transform="translate(313.515112 161.918125) scale(0.12 -0.12)">
       <defs>
        <path id="DejaVuSans-34" d="M 2419 4116 
L 825 1625 
L 2419 1625 
L 2419 4116 
z
M 2253 4666 
L 3047 4666 
L 3047 1625 
L 3713 1625 
L 3713 1100 
L 3047 1100 
L 3047 0 
L 2419 0 
L 2419 1100 
L 313 1100 
L 313 1709 
L 2253 4666 
z
" transform="scale(0.015625)"/>
       </defs>
       <use xlink:href="#DejaVuSans-34"/>
       <use xlink:href="#DejaVuSans-30" x="63.623047"/>
       <use xlink:href="#DejaVuSans-30" x="127.246094"/>
      </g>
     </g>
    </g>
    <g id="text_6">
     <!-- Number of steps -->
     <g transform="translate(147.709063 177.531875) scale(0.12 -0.12)">
      <defs>
       <path id="DejaVuSans-4e" d="M 628 4666 
L 1478 4666 
L 3547 763 
L 3547 4666 
L 4159 4666 
L 4159 0 
L 3309 0 
L 1241 3903 
L 1241 0 
L 628 0 
L 628 4666 
z
" transform="scale(0.015625)"/>
       <path id="DejaVuSans-75" d="M 544 1381 
L 544 3500 
L 1119 3500 
L 1119 1403 
Q 1119 906 1312 657 
Q 1506 409 1894 409 
Q 2359 409 2629 706 
Q 2900 1003 2900 1516 
L 2900 3500 
L 3475 3500 
L 3475 0 
L 2900 0 
L 2900 538 
Q 2691 219 2414 64 
Q 2138 -91 1772 -91 
Q 1169 -91 856 284 
Q 544 659 544 1381 
z
M 1991 3584 
L 1991 3584 
z
" transform="scale(0.015625)"/>
       <path id="DejaVuSans-6d" d="M 3328 2828 
Q 3544 3216 3844 3400 
Q 4144 3584 4550 3584 
Q 5097 3584 5394 3201 
Q 5691 2819 5691 2113 
L 5691 0 
L 5113 0 
L 5113 2094 
Q 5113 2597 4934 2840 
Q 4756 3084 4391 3084 
Q 3944 3084 3684 2787 
Q 3425 2491 3425 1978 
L 3425 0 
L 2847 0 
L 2847 2094 
Q 2847 2600 2669 2842 
Q 2491 3084 2119 3084 
Q 1678 3084 1418 2786 
Q 1159 2488 1159 1978 
L 1159 0 
L 581 0 
L 581 3500 
L 1159 3500 
L 1159 2956 
Q 1356 3278 1631 3431 
Q 1906 3584 2284 3584 
Q 2666 3584 2933 3390 
Q 3200 3197 3328 2828 
z
" transform="scale(0.015625)"/>
       <path id="DejaVuSans-62" d="M 3116 1747 
Q 3116 2381 2855 2742 
Q 2594 3103 2138 3103 
Q 1681 3103 1420 2742 
Q 1159 2381 1159 1747 
Q 1159 1113 1420 752 
Q 1681 391 2138 391 
Q 2594 391 2855 752 
Q 3116 1113 3116 1747 
z
M 1159 2969 
Q 1341 3281 1617 3432 
Q 1894 3584 2278 3584 
Q 2916 3584 3314 3078 
Q 3713 2572 3713 1747 
Q 3713 922 3314 415 
Q 2916 -91 2278 -91 
Q 1894 -91 1617 61 
Q 1341 213 1159 525 
L 1159 0 
L 581 0 
L 581 4863 
L 1159 4863 
L 1159 2969 
z
" transform="scale(0.015625)"/>
       <path id="DejaVuSans-65" d="M 3597 1894 
L 3597 1613 
L 953 1613 
Q 991 1019 1311 708 
Q 1631 397 2203 397 
Q 2534 397 2845 478 
Q 3156 559 3463 722 
L 3463 178 
Q 3153 47 2828 -22 
Q 2503 -91 2169 -91 
Q 1331 -91 842 396 
Q 353 884 353 1716 
Q 353 2575 817 3079 
Q 1281 3584 2069 3584 
Q 2775 3584 3186 3129 
Q 3597 2675 3597 1894 
z
M 3022 2063 
Q 3016 2534 2758 2815 
Q 2500 3097 2075 3097 
Q 1594 3097 1305 2825 
Q 1016 2553 972 2059 
L 3022 2063 
z
" transform="scale(0.015625)"/>
       <path id="DejaVuSans-72" d="M 2631 2963 
Q 2534 3019 2420 3045 
Q 2306 3072 2169 3072 
Q 1681 3072 1420 2755 
Q 1159 2438 1159 1844 
L 1159 0 
L 581 0 
L 581 3500 
L 1159 3500 
L 1159 2956 
Q 1341 3275 1631 3429 
Q 1922 3584 2338 3584 
Q 2397 3584 2469 3576 
Q 2541 3569 2628 3553 
L 2631 2963 
z
" transform="scale(0.015625)"/>
       <path id="DejaVuSans-20" transform="scale(0.015625)"/>
       <path id="DejaVuSans-6f" d="M 1959 3097 
Q 1497 3097 1228 2736 
Q 959 2375 959 1747 
Q 959 1119 1226 758 
Q 1494 397 1959 397 
Q 2419 397 2687 759 
Q 2956 1122 2956 1747 
Q 2956 2369 2687 2733 
Q 2419 3097 1959 3097 
z
M 1959 3584 
Q 2709 3584 3137 3096 
Q 3566 2609 3566 1747 
Q 3566 888 3137 398 
Q 2709 -91 1959 -91 
Q 1206 -91 779 398 
Q 353 888 353 1747 
Q 353 2609 779 3096 
Q 1206 3584 1959 3584 
z
" transform="scale(0.015625)"/>
       <path id="DejaVuSans-66" d="M 2375 4863 
L 2375 4384 
L 1825 4384 
Q 1516 4384 1395 4259 
Q 1275 4134 1275 3809 
L 1275 3500 
L 2222 3500 
L 2222 3053 
L 1275 3053 
L 1275 0 
L 697 0 
L 697 3053 
L 147 3053 
L 147 3500 
L 697 3500 
L 697 3744 
Q 697 4328 969 4595 
Q 1241 4863 1831 4863 
L 2375 4863 
z
" transform="scale(0.015625)"/>
       <path id="DejaVuSans-73" d="M 2834 3397 
L 2834 2853 
Q 2591 2978 2328 3040 
Q 2066 3103 1784 3103 
Q 1356 3103 1142 2972 
Q 928 2841 928 2578 
Q 928 2378 1081 2264 
Q 1234 2150 1697 2047 
L 1894 2003 
Q 2506 1872 2764 1633 
Q 3022 1394 3022 966 
Q 3022 478 2636 193 
Q 2250 -91 1575 -91 
Q 1294 -91 989 -36 
Q 684 19 347 128 
L 347 722 
Q 666 556 975 473 
Q 1284 391 1588 391 
Q 1994 391 2212 530 
Q 2431 669 2431 922 
Q 2431 1156 2273 1281 
Q 2116 1406 1581 1522 
L 1381 1569 
Q 847 1681 609 1914 
Q 372 2147 372 2553 
Q 372 3047 722 3315 
Q 1072 3584 1716 3584 
Q 2034 3584 2315 3537 
Q 2597 3491 2834 3397 
z
" transform="scale(0.015625)"/>
       <path id="DejaVuSans-74" d="M 1172 4494 
L 1172 3500 
L 2356 3500 
L 2356 3053 
L 1172 3053 
L 1172 1153 
Q 1172 725 1289 603 
Q 1406 481 1766 481 
L 2356 481 
L 2356 0 
L 1766 0 
Q 1100 0 847 248 
Q 594 497 594 1153 
L 594 3053 
L 172 3053 
L 172 3500 
L 594 3500 
L 594 4494 
L 1172 4494 
z
" transform="scale(0.015625)"/>
       <path id="DejaVuSans-70" d="M 1159 525 
L 1159 -1331 
L 581 -1331 
L 581 3500 
L 1159 3500 
L 1159 2969 
Q 1341 3281 1617 3432 
Q 1894 3584 2278 3584 
Q 2916 3584 3314 3078 
Q 3713 2572 3713 1747 
Q 3713 922 3314 415 
Q 2916 -91 2278 -91 
Q 1894 -91 1617 61 
Q 1341 213 1159 525 
z
M 3116 1747 
Q 3116 2381 2855 2742 
Q 2594 3103 2138 3103 
Q 1681 3103 1420 2742 
Q 1159 2381 1159 1747 
Q 1159 1113 1420 752 
Q 1681 391 2138 391 
Q 2594 391 2855 752 
Q 3116 1113 3116 1747 
z
" transform="scale(0.015625)"/>
      </defs>
      <use xlink:href="#DejaVuSans-4e"/>
      <use xlink:href="#DejaVuSans-75" x="74.804688"/>
      <use xlink:href="#DejaVuSans-6d" x="138.183594"/>
      <use xlink:href="#DejaVuSans-62" x="235.595703"/>
      <use xlink:href="#DejaVuSans-65" x="299.072266"/>
      <use xlink:href="#DejaVuSans-72" x="360.595703"/>
      <use xlink:href="#DejaVuSans-20" x="401.708984"/>
      <use xlink:href="#DejaVuSans-6f" x="433.496094"/>
      <use xlink:href="#DejaVuSans-66" x="494.677734"/>
      <use xlink:href="#DejaVuSans-20" x="529.882812"/>
      <use xlink:href="#DejaVuSans-73" x="561.669922"/>
      <use xlink:href="#DejaVuSans-74" x="613.769531"/>
      <use xlink:href="#DejaVuSans-65" x="652.978516"/>
      <use xlink:href="#DejaVuSans-70" x="714.501953"/>
      <use xlink:href="#DejaVuSans-73" x="777.978516"/>
     </g>
    </g>
   </g>
   <g id="matplotlib.axis_2">
    <g id="ytick_1">
     <g id="line2d_6">
      <defs>
       <path id="mc0f6a67bad" d="M 0 0 
L -3.5 0 
" style="stroke: #000000; stroke-width: 0.8"/>
      </defs>
      <g>
       <use xlink:href="#mc0f6a67bad" x="58.01375" y="130.212235" style="stroke: #000000; stroke-width: 0.8"/>
      </g>
     </g>
     <g id="text_7">
      <!-- $\mathdefault{10^{-3}}$ -->
      <g transform="translate(22.81375 134.771297) scale(0.12 -0.12)">
       <defs>
        <path id="DejaVuSans-2212" d="M 678 2272 
L 4684 2272 
L 4684 1741 
L 678 1741 
L 678 2272 
z
" transform="scale(0.015625)"/>
       </defs>
       <use xlink:href="#DejaVuSans-31" transform="translate(0 0.765625)"/>
       <use xlink:href="#DejaVuSans-30" transform="translate(63.623047 0.765625)"/>
       <use xlink:href="#DejaVuSans-2212" transform="translate(128.203125 39.046875) scale(0.7)"/>
       <use xlink:href="#DejaVuSans-33" transform="translate(186.855469 39.046875) scale(0.7)"/>
      </g>
     </g>
    </g>
    <g id="ytick_2">
     <g id="line2d_7">
      <g>
       <use xlink:href="#mc0f6a67bad" x="58.01375" y="93.843631" style="stroke: #000000; stroke-width: 0.8"/>
      </g>
     </g>
     <g id="text_8">
      <!-- $\mathdefault{10^{-2}}$ -->
      <g transform="translate(22.81375 98.402693) scale(0.12 -0.12)">
       <use xlink:href="#DejaVuSans-31" transform="translate(0 0.765625)"/>
       <use xlink:href="#DejaVuSans-30" transform="translate(63.623047 0.765625)"/>
       <use xlink:href="#DejaVuSans-2212" transform="translate(128.203125 39.046875) scale(0.7)"/>
       <use xlink:href="#DejaVuSans-32" transform="translate(186.855469 39.046875) scale(0.7)"/>
      </g>
     </g>
    </g>
    <g id="ytick_3">
     <g id="line2d_8">
      <g>
       <use xlink:href="#mc0f6a67bad" x="58.01375" y="57.475027" style="stroke: #000000; stroke-width: 0.8"/>
      </g>
     </g>
     <g id="text_9">
      <!-- $\mathdefault{10^{-1}}$ -->
      <g transform="translate(22.81375 62.034089) scale(0.12 -0.12)">
       <use xlink:href="#DejaVuSans-31" transform="translate(0 0.684375)"/>
       <use xlink:href="#DejaVuSans-30" transform="translate(63.623047 0.684375)"/>
       <use xlink:href="#DejaVuSans-2212" transform="translate(128.203125 38.965625) scale(0.7)"/>
       <use xlink:href="#DejaVuSans-31" transform="translate(186.855469 38.965625) scale(0.7)"/>
      </g>
     </g>
    </g>
    <g id="ytick_4">
     <g id="line2d_9">
      <g>
       <use xlink:href="#mc0f6a67bad" x="58.01375" y="21.106423" style="stroke: #000000; stroke-width: 0.8"/>
      </g>
     </g>
     <g id="text_10">
      <!-- $\mathdefault{10^{0}}$ -->
      <g transform="translate(29.89375 25.665485) scale(0.12 -0.12)">
       <use xlink:href="#DejaVuSans-31" transform="translate(0 0.765625)"/>
       <use xlink:href="#DejaVuSans-30" transform="translate(63.623047 0.765625)"/>
       <use xlink:href="#DejaVuSans-30" transform="translate(128.203125 39.046875) scale(0.7)"/>
      </g>
     </g>
    </g>
    <g id="ytick_5">
     <g id="line2d_10">
      <defs>
       <path id="m146a9a95b0" d="M 0 0 
L -2 0 
" style="stroke: #000000; stroke-width: 0.6"/>
      </defs>
      <g>
       <use xlink:href="#m146a9a95b0" x="58.01375" y="144.684758" style="stroke: #000000; stroke-width: 0.6"/>
      </g>
     </g>
    </g>
    <g id="ytick_6">
     <g id="line2d_11">
      <g>
       <use xlink:href="#m146a9a95b0" x="58.01375" y="141.160276" style="stroke: #000000; stroke-width: 0.6"/>
      </g>
     </g>
    </g>
    <g id="ytick_7">
     <g id="line2d_12">
      <g>
       <use xlink:href="#m146a9a95b0" x="58.01375" y="138.280564" style="stroke: #000000; stroke-width: 0.6"/>
      </g>
     </g>
    </g>
    <g id="ytick_8">
     <g id="line2d_13">
      <g>
       <use xlink:href="#m146a9a95b0" x="58.01375" y="135.845803" style="stroke: #000000; stroke-width: 0.6"/>
      </g>
     </g>
    </g>
    <g id="ytick_9">
     <g id="line2d_14">
      <g>
       <use xlink:href="#m146a9a95b0" x="58.01375" y="133.736717" style="stroke: #000000; stroke-width: 0.6"/>
      </g>
     </g>
    </g>
    <g id="ytick_10">
     <g id="line2d_15">
      <g>
       <use xlink:href="#m146a9a95b0" x="58.01375" y="131.876371" style="stroke: #000000; stroke-width: 0.6"/>
      </g>
     </g>
    </g>
    <g id="ytick_11">
     <g id="line2d_16">
      <g>
       <use xlink:href="#m146a9a95b0" x="58.01375" y="119.264194" style="stroke: #000000; stroke-width: 0.6"/>
      </g>
     </g>
    </g>
    <g id="ytick_12">
     <g id="line2d_17">
      <g>
       <use xlink:href="#m146a9a95b0" x="58.01375" y="112.860001" style="stroke: #000000; stroke-width: 0.6"/>
      </g>
     </g>
    </g>
    <g id="ytick_13">
     <g id="line2d_18">
      <g>
       <use xlink:href="#m146a9a95b0" x="58.01375" y="108.316154" style="stroke: #000000; stroke-width: 0.6"/>
      </g>
     </g>
    </g>
    <g id="ytick_14">
     <g id="line2d_19">
      <g>
       <use xlink:href="#m146a9a95b0" x="58.01375" y="104.791672" style="stroke: #000000; stroke-width: 0.6"/>
      </g>
     </g>
    </g>
    <g id="ytick_15">
     <g id="line2d_20">
      <g>
       <use xlink:href="#m146a9a95b0" x="58.01375" y="101.91196" style="stroke: #000000; stroke-width: 0.6"/>
      </g>
     </g>
    </g>
    <g id="ytick_16">
     <g id="line2d_21">
      <g>
       <use xlink:href="#m146a9a95b0" x="58.01375" y="99.477199" style="stroke: #000000; stroke-width: 0.6"/>
      </g>
     </g>
    </g>
    <g id="ytick_17">
     <g id="line2d_22">
      <g>
       <use xlink:href="#m146a9a95b0" x="58.01375" y="97.368113" style="stroke: #000000; stroke-width: 0.6"/>
      </g>
     </g>
    </g>
    <g id="ytick_18">
     <g id="line2d_23">
      <g>
       <use xlink:href="#m146a9a95b0" x="58.01375" y="95.507767" style="stroke: #000000; stroke-width: 0.6"/>
      </g>
     </g>
    </g>
    <g id="ytick_19">
     <g id="line2d_24">
      <g>
       <use xlink:href="#m146a9a95b0" x="58.01375" y="82.89559" style="stroke: #000000; stroke-width: 0.6"/>
      </g>
     </g>
    </g>
    <g id="ytick_20">
     <g id="line2d_25">
      <g>
       <use xlink:href="#m146a9a95b0" x="58.01375" y="76.491397" style="stroke: #000000; stroke-width: 0.6"/>
      </g>
     </g>
    </g>
    <g id="ytick_21">
     <g id="line2d_26">
      <g>
       <use xlink:href="#m146a9a95b0" x="58.01375" y="71.94755" style="stroke: #000000; stroke-width: 0.6"/>
      </g>
     </g>
    </g>
    <g id="ytick_22">
     <g id="line2d_27">
      <g>
       <use xlink:href="#m146a9a95b0" x="58.01375" y="68.423068" style="stroke: #000000; stroke-width: 0.6"/>
      </g>
     </g>
    </g>
    <g id="ytick_23">
     <g id="line2d_28">
      <g>
       <use xlink:href="#m146a9a95b0" x="58.01375" y="65.543356" style="stroke: #000000; stroke-width: 0.6"/>
      </g>
     </g>
    </g>
    <g id="ytick_24">
     <g id="line2d_29">
      <g>
       <use xlink:href="#m146a9a95b0" x="58.01375" y="63.108595" style="stroke: #000000; stroke-width: 0.6"/>
      </g>
     </g>
    </g>
    <g id="ytick_25">
     <g id="line2d_30">
      <g>
       <use xlink:href="#m146a9a95b0" x="58.01375" y="60.999509" style="stroke: #000000; stroke-width: 0.6"/>
      </g>
     </g>
    </g>
    <g id="ytick_26">
     <g id="line2d_31">
      <g>
       <use xlink:href="#m146a9a95b0" x="58.01375" y="59.139163" style="stroke: #000000; stroke-width: 0.6"/>
      </g>
     </g>
    </g>
    <g id="ytick_27">
     <g id="line2d_32">
      <g>
       <use xlink:href="#m146a9a95b0" x="58.01375" y="46.526986" style="stroke: #000000; stroke-width: 0.6"/>
      </g>
     </g>
    </g>
    <g id="ytick_28">
     <g id="line2d_33">
      <g>
       <use xlink:href="#m146a9a95b0" x="58.01375" y="40.122793" style="stroke: #000000; stroke-width: 0.6"/>
      </g>
     </g>
    </g>
    <g id="ytick_29">
     <g id="line2d_34">
      <g>
       <use xlink:href="#m146a9a95b0" x="58.01375" y="35.578945" style="stroke: #000000; stroke-width: 0.6"/>
      </g>
     </g>
    </g>
    <g id="ytick_30">
     <g id="line2d_35">
      <g>
       <use xlink:href="#m146a9a95b0" x="58.01375" y="32.054464" style="stroke: #000000; stroke-width: 0.6"/>
      </g>
     </g>
    </g>
    <g id="ytick_31">
     <g id="line2d_36">
      <g>
       <use xlink:href="#m146a9a95b0" x="58.01375" y="29.174752" style="stroke: #000000; stroke-width: 0.6"/>
      </g>
     </g>
    </g>
    <g id="ytick_32">
     <g id="line2d_37">
      <g>
       <use xlink:href="#m146a9a95b0" x="58.01375" y="26.739991" style="stroke: #000000; stroke-width: 0.6"/>
      </g>
     </g>
    </g>
    <g id="ytick_33">
     <g id="line2d_38">
      <g>
       <use xlink:href="#m146a9a95b0" x="58.01375" y="24.630905" style="stroke: #000000; stroke-width: 0.6"/>
      </g>
     </g>
    </g>
    <g id="ytick_34">
     <g id="line2d_39">
      <g>
       <use xlink:href="#m146a9a95b0" x="58.01375" y="22.770559" style="stroke: #000000; stroke-width: 0.6"/>
      </g>
     </g>
    </g>
    <g id="ytick_35">
     <g id="line2d_40">
      <g>
       <use xlink:href="#m146a9a95b0" x="58.01375" y="10.158382" style="stroke: #000000; stroke-width: 0.6"/>
      </g>
     </g>
    </g>
    <g id="text_11">
     <!-- Training loss -->
     <g transform="translate(16.318125 113.667188) rotate(-90) scale(0.12 -0.12)">
      <defs>
       <path id="DejaVuSans-54" d="M -19 4666 
L 3928 4666 
L 3928 4134 
L 2272 4134 
L 2272 0 
L 1638 0 
L 1638 4134 
L -19 4134 
L -19 4666 
z
" transform="scale(0.015625)"/>
       <path id="DejaVuSans-61" d="M 2194 1759 
Q 1497 1759 1228 1600 
Q 959 1441 959 1056 
Q 959 750 1161 570 
Q 1363 391 1709 391 
Q 2188 391 2477 730 
Q 2766 1069 2766 1631 
L 2766 1759 
L 2194 1759 
z
M 3341 1997 
L 3341 0 
L 2766 0 
L 2766 531 
Q 2569 213 2275 61 
Q 1981 -91 1556 -91 
Q 1019 -91 701 211 
Q 384 513 384 1019 
Q 384 1609 779 1909 
Q 1175 2209 1959 2209 
L 2766 2209 
L 2766 2266 
Q 2766 2663 2505 2880 
Q 2244 3097 1772 3097 
Q 1472 3097 1187 3025 
Q 903 2953 641 2809 
L 641 3341 
Q 956 3463 1253 3523 
Q 1550 3584 1831 3584 
Q 2591 3584 2966 3190 
Q 3341 2797 3341 1997 
z
" transform="scale(0.015625)"/>
       <path id="DejaVuSans-69" d="M 603 3500 
L 1178 3500 
L 1178 0 
L 603 0 
L 603 3500 
z
M 603 4863 
L 1178 4863 
L 1178 4134 
L 603 4134 
L 603 4863 
z
" transform="scale(0.015625)"/>
       <path id="DejaVuSans-6e" d="M 3513 2113 
L 3513 0 
L 2938 0 
L 2938 2094 
Q 2938 2591 2744 2837 
Q 2550 3084 2163 3084 
Q 1697 3084 1428 2787 
Q 1159 2491 1159 1978 
L 1159 0 
L 581 0 
L 581 3500 
L 1159 3500 
L 1159 2956 
Q 1366 3272 1645 3428 
Q 1925 3584 2291 3584 
Q 2894 3584 3203 3211 
Q 3513 2838 3513 2113 
z
" transform="scale(0.015625)"/>
       <path id="DejaVuSans-67" d="M 2906 1791 
Q 2906 2416 2648 2759 
Q 2391 3103 1925 3103 
Q 1463 3103 1205 2759 
Q 947 2416 947 1791 
Q 947 1169 1205 825 
Q 1463 481 1925 481 
Q 2391 481 2648 825 
Q 2906 1169 2906 1791 
z
M 3481 434 
Q 3481 -459 3084 -895 
Q 2688 -1331 1869 -1331 
Q 1566 -1331 1297 -1286 
Q 1028 -1241 775 -1147 
L 775 -588 
Q 1028 -725 1275 -790 
Q 1522 -856 1778 -856 
Q 2344 -856 2625 -561 
Q 2906 -266 2906 331 
L 2906 616 
Q 2728 306 2450 153 
Q 2172 0 1784 0 
Q 1141 0 747 490 
Q 353 981 353 1791 
Q 353 2603 747 3093 
Q 1141 3584 1784 3584 
Q 2172 3584 2450 3431 
Q 2728 3278 2906 2969 
L 2906 3500 
L 3481 3500 
L 3481 434 
z
" transform="scale(0.015625)"/>
       <path id="DejaVuSans-6c" d="M 603 4863 
L 1178 4863 
L 1178 0 
L 603 0 
L 603 4863 
z
" transform="scale(0.015625)"/>
      </defs>
      <use xlink:href="#DejaVuSans-54"/>
      <use xlink:href="#DejaVuSans-72" x="46.333984"/>
      <use xlink:href="#DejaVuSans-61" x="87.447266"/>
      <use xlink:href="#DejaVuSans-69" x="148.726562"/>
      <use xlink:href="#DejaVuSans-6e" x="176.509766"/>
      <use xlink:href="#DejaVuSans-69" x="239.888672"/>
      <use xlink:href="#DejaVuSans-6e" x="267.671875"/>
      <use xlink:href="#DejaVuSans-67" x="331.050781"/>
      <use xlink:href="#DejaVuSans-20" x="394.527344"/>
      <use xlink:href="#DejaVuSans-6c" x="426.314453"/>
      <use xlink:href="#DejaVuSans-6f" x="454.097656"/>
      <use xlink:href="#DejaVuSans-73" x="515.279297"/>
      <use xlink:href="#DejaVuSans-73" x="567.378906"/>
     </g>
    </g>
   </g>
   <g id="line2d_41">
    <path d="M 70.695568 13.543737 
L 71.331248 13.660667 
L 74.509649 15.130005 
L 76.416689 16.429868 
L 81.50213 20.296725 
L 82.13781 20.557062 
L 84.04485 22.102876 
L 85.316211 23.132071 
L 87.223251 24.960267 
L 87.858931 25.530389 
L 88.494611 25.869989 
L 91.673012 28.650805 
L 92.308692 29.349563 
L 92.944372 29.748251 
L 95.487092 32.287808 
L 96.758453 33.278151 
L 97.394133 33.59365 
L 98.029813 34.321744 
L 98.665493 34.80497 
L 99.301173 34.927394 
L 101.843894 37.374331 
L 103.750934 37.841651 
L 104.386614 37.963205 
L 105.022294 38.79487 
L 105.657974 39.228436 
L 106.293654 40.259342 
L 107.565015 41.077356 
L 108.200695 41.28637 
L 108.836375 41.873816 
L 109.472055 41.973803 
L 110.107735 42.599945 
L 111.379095 42.88719 
L 112.014775 42.892033 
L 113.286136 44.422027 
L 114.557496 44.888492 
L 115.828856 46.276992 
L 118.371576 48.046446 
L 119.007256 47.934754 
L 119.642937 48.161469 
L 120.914297 49.296261 
L 121.549977 48.83988 
L 122.185657 49.324161 
L 122.821337 49.519547 
L 123.457017 49.972885 
L 124.092697 50.061837 
L 124.728377 50.276335 
L 125.364058 50.667325 
L 126.635418 50.620479 
L 127.271098 51.57143 
L 127.906778 51.672253 
L 129.813818 52.500369 
L 130.449498 52.635857 
L 131.085179 53.32669 
L 131.720859 53.610043 
L 132.356539 53.634031 
L 132.992219 53.114515 
L 133.627899 53.548223 
L 134.263579 53.719484 
L 137.44198 55.933233 
L 138.07766 55.630118 
L 138.71334 56.18737 
L 139.34902 56.47527 
L 139.9847 56.948887 
L 141.89174 57.971071 
L 145.705821 60.131414 
L 146.977181 60.348902 
L 147.612861 60.793757 
L 149.519902 60.406081 
L 150.155582 61.032566 
L 151.426942 60.420059 
L 152.062622 61.043829 
L 153.333982 59.598817 
L 153.969663 56.496466 
L 154.605343 57.560775 
L 155.241023 56.575412 
L 155.876703 56.587047 
L 156.512383 56.945791 
L 157.148063 57.937939 
L 158.419423 59.090347 
L 159.055103 58.728245 
L 159.690783 59.266392 
L 160.326464 59.311823 
L 160.962144 59.157799 
L 161.597824 60.250562 
L 162.233504 60.544972 
L 162.869184 61.422273 
L 163.504864 61.037039 
L 164.140544 62.355831 
L 165.411904 62.510748 
L 166.047585 62.321441 
L 167.954625 63.63135 
L 168.590305 63.707636 
L 169.225985 64.150263 
L 169.861665 64.275319 
L 170.497345 64.153751 
L 171.768706 64.514338 
L 172.404386 64.621839 
L 173.040066 64.949249 
L 173.675746 64.944629 
L 174.311426 65.902379 
L 174.947106 65.901538 
L 175.582786 65.664063 
L 176.854146 65.976292 
L 177.489827 65.196962 
L 178.761187 62.342743 
L 179.396867 61.785092 
L 180.032547 61.864733 
L 180.668227 62.171672 
L 181.303907 63.118298 
L 181.939587 63.417697 
L 182.575267 64.375735 
L 183.210948 64.313011 
L 183.846628 64.876711 
L 184.482308 65.762286 
L 185.117988 65.961304 
L 186.389348 66.686048 
L 187.025028 66.226597 
L 187.660708 66.834464 
L 188.296388 66.023283 
L 188.932069 66.720542 
L 189.567749 66.629239 
L 190.203429 67.086751 
L 190.839109 66.941422 
L 191.474789 67.436443 
L 192.110469 67.144599 
L 192.746149 67.736881 
L 193.381829 68.172202 
L 194.017509 67.463662 
L 194.65319 65.608907 
L 195.28887 65.912024 
L 195.92455 65.270878 
L 196.56023 65.658275 
L 197.19591 66.230975 
L 197.83159 66.24036 
L 199.10295 67.715577 
L 199.73863 67.80581 
L 200.37431 68.659075 
L 201.009991 69.135477 
L 201.645671 70.012764 
L 202.281351 70.472544 
L 202.917031 70.344515 
L 203.552711 69.23851 
L 204.188391 69.20096 
L 206.095431 62.52076 
L 206.731112 63.574892 
L 207.366792 63.055817 
L 208.002472 64.722082 
L 209.273832 65.561151 
L 209.909512 64.206574 
L 210.545192 64.423583 
L 211.180872 63.601614 
L 212.452233 65.009938 
L 213.087913 65.319539 
L 213.723593 66.083129 
L 214.359273 66.095588 
L 214.994953 65.858628 
L 215.630633 66.598652 
L 216.266313 66.686741 
L 217.537673 67.629212 
L 218.173354 68.46971 
L 218.809034 68.695924 
L 219.444714 68.731476 
L 220.080394 69.227697 
L 220.716074 68.886178 
L 221.987434 69.772696 
L 222.623114 69.902031 
L 223.258794 70.365095 
L 223.894475 69.06217 
L 224.530155 68.546382 
L 225.165835 68.345424 
L 225.801515 67.454194 
L 226.437195 68.291472 
L 227.708555 69.267546 
L 228.344235 68.839023 
L 228.979915 69.350546 
L 229.615596 70.052497 
L 230.251276 70.213944 
L 230.886956 70.509779 
L 231.522636 70.337124 
L 232.158316 71.142169 
L 232.793996 70.482452 
L 233.429676 71.770051 
L 234.065356 71.989867 
L 234.701036 72.845431 
L 235.336717 72.46869 
L 235.972397 72.983013 
L 236.608077 73.313939 
L 237.879437 73.119737 
L 238.515117 73.891101 
L 239.150797 73.666622 
L 240.422157 74.702665 
L 241.057837 74.946728 
L 241.693518 74.851985 
L 242.329198 74.995157 
L 242.964878 75.326428 
L 244.236238 76.147298 
L 244.871918 76.51451 
L 245.507598 76.537016 
L 246.143278 76.783183 
L 247.414639 76.867043 
L 248.050319 77.453753 
L 248.685999 77.703293 
L 249.321679 77.785454 
L 249.957359 78.14139 
L 250.593039 77.877815 
L 251.864399 78.521399 
L 252.500079 78.276406 
L 253.13576 78.316909 
L 253.77144 76.966065 
L 254.40712 77.470243 
L 255.0428 77.080571 
L 255.67848 77.300054 
L 256.31416 77.088844 
L 256.94984 77.265403 
L 257.58552 77.152663 
L 258.856881 77.834361 
L 259.492561 74.690469 
L 260.128241 76.172147 
L 260.763921 74.67404 
L 261.399601 76.121078 
L 262.035281 75.762523 
L 262.670961 76.205718 
L 263.306641 76.181748 
L 264.578002 77.171503 
L 265.849362 77.084972 
L 266.485042 76.448635 
L 267.120722 76.934925 
L 267.756402 77.01993 
L 268.392082 77.74995 
L 269.027762 77.352846 
L 269.663442 76.667702 
L 270.299123 77.16565 
L 270.934803 75.635692 
L 271.570483 75.314053 
L 272.206163 75.124606 
L 272.841843 73.675428 
L 273.477523 75.122506 
L 274.113203 75.349519 
L 274.748883 74.465139 
L 275.384563 73.962816 
L 276.020244 74.878912 
L 276.655924 74.180852 
L 277.291604 74.620193 
L 277.927284 72.680163 
L 278.562964 72.553796 
L 279.198644 69.559549 
L 279.834324 63.013659 
L 281.105684 63.029763 
L 281.741364 62.297682 
L 282.377045 62.185175 
L 283.012725 63.462733 
L 284.284085 64.092325 
L 285.555445 66.966029 
L 286.826805 68.403302 
L 287.462485 69.507351 
L 290.005206 72.595268 
L 290.640886 72.866062 
L 291.276566 71.812892 
L 291.912246 72.724873 
L 292.547926 73.240266 
L 293.183606 73.189094 
L 293.819287 74.051523 
L 294.454967 74.084302 
L 295.090647 73.155052 
L 296.362007 74.540772 
L 296.997687 74.52345 
L 297.633367 74.005817 
L 298.269047 75.226942 
L 298.904727 75.926662 
L 299.540408 75.805256 
L 300.811768 76.523432 
L 302.083128 77.163808 
L 302.718808 74.220275 
L 303.354488 66.70051 
L 303.990168 68.991521 
L 304.625848 63.84431 
L 305.261529 63.527535 
L 305.897209 64.988517 
L 306.532889 67.192147 
L 307.168569 66.422436 
L 307.804249 68.424021 
L 308.439929 69.34333 
L 309.075609 69.453085 
L 309.711289 70.497221 
L 311.61833 72.658398 
L 312.25401 73.383873 
L 312.88969 73.753817 
L 313.52537 73.955929 
L 314.16105 72.866497 
L 315.43241 73.000741 
L 316.06809 73.391715 
L 316.703771 74.049713 
L 317.339451 73.539092 
L 317.975131 74.195557 
L 318.610811 74.27784 
L 319.246491 75.01912 
L 319.882171 74.982408 
L 320.517851 75.147509 
L 321.153531 76.05 
L 322.424891 76.618777 
L 323.060572 76.742895 
L 324.331932 77.617767 
L 324.331932 77.617767 
" clip-path="url(#pcf4b3b5d9a)" style="fill: none; stroke: #55c667; stroke-width: 1.5; stroke-linecap: square"/>
   </g>
   <g id="line2d_42">
    <path d="M 70.695568 13.567166 
L 71.331248 13.68012 
L 72.602609 14.375053 
L 75.781009 16.326654 
L 76.416689 16.253458 
L 77.052369 16.941285 
L 77.688049 17.212231 
L 82.13781 20.548081 
L 84.680531 23.171872 
L 85.316211 23.706619 
L 85.951891 23.727225 
L 86.587571 24.646947 
L 87.223251 25.214703 
L 88.494611 26.797211 
L 91.673012 29.892002 
L 93.580052 32.334187 
L 95.487092 34.379964 
L 96.122773 35.37264 
L 97.394133 36.911188 
L 99.936853 40.441958 
L 100.572533 40.925261 
L 101.843894 42.872411 
L 103.115254 44.341393 
L 103.750934 45.24509 
L 104.386614 45.670561 
L 105.022294 46.399507 
L 105.657974 47.312629 
L 106.929334 48.427899 
L 107.565015 49.451372 
L 108.836375 50.696005 
L 109.472055 51.682165 
L 110.107735 52.131386 
L 110.743415 53.185775 
L 111.379095 53.676856 
L 112.014775 54.671184 
L 113.286136 56.042862 
L 113.921816 56.925914 
L 114.557496 57.443716 
L 115.193176 57.41584 
L 115.828856 58.604422 
L 116.464536 58.79791 
L 117.100216 59.883947 
L 117.735896 59.577551 
L 119.007256 60.968781 
L 119.642937 61.807128 
L 120.278617 62.027282 
L 120.914297 62.646168 
L 121.549977 63.499528 
L 122.821337 64.507051 
L 123.457017 65.043468 
L 124.092697 64.940793 
L 124.728377 64.286954 
L 126.635418 66.797814 
L 127.271098 66.69498 
L 127.906778 67.619023 
L 129.178138 68.326701 
L 129.813818 69.089837 
L 130.449498 69.321653 
L 131.085179 69.988575 
L 132.992219 71.213164 
L 133.627899 71.807108 
L 135.534939 72.809553 
L 136.170619 72.5463 
L 136.8063 73.340975 
L 137.44198 72.836242 
L 138.07766 73.007135 
L 138.71334 73.715744 
L 139.34902 73.021743 
L 139.9847 74.206125 
L 140.62038 73.720372 
L 141.25606 74.793623 
L 141.89174 74.718128 
L 142.527421 75.440872 
L 143.798781 74.830266 
L 144.434461 75.230395 
L 145.070141 74.939369 
L 145.705821 76.139691 
L 146.341501 75.534006 
L 146.977181 76.398433 
L 147.612861 76.430462 
L 149.519902 77.351336 
L 150.155582 77.448894 
L 151.426942 77.995098 
L 152.062622 78.368144 
L 152.698302 78.60041 
L 153.333982 78.705165 
L 156.512383 79.802472 
L 157.148063 79.893865 
L 157.783743 80.158394 
L 158.419423 80.214681 
L 159.055103 80.45571 
L 159.690783 80.568658 
L 160.326464 80.202259 
L 160.962144 80.650816 
L 161.597824 80.459091 
L 162.233504 79.54648 
L 162.869184 78.144261 
L 163.504864 78.74918 
L 164.140544 79.187257 
L 164.776224 79.162642 
L 165.411904 78.301208 
L 166.047585 77.890309 
L 166.683265 78.676681 
L 167.318945 78.564225 
L 167.954625 75.981272 
L 168.590305 66.417981 
L 169.225985 70.447502 
L 169.861665 68.675429 
L 170.497345 72.609686 
L 171.133025 73.606827 
L 172.404386 73.04272 
L 173.040066 75.08857 
L 173.675746 75.571812 
L 174.311426 76.575605 
L 175.582786 77.408625 
L 176.218466 77.777958 
L 176.854146 78.461117 
L 177.489827 78.452724 
L 178.125507 78.91066 
L 178.761187 79.003606 
L 180.032547 80.117108 
L 180.668227 80.199184 
L 181.303907 80.477853 
L 181.939587 80.578007 
L 183.210948 81.502455 
L 184.482308 81.86306 
L 185.753668 82.328704 
L 186.389348 82.411942 
L 191.474789 83.965188 
L 192.746149 84.182297 
L 195.92455 84.885585 
L 198.46727 85.112922 
L 199.10295 85.356286 
L 201.645671 85.748263 
L 202.281351 85.767515 
L 202.917031 85.066297 
L 204.824071 85.616251 
L 205.459751 84.516476 
L 206.095431 83.987171 
L 206.731112 83.605599 
L 208.002472 83.583416 
L 208.638152 84.32453 
L 209.909512 84.394367 
L 210.545192 85.03664 
L 211.180872 85.025129 
L 211.816552 84.258323 
L 212.452233 81.675504 
L 213.087913 75.724278 
L 213.723593 75.526569 
L 214.994953 59.668765 
L 215.630633 59.11271 
L 216.266313 63.098898 
L 217.537673 64.599824 
L 218.173354 62.273834 
L 218.809034 64.898268 
L 219.444714 66.910802 
L 220.080394 65.815923 
L 221.351754 71.125424 
L 221.987434 73.040786 
L 222.623114 72.611509 
L 223.258794 73.853667 
L 223.894475 75.533113 
L 225.165835 76.907251 
L 225.801515 77.973047 
L 226.437195 78.394003 
L 228.344235 80.411611 
L 228.979915 80.724568 
L 229.615596 81.308242 
L 230.251276 81.619901 
L 232.158316 82.989267 
L 233.429676 83.611086 
L 234.701036 84.120871 
L 238.515117 85.207779 
L 239.150797 85.19022 
L 244.236238 86.303297 
L 250.593039 87.355201 
L 251.228719 82.836164 
L 251.864399 68.821903 
L 252.500079 74.556551 
L 253.13576 63.18877 
L 253.77144 62.79722 
L 254.40712 66.761363 
L 255.0428 66.687658 
L 255.67848 73.261998 
L 256.31416 72.494942 
L 256.94984 74.556955 
L 257.58552 75.851275 
L 258.856881 76.546254 
L 259.492561 77.613193 
L 260.128241 79.115157 
L 260.763921 80.291996 
L 261.399601 79.98472 
L 262.035281 81.245789 
L 262.670961 81.712252 
L 263.306641 81.732557 
L 263.942321 82.553382 
L 264.578002 82.667874 
L 265.213682 83.052035 
L 265.849362 83.843846 
L 266.485042 84.061278 
L 267.120722 84.458095 
L 267.756402 85.009859 
L 268.392082 85.090681 
L 269.663442 85.954196 
L 270.299123 86.044124 
L 272.206163 86.612209 
L 272.841843 86.822561 
L 273.477523 87.181099 
L 276.020244 87.89911 
L 276.655924 87.944323 
L 277.927284 88.302113 
L 279.834324 88.555866 
L 281.105684 88.736588 
L 287.462485 89.324612 
L 290.005206 89.462682 
L 291.276566 89.3163 
L 291.912246 89.546655 
L 295.090647 89.768739 
L 295.726327 89.254053 
L 296.362007 89.146413 
L 296.997687 89.191236 
L 297.633367 89.496616 
L 298.269047 88.337239 
L 299.540408 88.803841 
L 300.176088 88.835671 
L 301.447448 89.206672 
L 302.718808 89.385783 
L 305.897209 89.632243 
L 308.439929 90.065128 
L 311.61833 90.37795 
L 317.339451 90.741415 
L 317.975131 90.292658 
L 318.610811 90.561027 
L 319.246491 90.339243 
L 321.789211 90.690316 
L 322.424891 90.652375 
L 324.331932 90.927433 
L 324.331932 90.927433 
" clip-path="url(#pcf4b3b5d9a)" style="fill: none; stroke: #404788; stroke-width: 1.5; stroke-linecap: square"/>
   </g>
   <g id="patch_3">
    <path d="M 58.01375 145.8 
L 58.01375 7.2 
" style="fill: none; stroke: #000000; stroke-width: 0.8; stroke-linejoin: miter; stroke-linecap: square"/>
   </g>
   <g id="patch_4">
    <path d="M 337.01375 145.8 
L 337.01375 7.2 
" style="fill: none; stroke: #000000; stroke-width: 0.8; stroke-linejoin: miter; stroke-linecap: square"/>
   </g>
   <g id="patch_5">
    <path d="M 58.01375 145.8 
L 337.01375 145.8 
" style="fill: none; stroke: #000000; stroke-width: 0.8; stroke-linejoin: miter; stroke-linecap: square"/>
   </g>
   <g id="patch_6">
    <path d="M 58.01375 7.2 
L 337.01375 7.2 
" style="fill: none; stroke: #000000; stroke-width: 0.8; stroke-linejoin: miter; stroke-linecap: square"/>
   </g>
   <g id="legend_1">
    <g id="patch_7">
     <path d="M 114.993125 34.41375 
L 328.61375 34.41375 
Q 331.01375 34.41375 331.01375 32.01375 
L 331.01375 15.6 
Q 331.01375 13.2 328.61375 13.2 
L 114.993125 13.2 
Q 112.593125 13.2 112.593125 15.6 
L 112.593125 32.01375 
Q 112.593125 34.41375 114.993125 34.41375 
z
" style="fill: #ffffff; opacity: 0.8; stroke: #cccccc; stroke-linejoin: miter"/>
    </g>
    <g id="line2d_43">
     <path d="M 117.393125 22.918125 
L 129.393125 22.918125 
L 141.393125 22.918125 
" style="fill: none; stroke: #55c667; stroke-width: 1.5; stroke-linecap: square"/>
    </g>
    <g id="text_12">
     <!-- Dir-GCN -->
     <g transform="translate(150.993125 27.118125) scale(0.12 -0.12)">
      <defs>
       <path id="DejaVuSans-44" d="M 1259 4147 
L 1259 519 
L 2022 519 
Q 2988 519 3436 956 
Q 3884 1394 3884 2338 
Q 3884 3275 3436 3711 
Q 2988 4147 2022 4147 
L 1259 4147 
z
M 628 4666 
L 1925 4666 
Q 3281 4666 3915 4102 
Q 4550 3538 4550 2338 
Q 4550 1131 3912 565 
Q 3275 0 1925 0 
L 628 0 
L 628 4666 
z
" transform="scale(0.015625)"/>
       <path id="DejaVuSans-2d" d="M 313 2009 
L 1997 2009 
L 1997 1497 
L 313 1497 
L 313 2009 
z
" transform="scale(0.015625)"/>
       <path id="DejaVuSans-47" d="M 3809 666 
L 3809 1919 
L 2778 1919 
L 2778 2438 
L 4434 2438 
L 4434 434 
Q 4069 175 3628 42 
Q 3188 -91 2688 -91 
Q 1594 -91 976 548 
Q 359 1188 359 2328 
Q 359 3472 976 4111 
Q 1594 4750 2688 4750 
Q 3144 4750 3555 4637 
Q 3966 4525 4313 4306 
L 4313 3634 
Q 3963 3931 3569 4081 
Q 3175 4231 2741 4231 
Q 1884 4231 1454 3753 
Q 1025 3275 1025 2328 
Q 1025 1384 1454 906 
Q 1884 428 2741 428 
Q 3075 428 3337 486 
Q 3600 544 3809 666 
z
" transform="scale(0.015625)"/>
       <path id="DejaVuSans-43" d="M 4122 4306 
L 4122 3641 
Q 3803 3938 3442 4084 
Q 3081 4231 2675 4231 
Q 1875 4231 1450 3742 
Q 1025 3253 1025 2328 
Q 1025 1406 1450 917 
Q 1875 428 2675 428 
Q 3081 428 3442 575 
Q 3803 722 4122 1019 
L 4122 359 
Q 3791 134 3420 21 
Q 3050 -91 2638 -91 
Q 1578 -91 968 557 
Q 359 1206 359 2328 
Q 359 3453 968 4101 
Q 1578 4750 2638 4750 
Q 3056 4750 3426 4639 
Q 3797 4528 4122 4306 
z
" transform="scale(0.015625)"/>
      </defs>
      <use xlink:href="#DejaVuSans-44"/>
      <use xlink:href="#DejaVuSans-69" x="77.001953"/>
      <use xlink:href="#DejaVuSans-72" x="104.785156"/>
      <use xlink:href="#DejaVuSans-2d" x="139.523438"/>
      <use xlink:href="#DejaVuSans-47" x="179.232422"/>
      <use xlink:href="#DejaVuSans-43" x="256.722656"/>
      <use xlink:href="#DejaVuSans-4e" x="326.546875"/>
     </g>
    </g>
    <g id="line2d_44">
     <path d="M 223.154375 22.918125 
L 235.154375 22.918125 
L 247.154375 22.918125 
" style="fill: none; stroke: #404788; stroke-width: 1.5; stroke-linecap: square"/>
    </g>
    <g id="text_13">
     <!-- DA-Dir-GCN -->
     <g transform="translate(256.754375 27.118125) scale(0.12 -0.12)">
      <defs>
       <path id="DejaVuSans-41" d="M 2188 4044 
L 1331 1722 
L 3047 1722 
L 2188 4044 
z
M 1831 4666 
L 2547 4666 
L 4325 0 
L 3669 0 
L 3244 1197 
L 1141 1197 
L 716 0 
L 50 0 
L 1831 4666 
z
" transform="scale(0.015625)"/>
      </defs>
      <use xlink:href="#DejaVuSans-44"/>
      <use xlink:href="#DejaVuSans-41" x="75.251953"/>
      <use xlink:href="#DejaVuSans-2d" x="141.410156"/>
      <use xlink:href="#DejaVuSans-44" x="177.494141"/>
      <use xlink:href="#DejaVuSans-69" x="254.496094"/>
      <use xlink:href="#DejaVuSans-72" x="282.279297"/>
      <use xlink:href="#DejaVuSans-2d" x="317.017578"/>
      <use xlink:href="#DejaVuSans-47" x="356.726562"/>
      <use xlink:href="#DejaVuSans-43" x="434.216797"/>
      <use xlink:href="#DejaVuSans-4e" x="504.041016"/>
     </g>
    </g>
   </g>
  </g>
 </g>
 <defs>
  <clipPath id="pcf4b3b5d9a">
   <rect x="58.01375" y="7.2" width="279" height="138.6"/>
  </clipPath>
 </defs>
</svg>
