<?xml version="1.0" encoding="utf-8" standalone="no"?>
<!DOCTYPE svg PUBLIC "-//W3C//DTD SVG 1.1//EN"
  "http://www.w3.org/Graphics/SVG/1.1/DTD/svg11.dtd">
<svg xmlns:xlink="http://www.w3.org/1999/xlink" width="344.21375pt" height="187.2275pt" viewBox="0 0 344.21375 187.2275" xmlns="http://www.w3.org/2000/svg" version="1.1">
 <metadata>
  <rdf:RDF xmlns:dc="http://purl.org/dc/elements/1.1/" xmlns:cc="http://creativecommons.org/ns#" xmlns:rdf="http://www.w3.org/1999/02/22-rdf-syntax-ns#">
   <cc:Work>
    <dc:type rdf:resource="http://purl.org/dc/dcmitype/StillImage"/>
    <dc:date>2024-09-12T09:41:58.383945</dc:date>
    <dc:format>image/svg+xml</dc:format>
    <dc:creator>
     <cc:Agent>
      <dc:title>Matplotlib v3.8.2, https://matplotlib.org/</dc:title>
     </cc:Agent>
    </dc:creator>
   </cc:Work>
  </rdf:RDF>
 </metadata>
 <defs>
  <style type="text/css">*{stroke-linejoin: round; stroke-linecap: butt}</style>
 </defs>
 <g id="figure_1">
  <g id="patch_1">
   <path d="M 0 187.2275 
L 344.21375 187.2275 
L 344.21375 0 
L 0 0 
z
" style="fill: #ffffff"/>
  </g>
  <g id="axes_1">
   <g id="patch_2">
    <path d="M 58.01375 145.8 
L 337.01375 145.8 
L 337.01375 7.2 
L 58.01375 7.2 
z
" style="fill: #ffffff"/>
   </g>
   <g id="matplotlib.axis_1">
    <g id="xtick_1">
     <g id="line2d_1">
      <defs>
       <path id="m1da45fe291" d="M 0 0 
L 0 3.5 
" style="stroke: #000000; stroke-width: 0.8"/>
      </defs>
      <g>
       <use xlink:href="#m1da45fe291" x="70.695568" y="145.8" style="stroke: #000000; stroke-width: 0.8"/>
      </g>
     </g>
     <g id="text_1">
      <!-- 0 -->
      <g transform="translate(66.878068 161.918125) scale(0.12 -0.12)">
       <defs>
        <path id="DejaVuSans-30" d="M 2034 4250 
Q 1547 4250 1301 3770 
Q 1056 3291 1056 2328 
Q 1056 1369 1301 889 
Q 1547 409 2034 409 
Q 2525 409 2770 889 
Q 3016 1369 3016 2328 
Q 3016 3291 2770 3770 
Q 2525 4250 2034 4250 
z
M 2034 4750 
Q 2819 4750 3233 4129 
Q 3647 3509 3647 2328 
Q 3647 1150 3233 529 
Q 2819 -91 2034 -91 
Q 1250 -91 836 529 
Q 422 1150 422 2328 
Q 422 3509 836 4129 
Q 1250 4750 2034 4750 
z
" transform="scale(0.015625)"/>
       </defs>
       <use xlink:href="#DejaVuSans-30"/>
      </g>
     </g>
    </g>
    <g id="xtick_2">
     <g id="line2d_2">
      <g>
       <use xlink:href="#m1da45fe291" x="120.23392" y="145.8" style="stroke: #000000; stroke-width: 0.8"/>
      </g>
     </g>
     <g id="text_2">
      <!-- 25 -->
      <g transform="translate(112.59892 161.918125) scale(0.12 -0.12)">
       <defs>
        <path id="DejaVuSans-32" d="M 1228 531 
L 3431 531 
L 3431 0 
L 469 0 
L 469 531 
Q 828 903 1448 1529 
Q 2069 2156 2228 2338 
Q 2531 2678 2651 2914 
Q 2772 3150 2772 3378 
Q 2772 3750 2511 3984 
Q 2250 4219 1831 4219 
Q 1534 4219 1204 4116 
Q 875 4013 500 3803 
L 500 4441 
Q 881 4594 1212 4672 
Q 1544 4750 1819 4750 
Q 2544 4750 2975 4387 
Q 3406 4025 3406 3419 
Q 3406 3131 3298 2873 
Q 3191 2616 2906 2266 
Q 2828 2175 2409 1742 
Q 1991 1309 1228 531 
z
" transform="scale(0.015625)"/>
        <path id="DejaVuSans-35" d="M 691 4666 
L 3169 4666 
L 3169 4134 
L 1269 4134 
L 1269 2991 
Q 1406 3038 1543 3061 
Q 1681 3084 1819 3084 
Q 2600 3084 3056 2656 
Q 3513 2228 3513 1497 
Q 3513 744 3044 326 
Q 2575 -91 1722 -91 
Q 1428 -91 1123 -41 
Q 819 9 494 109 
L 494 744 
Q 775 591 1075 516 
Q 1375 441 1709 441 
Q 2250 441 2565 725 
Q 2881 1009 2881 1497 
Q 2881 1984 2565 2268 
Q 2250 2553 1709 2553 
Q 1456 2553 1204 2497 
Q 953 2441 691 2322 
L 691 4666 
z
" transform="scale(0.015625)"/>
       </defs>
       <use xlink:href="#DejaVuSans-32"/>
       <use xlink:href="#DejaVuSans-35" x="63.623047"/>
      </g>
     </g>
    </g>
    <g id="xtick_3">
     <g id="line2d_3">
      <g>
       <use xlink:href="#m1da45fe291" x="169.772273" y="145.8" style="stroke: #000000; stroke-width: 0.8"/>
      </g>
     </g>
     <g id="text_3">
      <!-- 50 -->
      <g transform="translate(162.137273 161.918125) scale(0.12 -0.12)">
       <use xlink:href="#DejaVuSans-35"/>
       <use xlink:href="#DejaVuSans-30" x="63.623047"/>
      </g>
     </g>
    </g>
    <g id="xtick_4">
     <g id="line2d_4">
      <g>
       <use xlink:href="#m1da45fe291" x="219.310625" y="145.8" style="stroke: #000000; stroke-width: 0.8"/>
      </g>
     </g>
     <g id="text_4">
      <!-- 75 -->
      <g transform="translate(211.675625 161.918125) scale(0.12 -0.12)">
       <defs>
        <path id="DejaVuSans-37" d="M 525 4666 
L 3525 4666 
L 3525 4397 
L 1831 0 
L 1172 0 
L 2766 4134 
L 525 4134 
L 525 4666 
z
" transform="scale(0.015625)"/>
       </defs>
       <use xlink:href="#DejaVuSans-37"/>
       <use xlink:href="#DejaVuSans-35" x="63.623047"/>
      </g>
     </g>
    </g>
    <g id="xtick_5">
     <g id="line2d_5">
      <g>
       <use xlink:href="#m1da45fe291" x="268.848977" y="145.8" style="stroke: #000000; stroke-width: 0.8"/>
      </g>
     </g>
     <g id="text_5">
      <!-- 100 -->
      <g transform="translate(257.396477 161.918125) scale(0.12 -0.12)">
       <defs>
        <path id="DejaVuSans-31" d="M 794 531 
L 1825 531 
L 1825 4091 
L 703 3866 
L 703 4441 
L 1819 4666 
L 2450 4666 
L 2450 531 
L 3481 531 
L 3481 0 
L 794 0 
L 794 531 
z
" transform="scale(0.015625)"/>
       </defs>
       <use xlink:href="#DejaVuSans-31"/>
       <use xlink:href="#DejaVuSans-30" x="63.623047"/>
       <use xlink:href="#DejaVuSans-30" x="127.246094"/>
      </g>
     </g>
    </g>
    <g id="xtick_6">
     <g id="line2d_6">
      <g>
       <use xlink:href="#m1da45fe291" x="318.38733" y="145.8" style="stroke: #000000; stroke-width: 0.8"/>
      </g>
     </g>
     <g id="text_6">
      <!-- 125 -->
      <g transform="translate(306.93483 161.918125) scale(0.12 -0.12)">
       <use xlink:href="#DejaVuSans-31"/>
       <use xlink:href="#DejaVuSans-32" x="63.623047"/>
       <use xlink:href="#DejaVuSans-35" x="127.246094"/>
      </g>
     </g>
    </g>
    <g id="text_7">
     <!-- Number of layers -->
     <g transform="translate(145.634375 177.531875) scale(0.12 -0.12)">
      <defs>
       <path id="DejaVuSans-4e" d="M 628 4666 
L 1478 4666 
L 3547 763 
L 3547 4666 
L 4159 4666 
L 4159 0 
L 3309 0 
L 1241 3903 
L 1241 0 
L 628 0 
L 628 4666 
z
" transform="scale(0.015625)"/>
       <path id="DejaVuSans-75" d="M 544 1381 
L 544 3500 
L 1119 3500 
L 1119 1403 
Q 1119 906 1312 657 
Q 1506 409 1894 409 
Q 2359 409 2629 706 
Q 2900 1003 2900 1516 
L 2900 3500 
L 3475 3500 
L 3475 0 
L 2900 0 
L 2900 538 
Q 2691 219 2414 64 
Q 2138 -91 1772 -91 
Q 1169 -91 856 284 
Q 544 659 544 1381 
z
M 1991 3584 
L 1991 3584 
z
" transform="scale(0.015625)"/>
       <path id="DejaVuSans-6d" d="M 3328 2828 
Q 3544 3216 3844 3400 
Q 4144 3584 4550 3584 
Q 5097 3584 5394 3201 
Q 5691 2819 5691 2113 
L 5691 0 
L 5113 0 
L 5113 2094 
Q 5113 2597 4934 2840 
Q 4756 3084 4391 3084 
Q 3944 3084 3684 2787 
Q 3425 2491 3425 1978 
L 3425 0 
L 2847 0 
L 2847 2094 
Q 2847 2600 2669 2842 
Q 2491 3084 2119 3084 
Q 1678 3084 1418 2786 
Q 1159 2488 1159 1978 
L 1159 0 
L 581 0 
L 581 3500 
L 1159 3500 
L 1159 2956 
Q 1356 3278 1631 3431 
Q 1906 3584 2284 3584 
Q 2666 3584 2933 3390 
Q 3200 3197 3328 2828 
z
" transform="scale(0.015625)"/>
       <path id="DejaVuSans-62" d="M 3116 1747 
Q 3116 2381 2855 2742 
Q 2594 3103 2138 3103 
Q 1681 3103 1420 2742 
Q 1159 2381 1159 1747 
Q 1159 1113 1420 752 
Q 1681 391 2138 391 
Q 2594 391 2855 752 
Q 3116 1113 3116 1747 
z
M 1159 2969 
Q 1341 3281 1617 3432 
Q 1894 3584 2278 3584 
Q 2916 3584 3314 3078 
Q 3713 2572 3713 1747 
Q 3713 922 3314 415 
Q 2916 -91 2278 -91 
Q 1894 -91 1617 61 
Q 1341 213 1159 525 
L 1159 0 
L 581 0 
L 581 4863 
L 1159 4863 
L 1159 2969 
z
" transform="scale(0.015625)"/>
       <path id="DejaVuSans-65" d="M 3597 1894 
L 3597 1613 
L 953 1613 
Q 991 1019 1311 708 
Q 1631 397 2203 397 
Q 2534 397 2845 478 
Q 3156 559 3463 722 
L 3463 178 
Q 3153 47 2828 -22 
Q 2503 -91 2169 -91 
Q 1331 -91 842 396 
Q 353 884 353 1716 
Q 353 2575 817 3079 
Q 1281 3584 2069 3584 
Q 2775 3584 3186 3129 
Q 3597 2675 3597 1894 
z
M 3022 2063 
Q 3016 2534 2758 2815 
Q 2500 3097 2075 3097 
Q 1594 3097 1305 2825 
Q 1016 2553 972 2059 
L 3022 2063 
z
" transform="scale(0.015625)"/>
       <path id="DejaVuSans-72" d="M 2631 2963 
Q 2534 3019 2420 3045 
Q 2306 3072 2169 3072 
Q 1681 3072 1420 2755 
Q 1159 2438 1159 1844 
L 1159 0 
L 581 0 
L 581 3500 
L 1159 3500 
L 1159 2956 
Q 1341 3275 1631 3429 
Q 1922 3584 2338 3584 
Q 2397 3584 2469 3576 
Q 2541 3569 2628 3553 
L 2631 2963 
z
" transform="scale(0.015625)"/>
       <path id="DejaVuSans-20" transform="scale(0.015625)"/>
       <path id="DejaVuSans-6f" d="M 1959 3097 
Q 1497 3097 1228 2736 
Q 959 2375 959 1747 
Q 959 1119 1226 758 
Q 1494 397 1959 397 
Q 2419 397 2687 759 
Q 2956 1122 2956 1747 
Q 2956 2369 2687 2733 
Q 2419 3097 1959 3097 
z
M 1959 3584 
Q 2709 3584 3137 3096 
Q 3566 2609 3566 1747 
Q 3566 888 3137 398 
Q 2709 -91 1959 -91 
Q 1206 -91 779 398 
Q 353 888 353 1747 
Q 353 2609 779 3096 
Q 1206 3584 1959 3584 
z
" transform="scale(0.015625)"/>
       <path id="DejaVuSans-66" d="M 2375 4863 
L 2375 4384 
L 1825 4384 
Q 1516 4384 1395 4259 
Q 1275 4134 1275 3809 
L 1275 3500 
L 2222 3500 
L 2222 3053 
L 1275 3053 
L 1275 0 
L 697 0 
L 697 3053 
L 147 3053 
L 147 3500 
L 697 3500 
L 697 3744 
Q 697 4328 969 4595 
Q 1241 4863 1831 4863 
L 2375 4863 
z
" transform="scale(0.015625)"/>
       <path id="DejaVuSans-6c" d="M 603 4863 
L 1178 4863 
L 1178 0 
L 603 0 
L 603 4863 
z
" transform="scale(0.015625)"/>
       <path id="DejaVuSans-61" d="M 2194 1759 
Q 1497 1759 1228 1600 
Q 959 1441 959 1056 
Q 959 750 1161 570 
Q 1363 391 1709 391 
Q 2188 391 2477 730 
Q 2766 1069 2766 1631 
L 2766 1759 
L 2194 1759 
z
M 3341 1997 
L 3341 0 
L 2766 0 
L 2766 531 
Q 2569 213 2275 61 
Q 1981 -91 1556 -91 
Q 1019 -91 701 211 
Q 384 513 384 1019 
Q 384 1609 779 1909 
Q 1175 2209 1959 2209 
L 2766 2209 
L 2766 2266 
Q 2766 2663 2505 2880 
Q 2244 3097 1772 3097 
Q 1472 3097 1187 3025 
Q 903 2953 641 2809 
L 641 3341 
Q 956 3463 1253 3523 
Q 1550 3584 1831 3584 
Q 2591 3584 2966 3190 
Q 3341 2797 3341 1997 
z
" transform="scale(0.015625)"/>
       <path id="DejaVuSans-79" d="M 2059 -325 
Q 1816 -950 1584 -1140 
Q 1353 -1331 966 -1331 
L 506 -1331 
L 506 -850 
L 844 -850 
Q 1081 -850 1212 -737 
Q 1344 -625 1503 -206 
L 1606 56 
L 191 3500 
L 800 3500 
L 1894 763 
L 2988 3500 
L 3597 3500 
L 2059 -325 
z
" transform="scale(0.015625)"/>
       <path id="DejaVuSans-73" d="M 2834 3397 
L 2834 2853 
Q 2591 2978 2328 3040 
Q 2066 3103 1784 3103 
Q 1356 3103 1142 2972 
Q 928 2841 928 2578 
Q 928 2378 1081 2264 
Q 1234 2150 1697 2047 
L 1894 2003 
Q 2506 1872 2764 1633 
Q 3022 1394 3022 966 
Q 3022 478 2636 193 
Q 2250 -91 1575 -91 
Q 1294 -91 989 -36 
Q 684 19 347 128 
L 347 722 
Q 666 556 975 473 
Q 1284 391 1588 391 
Q 1994 391 2212 530 
Q 2431 669 2431 922 
Q 2431 1156 2273 1281 
Q 2116 1406 1581 1522 
L 1381 1569 
Q 847 1681 609 1914 
Q 372 2147 372 2553 
Q 372 3047 722 3315 
Q 1072 3584 1716 3584 
Q 2034 3584 2315 3537 
Q 2597 3491 2834 3397 
z
" transform="scale(0.015625)"/>
      </defs>
      <use xlink:href="#DejaVuSans-4e"/>
      <use xlink:href="#DejaVuSans-75" x="74.804688"/>
      <use xlink:href="#DejaVuSans-6d" x="138.183594"/>
      <use xlink:href="#DejaVuSans-62" x="235.595703"/>
      <use xlink:href="#DejaVuSans-65" x="299.072266"/>
      <use xlink:href="#DejaVuSans-72" x="360.595703"/>
      <use xlink:href="#DejaVuSans-20" x="401.708984"/>
      <use xlink:href="#DejaVuSans-6f" x="433.496094"/>
      <use xlink:href="#DejaVuSans-66" x="494.677734"/>
      <use xlink:href="#DejaVuSans-20" x="529.882812"/>
      <use xlink:href="#DejaVuSans-6c" x="561.669922"/>
      <use xlink:href="#DejaVuSans-61" x="589.453125"/>
      <use xlink:href="#DejaVuSans-79" x="650.732422"/>
      <use xlink:href="#DejaVuSans-65" x="709.912109"/>
      <use xlink:href="#DejaVuSans-72" x="771.435547"/>
      <use xlink:href="#DejaVuSans-73" x="812.548828"/>
     </g>
    </g>
   </g>
   <g id="matplotlib.axis_2">
    <g id="ytick_1">
     <g id="line2d_7">
      <defs>
       <path id="m8087c7dbec" d="M 0 0 
L -3.5 0 
" style="stroke: #000000; stroke-width: 0.8"/>
      </defs>
      <g>
       <use xlink:href="#m8087c7dbec" x="58.01375" y="116.203946" style="stroke: #000000; stroke-width: 0.8"/>
      </g>
     </g>
     <g id="text_8">
      <!-- $\mathdefault{10^{-5}}$ -->
      <g transform="translate(22.81375 120.763008) scale(0.12 -0.12)">
       <defs>
        <path id="DejaVuSans-2212" d="M 678 2272 
L 4684 2272 
L 4684 1741 
L 678 1741 
L 678 2272 
z
" transform="scale(0.015625)"/>
       </defs>
       <use xlink:href="#DejaVuSans-31" transform="translate(0 0.684375)"/>
       <use xlink:href="#DejaVuSans-30" transform="translate(63.623047 0.684375)"/>
       <use xlink:href="#DejaVuSans-2212" transform="translate(128.203125 38.965625) scale(0.7)"/>
       <use xlink:href="#DejaVuSans-35" transform="translate(186.855469 38.965625) scale(0.7)"/>
      </g>
     </g>
    </g>
    <g id="ytick_2">
     <g id="line2d_8">
      <g>
       <use xlink:href="#m8087c7dbec" x="58.01375" y="77.184837" style="stroke: #000000; stroke-width: 0.8"/>
      </g>
     </g>
     <g id="text_9">
      <!-- $\mathdefault{10^{-3}}$ -->
      <g transform="translate(22.81375 81.7439) scale(0.12 -0.12)">
       <defs>
        <path id="DejaVuSans-33" d="M 2597 2516 
Q 3050 2419 3304 2112 
Q 3559 1806 3559 1356 
Q 3559 666 3084 287 
Q 2609 -91 1734 -91 
Q 1441 -91 1130 -33 
Q 819 25 488 141 
L 488 750 
Q 750 597 1062 519 
Q 1375 441 1716 441 
Q 2309 441 2620 675 
Q 2931 909 2931 1356 
Q 2931 1769 2642 2001 
Q 2353 2234 1838 2234 
L 1294 2234 
L 1294 2753 
L 1863 2753 
Q 2328 2753 2575 2939 
Q 2822 3125 2822 3475 
Q 2822 3834 2567 4026 
Q 2313 4219 1838 4219 
Q 1578 4219 1281 4162 
Q 984 4106 628 3988 
L 628 4550 
Q 988 4650 1302 4700 
Q 1616 4750 1894 4750 
Q 2613 4750 3031 4423 
Q 3450 4097 3450 3541 
Q 3450 3153 3228 2886 
Q 3006 2619 2597 2516 
z
" transform="scale(0.015625)"/>
       </defs>
       <use xlink:href="#DejaVuSans-31" transform="translate(0 0.765625)"/>
       <use xlink:href="#DejaVuSans-30" transform="translate(63.623047 0.765625)"/>
       <use xlink:href="#DejaVuSans-2212" transform="translate(128.203125 39.046875) scale(0.7)"/>
       <use xlink:href="#DejaVuSans-33" transform="translate(186.855469 39.046875) scale(0.7)"/>
      </g>
     </g>
    </g>
    <g id="ytick_3">
     <g id="line2d_9">
      <g>
       <use xlink:href="#m8087c7dbec" x="58.01375" y="38.165729" style="stroke: #000000; stroke-width: 0.8"/>
      </g>
     </g>
     <g id="text_10">
      <!-- $\mathdefault{10^{-1}}$ -->
      <g transform="translate(22.81375 42.724792) scale(0.12 -0.12)">
       <use xlink:href="#DejaVuSans-31" transform="translate(0 0.684375)"/>
       <use xlink:href="#DejaVuSans-30" transform="translate(63.623047 0.684375)"/>
       <use xlink:href="#DejaVuSans-2212" transform="translate(128.203125 38.965625) scale(0.7)"/>
       <use xlink:href="#DejaVuSans-31" transform="translate(186.855469 38.965625) scale(0.7)"/>
      </g>
     </g>
    </g>
    <g id="text_11">
     <!-- Rank-one Distance -->
     <g transform="translate(16.318125 133.0725) rotate(-90) scale(0.12 -0.12)">
      <defs>
       <path id="DejaVuSans-52" d="M 2841 2188 
Q 3044 2119 3236 1894 
Q 3428 1669 3622 1275 
L 4263 0 
L 3584 0 
L 2988 1197 
Q 2756 1666 2539 1819 
Q 2322 1972 1947 1972 
L 1259 1972 
L 1259 0 
L 628 0 
L 628 4666 
L 2053 4666 
Q 2853 4666 3247 4331 
Q 3641 3997 3641 3322 
Q 3641 2881 3436 2590 
Q 3231 2300 2841 2188 
z
M 1259 4147 
L 1259 2491 
L 2053 2491 
Q 2509 2491 2742 2702 
Q 2975 2913 2975 3322 
Q 2975 3731 2742 3939 
Q 2509 4147 2053 4147 
L 1259 4147 
z
" transform="scale(0.015625)"/>
       <path id="DejaVuSans-6e" d="M 3513 2113 
L 3513 0 
L 2938 0 
L 2938 2094 
Q 2938 2591 2744 2837 
Q 2550 3084 2163 3084 
Q 1697 3084 1428 2787 
Q 1159 2491 1159 1978 
L 1159 0 
L 581 0 
L 581 3500 
L 1159 3500 
L 1159 2956 
Q 1366 3272 1645 3428 
Q 1925 3584 2291 3584 
Q 2894 3584 3203 3211 
Q 3513 2838 3513 2113 
z
" transform="scale(0.015625)"/>
       <path id="DejaVuSans-6b" d="M 581 4863 
L 1159 4863 
L 1159 1991 
L 2875 3500 
L 3609 3500 
L 1753 1863 
L 3688 0 
L 2938 0 
L 1159 1709 
L 1159 0 
L 581 0 
L 581 4863 
z
" transform="scale(0.015625)"/>
       <path id="DejaVuSans-2d" d="M 313 2009 
L 1997 2009 
L 1997 1497 
L 313 1497 
L 313 2009 
z
" transform="scale(0.015625)"/>
       <path id="DejaVuSans-44" d="M 1259 4147 
L 1259 519 
L 2022 519 
Q 2988 519 3436 956 
Q 3884 1394 3884 2338 
Q 3884 3275 3436 3711 
Q 2988 4147 2022 4147 
L 1259 4147 
z
M 628 4666 
L 1925 4666 
Q 3281 4666 3915 4102 
Q 4550 3538 4550 2338 
Q 4550 1131 3912 565 
Q 3275 0 1925 0 
L 628 0 
L 628 4666 
z
" transform="scale(0.015625)"/>
       <path id="DejaVuSans-69" d="M 603 3500 
L 1178 3500 
L 1178 0 
L 603 0 
L 603 3500 
z
M 603 4863 
L 1178 4863 
L 1178 4134 
L 603 4134 
L 603 4863 
z
" transform="scale(0.015625)"/>
       <path id="DejaVuSans-74" d="M 1172 4494 
L 1172 3500 
L 2356 3500 
L 2356 3053 
L 1172 3053 
L 1172 1153 
Q 1172 725 1289 603 
Q 1406 481 1766 481 
L 2356 481 
L 2356 0 
L 1766 0 
Q 1100 0 847 248 
Q 594 497 594 1153 
L 594 3053 
L 172 3053 
L 172 3500 
L 594 3500 
L 594 4494 
L 1172 4494 
z
" transform="scale(0.015625)"/>
       <path id="DejaVuSans-63" d="M 3122 3366 
L 3122 2828 
Q 2878 2963 2633 3030 
Q 2388 3097 2138 3097 
Q 1578 3097 1268 2742 
Q 959 2388 959 1747 
Q 959 1106 1268 751 
Q 1578 397 2138 397 
Q 2388 397 2633 464 
Q 2878 531 3122 666 
L 3122 134 
Q 2881 22 2623 -34 
Q 2366 -91 2075 -91 
Q 1284 -91 818 406 
Q 353 903 353 1747 
Q 353 2603 823 3093 
Q 1294 3584 2113 3584 
Q 2378 3584 2631 3529 
Q 2884 3475 3122 3366 
z
" transform="scale(0.015625)"/>
      </defs>
      <use xlink:href="#DejaVuSans-52"/>
      <use xlink:href="#DejaVuSans-61" x="67.232422"/>
      <use xlink:href="#DejaVuSans-6e" x="128.511719"/>
      <use xlink:href="#DejaVuSans-6b" x="191.890625"/>
      <use xlink:href="#DejaVuSans-2d" x="249.800781"/>
      <use xlink:href="#DejaVuSans-6f" x="287.759766"/>
      <use xlink:href="#DejaVuSans-6e" x="348.941406"/>
      <use xlink:href="#DejaVuSans-65" x="412.320312"/>
      <use xlink:href="#DejaVuSans-20" x="473.84375"/>
      <use xlink:href="#DejaVuSans-44" x="505.630859"/>
      <use xlink:href="#DejaVuSans-69" x="582.632812"/>
      <use xlink:href="#DejaVuSans-73" x="610.416016"/>
      <use xlink:href="#DejaVuSans-74" x="662.515625"/>
      <use xlink:href="#DejaVuSans-61" x="701.724609"/>
      <use xlink:href="#DejaVuSans-6e" x="763.003906"/>
      <use xlink:href="#DejaVuSans-63" x="826.382812"/>
      <use xlink:href="#DejaVuSans-65" x="881.363281"/>
     </g>
    </g>
   </g>
   <g id="line2d_10">
    <path d="M 70.695568 13.5 
L 72.677102 14.772231 
L 76.64017 17.718967 
L 80.603239 20.949274 
L 82.584773 22.033011 
L 84.566307 23.359374 
L 88.529375 25.579189 
L 92.492443 26.712687 
L 94.473977 27.907416 
L 96.455511 28.662975 
L 98.437045 29.216112 
L 100.41858 30.474907 
L 102.400114 31.270003 
L 106.363182 32.414816 
L 108.344716 32.811133 
L 110.32625 33.338125 
L 114.289318 34.672203 
L 118.252386 36.760445 
L 120.23392 37.324767 
L 122.215455 37.577788 
L 126.178523 38.594869 
L 128.160057 38.776838 
L 130.141591 39.534384 
L 132.123125 40.670424 
L 134.104659 41.463329 
L 136.086193 42.859077 
L 138.067727 42.806909 
L 140.049261 42.53917 
L 144.01233 44.02676 
L 145.993864 45.662838 
L 149.956932 46.38755 
L 151.938466 46.14205 
L 153.92 46.049846 
L 155.901534 45.78901 
L 157.883068 46.191189 
L 159.864602 46.437922 
L 161.846136 47.18376 
L 167.790739 46.942561 
L 169.772273 47.112474 
L 171.753807 46.096219 
L 173.735341 47.380731 
L 175.716875 47.535067 
L 177.698409 49.323718 
L 179.679943 49.344576 
L 181.661477 50.309142 
L 183.643011 51.040639 
L 185.624545 51.152514 
L 187.60608 53.654873 
L 189.587614 55.029271 
L 191.569148 54.865803 
L 193.550682 56.656336 
L 195.532216 58.73073 
L 197.51375 56.786054 
L 199.495284 56.42979 
L 201.476818 56.682785 
L 203.458352 55.937723 
L 205.439886 56.530474 
L 207.42142 57.3258 
L 209.402955 58.815718 
L 211.384489 60.60656 
L 213.366023 61.164461 
L 215.347557 61.902969 
L 217.329091 62.430608 
L 219.310625 62.066138 
L 221.292159 61.107499 
L 223.273693 61.076907 
L 225.255227 59.665264 
L 227.236761 60.647616 
L 229.218295 60.126399 
L 231.19983 59.041764 
L 233.181364 56.772236 
L 235.162898 58.603747 
L 237.144432 59.377256 
L 239.125966 59.792495 
L 243.089034 59.225427 
L 245.070568 61.094306 
L 249.033636 61.759802 
L 251.01517 59.759387 
L 252.996705 60.103559 
L 254.978239 59.61411 
L 256.959773 60.317018 
L 258.941307 59.944195 
L 260.922841 60.860838 
L 262.904375 60.462218 
L 264.885909 60.196723 
L 266.867443 59.786824 
L 268.848977 63.948956 
L 270.830511 63.849083 
L 272.812045 64.783861 
L 274.79358 63.712126 
L 276.775114 65.202787 
L 278.756648 64.254295 
L 280.738182 68.232742 
L 282.719716 68.366499 
L 284.70125 66.621031 
L 286.682784 68.348608 
L 288.664318 69.5279 
L 290.645852 71.038191 
L 292.627386 72.858264 
L 294.60892 73.316501 
L 296.590455 74.155993 
L 298.571989 76.292164 
L 300.553523 76.438071 
L 302.535057 77.026621 
L 304.516591 78.052406 
L 306.498125 80.538007 
L 308.479659 79.200472 
L 310.461193 80.191887 
L 312.442727 78.531537 
L 314.424261 82.446179 
L 316.405795 83.054558 
L 318.38733 84.916566 
L 320.368864 85.73018 
L 322.350398 86.773637 
L 324.331932 87.22168 
L 324.331932 87.22168 
" clip-path="url(#pfe940714a4)" style="fill: none; stroke-dasharray: 5.55,2.4; stroke-dashoffset: 0; stroke: #55c667; stroke-width: 1.5"/>
   </g>
   <g id="line2d_11">
    <path d="M 70.695568 13.5 
L 72.677102 19.244317 
L 74.658636 23.982197 
L 82.584773 47.374621 
L 84.566307 52.667033 
L 90.510909 70.684455 
L 92.492443 74.811111 
L 94.473977 80.240432 
L 96.455511 86.460974 
L 98.437045 91.622411 
L 100.41858 97.258731 
L 102.400114 102.101162 
L 104.381648 109.210207 
L 106.363182 113.499096 
L 108.344716 118.314649 
L 110.32625 122.400852 
L 112.307784 128.631281 
L 114.289318 131.667816 
L 116.270852 135.454083 
L 118.252386 135.452969 
L 120.23392 136.636162 
L 122.215455 136.987012 
L 126.178523 137.889651 
L 130.141591 137.614706 
L 132.123125 138.1636 
L 134.104659 137.913763 
L 136.086193 138.684095 
L 138.067727 137.216482 
L 140.049261 137.193481 
L 142.030795 137.015294 
L 144.01233 138.288472 
L 145.993864 137.313896 
L 147.975398 138.637427 
L 149.956932 137.418456 
L 151.938466 138.519192 
L 153.92 138.624258 
L 155.901534 137.211975 
L 159.864602 138.224749 
L 161.846136 136.831755 
L 163.82767 137.933484 
L 165.809205 139.5 
L 167.790739 137.401482 
L 169.772273 138.112446 
L 171.753807 138.297341 
L 173.735341 138.813471 
L 175.716875 138.108036 
L 177.698409 137.238436 
L 179.679943 137.425056 
L 181.661477 138.361566 
L 183.643011 137.724193 
L 185.624545 137.985253 
L 187.60608 138.554647 
L 189.587614 137.390547 
L 191.569148 138.229811 
L 193.550682 136.666492 
L 195.532216 137.84333 
L 197.51375 137.273734 
L 199.495284 138.079918 
L 201.476818 137.572562 
L 203.458352 138.264206 
L 205.439886 138.082693 
L 207.42142 138.632484 
L 209.402955 138.341117 
L 211.384489 136.659616 
L 213.366023 137.427818 
L 215.347557 137.004909 
L 217.329091 137.640526 
L 219.310625 136.07358 
L 221.292159 136.42238 
L 223.273693 138.96493 
L 225.255227 137.131174 
L 227.236761 138.14823 
L 229.218295 138.201605 
L 231.19983 136.503522 
L 233.181364 138.453067 
L 235.162898 137.539378 
L 237.144432 137.055949 
L 239.125966 138.01984 
L 241.1075 138.063852 
L 243.089034 137.399056 
L 245.070568 137.236021 
L 247.052102 137.615398 
L 249.033636 137.548788 
L 251.01517 138.649315 
L 252.996705 137.415198 
L 254.978239 138.980191 
L 256.959773 138.241342 
L 258.941307 138.567313 
L 260.922841 137.617625 
L 262.904375 137.961843 
L 264.885909 138.001979 
L 266.867443 137.35149 
L 268.848977 138.394366 
L 270.830511 137.709647 
L 272.812045 138.014892 
L 274.79358 137.311638 
L 276.775114 137.400962 
L 278.756648 137.254264 
L 280.738182 138.414409 
L 282.719716 136.983985 
L 284.70125 137.914166 
L 286.682784 136.517087 
L 288.664318 137.980342 
L 290.645852 138.323305 
L 292.627386 138.821661 
L 294.60892 137.268281 
L 296.590455 138.49857 
L 298.571989 138.418892 
L 300.553523 137.940605 
L 302.535057 136.854992 
L 304.516591 137.589999 
L 306.498125 138.075592 
L 308.479659 138.248322 
L 310.461193 137.275148 
L 312.442727 138.757215 
L 314.424261 138.087428 
L 316.405795 137.273623 
L 318.38733 138.246405 
L 320.368864 137.09212 
L 322.350398 137.869494 
L 324.331932 135.068862 
L 324.331932 135.068862 
" clip-path="url(#pfe940714a4)" style="fill: none; stroke-dasharray: 5.55,2.4; stroke-dashoffset: 0; stroke: #404788; stroke-width: 1.5"/>
   </g>
   <g id="line2d_12">
    <path d="M 70.695568 13.5 
L 72.677102 14.299474 
L 74.658636 14.815607 
L 76.64017 15.146417 
L 78.621705 15.655735 
L 80.603239 15.689291 
L 82.584773 15.950633 
L 84.566307 16.045883 
L 86.547841 16.325344 
L 92.492443 16.513136 
L 94.473977 16.79043 
L 96.455511 16.895079 
L 100.41858 17.511115 
L 108.344716 18.054214 
L 110.32625 18.24026 
L 112.307784 18.90916 
L 114.289318 18.439723 
L 116.270852 18.565928 
L 118.252386 18.822981 
L 120.23392 19.509858 
L 122.215455 19.180453 
L 124.196989 19.237809 
L 126.178523 19.082509 
L 128.160057 19.645054 
L 130.141591 19.807518 
L 132.123125 19.736301 
L 134.104659 20.15184 
L 136.086193 20.756768 
L 138.067727 20.806165 
L 140.049261 20.731747 
L 142.030795 21.061365 
L 144.01233 21.177806 
L 145.993864 21.543589 
L 147.975398 21.46583 
L 149.956932 22.248713 
L 153.92 21.006967 
L 155.901534 21.332834 
L 157.883068 21.7779 
L 161.846136 21.175145 
L 165.809205 22.289944 
L 167.790739 21.922527 
L 169.772273 22.370467 
L 171.753807 22.048963 
L 173.735341 21.525993 
L 175.716875 21.408021 
L 179.679943 22.000942 
L 181.661477 22.070557 
L 183.643011 22.316225 
L 185.624545 21.551624 
L 187.60608 22.349153 
L 189.587614 22.328765 
L 191.569148 23.015333 
L 193.550682 22.97759 
L 195.532216 23.16815 
L 197.51375 22.397377 
L 199.495284 22.608292 
L 201.476818 23.14458 
L 203.458352 23.410245 
L 205.439886 22.700436 
L 207.42142 22.636719 
L 209.402955 23.007296 
L 211.384489 23.116479 
L 213.366023 23.786269 
L 215.347557 23.125294 
L 217.329091 24.083897 
L 219.310625 23.733758 
L 221.292159 23.549003 
L 223.273693 22.619097 
L 225.255227 22.751505 
L 227.236761 23.245885 
L 229.218295 23.180866 
L 231.19983 22.652175 
L 235.162898 23.159047 
L 239.125966 23.07429 
L 241.1075 22.748284 
L 243.089034 22.586989 
L 247.052102 22.999212 
L 251.01517 22.591976 
L 252.996705 23.876677 
L 256.959773 23.298222 
L 258.941307 23.358331 
L 260.922841 23.841771 
L 262.904375 23.437602 
L 264.885909 23.269609 
L 266.867443 23.80439 
L 268.848977 23.08801 
L 270.830511 23.3066 
L 272.812045 23.981309 
L 274.79358 23.26057 
L 276.775114 22.911147 
L 278.756648 22.697785 
L 280.738182 23.594972 
L 282.719716 23.136926 
L 286.682784 23.553535 
L 288.664318 23.42903 
L 292.627386 23.415047 
L 294.60892 23.188995 
L 296.590455 23.240115 
L 298.571989 22.391836 
L 300.553523 23.256758 
L 302.535057 23.802355 
L 304.516591 23.254822 
L 306.498125 22.905502 
L 308.479659 23.1576 
L 310.461193 23.63915 
L 312.442727 24.398723 
L 314.424261 23.497369 
L 316.405795 23.109584 
L 318.38733 22.97498 
L 320.368864 22.639798 
L 322.350398 23.267617 
L 324.331932 22.726397 
L 324.331932 22.726397 
" clip-path="url(#pfe940714a4)" style="fill: none; stroke: #55c667; stroke-width: 1.5; stroke-linecap: square"/>
   </g>
   <g id="line2d_13">
    <path d="M 70.695568 13.5 
L 72.677102 16.875267 
L 74.658636 18.203675 
L 76.64017 18.608429 
L 78.621705 18.395606 
L 80.603239 18.617576 
L 82.584773 18.167956 
L 84.566307 18.191588 
L 86.547841 17.886556 
L 88.529375 18.606798 
L 92.492443 18.096935 
L 94.473977 18.188797 
L 96.455511 18.081868 
L 98.437045 18.311978 
L 100.41858 18.022516 
L 108.344716 17.600247 
L 110.32625 18.041796 
L 112.307784 18.095223 
L 114.289318 17.912776 
L 120.23392 18.081409 
L 122.215455 17.732806 
L 124.196989 17.870603 
L 132.123125 17.89226 
L 134.104659 17.897946 
L 136.086193 17.737252 
L 140.049261 17.853487 
L 142.030795 17.88895 
L 144.01233 17.519761 
L 145.993864 17.957694 
L 147.975398 18.221093 
L 149.956932 17.588231 
L 151.938466 17.712814 
L 153.92 17.991957 
L 155.901534 17.743346 
L 157.883068 17.916357 
L 163.82767 18.080977 
L 165.809205 17.548121 
L 167.790739 17.939497 
L 169.772273 18.123097 
L 171.753807 17.817529 
L 173.735341 17.973781 
L 175.716875 17.795075 
L 177.698409 18.07317 
L 181.661477 17.616804 
L 183.643011 17.719238 
L 187.60608 17.613844 
L 189.587614 17.714882 
L 191.569148 17.609467 
L 195.532216 17.824854 
L 197.51375 17.59615 
L 199.495284 17.645929 
L 201.476818 17.883416 
L 203.458352 17.68392 
L 209.402955 17.498494 
L 213.366023 17.68276 
L 215.347557 17.729594 
L 217.329091 17.606167 
L 221.292159 18.065417 
L 223.273693 17.836021 
L 225.255227 18.148149 
L 227.236761 17.64788 
L 229.218295 17.531635 
L 231.19983 17.987195 
L 233.181364 17.811275 
L 243.089034 17.772736 
L 245.070568 18.027152 
L 247.052102 17.550526 
L 249.033636 18.057822 
L 251.01517 18.23487 
L 252.996705 18.00102 
L 254.978239 17.553728 
L 256.959773 17.861151 
L 258.941307 17.851152 
L 260.922841 17.696543 
L 264.885909 17.80098 
L 266.867443 18.157422 
L 268.848977 17.83833 
L 270.830511 17.942031 
L 272.812045 17.901024 
L 274.79358 17.514598 
L 276.775114 17.989131 
L 280.738182 17.669561 
L 282.719716 17.857057 
L 284.70125 17.720898 
L 288.664318 17.950483 
L 290.645852 17.639614 
L 292.627386 17.682943 
L 296.590455 17.482971 
L 298.571989 17.769333 
L 300.553523 17.627253 
L 302.535057 17.990363 
L 304.516591 17.756691 
L 306.498125 17.962099 
L 308.479659 17.907964 
L 310.461193 17.718401 
L 312.442727 17.785754 
L 314.424261 17.539114 
L 318.38733 17.793313 
L 320.368864 17.454009 
L 322.350398 17.829216 
L 324.331932 17.212781 
L 324.331932 17.212781 
" clip-path="url(#pfe940714a4)" style="fill: none; stroke: #404788; stroke-width: 1.5; stroke-linecap: square"/>
   </g>
   <g id="patch_3">
    <path d="M 58.01375 145.8 
L 58.01375 7.2 
" style="fill: none; stroke: #000000; stroke-width: 0.8; stroke-linejoin: miter; stroke-linecap: square"/>
   </g>
   <g id="patch_4">
    <path d="M 337.01375 145.8 
L 337.01375 7.2 
" style="fill: none; stroke: #000000; stroke-width: 0.8; stroke-linejoin: miter; stroke-linecap: square"/>
   </g>
   <g id="patch_5">
    <path d="M 58.01375 145.8 
L 337.01375 145.8 
" style="fill: none; stroke: #000000; stroke-width: 0.8; stroke-linejoin: miter; stroke-linecap: square"/>
   </g>
   <g id="patch_6">
    <path d="M 58.01375 7.2 
L 337.01375 7.2 
" style="fill: none; stroke: #000000; stroke-width: 0.8; stroke-linejoin: miter; stroke-linecap: square"/>
   </g>
   <g id="legend_1">
    <g id="patch_7">
     <path d="M 66.41375 95.91375 
L 258.498125 95.91375 
Q 260.898125 95.91375 260.898125 93.51375 
L 260.898125 59.48625 
Q 260.898125 57.08625 258.498125 57.08625 
L 66.41375 57.08625 
Q 64.01375 57.08625 64.01375 59.48625 
L 64.01375 93.51375 
Q 64.01375 95.91375 66.41375 95.91375 
z
" style="fill: #ffffff; opacity: 0.8; stroke: #cccccc; stroke-linejoin: miter"/>
    </g>
    <g id="line2d_14">
     <path d="M 68.81375 66.804375 
L 80.81375 66.804375 
L 92.81375 66.804375 
" style="fill: none; stroke-dasharray: 5.55,2.4; stroke-dashoffset: 0; stroke: #55c667; stroke-width: 1.5"/>
    </g>
    <g id="text_12">
     <!-- GCN -->
     <g transform="translate(102.41375 71.004375) scale(0.12 -0.12)">
      <defs>
       <path id="DejaVuSans-47" d="M 3809 666 
L 3809 1919 
L 2778 1919 
L 2778 2438 
L 4434 2438 
L 4434 434 
Q 4069 175 3628 42 
Q 3188 -91 2688 -91 
Q 1594 -91 976 548 
Q 359 1188 359 2328 
Q 359 3472 976 4111 
Q 1594 4750 2688 4750 
Q 3144 4750 3555 4637 
Q 3966 4525 4313 4306 
L 4313 3634 
Q 3963 3931 3569 4081 
Q 3175 4231 2741 4231 
Q 1884 4231 1454 3753 
Q 1025 3275 1025 2328 
Q 1025 1384 1454 906 
Q 1884 428 2741 428 
Q 3075 428 3337 486 
Q 3600 544 3809 666 
z
" transform="scale(0.015625)"/>
       <path id="DejaVuSans-43" d="M 4122 4306 
L 4122 3641 
Q 3803 3938 3442 4084 
Q 3081 4231 2675 4231 
Q 1875 4231 1450 3742 
Q 1025 3253 1025 2328 
Q 1025 1406 1450 917 
Q 1875 428 2675 428 
Q 3081 428 3442 575 
Q 3803 722 4122 1019 
L 4122 359 
Q 3791 134 3420 21 
Q 3050 -91 2638 -91 
Q 1578 -91 968 557 
Q 359 1206 359 2328 
Q 359 3453 968 4101 
Q 1578 4750 2638 4750 
Q 3056 4750 3426 4639 
Q 3797 4528 4122 4306 
z
" transform="scale(0.015625)"/>
      </defs>
      <use xlink:href="#DejaVuSans-47"/>
      <use xlink:href="#DejaVuSans-43" x="77.490234"/>
      <use xlink:href="#DejaVuSans-4e" x="147.314453"/>
     </g>
    </g>
    <g id="line2d_15">
     <path d="M 68.81375 84.418125 
L 80.81375 84.418125 
L 92.81375 84.418125 
" style="fill: none; stroke-dasharray: 5.55,2.4; stroke-dashoffset: 0; stroke: #404788; stroke-width: 1.5"/>
    </g>
    <g id="text_13">
     <!-- SAGE -->
     <g transform="translate(102.41375 88.618125) scale(0.12 -0.12)">
      <defs>
       <path id="DejaVuSans-53" d="M 3425 4513 
L 3425 3897 
Q 3066 4069 2747 4153 
Q 2428 4238 2131 4238 
Q 1616 4238 1336 4038 
Q 1056 3838 1056 3469 
Q 1056 3159 1242 3001 
Q 1428 2844 1947 2747 
L 2328 2669 
Q 3034 2534 3370 2195 
Q 3706 1856 3706 1288 
Q 3706 609 3251 259 
Q 2797 -91 1919 -91 
Q 1588 -91 1214 -16 
Q 841 59 441 206 
L 441 856 
Q 825 641 1194 531 
Q 1563 422 1919 422 
Q 2459 422 2753 634 
Q 3047 847 3047 1241 
Q 3047 1584 2836 1778 
Q 2625 1972 2144 2069 
L 1759 2144 
Q 1053 2284 737 2584 
Q 422 2884 422 3419 
Q 422 4038 858 4394 
Q 1294 4750 2059 4750 
Q 2388 4750 2728 4690 
Q 3069 4631 3425 4513 
z
" transform="scale(0.015625)"/>
       <path id="DejaVuSans-41" d="M 2188 4044 
L 1331 1722 
L 3047 1722 
L 2188 4044 
z
M 1831 4666 
L 2547 4666 
L 4325 0 
L 3669 0 
L 3244 1197 
L 1141 1197 
L 716 0 
L 50 0 
L 1831 4666 
z
" transform="scale(0.015625)"/>
       <path id="DejaVuSans-45" d="M 628 4666 
L 3578 4666 
L 3578 4134 
L 1259 4134 
L 1259 2753 
L 3481 2753 
L 3481 2222 
L 1259 2222 
L 1259 531 
L 3634 531 
L 3634 0 
L 628 0 
L 628 4666 
z
" transform="scale(0.015625)"/>
      </defs>
      <use xlink:href="#DejaVuSans-53"/>
      <use xlink:href="#DejaVuSans-41" x="65.351562"/>
      <use xlink:href="#DejaVuSans-47" x="132.009766"/>
      <use xlink:href="#DejaVuSans-45" x="209.5"/>
     </g>
    </g>
    <g id="line2d_16">
     <path d="M 159.13625 66.804375 
L 171.13625 66.804375 
L 183.13625 66.804375 
" style="fill: none; stroke: #55c667; stroke-width: 1.5; stroke-linecap: square"/>
    </g>
    <g id="text_14">
     <!-- MRS-GCN -->
     <g transform="translate(192.73625 71.004375) scale(0.12 -0.12)">
      <defs>
       <path id="DejaVuSans-4d" d="M 628 4666 
L 1569 4666 
L 2759 1491 
L 3956 4666 
L 4897 4666 
L 4897 0 
L 4281 0 
L 4281 4097 
L 3078 897 
L 2444 897 
L 1241 4097 
L 1241 0 
L 628 0 
L 628 4666 
z
" transform="scale(0.015625)"/>
      </defs>
      <use xlink:href="#DejaVuSans-4d"/>
      <use xlink:href="#DejaVuSans-52" x="86.279297"/>
      <use xlink:href="#DejaVuSans-53" x="155.761719"/>
      <use xlink:href="#DejaVuSans-2d" x="219.238281"/>
      <use xlink:href="#DejaVuSans-47" x="258.947266"/>
      <use xlink:href="#DejaVuSans-43" x="336.4375"/>
      <use xlink:href="#DejaVuSans-4e" x="406.261719"/>
     </g>
    </g>
    <g id="line2d_17">
     <path d="M 159.13625 84.418125 
L 171.13625 84.418125 
L 183.13625 84.418125 
" style="fill: none; stroke: #404788; stroke-width: 1.5; stroke-linecap: square"/>
    </g>
    <g id="text_15">
     <!-- MRS-SAGE -->
     <g transform="translate(192.73625 88.618125) scale(0.12 -0.12)">
      <use xlink:href="#DejaVuSans-4d"/>
      <use xlink:href="#DejaVuSans-52" x="86.279297"/>
      <use xlink:href="#DejaVuSans-53" x="155.761719"/>
      <use xlink:href="#DejaVuSans-2d" x="219.238281"/>
      <use xlink:href="#DejaVuSans-53" x="255.322266"/>
      <use xlink:href="#DejaVuSans-41" x="320.673828"/>
      <use xlink:href="#DejaVuSans-47" x="387.332031"/>
      <use xlink:href="#DejaVuSans-45" x="464.822266"/>
     </g>
    </g>
   </g>
  </g>
 </g>
 <defs>
  <clipPath id="pfe940714a4">
   <rect x="58.01375" y="7.2" width="279" height="138.6"/>
  </clipPath>
 </defs>
</svg>
